<svg xmlns="http://www.w3.org/2000/svg" viewBox="0 0 15.63 30"><defs><style>.cls-1{fill:#999;}</style></defs><title>jbhjbn3Asset 2</title><g id="Layer_2" data-name="Layer 2"><g id="content"><path class="cls-1" d="M7.81,25a1.71,1.71,0,1,0,1.72,1.71A1.71,1.71,0,0,0,7.81,25Zm0,2.86A1.15,1.15,0,1,1,9,26.71,1.15,1.15,0,0,1,7.81,27.86Z"/><path class="cls-1" d="M8.29,3A.28.28,0,0,0,8,2.67H4.8A.27.27,0,0,0,4.52,3a.28.28,0,0,0,.28.28H8A.29.29,0,0,0,8.29,3Z"/><path class="cls-1" d="M10.83,2.67h-.75A.28.28,0,0,0,9.79,3a.29.29,0,0,0,.29.28h.75A.28.28,0,0,0,11.11,3,.27.27,0,0,0,10.83,2.67Z"/><path class="cls-1" d="M13.7,0H1.93A1.92,1.92,0,0,0,0,1.93V28.07A1.92,1.92,0,0,0,1.93,30H13.7a1.93,1.93,0,0,0,1.93-1.93V1.93A1.93,1.93,0,0,0,13.7,0Zm1.36,28.07a1.36,1.36,0,0,1-1.36,1.36H1.93A1.36,1.36,0,0,1,.57,28.07V1.93A1.36,1.36,0,0,1,1.93.57H13.7a1.36,1.36,0,0,1,1.36,1.36Z"/></g></g></svg>