<svg xmlns="http://www.w3.org/2000/svg" xmlns:xlink="http://www.w3.org/1999/xlink" viewBox="0 0 224.48 241.83"><defs><style>.cls-1{fill:url(#linear-gradient);}.cls-2{fill:#6d6e71;}.cls-3{fill:#bcbec0;}.cls-4{fill:#e6e7e8;}.cls-5{fill:#a7a9ac;}.cls-6{fill:#939598;}.cls-7{fill:#d1d3d4;}.cls-8{fill:#808285;}.cls-9{fill:#58595b;}.cls-10{fill:#00ffa3;}.cls-11{fill:#d31654;}.cls-12{fill:#231f20;opacity:0.3;}</style><linearGradient id="linear-gradient" x1="112.24" x2="112.24" y2="241.83" gradientUnits="userSpaceOnUse"><stop offset="0" stop-color="#f1f2f2"/><stop offset="0.37" stop-color="#eeefef"/><stop offset="0.69" stop-color="#e3e4e5"/><stop offset="1" stop-color="#d1d3d4"/><stop offset="1" stop-color="#d1d3d4"/></linearGradient></defs><title>jbhjbn3Asset 5</title><g id="Layer_2" data-name="Layer 2"><g id="content"><path class="cls-1" d="M84,7.57,27.8,40A55.61,55.61,0,0,0,0,88.16v66.5a53.7,53.7,0,0,0,26.85,46.51l57.48,33.18a55.83,55.83,0,0,0,55.82,0l57.48-33.18a53.7,53.7,0,0,0,26.85-46.51V88.16A55.61,55.61,0,0,0,196.68,40L140.49,7.57A56.51,56.51,0,0,0,84,7.57Z"/><path class="cls-2" d="M88.77,2.46a.41.41,0,0,1,.23.07l36.16,21.3c.8.48,1,2.27,1,3V96.54c0,.44,0,1.63-.66,1.83h0L71.9,113.68h-.06a.75.75,0,0,1-.33-.11L35.36,92.28c-.8-.47-1-2.26-1-3V19.57a3.52,3.52,0,0,1,.17-1.2c.1-.31.23-.57.46-.63L88.62,2.48l.15,0m0-2a2.25,2.25,0,0,0-.72.11L34.43,15.81a2.68,2.68,0,0,0-1.84,1.93,5.43,5.43,0,0,0-.27,1.83V89.29c0,.59.1,3.59,2,4.72L70.5,115.3a2.56,2.56,0,0,0,1.34.39,2.61,2.61,0,0,0,.48,0l.07,0,.06,0,53.62-15.3.17,0,.09,0c.89-.36,1.86-1.29,1.86-3.67V26.82c0-.59-.1-3.57-2-4.71L90,.81A2.41,2.41,0,0,0,88.77.46Z"/><path class="cls-2" d="M88.77,79.42a.43.43,0,0,1,.23.08l36.16,21.3c.8.47,1,2.27,1,3v69.72c0,.44,0,1.63-.66,1.83h0L71.9,190.65h-.06a.75.75,0,0,1-.33-.11l-36.15-21.3c-.8-.47-1-2.27-1-3V96.54a3.49,3.49,0,0,1,.17-1.2c.1-.31.23-.57.46-.63L88.62,79.45a.4.4,0,0,1,.15,0m0-2a2.57,2.57,0,0,0-.72.11L34.43,92.78a2.68,2.68,0,0,0-1.84,1.93,5.37,5.37,0,0,0-.27,1.83v69.72c0,.59.1,3.59,2,4.72L70.5,192.27a2.66,2.66,0,0,0,1.34.39,2,2,0,0,0,.48-.06h.07l.06,0,53.62-15.3.17-.05.09,0c.89-.36,1.86-1.3,1.86-3.67V103.79c0-.59-.1-3.58-2-4.71L90,77.78a2.42,2.42,0,0,0-1.25-.36Z"/><path class="cls-3" d="M35.36,94.72,71.51,116c.8.47,1,2.27,1,3v69.72a3.74,3.74,0,0,1-.16,1.2c-.16.45-.33.89-.87.58l-36.15-21.3c-.8-.47-1-2.27-1-3V96.5a3.75,3.75,0,0,1,.17-1.2C34.64,94.85,34.84,94.49,35.36,94.72Z"/><path class="cls-4" d="M35,94.66a.58.58,0,0,1,.39.06h0L71.51,116c.8.47,1,2.27,1,3v69.72h0a3.75,3.75,0,0,1-.17,1.2c-.11.29-.21.59-.42.66l0,0h0l53.61-15.31h0c.6-.2.65-1.4.65-1.83V103.75c0-.72-.23-2.52-1-3L89,79.46a.43.43,0,0,0-.38-.06L34.9,94.68Z"/><polygon class="cls-3" points="79.71 130.44 119.75 119.05 119.75 112.97 119.75 112.34 78.98 123.94 78.98 130.65 79.71 130.44"/><polygon class="cls-5" points="79.71 131.08 120.48 119.48 119.75 119.05 78.98 130.65 79.71 131.08"/><polygon class="cls-6" points="78.98 130.65 78.98 123.94 79.71 124.36 79.71 131.08 78.98 130.65"/><polygon class="cls-6" points="119.75 119.05 119.75 112.34 120.48 112.77 120.48 119.48 119.75 119.05"/><polygon class="cls-5" points="79.71 124.36 120.48 112.77 119.75 112.34 78.98 123.94 79.71 124.36"/><polygon class="cls-3" points="79.71 147.13 119.75 135.74 119.75 129.66 119.75 129.03 78.98 140.63 78.98 147.34 79.71 147.13"/><polygon class="cls-5" points="79.71 147.76 120.48 136.16 119.75 135.74 78.98 147.34 79.71 147.76"/><polygon class="cls-7" points="78.98 147.34 78.98 140.63 79.71 141.05 79.71 147.76 78.98 147.34"/><polygon class="cls-6" points="119.75 135.74 119.75 129.03 120.48 129.45 120.48 136.17 119.75 135.74"/><polygon class="cls-5" points="79.71 141.05 120.48 129.45 119.75 129.03 78.98 140.63 79.71 141.05"/><polygon class="cls-3" points="79.71 161.44 119.75 150.04 119.75 143.97 119.75 143.33 78.98 154.93 78.98 161.64 79.71 161.44"/><polygon class="cls-5" points="79.71 155.36 120.48 143.76 119.75 143.33 78.98 154.93 79.71 155.36"/><polygon class="cls-5" points="79.71 162.07 120.48 150.47 119.75 150.04 78.98 161.64 79.71 162.07"/><polygon class="cls-7" points="78.98 161.64 78.98 154.93 79.71 155.36 79.71 162.07 78.98 161.64"/><polygon class="cls-7" points="119.75 150.04 119.75 143.33 120.48 143.76 120.48 150.47 119.75 150.04"/><polygon class="cls-5" points="65.23 129.6 39.49 114.44 39.49 106.78 39.49 104.9 67.38 121.33 67.38 130.87 65.23 129.6"/><polygon class="cls-6" points="37.34 115.05 39.49 114.44 67.38 130.87 65.23 131.48 37.34 115.05"/><polygon class="cls-8" points="65.23 121.94 67.38 121.33 67.38 130.87 65.23 131.48 65.23 121.94"/><polygon class="cls-8" points="37.34 105.52 39.49 104.9 39.49 114.44 37.34 115.05 37.34 105.52"/><path class="cls-9" d="M42.59,111.5c0,1-.52,2.55-1.34,1.49a4,4,0,0,1-.73-2.71c0-1,.52-2.55,1.33-1.49A4,4,0,0,1,42.59,111.5Z"/><path class="cls-9" d="M46.72,113.93c0,1-.52,2.55-1.33,1.5a4,4,0,0,1-.74-2.72c0-1,.52-2.55,1.34-1.49A4.06,4.06,0,0,1,46.72,113.93Z"/><path class="cls-9" d="M50.85,116.37c0,1-.51,2.55-1.33,1.49a4,4,0,0,1-.74-2.71c0-1,.52-2.55,1.34-1.5A4,4,0,0,1,50.85,116.37Z"/><polygon class="cls-10" points="63.25 126.05 54.98 121.18 54.98 116.42 63.25 121.28 63.25 126.05"/><polygon class="cls-6" points="37.34 105.52 39.49 104.9 67.38 121.33 65.23 121.94 37.34 105.52"/><polygon class="cls-5" points="65.23 146.28 39.49 131.11 39.49 123.45 39.49 121.58 67.38 138 67.38 147.54 65.23 146.28"/><polygon class="cls-6" points="37.34 131.72 39.49 131.11 67.38 147.54 65.23 148.15 37.34 131.72"/><polygon class="cls-3" points="65.23 138.61 67.38 138 67.38 147.54 65.23 148.15 65.23 138.61"/><polygon class="cls-8" points="37.34 122.19 39.49 121.58 39.49 131.11 37.34 131.72 37.34 122.19"/><path class="cls-10" d="M42.59,128.17c0,1-.52,2.55-1.34,1.49a4,4,0,0,1-.73-2.71c0-1,.52-2.55,1.33-1.49A4,4,0,0,1,42.59,128.17Z"/><path class="cls-11" d="M46.72,130.6c0,1-.52,2.55-1.33,1.5a4,4,0,0,1-.74-2.71c0-1,.52-2.56,1.34-1.5A4.06,4.06,0,0,1,46.72,130.6Z"/><path class="cls-9" d="M50.85,133c0,1-.51,2.55-1.33,1.49a4,4,0,0,1-.74-2.71c0-1,.52-2.55,1.34-1.5A4,4,0,0,1,50.85,133Z"/><polygon class="cls-9" points="63.25 142.72 54.98 137.85 54.98 133.09 63.25 137.95 63.25 142.72"/><polygon class="cls-6" points="37.34 122.19 39.49 121.58 67.38 138 65.23 138.61 37.34 122.19"/><polygon class="cls-7" points="65.23 162.98 39.49 147.82 39.49 140.16 39.49 138.28 67.38 154.71 67.38 164.25 65.23 162.98"/><polygon class="cls-4" points="37.34 148.43 39.49 147.82 67.38 164.25 65.23 164.86 37.34 148.43"/><polygon class="cls-3" points="65.23 155.32 67.38 154.71 67.38 164.25 65.23 164.86 65.23 155.32"/><polygon class="cls-3" points="37.34 138.89 39.49 138.28 39.49 147.82 37.34 148.43 37.34 138.89"/><path class="cls-3" d="M42.59,144.88c0,1-.52,2.55-1.34,1.49a4,4,0,0,1-.73-2.71c0-1,.52-2.55,1.33-1.5A4,4,0,0,1,42.59,144.88Z"/><path class="cls-3" d="M46.72,147.31c0,1-.52,2.55-1.33,1.5a4,4,0,0,1-.74-2.72c0-1,.52-2.55,1.34-1.49A4.06,4.06,0,0,1,46.72,147.31Z"/><path class="cls-3" d="M50.85,149.74c0,1-.51,2.56-1.33,1.5a4,4,0,0,1-.74-2.71c0-1,.52-2.55,1.34-1.5A4,4,0,0,1,50.85,149.74Z"/><polygon class="cls-3" points="63.25 159.43 54.98 154.56 54.98 149.79 63.25 154.66 63.25 159.43"/><polygon class="cls-4" points="37.34 138.89 39.49 138.28 67.38 154.71 65.23 155.32 37.34 138.89"/><path class="cls-9" d="M88.57,125.3c-.51-.34-.24-.75.27-.93a.3.3,0,0,1,.26,0c3.12,1.83,3.25,5.94,3.3,8.81,0,1.65,0,3.29,0,4.94,0,1.17-.21,3.82-1.82,4.28a2.28,2.28,0,0,1-2-.44.52.52,0,0,1,.53-.9c2,1.23,2.2-1.06,2.3-2.66s.08-3.11.06-4.67C91.43,131.19,91.45,127,88.57,125.3Z"/><path class="cls-9" d="M84.28,126.5c-.51-.34-.24-.74.26-.92a.29.29,0,0,1,.27,0c3.11,1.83,3.25,5.94,3.3,8.81,0,1.64,0,3.29,0,4.93,0,1.17-.21,3.82-1.82,4.28a2.24,2.24,0,0,1-2-.44.52.52,0,0,1,.53-.9c2,1.24,2.2-1,2.29-2.65s.08-3.12.07-4.68C87.13,132.4,87.16,128.19,84.28,126.5Z"/><path class="cls-3" d="M112.91,140.4l36.15,21.3c.8.47,1,2.27,1,3v69.72a3.79,3.79,0,0,1-.17,1.2c-.15.45-.33.89-.87.57l-36.15-21.29c-.8-.47-1-2.27-1-3V142.18A3.81,3.81,0,0,1,112,141C112.19,140.52,112.39,140.17,112.91,140.4Z"/><path class="cls-4" d="M112.51,140.34a.62.62,0,0,1,.4.06h0l36.15,21.3c.8.47,1,2.27,1,3v69.72h0a3.81,3.81,0,0,1-.17,1.21c-.1.29-.21.58-.42.66h0L203.07,221h0c.61-.2.65-1.4.65-1.84V149.43c0-.73-.23-2.53-1-3l-36.16-21.29a.4.4,0,0,0-.38-.06l-53.71,15.28Z"/><polygon class="cls-3" points="157.26 176.12 197.3 164.72 197.3 158.65 197.3 158.01 156.53 169.61 156.53 176.32 157.26 176.12"/><polygon class="cls-5" points="157.26 176.75 198.03 165.15 197.3 164.72 156.53 176.32 157.26 176.75"/><polygon class="cls-6" points="156.53 176.32 156.53 169.61 157.26 170.04 157.26 176.75 156.53 176.32"/><polygon class="cls-6" points="197.3 164.72 197.3 158.01 198.03 158.44 198.03 165.15 197.3 164.72"/><polygon class="cls-5" points="157.26 170.04 198.03 158.44 197.3 158.01 156.53 169.61 157.26 170.04"/><polygon class="cls-3" points="157.26 192.81 197.3 181.41 197.3 175.34 197.3 174.7 156.53 186.3 156.53 193.01 157.26 192.81"/><polygon class="cls-5" points="157.26 193.44 198.03 181.84 197.3 181.41 156.53 193.01 157.26 193.44"/><polygon class="cls-6" points="156.53 193.01 156.53 186.3 157.26 186.73 157.26 193.44 156.53 193.01"/><polygon class="cls-6" points="197.3 181.41 197.3 174.7 198.03 175.13 198.03 181.84 197.3 181.41"/><polygon class="cls-5" points="157.26 186.73 198.03 175.13 197.3 174.7 156.53 186.3 157.26 186.73"/><polygon class="cls-3" points="157.26 207.11 197.3 195.72 197.3 189.64 197.3 189.01 156.53 200.61 156.53 207.32 157.26 207.11"/><polygon class="cls-5" points="157.26 207.75 198.03 196.15 197.3 195.72 156.53 207.32 157.26 207.75"/><polygon class="cls-6" points="156.53 207.32 156.53 200.61 157.26 201.04 157.26 207.75 156.53 207.32"/><polygon class="cls-6" points="197.3 195.72 197.3 189.01 198.03 189.44 198.03 196.15 197.3 195.72"/><polygon class="cls-5" points="157.26 201.04 198.03 189.44 197.3 189.01 156.53 200.61 157.26 201.04"/><polygon class="cls-5" points="142.78 175.28 117.04 160.12 117.04 152.46 117.04 150.58 144.93 167.01 144.93 176.55 142.78 175.28"/><polygon class="cls-6" points="114.89 160.73 117.04 160.12 144.93 176.55 142.78 177.16 114.89 160.73"/><polygon class="cls-8" points="142.78 167.62 144.93 167.01 144.93 176.55 142.78 177.16 142.78 167.62"/><polygon class="cls-8" points="114.89 151.19 117.04 150.58 117.04 160.12 114.89 160.73 114.89 151.19"/><path class="cls-11" d="M120.14,157.18c0,1-.52,2.55-1.34,1.49a4.06,4.06,0,0,1-.73-2.71c0-1,.52-2.55,1.34-1.5A4.08,4.08,0,0,1,120.14,157.18Z"/><path class="cls-9" d="M124.27,159.61c0,1-.52,2.55-1.33,1.49a4,4,0,0,1-.74-2.71c0-1,.52-2.55,1.34-1.49A4,4,0,0,1,124.27,159.61Z"/><path class="cls-10" d="M128.4,162c0,1-.51,2.55-1.33,1.5a4,4,0,0,1-.73-2.71c0-1,.51-2.56,1.33-1.5A4,4,0,0,1,128.4,162Z"/><polygon class="cls-9" points="140.8 171.73 132.53 166.86 132.53 162.09 140.8 166.96 140.8 171.73"/><polygon class="cls-6" points="114.89 151.19 117.04 150.58 144.93 167.01 142.78 167.62 114.89 151.19"/><polygon class="cls-5" points="142.78 191.95 117.04 176.79 117.04 169.13 117.04 167.25 144.93 183.68 144.93 193.22 142.78 191.95"/><polygon class="cls-6" points="114.89 177.4 117.04 176.79 144.93 193.22 142.78 193.83 114.89 177.4"/><polygon class="cls-8" points="142.78 184.29 144.93 183.68 144.93 193.22 142.78 193.83 142.78 184.29"/><polygon class="cls-8" points="114.89 167.86 117.04 167.25 117.04 176.79 114.89 177.4 114.89 167.86"/><path class="cls-9" d="M120.14,173.85c0,1-.52,2.55-1.34,1.49a4.06,4.06,0,0,1-.73-2.71c0-1,.52-2.55,1.34-1.5A4.09,4.09,0,0,1,120.14,173.85Z"/><path class="cls-9" d="M124.27,176.28c0,1-.52,2.55-1.33,1.5a4,4,0,0,1-.74-2.72c0-1,.52-2.55,1.34-1.49A4,4,0,0,1,124.27,176.28Z"/><path class="cls-9" d="M128.4,178.71c0,1-.51,2.56-1.33,1.5a4,4,0,0,1-.73-2.71c0-1,.51-2.55,1.33-1.5A4,4,0,0,1,128.4,178.71Z"/><polygon class="cls-10" points="140.8 188.4 132.53 183.53 132.53 178.76 140.8 183.63 140.8 188.4"/><polygon class="cls-6" points="114.89 167.86 117.04 167.25 144.93 183.68 142.78 184.29 114.89 167.86"/><polygon class="cls-5" points="142.78 208.66 117.04 193.5 117.04 185.83 117.04 183.96 144.93 200.39 144.93 209.93 142.78 208.66"/><polygon class="cls-6" points="114.89 194.11 117.04 193.5 144.93 209.93 142.78 210.53 114.89 194.11"/><polygon class="cls-8" points="142.78 201 144.93 200.39 144.93 209.93 142.78 210.53 142.78 201"/><polygon class="cls-8" points="114.89 184.57 117.04 183.96 117.04 193.5 114.89 194.11 114.89 184.57"/><path class="cls-9" d="M120.14,190.55c0,1-.52,2.56-1.34,1.5a4.06,4.06,0,0,1-.73-2.71c0-1,.52-2.55,1.34-1.5A4.06,4.06,0,0,1,120.14,190.55Z"/><path class="cls-9" d="M124.27,193c0,1-.52,2.55-1.33,1.49a4,4,0,0,1-.74-2.71c0-1,.52-2.55,1.34-1.5A4.05,4.05,0,0,1,124.27,193Z"/><path class="cls-11" d="M128.4,195.42c0,1-.51,2.55-1.33,1.5a4,4,0,0,1-.73-2.72c0-1,.51-2.55,1.33-1.49A4,4,0,0,1,128.4,195.42Z"/><polygon class="cls-9" points="140.8 205.11 132.53 200.24 132.53 195.47 140.8 200.34 140.8 205.11"/><polygon class="cls-6" points="114.89 184.57 117.04 183.96 144.93 200.39 142.78 201 114.89 184.57"/><path class="cls-9" d="M166.12,171c-.51-.34-.23-.75.27-.93a.3.3,0,0,1,.26,0c3.12,1.83,3.25,5.94,3.3,8.81,0,1.65,0,3.29,0,4.93,0,1.18-.21,3.83-1.82,4.28a2.28,2.28,0,0,1-2-.43.52.52,0,1,1,.53-.9c2,1.23,2.2-1.06,2.3-2.66s.08-3.12.06-4.68C169,176.87,169,172.66,166.12,171Z"/><path class="cls-9" d="M161.83,172.18c-.51-.34-.24-.75.27-.92a.27.27,0,0,1,.26,0c3.12,1.83,3.25,5.94,3.3,8.82,0,1.64,0,3.28,0,4.93,0,1.17-.21,3.82-1.82,4.28a2.28,2.28,0,0,1-2-.44.52.52,0,0,1,.53-.9c2,1.23,2.2-1.06,2.3-2.65s.08-3.12.06-4.68C164.69,178.08,164.71,173.87,161.83,172.18Z"/><path class="cls-3" d="M90.23,195.82V214.9c0,7.18-14.23,13-31.79,13s-31.8-5.82-31.8-13V195.82c0-7.18,14.24-13,31.8-13S90.23,188.64,90.23,195.82Z"/><ellipse class="cls-7" cx="58.44" cy="195.82" rx="31.79" ry="13.01"/><ellipse class="cls-12" cx="58.44" cy="194.81" rx="30.53" ry="12.21"/><path class="cls-3" d="M90.23,171.87V191c0,7.19-14.23,13-31.79,13s-31.8-5.82-31.8-13V171.87c0-7.18,14.24-13,31.8-13S90.23,164.69,90.23,171.87Z"/><ellipse class="cls-7" cx="58.44" cy="171.88" rx="31.79" ry="13.01"/><ellipse class="cls-12" cx="58.44" cy="171.23" rx="30.53" ry="12.21"/><path class="cls-3" d="M90.23,147.93V167c0,7.18-14.23,13-31.79,13s-31.8-5.83-31.8-13V147.93c0-7.18,14.24-13,31.8-13S90.23,140.75,90.23,147.93Z"/><ellipse class="cls-4" cx="58.44" cy="147.93" rx="31.79" ry="13.01"/><path class="cls-2" d="M58.44,134.93a76.71,76.71,0,0,1,8.32.44c.89.1,1.76.22,2.61.34h0c1,.15,1.93.32,2.85.49s1.83.38,2.7.6l1.3.34c1.26.35,2.46.74,3.59,1.16h0c.28.1.55.2.82.32h0l.8.33s1.91.88,2.74,1.35l.82.49c.42.26.82.53,1.19.8a14.18,14.18,0,0,1,1.53,1.28,7.09,7.09,0,0,1,2.5,5V167a5.72,5.72,0,0,1-.56,2.44,5.71,5.71,0,0,1,.56,2.43V191a5.72,5.72,0,0,1-.56,2.44,5.64,5.64,0,0,1,.56,2.43V214.9c0,7.18-14.23,13-31.79,13s-31.8-5.82-31.8-13V195.82a5.64,5.64,0,0,1,.56-2.43,5.72,5.72,0,0,1-.56-2.44V171.87a5.71,5.71,0,0,1,.56-2.43,5.72,5.72,0,0,1-.56-2.44V147.93a5.72,5.72,0,0,1,.5-2.31,7.75,7.75,0,0,1,.5-.94h0c.14-.2.28-.41.43-.6h0c.12-.16.25-.3.37-.45h0c.14-.14.27-.29.41-.44l.3-.29a15.37,15.37,0,0,1,2-1.58c.14-.11.29-.21.44-.31l1-.58h0l.91-.49.49-.25c.48-.24,1-.47,1.51-.7q1.32-.55,2.79-1c.67-.23,1.37-.45,2.09-.66l1.9-.5,1.23-.28c1.24-.27,2.54-.51,3.87-.72l.38-.05c.85-.13,1.7-.24,2.57-.33a77,77,0,0,1,8.19-.43m0-2a78,78,0,0,0-8.4.44c-.9.1-1.76.21-2.65.34h0l-.26,0H47c-1.47.24-2.77.48-4,.74l-.4.1c-.3.06-.6.13-.89.21l-1.94.5c-.74.22-1.48.45-2.2.69-1,.35-2,.72-2.93,1.11-.54.24-1.08.48-1.61.74l0,0,0,0-.42.22-.54.29h0l-.33.19-.09,0-1,.57v.06l-.05,0-.51.35a17.61,17.61,0,0,0-2.19,1.78c-.12.11-.26.25-.38.38l-.2.22-.19.2-.55.57v.1l-.37.48v0l-.08.13-.35.51v.08c-.12.23-.23.45-.33.67a7.78,7.78,0,0,0-.67,3.12V167a7.62,7.62,0,0,0,.41,2.44,7.56,7.56,0,0,0-.41,2.43V191a7.62,7.62,0,0,0,.41,2.44,7.51,7.51,0,0,0-.41,2.43V214.9c0,8.55,14.53,15,33.8,15s33.79-6.45,33.79-15V195.82a7.51,7.51,0,0,0-.41-2.43,7.62,7.62,0,0,0,.41-2.44V171.87a7.56,7.56,0,0,0-.41-2.43,7.62,7.62,0,0,0,.41-2.44V147.92a9,9,0,0,0-3.12-6.49A14.58,14.58,0,0,0,87.38,140c-.47-.34-.9-.63-1.32-.89,0,0-.6-.37-.9-.54a22.07,22.07,0,0,0-3-1.42v0l-.06,0-.76-.31-.36-.15h0l-.53-.2-.33-.12h0c-1.09-.39-2.24-.76-3.41-1.09l-.38-.09-.95-.25c-.88-.22-1.8-.43-2.82-.63s-2-.37-2.94-.51l-.15,0h0c-1-.14-1.78-.24-2.53-.33a79.19,79.19,0,0,0-8.54-.45Z"/><path class="cls-2" d="M166.32,125.06a.43.43,0,0,1,.23.08l36.16,21.29c.8.48,1,2.28,1,3v69.72c0,.44,0,1.64-.65,1.84h0l-53.62,15.3h-.07a.64.64,0,0,1-.32-.11l-36.15-21.29c-.8-.47-1-2.27-1-3V142.18A3.58,3.58,0,0,1,112,141c.1-.3.23-.57.46-.63l53.67-15.25a.4.4,0,0,1,.15,0m0-2a2.64,2.64,0,0,0-.73.11L112,138.41a2.7,2.7,0,0,0-1.84,1.93,5.46,5.46,0,0,0-.27,1.84v69.71c0,.59.1,3.59,2,4.72l36.16,21.3a2.49,2.49,0,0,0,1.82.33h.07l.06,0,53.62-15.3.17,0,.09-.05c.89-.36,1.85-1.29,1.85-3.67V149.42c0-.58-.09-3.57-2-4.71l-36.16-21.3a2.51,2.51,0,0,0-1.25-.35Z"/><polygon class="cls-12" points="37.67 95.06 71.79 115.05 122.77 100.71 88.82 80.81 37.67 95.06"/><path class="cls-3" d="M35.36,17.8,71.51,39.1c.8.47,1,2.27,1,3v69.72a3.78,3.78,0,0,1-.16,1.2c-.16.45-.33.89-.87.57L35.36,92.29c-.8-.47-1-2.27-1-3V19.58a3.81,3.81,0,0,1,.17-1.21C34.64,17.92,34.84,17.57,35.36,17.8Z"/><path class="cls-4" d="M35,17.74a.58.58,0,0,1,.39.06h0L71.51,39.1c.8.47,1,2.27,1,3v69.72h0a3.81,3.81,0,0,1-.17,1.21c-.11.29-.21.58-.42.66h0l53.61-15.3h0c.6-.2.65-1.4.65-1.84V26.83c0-.73-.23-2.53-1-3L89,2.54a.4.4,0,0,0-.38-.06L34.9,17.76Z"/><polygon class="cls-3" points="79.71 53.52 119.75 42.13 119.75 36.05 119.75 35.41 78.98 47.01 78.98 53.72 79.71 53.52"/><polygon class="cls-5" points="79.71 54.15 120.48 42.55 119.75 42.13 78.98 53.72 79.71 54.15"/><polygon class="cls-6" points="78.98 53.72 78.98 47.01 79.71 47.44 79.71 54.15 78.98 53.72"/><polygon class="cls-6" points="119.75 42.13 119.75 35.41 120.48 35.84 120.48 42.55 119.75 42.13"/><polygon class="cls-5" points="79.71 47.44 120.48 35.84 119.75 35.41 78.98 47.01 79.71 47.44"/><polygon class="cls-3" points="79.71 70.21 119.75 58.81 119.75 52.74 119.75 52.1 78.98 63.7 78.98 70.41 79.71 70.21"/><polygon class="cls-5" points="79.71 70.84 120.48 59.24 119.75 58.81 78.98 70.41 79.71 70.84"/><polygon class="cls-6" points="78.98 70.41 78.98 63.7 79.71 64.13 79.71 70.84 78.98 70.41"/><polygon class="cls-6" points="119.75 58.81 119.75 52.1 120.48 52.53 120.48 59.24 119.75 58.81"/><polygon class="cls-5" points="79.71 64.13 120.48 52.53 119.75 52.1 78.98 63.7 79.71 64.13"/><polygon class="cls-3" points="79.71 84.51 119.75 73.12 119.75 67.04 119.75 66.41 78.98 78.01 78.98 84.72 79.71 84.51"/><polygon class="cls-5" points="79.71 85.15 120.48 73.55 119.75 73.12 78.98 84.72 79.71 85.15"/><polygon class="cls-6" points="78.98 84.72 78.98 78.01 79.71 78.44 79.71 85.15 78.98 84.72"/><polygon class="cls-6" points="119.75 73.12 119.75 66.41 120.48 66.84 120.48 73.55 119.75 73.12"/><polygon class="cls-5" points="79.71 78.44 120.48 66.84 119.75 66.41 78.98 78.01 79.71 78.44"/><polygon class="cls-5" points="65.23 52.68 39.49 37.52 39.49 29.86 39.49 27.98 67.38 44.41 67.38 53.95 65.23 52.68"/><polygon class="cls-6" points="37.34 38.13 39.49 37.52 67.38 53.95 65.23 54.56 37.34 38.13"/><polygon class="cls-8" points="65.23 45.02 67.38 44.41 67.38 53.95 65.23 54.56 65.23 45.02"/><polygon class="cls-8" points="37.34 28.59 39.49 27.98 39.49 37.52 37.34 38.13 37.34 28.59"/><path class="cls-9" d="M42.59,34.58c0,1-.52,2.55-1.34,1.49a4,4,0,0,1-.73-2.71c0-1,.52-2.55,1.33-1.5A4,4,0,0,1,42.59,34.58Z"/><path class="cls-10" d="M46.72,37c0,1-.52,2.55-1.33,1.49a4,4,0,0,1-.74-2.71c0-1,.52-2.55,1.34-1.49A4.06,4.06,0,0,1,46.72,37Z"/><path class="cls-9" d="M50.85,39.44c0,1-.51,2.55-1.33,1.5a4,4,0,0,1-.74-2.71c0-1,.52-2.56,1.34-1.5A4,4,0,0,1,50.85,39.44Z"/><polygon class="cls-9" points="63.25 49.13 54.98 44.26 54.98 39.49 63.25 44.36 63.25 49.13"/><polygon class="cls-6" points="37.34 28.59 39.49 27.98 67.38 44.41 65.23 45.02 37.34 28.59"/><polygon class="cls-5" points="65.23 69.35 39.49 54.19 39.49 46.53 39.49 44.65 67.38 61.08 67.38 70.62 65.23 69.35"/><polygon class="cls-6" points="37.34 54.8 39.49 54.19 67.38 70.62 65.23 71.23 37.34 54.8"/><polygon class="cls-8" points="65.23 61.69 67.38 61.08 67.38 70.62 65.23 71.23 65.23 61.69"/><polygon class="cls-8" points="37.34 45.26 39.49 44.65 39.49 54.19 37.34 54.8 37.34 45.26"/><path class="cls-9" d="M42.59,51.25c0,1-.52,2.55-1.34,1.49A4,4,0,0,1,40.52,50c0-1,.52-2.55,1.33-1.5A4,4,0,0,1,42.59,51.25Z"/><path class="cls-10" d="M46.72,53.68c0,1-.52,2.55-1.33,1.5a4,4,0,0,1-.74-2.72c0-1,.52-2.55,1.34-1.49A4.06,4.06,0,0,1,46.72,53.68Z"/><path class="cls-11" d="M50.85,56.11c0,1-.51,2.56-1.33,1.5a4,4,0,0,1-.74-2.71c0-1,.52-2.55,1.34-1.5A4,4,0,0,1,50.85,56.11Z"/><polygon class="cls-9" points="63.25 65.8 54.98 60.93 54.98 56.16 63.25 61.03 63.25 65.8"/><polygon class="cls-6" points="37.34 45.26 39.49 44.65 67.38 61.08 65.23 61.69 37.34 45.26"/><polygon class="cls-5" points="65.23 86.06 39.49 70.9 39.49 63.23 39.49 61.36 67.38 77.79 67.38 87.33 65.23 86.06"/><polygon class="cls-6" points="37.34 71.51 39.49 70.9 67.38 87.33 65.23 87.94 37.34 71.51"/><polygon class="cls-8" points="65.23 78.4 67.38 77.79 67.38 87.33 65.23 87.94 65.23 78.4"/><polygon class="cls-8" points="37.34 61.97 39.49 61.36 39.49 70.9 37.34 71.51 37.34 61.97"/><path class="cls-9" d="M42.59,68c0,1-.52,2.56-1.34,1.5a4,4,0,0,1-.73-2.71c0-1,.52-2.55,1.33-1.5A4,4,0,0,1,42.59,68Z"/><path class="cls-9" d="M46.72,70.39c0,1-.52,2.55-1.33,1.49a4,4,0,0,1-.74-2.71c0-1,.52-2.55,1.34-1.5A4.11,4.11,0,0,1,46.72,70.39Z"/><path class="cls-9" d="M50.85,72.82c0,1-.51,2.55-1.33,1.5a4,4,0,0,1-.74-2.72c0-1,.52-2.55,1.34-1.49A4,4,0,0,1,50.85,72.82Z"/><polygon class="cls-10" points="63.25 82.51 54.98 77.64 54.98 72.87 63.25 77.74 63.25 82.51"/><polygon class="cls-6" points="37.34 61.97 39.49 61.36 67.38 77.79 65.23 78.4 37.34 61.97"/><path class="cls-9" d="M88.57,48.38c-.51-.34-.24-.75.27-.93a.3.3,0,0,1,.26,0c3.12,1.83,3.25,5.94,3.3,8.81,0,1.65,0,3.29,0,4.93,0,1.18-.21,3.83-1.82,4.28a2.28,2.28,0,0,1-2-.43.52.52,0,1,1,.53-.9c2,1.23,2.2-1.06,2.3-2.66s.08-3.12.06-4.68C91.43,54.27,91.45,50.06,88.57,48.38Z"/><path class="cls-9" d="M84.28,49.58c-.51-.34-.24-.75.26-.92a.29.29,0,0,1,.27,0c3.11,1.83,3.25,5.94,3.3,8.82,0,1.64,0,3.28,0,4.93,0,1.17-.21,3.82-1.82,4.28a2.27,2.27,0,0,1-2-.44.52.52,0,0,1,.53-.9c2,1.23,2.2-1.06,2.29-2.65s.08-3.12.07-4.68C87.13,55.48,87.16,51.27,84.28,49.58Z"/></g></g></svg>