<svg xmlns="http://www.w3.org/2000/svg" xmlns:xlink="http://www.w3.org/1999/xlink" viewBox="0 0 224.48 244.63"><defs><style>.cls-1{fill:url(#linear-gradient);}.cls-2{fill:#bcbec0;}.cls-11,.cls-3{fill:#d1d3d4;}.cls-10,.cls-4{fill:#a7a9ac;}.cls-12,.cls-13,.cls-18,.cls-19,.cls-20,.cls-5,.cls-8{fill:none;}.cls-5{stroke:#00ffa3;}.cls-12,.cls-18,.cls-19,.cls-20,.cls-5,.cls-8{stroke-linecap:round;}.cls-13,.cls-18,.cls-19,.cls-20,.cls-5,.cls-8{stroke-miterlimit:10;}.cls-6{fill:#939598;}.cls-7{opacity:0.3;}.cls-8{stroke:#58595b;}.cls-18,.cls-19,.cls-20,.cls-8{stroke-width:2px;}.cls-9{fill:#6d6e71;}.cls-10,.cls-15{opacity:0.8;}.cls-11,.cls-14{opacity:0.9;}.cls-12{stroke:#d31654;stroke-linejoin:round;stroke-dasharray:1 2;}.cls-12,.cls-13{stroke-width:0.25px;}.cls-13{stroke:#e6e7e8;}.cls-16{fill:#58595b;}.cls-17{fill:#fff;}.cls-18{stroke:#939598;}.cls-19{stroke:#a7a9ac;}.cls-20{stroke:#6d6e71;}</style><linearGradient id="linear-gradient" x1="112.24" y1="2.8" x2="112.24" y2="244.63" gradientUnits="userSpaceOnUse"><stop offset="0" stop-color="#f1f2f2"/><stop offset="0.37" stop-color="#eeefef"/><stop offset="0.69" stop-color="#e3e4e5"/><stop offset="1" stop-color="#d1d3d4"/><stop offset="1" stop-color="#d1d3d4"/></linearGradient></defs><title>jbhjbn3Asset 6</title><g id="Layer_2" data-name="Layer 2"><g id="content"><path class="cls-1" d="M84,10.37,27.8,42.81A55.61,55.61,0,0,0,0,91v66.5A53.68,53.68,0,0,0,26.85,204l57.48,33.19a55.83,55.83,0,0,0,55.82,0L197.63,204a53.68,53.68,0,0,0,26.85-46.5V91a55.61,55.61,0,0,0-27.8-48.15L140.49,10.37A56.46,56.46,0,0,0,84,10.37Z"/><path class="cls-2" d="M188.41,229.05c-1.06,0-5.19-5-6.24-5.55L70.76,157.23c-5.56-3.15-5.63-12.82-5.63-13.23V8c0-1.42-4.87-1.4-4.12-3.43C62.2,1.3,66.34-.27,73.38,0A20.54,20.54,0,0,1,82.32,2.8L194.9,66.39c5.57,3.15,5.63,12.83,5.63,13.24V208a23.91,23.91,0,0,1-1.92,10.46C194.86,226.29,191.07,229.05,188.41,229.05Z"/><path class="cls-3" d="M188.21,229.05a6.55,6.55,0,0,1-3.19-.9L65.09,160.4c-5.57-3.14-5.63-12.82-5.63-13.23v-136a15,15,0,0,1,.84-5.34C61.49,2.57,63.45.93,66.11.93a6.47,6.47,0,0,1,3.18.89L189.23,69.57c5.56,3.15,5.63,12.82,5.63,13.23v136a15.09,15.09,0,0,1-.85,5.34C192.82,227.4,190.87,229.05,188.21,229.05Z"/><path class="cls-4" d="M187.13,73.29c2.64,1.49,3.46,7.13,3.46,9.51v136a11,11,0,0,1-.58,3.86c-.54,1.46-1.17,2.71-2.88,1.74L67.19,156.68c-2.65-1.49-3.46-7.12-3.46-9.51v-136a10.81,10.81,0,0,1,.58-3.86c.54-1.47,1.16-2.72,2.88-1.75Z"/><path class="cls-5" d="M179.28,82.06,74.8,23a2.36,2.36,0,0,0-3.51,2.06V49.05a5.68,5.68,0,0,0,2.89,5l104.48,59a2.35,2.35,0,0,0,3.51-2V87A5.68,5.68,0,0,0,179.28,82.06Z"/><path class="cls-6" d="M76.81,49.36a.33.33,0,0,1-.18-.31V30.21l100,56.5a.35.35,0,0,1,.18.3v18.85Z"/><g class="cls-7"><line class="cls-8" x1="71.29" y1="64.34" x2="174.75" y2="122.78"/><line class="cls-8" x1="71.29" y1="70.34" x2="168.05" y2="125"/><line class="cls-8" x1="71.29" y1="76.35" x2="178.69" y2="137.01"/><line class="cls-8" x1="71.29" y1="82.35" x2="178.69" y2="143.02"/><line class="cls-8" x1="71.29" y1="88.36" x2="162.49" y2="140.25"/><line class="cls-8" x1="71.29" y1="94.36" x2="174.75" y2="152.8"/><line class="cls-8" x1="71.29" y1="100.37" x2="182.17" y2="163"/><line class="cls-8" x1="71.29" y1="106.38" x2="182.17" y2="169.01"/><line class="cls-8" x1="71.29" y1="112.38" x2="168.05" y2="167.04"/><line class="cls-8" x1="71.29" y1="118.39" x2="182.17" y2="181.02"/><line class="cls-8" x1="71.29" y1="124.39" x2="182.17" y2="187.03"/><line class="cls-8" x1="71.29" y1="130.4" x2="174.75" y2="188.84"/><line class="cls-8" x1="71.29" y1="136.4" x2="182.17" y2="199.04"/><line class="cls-8" x1="71.29" y1="142.41" x2="178.69" y2="203.07"/><line class="cls-8" x1="71.29" y1="148.42" x2="168.05" y2="203.07"/></g><line class="cls-8" x1="167.63" y1="142.77" x2="71.29" y2="88.36"/><line class="cls-8" x1="167.63" y1="166.79" x2="71.29" y2="112.38"/><line class="cls-8" x1="167.63" y1="184.81" x2="71.29" y2="130.4"/><line class="cls-8" x1="167.63" y1="196.83" x2="71.29" y2="142.4"/><line class="cls-8" x1="122.95" y1="93.52" x2="71.29" y2="64.34"/><line class="cls-8" x1="122.95" y1="105.51" x2="71.29" y2="76.34"/><line class="cls-8" x1="122.95" y1="123.54" x2="71.29" y2="94.36"/><line class="cls-8" x1="122.95" y1="135.64" x2="71.29" y2="106.47"/><line class="cls-8" x1="122.95" y1="165.55" x2="71.29" y2="136.37"/><line class="cls-8" x1="101.13" y1="87.2" x2="71.29" y2="70.34"/><line class="cls-8" x1="101.13" y1="99.22" x2="71.29" y2="82.36"/><line class="cls-8" x1="101.13" y1="141.25" x2="71.29" y2="124.39"/><line class="cls-8" x1="101.13" y1="165.27" x2="71.29" y2="148.41"/><path class="cls-9" d="M45.94,16.27a2.22,2.22,0,0,1,1.08.35L166.63,84.17c2.64,1.49,3.45,7.11,3.45,9.49V229.31a10.76,10.76,0,0,1-.58,3.85c-.4,1.1-.86,2.08-1.79,2.08a2.22,2.22,0,0,1-1.08-.34L47,167.34c-2.63-1.49-3.45-7.11-3.45-9.49V22.2a11,11,0,0,1,.58-3.85c.41-1.1.86-2.08,1.79-2.08m0-2c-2.42,0-3.29,2.38-3.66,3.39a12.77,12.77,0,0,0-.71,4.54V157.85c0,.09.06,8.74,4.47,11.23l119.61,67.56a4.17,4.17,0,0,0,2.06.6c2.42,0,3.3-2.38,3.67-3.39a13,13,0,0,0,.7-4.54V93.66c0-.09-.05-8.73-4.47-11.23L48,14.87a4.21,4.21,0,0,0-2.07-.6Z"/><path class="cls-10" d="M43.57,33.11l126.51,71.46h0V93.66h0c0-2.38-.81-8-3.45-9.49L47,16.62c-1.71-1-2.33.27-2.87,1.73a11,11,0,0,0-.58,3.85h0v10.9Z"/><path class="cls-10" d="M170.08,218.29,43.57,146.84h0v10.92h0c0,2.38.75,8.07,3.39,9.56l119.67,67.6c1.71,1,2.33-.28,2.87-1.74a11.36,11.36,0,0,0,.58-4h0V218.3Z"/><polygon class="cls-11" points="170.09 104.56 170.09 218.29 43.58 146.82 43.58 33.1 170.09 104.56"/><path class="cls-12" d="M50.52,136.94V120.35c0-5-.64-11.55.16-16.58.24-1.49.11-2.9,1.94-3.56a1.48,1.48,0,0,1,1.34.16c3.19,1.78,6.37,3.59,9.55,5.39,2.82,1.59,5.93,2.28,7.49,5.83a16.06,16.06,0,0,1,1.33,6.69v16.59c0,5,.63,11.55-.17,16.58-.23,1.48-.11,2.89-1.93,3.55a1.47,1.47,0,0,1-1.35-.15c-3.19-1.79-6.36-3.6-9.55-5.4-2.81-1.59-5.92-2.28-7.49-5.83A16.13,16.13,0,0,1,50.52,136.94Z"/><path class="cls-2" d="M61.53,145.55c-.76-.42-1.51-.79-2.17-1.11-2.13-1-2.92-1.48-3.42-2.62a11.65,11.65,0,0,1-.95-4.88V120.35c0-1.55-.05-3.19-.11-4.92-.09-2.6-.18-5.25-.08-7.66a1.08,1.08,0,0,1,1.61-.89l4.9,2.78c.76.43,1.51.79,2.18,1.11,2.12,1,2.91,1.49,3.41,2.62a11.54,11.54,0,0,1,.95,4.89v16.59c0,1.55.06,3.18.12,4.91.09,2.6.18,5.25.08,7.66a1.08,1.08,0,0,1-1.61.89Z"/><path class="cls-12" d="M98.2,132.89v16.59c0,5,.64,11.55-.16,16.58-.24,1.49-.11,2.9-1.94,3.56a1.48,1.48,0,0,1-1.34-.16c-3.19-1.78-6.37-3.59-9.55-5.39-2.82-1.59-5.93-2.28-7.49-5.83a16.05,16.05,0,0,1-1.32-6.69V135c0-5-.64-11.55.16-16.58.23-1.48.11-2.89,1.94-3.55a1.45,1.45,0,0,1,1.34.15c3.19,1.79,6.37,3.6,9.55,5.4,2.81,1.59,5.93,2.28,7.49,5.83A16.17,16.17,0,0,1,98.2,132.89Z"/><path class="cls-2" d="M87.41,160.17c-.76-.43-1.48-.78-2.18-1.11-2.12-1-2.91-1.49-3.41-2.62a11.54,11.54,0,0,1-.95-4.89V135c0-1.55-.06-3.18-.12-4.91-.08-2.53-.17-5.11-.08-7.46a1.18,1.18,0,0,1,1.78-1l4.74,2.68c.76.42,1.51.79,2.17,1.11,2.13,1,2.92,1.48,3.42,2.62a11.65,11.65,0,0,1,1,4.88v16.59c0,1.56,0,3.19.11,4.92.09,2.53.18,5.1.09,7.46a1.2,1.2,0,0,1-1.79,1Z"/><path class="cls-12" d="M103.42,166.82V150.23c0-5-.63-11.55.16-16.58.24-1.48.12-2.89,1.94-3.56a1.48,1.48,0,0,1,1.34.16c3.19,1.79,6.37,3.6,9.56,5.4,2.81,1.58,5.92,2.28,7.48,5.82a16.06,16.06,0,0,1,1.33,6.69v16.59c0,5,.63,11.55-.16,16.58-.24,1.48-.12,2.89-1.94,3.56a1.48,1.48,0,0,1-1.34-.16c-3.2-1.79-6.37-3.6-9.56-5.4-2.81-1.59-5.92-2.28-7.48-5.82A16.06,16.06,0,0,1,103.42,166.82Z"/><path class="cls-2" d="M114.43,175.44c-.75-.43-1.51-.8-2.17-1.12-2.13-1-2.92-1.48-3.42-2.62a11.62,11.62,0,0,1-.94-4.88V150.23c0-1.55-.06-3.19-.12-4.92-.08-2.46-.17-5-.09-7.29a1.3,1.3,0,0,1,1.93-1.08l4.6,2.6c.75.43,1.47.78,2.17,1.11,2.13,1,2.92,1.49,3.42,2.63a11.62,11.62,0,0,1,.94,4.88v16.59c0,1.55.06,3.19.12,4.92.08,2.46.17,5,.09,7.29A1.29,1.29,0,0,1,119,178Z"/><path class="cls-12" d="M129.54,182.05V165.46c0-5-.64-63.07.16-68.1.24-1.49.11-2.9,1.94-3.56A1.42,1.42,0,0,1,133,94c3.19,1.78,19.44,11.33,22.63,13.13,2.81,1.58,5.92,2.28,7.48,5.82a16.06,16.06,0,0,1,1.33,6.69v68.11c0,5,.63,11.55-.17,16.58-.23,1.48-.11,2.89-1.93,3.56a1.5,1.5,0,0,1-1.35-.16c-3.19-1.79-19.44-11.33-22.62-13.13-2.81-1.59-5.93-2.28-7.49-5.83A16,16,0,0,1,129.54,182.05Z"/><path class="cls-2" d="M160.18,198.7a2,2,0,0,1-3,1.66l-6.16-3.59c-4.63-2.7-9-5.25-10.52-6.11-.76-.43-1.51-.79-2.17-1.11-2.13-1-2.92-1.48-3.42-2.62a11.65,11.65,0,0,1-1-4.88V165.46c0-.89,0-3.46,0-7.12-.09-11.59-.33-42.85-.07-55.33a2,2,0,0,1,3-1.66l6.06,3.53c4.62,2.7,9,5.24,10.5,6.1.76.43,1.52.79,2.18,1.11,2.13,1,2.91,1.49,3.42,2.63a11.62,11.62,0,0,1,.94,4.88v68.11c0,1.55.06,3.19.12,4.92C160.13,194.66,160.2,196.74,160.18,198.7Z"/><polygon class="cls-13" points="61.98 133.44 63.9 127.52 65.54 135.46 61.98 133.44"/><polyline class="cls-13" points="63.05 130.15 61.62 122.33 58.41 131.43 61.98 133.44"/><polygon class="cls-13" points="87.28 147.74 89.2 141.81 90.84 149.75 87.28 147.74"/><polyline class="cls-13" points="88.35 144.44 86.92 136.62 83.71 145.72 87.28 147.74"/><polygon class="cls-13" points="113.73 162.68 114.8 159.38 113.37 151.56 110.16 160.66 113.73 162.68"/><polyline class="cls-13" points="114.8 159.38 115.66 156.75 117.3 164.69 113.73 162.68"/><polygon class="cls-13" points="146.95 136.72 148.67 131.41 146.37 118.81 141.2 133.47 146.95 136.72"/><polyline class="cls-13" points="148.67 131.41 150.05 127.17 152.7 139.97 146.95 136.72"/><polygon class="cls-13" points="146.95 184.77 148.67 179.46 146.37 166.86 141.2 181.52 146.95 184.77"/><polyline class="cls-13" points="148.67 179.46 150.05 175.22 152.7 188.02 146.95 184.77"/><path class="cls-2" d="M110.32,110.38c-.06-1.73-.11-3.37-.11-4.92V88.87a11.62,11.62,0,0,0-.95-4.88c-.5-1.14-1.29-1.6-3.42-2.62-.69-.34-47.48-26.79-49.43-27.89a1.08,1.08,0,0,0-1.61.89c-.1,2.41,0,5.06.08,7.66.06,1.73.11,3.36.11,4.92V83.53a11.69,11.69,0,0,0,.95,4.89c.5,1.13,1.33,1.81,3.46,2.84.66.32,47.14,26.39,49.08,27.49a1.3,1.3,0,0,0,1.94-1.08C110.49,115.36,110.41,112.84,110.32,110.38Z"/><g class="cls-14"><g class="cls-15"><path class="cls-3" d="M50.69,162.66a1.84,1.84,0,0,1-.95-.28l-6.27-3.54L40.18,157c-.62-.35-1.27-.67-1.9-1-2.18-1-4.44-2.14-5.69-5a16.31,16.31,0,0,1-1.35-6.79V127.66c0-1.47,0-3.07-.11-4.76A67.35,67.35,0,0,1,31.41,111l.09-.63c.15-1.23.31-2.5,2-3.12a1.69,1.69,0,0,1,.6-.12,1.91,1.91,0,0,1,1,.29L41.4,111l3.21,1.82c.63.35,1.28.66,1.91,1,2.18,1,4.44,2.14,5.69,5a16.46,16.46,0,0,1,1.34,6.79v16.59c0,1.47.06,3.07.12,4.75a67.49,67.49,0,0,1-.28,11.87c0,.21-.06.42-.09.63-.15,1.23-.31,2.5-2,3.12A1.66,1.66,0,0,1,50.69,162.66Z"/><path class="cls-16" d="M34.11,107.42a1.71,1.71,0,0,1,.83.26c3.19,1.79,6.37,3.6,9.55,5.4,2.81,1.58,5.93,2.28,7.49,5.82a16.21,16.21,0,0,1,1.32,6.69v16.59c0,5,.64,11.55-.16,16.58-.24,1.48-.11,2.89-1.94,3.56a1.61,1.61,0,0,1-.51.09,1.69,1.69,0,0,1-.83-.25c-3.19-1.79-6.37-3.6-9.55-5.4-2.82-1.59-5.93-2.28-7.49-5.82a16.06,16.06,0,0,1-1.33-6.69V127.66c0-5-.63-11.55.17-16.58.23-1.48.11-2.89,1.94-3.56a1.64,1.64,0,0,1,.51-.1m0-.5h0a2.2,2.2,0,0,0-.69.13c-1.84.67-2,2.08-2.17,3.33,0,.2-.05.41-.09.62a67,67,0,0,0-.28,11.91c.06,1.69.11,3.28.11,4.75v16.59a16.59,16.59,0,0,0,1.37,6.89c1.29,2.92,3.59,4,5.81,5.1.63.3,1.27.61,1.89,1L43.29,159q3.15,1.8,6.33,3.57a2.11,2.11,0,0,0,1.07.32,2.08,2.08,0,0,0,.68-.12c1.85-.68,2-2.09,2.18-3.33,0-.2.05-.41.08-.62a67,67,0,0,0,.29-11.91c-.06-1.69-.12-3.28-.12-4.75V125.59a16.44,16.44,0,0,0-1.37-6.89c-1.28-2.92-3.58-4-5.81-5.1-.62-.3-1.27-.61-1.88-1l-3.24-1.83-6.32-3.57a2.11,2.11,0,0,0-1.07-.32Z"/></g><g class="cls-15"><path class="cls-3" d="M76.56,177.28a1.91,1.91,0,0,1-1-.29l-6.42-3.62-3.13-1.77c-.62-.36-1.27-.67-1.9-1-2.19-1-4.44-2.14-5.69-5a16.28,16.28,0,0,1-1.35-6.79V142.28c0-1.48,0-3.07-.11-4.76a65.48,65.48,0,0,1,.28-11.86c0-.22.06-.43.08-.64.16-1.23.31-2.5,2-3.12a1.86,1.86,0,0,1,.6-.11,1.91,1.91,0,0,1,.95.29l6.3,3.55,3.25,1.84c.62.36,1.27.67,1.9,1,2.19,1.05,4.44,2.14,5.69,5a16.24,16.24,0,0,1,1.35,6.79v16.58c0,1.48,0,3.07.11,4.76a65.48,65.48,0,0,1-.28,11.86c0,.22-.06.43-.08.64-.16,1.23-.31,2.5-2,3.12A1.86,1.86,0,0,1,76.56,177.28Z"/><path class="cls-16" d="M60,122a1.55,1.55,0,0,1,.82.26c3.19,1.78,6.37,3.59,9.56,5.39,2.81,1.59,5.92,2.28,7.48,5.83a16.06,16.06,0,0,1,1.33,6.69v16.58c0,5,.63,11.55-.16,16.58-.24,1.49-.12,2.9-1.94,3.56a1.49,1.49,0,0,1-.52.1,1.64,1.64,0,0,1-.82-.26c-3.2-1.78-6.37-3.59-9.56-5.39-2.81-1.59-5.92-2.28-7.48-5.83a16.06,16.06,0,0,1-1.33-6.69V142.28c0-5-.63-11.55.16-16.58.24-1.49.12-2.9,1.94-3.56A1.45,1.45,0,0,1,60,122m0-.5a1.91,1.91,0,0,0-.69.13c-1.85.67-2,2.08-2.18,3.32,0,.21,0,.42-.08.63a66.09,66.09,0,0,0-.28,11.91c.06,1.69.11,3.28.11,4.75v16.58a16.59,16.59,0,0,0,1.37,6.89c1.28,2.92,3.58,4,5.81,5.1.62.3,1.27.62,1.89,1l3.2,1.81,6.35,3.59a2.17,2.17,0,0,0,1.07.32,1.91,1.91,0,0,0,.69-.13c1.84-.67,2-2.08,2.17-3.32l.09-.63a66.09,66.09,0,0,0,.28-11.91c-.06-1.68-.11-3.28-.11-4.75V140.21a16.59,16.59,0,0,0-1.37-6.89c-1.29-2.92-3.59-4-5.81-5.1-.62-.3-1.27-.62-1.89-1l-3.13-1.78-6.42-3.62a2.17,2.17,0,0,0-1.07-.32Z"/></g><g class="cls-15"><path class="cls-3" d="M103.59,192.55a1.88,1.88,0,0,1-1-.29q-3.19-1.78-6.37-3.6l-3.18-1.8c-.63-.35-1.28-.66-1.91-1-2.18-1-4.44-2.14-5.69-5a16.46,16.46,0,0,1-1.34-6.79V157.54c0-1.47-.06-3.07-.12-4.75a67.47,67.47,0,0,1,.28-11.87c0-.21.06-.42.09-.63.15-1.23.31-2.5,2-3.12a1.66,1.66,0,0,1,.6-.11,1.86,1.86,0,0,1,.95.28l6.34,3.58,3.22,1.82c.62.35,1.27.66,1.9,1,2.18,1,4.44,2.14,5.69,5a16.31,16.31,0,0,1,1.34,6.79v16.59c0,1.47.06,3.07.12,4.76a67.35,67.35,0,0,1-.28,11.86l-.09.63c-.15,1.23-.31,2.5-2,3.12A1.69,1.69,0,0,1,103.59,192.55Z"/><path class="cls-16" d="M87,137.31a1.69,1.69,0,0,1,.83.25c3.19,1.79,6.37,3.6,9.55,5.4,2.82,1.59,5.93,2.28,7.49,5.82a16.05,16.05,0,0,1,1.32,6.69v16.59c0,5,.64,11.55-.16,16.58-.23,1.48-.11,2.89-1.94,3.56a1.64,1.64,0,0,1-.51.1,1.71,1.71,0,0,1-.83-.26c-3.19-1.79-6.37-3.6-9.55-5.4-2.81-1.58-5.93-2.28-7.49-5.82a16.05,16.05,0,0,1-1.32-6.69V157.54c0-5-.64-11.55.16-16.58.23-1.48.11-2.89,1.94-3.56a1.61,1.61,0,0,1,.51-.09m0-.5a2.08,2.08,0,0,0-.68.12c-1.85.68-2,2.08-2.18,3.33,0,.2-.05.41-.08.62a67,67,0,0,0-.29,11.91c.06,1.69.12,3.28.12,4.75v16.59A16.44,16.44,0,0,0,85.27,181c1.28,2.92,3.58,4,5.81,5.1.62.3,1.27.61,1.88,1l3.15,1.78,6.41,3.62a1.91,1.91,0,0,0,1.75.19c1.85-.67,2-2.08,2.18-3.33,0-.2,0-.41.09-.62a68,68,0,0,0,.28-11.91c-.06-1.69-.12-3.28-.12-4.75V155.47a16.59,16.59,0,0,0-1.36-6.89c-1.29-2.92-3.59-4-5.81-5.1-.63-.3-1.28-.61-1.89-1l-3.19-1.8q-3.18-1.8-6.37-3.59a2,2,0,0,0-1.07-.32Z"/></g><g class="cls-15"><path class="cls-3" d="M142.78,215.51a1.88,1.88,0,0,1-.95-.29c-1.7-.95-7-4.07-12.21-7.08-4.59-2.68-8.92-5.21-10.42-6-.62-.35-1.27-.67-1.9-1-2.18-1.05-4.44-2.14-5.69-5a16.23,16.23,0,0,1-1.35-6.78V172.77c0-.89,0-3.45,0-7.09-.14-17-.45-56.89.21-61.05l.09-.64c.15-1.22.31-2.5,2-3.11a1.64,1.64,0,0,1,.6-.12,1.91,1.91,0,0,1,1,.29c1.7,1,7.06,4.08,12.24,7.1,4.57,2.67,8.89,5.19,10.38,6,.63.35,1.28.66,1.91,1,2.18,1,4.44,2.14,5.69,5a16.31,16.31,0,0,1,1.34,6.79V195c0,1.47.06,3.07.12,4.76a67.35,67.35,0,0,1-.28,11.86c0,.21-.06.43-.09.63-.15,1.23-.31,2.5-2,3.12A1.69,1.69,0,0,1,142.78,215.51Z"/><path class="cls-16" d="M113.13,101a1.71,1.71,0,0,1,.83.26c3.19,1.78,19.44,11.33,22.62,13.13,2.81,1.59,5.93,2.28,7.49,5.82a16.05,16.05,0,0,1,1.32,6.69V195c0,5,.64,11.55-.16,16.58-.23,1.48-.11,2.89-1.94,3.56a1.4,1.4,0,0,1-.51.1A1.71,1.71,0,0,1,142,215c-3.19-1.79-19.44-11.33-22.62-13.13-2.82-1.59-5.93-2.28-7.49-5.83a16,16,0,0,1-1.33-6.68V172.77c0-5-.63-63.07.17-68.1.23-1.49.11-2.9,1.93-3.56a1.49,1.49,0,0,1,.52-.1m0-.5a1.91,1.91,0,0,0-.69.13c-1.84.67-2,2.08-2.17,3.32,0,.21,0,.42-.09.63-.66,4.18-.35,44.06-.21,61.1,0,3.64,0,6.19,0,7.08v16.59a16.63,16.63,0,0,0,1.37,6.89c1.29,2.92,3.59,4,5.81,5.1.63.3,1.27.61,1.89,1,1.49.84,5.83,3.37,10.42,6.05,5.17,3,10.51,6.13,12.21,7.08a1.91,1.91,0,0,0,1.75.19c1.85-.67,2-2.08,2.18-3.33,0-.2.05-.41.08-.62a67,67,0,0,0,.29-11.91c-.06-1.69-.12-3.28-.12-4.75V126.91a16.59,16.59,0,0,0-1.36-6.89c-1.29-2.92-3.59-4-5.82-5.1-.62-.3-1.27-.61-1.88-1-1.5-.84-5.84-3.37-10.44-6.06-5.16-3-10.49-6.12-12.19-7.07a2.11,2.11,0,0,0-1.07-.32Z"/></g><polygon class="cls-17" points="42.95 143.54 46.06 133.99 48.7 146.78 42.95 143.54"/><polyline class="cls-17" points="44.68 138.23 42.38 125.63 37.2 140.29 42.95 143.54"/><polygon class="cls-17" points="68.25 157.83 71.36 148.28 74 161.08 68.25 157.83"/><polyline class="cls-17" points="69.98 152.52 67.68 139.92 62.5 154.58 68.25 157.83"/><polygon class="cls-17" points="94.7 172.77 96.43 167.46 94.13 154.86 88.95 169.52 94.7 172.77"/><polyline class="cls-17" points="96.43 167.46 97.81 163.22 100.45 176.02 94.7 172.77"/><polygon class="cls-17" points="126.64 140.58 128.36 135.28 126.06 122.67 120.89 137.34 126.64 140.58"/><polyline class="cls-17" points="128.36 135.28 129.74 131.03 132.39 143.83 126.64 140.58"/><polygon class="cls-17" points="126.64 193.93 128.36 188.62 126.06 176.02 120.89 190.68 126.64 193.93"/><polyline class="cls-17" points="128.36 188.62 129.74 184.38 132.39 197.17 126.64 193.93"/><path class="cls-9" d="M158.55,114V103h0c0-2.38-.81-8-3.45-9.49L35.5,26c-1.72-1-2.34.28-2.87,1.74a10.79,10.79,0,0,0-.58,3.85h0v10.9Z"/><path class="cls-9" d="M158.55,227.78,32.05,156.32v10.91h0c0,2.38.81,8,3.45,9.49l119.6,67.56c1.72,1,2.34-.28,2.88-1.74a11,11,0,0,0,.57-3.85h0Z"/><path class="cls-17" d="M42.22,36.8v3.25a.63.63,0,0,1-.94.55l-2-1.13a1.1,1.1,0,0,1-.56-1V35.26a.63.63,0,0,1,.95-.55l2,1.14A1.09,1.09,0,0,1,42.22,36.8Z"/><path class="cls-17" d="M130.88,86.89v3.24a.64.64,0,0,1-.94.56l-2-1.14a1.07,1.07,0,0,1-.56-1V85.35a.64.64,0,0,1,.95-.56l2,1.14A1.11,1.11,0,0,1,130.88,86.89Z"/><path class="cls-17" d="M138.93,91.43v3.25a.63.63,0,0,1-.94.55l-2-1.13a1.1,1.1,0,0,1-.56-.95V89.89a.64.64,0,0,1,1-.55l2,1.14A1.09,1.09,0,0,1,138.93,91.43Z"/><path class="cls-17" d="M145.83,95.33v3.25a.63.63,0,0,1-.94.55l-2-1.13a1.11,1.11,0,0,1-.56-1V93.79a.64.64,0,0,1,1-.55l2,1.14A1.09,1.09,0,0,1,145.83,95.33Z"/><path class="cls-17" d="M152.74,99.23v3.25a.64.64,0,0,1-1,.55l-2-1.13a1.12,1.12,0,0,1-.56-1V97.69a.63.63,0,0,1,.95-.55l2,1.14A1.09,1.09,0,0,1,152.74,99.23Z"/><line class="cls-18" x1="137.83" y1="156.4" x2="114.52" y2="143.24"/><line class="cls-19" x1="130.93" y1="157.09" x2="114.52" y2="147.83"/><line class="cls-19" x1="130.93" y1="161.68" x2="114.52" y2="152.42"/><line class="cls-19" x1="130.93" y1="166.31" x2="114.52" y2="157.05"/><line class="cls-20" x1="99.01" y1="96.54" x2="47.35" y2="67.36"/><line class="cls-18" x1="99.01" y1="101.4" x2="47.35" y2="72.22"/><line class="cls-18" x1="105.9" y1="109.55" x2="47.35" y2="76.48"/><line class="cls-18" x1="102.64" y1="111.96" x2="47.35" y2="80.74"/><line class="cls-18" x1="99.01" y1="114.17" x2="47.35" y2="84.99"/><line class="cls-18" x1="72.29" y1="103.33" x2="47.35" y2="89.25"/></g></g></g></svg>