<?xml version="1.0" encoding="utf-8"?>
<!-- Generator: Adobe Illustrator 22.1.0, SVG Export Plug-In . SVG Version: 6.00 Build 0)  -->
<svg version="1.1" id="Layer_1" xmlns="http://www.w3.org/2000/svg" xmlns:xlink="http://www.w3.org/1999/xlink" x="0px" y="0px"
	 viewBox="0 0 250 273" style="enable-background:new 0 0 250 273;" xml:space="preserve">
<style type="text/css">
	.st0{fill:url(#SVGID_1_);}
	.st1{fill:#BCBEC0;}
	.st2{fill:#58595B;}
	.st3{fill:#D1D3D4;}
	.st4{fill:#A7A9AC;}
	.st5{fill:#939598;}
	.st6{fill:#808285;}
	.st7{fill:none;stroke:#D31654;stroke-width:0.25;stroke-linecap:round;stroke-linejoin:round;}
	.st8{fill:none;stroke:#D31654;stroke-width:0.25;stroke-linecap:round;stroke-linejoin:round;stroke-dasharray:0.5716,1.1431;}
	.st9{fill:none;stroke:#D31654;stroke-width:0.25;stroke-linecap:round;stroke-linejoin:round;stroke-dasharray:0.9421,1.8843;}
	.st10{fill:none;stroke:#D31654;stroke-width:0.25;stroke-linecap:round;stroke-linejoin:round;stroke-dasharray:1.046,2.092;}
	.st11{fill:#A7A9AC;stroke:#D31654;stroke-width:0.25;stroke-linecap:round;stroke-linejoin:round;stroke-dasharray:1,2;}
	.st12{opacity:0.5;fill:#231F20;enable-background:new    ;}
	.st13{fill:none;stroke:#D31654;stroke-width:0.25;stroke-linecap:round;stroke-linejoin:round;stroke-dasharray:1,2;}
	.st14{opacity:0.3;fill:#231F20;enable-background:new    ;}
	.st15{opacity:0.8;}
	.st16{fill:#00FFA3;}
	.st17{opacity:0.3;fill:#414042;enable-background:new    ;}
	.st18{fill:#E6E7E8;stroke:#00FFA3;stroke-width:0.4;stroke-miterlimit:10;}
	.st19{opacity:0.4;fill:#231F20;enable-background:new    ;}
</style>
<linearGradient id="SVGID_1_" gradientUnits="userSpaceOnUse" x1="124.6" y1="258.275" x2="124.6" y2="16.4" gradientTransform="matrix(1 0 0 -1 0 274)">
	<stop  offset="0" style="stop-color:#F1F2F2"/>
	<stop  offset="0.3712" style="stop-color:#EEEFEF"/>
	<stop  offset="0.6939" style="stop-color:#E3E4E5"/>
	<stop  offset="0.9984" style="stop-color:#D1D3D4"/>
	<stop  offset="1" style="stop-color:#D1D3D4"/>
</linearGradient>
<path class="st0" d="M96.4,23.3L40.2,55.7C23,65.7,12.4,84,12.4,103.9v66.5c0,19.2,10.2,36.9,26.8,46.5l57.5,33.2
	c17.3,10,38.6,10,55.8,0l57.5-33.2c16.6-9.6,26.8-27.3,26.8-46.5v-66.5c0-19.9-10.6-38.2-27.8-48.2l-56.2-32.4
	C135.4,13.2,113.8,13.2,96.4,23.3z"/>
<g>
	<path class="st1" d="M246.3,167.8l-76.8,34.7c-2.4,1.1-6.2,1.1-8.5,0L3,131.2c-1.1-0.5-1.7-1.2-1.8-1.8c-0.2,0,0,4.6,2.4,7.5
		c3.9,4.7,9.3,7,10,7.3l141.6,64c6.9,2.7,12.3,3.1,18.5,0.7l61.8-27.9c0.7-0.3,6.5-3.5,9.2-6.9c3.1-4,3.4-8,3.4-8
		C248.1,166.6,247.5,167.3,246.3,167.8z"/>
	<path class="st2" d="M185.1,201.4c-0.9,0.6-1.6,0.2-1.6-0.9c0-0.9,0.3-1.5,1-2c0.9-0.6,1.6-0.2,1.6,0.9
		C186.1,200.2,185.9,200.8,185.1,201.4z"/>
	<path class="st2" d="M189.4,199.4c-0.9,0.6-1.6,0.2-1.6-0.9c0-0.9,0.3-1.5,1-2c0.9-0.6,1.6-0.2,1.6,0.9
		C190.4,198.3,190.1,198.9,189.4,199.4z"/>
	<path class="st2" d="M193.6,197.5c-0.9,0.6-1.6,0.2-1.6-0.9c0-0.9,0.3-1.5,1-2c0.9-0.6,1.6-0.2,1.6,0.9
		C194.6,196.4,194.4,197,193.6,197.5z"/>
	<path class="st2" d="M212.2,189.2c-2.1,1-4.3,1.9-6.4,2.9c-0.6,0.3-2.5,1.6-3.2,0.7c-0.7-0.9,0.1-2.6,1.1-3c2.1-1,4.3-1.9,6.4-2.9
		c0.6-0.3,2.5-1.6,3.2-0.7C213.8,187.1,213.1,188.8,212.2,189.2z"/>
	<path class="st2" d="M222.7,184.4c-0.9,0.6-1.6,0.2-1.6-0.9c0-0.9,0.3-1.5,1-2c0.9-0.6,1.6-0.2,1.6,0.9
		C223.7,183.3,223.4,183.8,222.7,184.4z"/>
	<path class="st2" d="M226.9,182.5c-0.9,0.6-1.6,0.2-1.6-0.9c0-0.9,0.3-1.5,1-2c0.9-0.6,1.6-0.2,1.6,0.9
		C227.9,181.3,227.7,181.9,226.9,182.5z"/>
	<path class="st2" d="M231.2,180.5c-0.9,0.6-1.6,0.2-1.6-0.9c0-0.9,0.3-1.5,1-2c0.9-0.6,1.6-0.2,1.6,0.9
		C232.2,179.4,232,180,231.2,180.5z"/>
</g>
<path class="st3" d="M246.3,164L88.4,92.6c-2.4-1.1-6.2-1.1-8.5,0L3,127.3c-2.4,1.1-2.4,2.8,0,3.9l157.9,71.4c2.4,1.1,6.2,1.1,8.5,0
	l76.8-34.7C248.7,166.8,248.7,165,246.3,164z"/>
<path class="st1" d="M45.5,112.3c-1,0.2-1.8,0.2-2.8-0.2c-1.3-0.6-0.6-1.5,0.6-1.7c1-0.2,1.9-0.2,2.8,0.2
	C47.4,111.1,46.7,112,45.5,112.3z"/>
<path class="st4" d="M7.3,131.2c39.8,18,79.5,35.9,119.3,53.9c9.7,4.4,19.5,8.8,29.2,13.2c3.3,1.5,5,2.6,8.9,2.1
	c2.9-0.3,5.2-1.8,7.8-3c4.8-2.2,9.6-4.3,14.4-6.5c10.2-4.6,20.3-9.2,30.5-13.8c5.1-2.3,10.2-4.6,15.2-6.9c2.5-1.1,5.1-2.2,7.6-3.4
	c0.9-0.4,2-1.3,1.5-2.4c-0.7-1.4-1.9-1.5-3.1-2c-39.8-18-79.5-35.9-119.3-53.9c-9.7-4.4-19.5-8.8-29.2-13.2
	c-7.3-3.3-10.4-0.6-16.6,2.2c-4.8,2.2-9.6,4.3-14.4,6.5c-2,0.9-3.9,1.8-5.9,2.6c-1,0.4-2,0.9-2.9,1.3c-0.5,0.2,0.1,0.5,0.2,0.7
	c0.5,0.9,0.5,1.6-0.1,2.5c-1.6,2.1-5.7,2.9-7.9,3c-0.9,0.1-1.8,0-2.8,0c-0.5,0-1-0.1-1.5-0.1c-0.3,0-0.5-0.1-0.8-0.1
	s-0.9,0.3-1.3,0.5c-3.9,1.8-7.8,3.5-11.7,5.3s-7.8,3.5-11.7,5.3c-1.9,0.9-4,1.6-5.8,2.7C4.8,128.7,5.3,130.3,7.3,131.2z"/>
<g>
	<path class="st1" d="M52.5,160.3c-1.1-0.5-1.4-1.2-1.5-2.3c-0.2-1.2,0.2-2.2,1.5-1.7l7.9,3.5c1.1,0.5,1.4,1.2,1.5,2.3
		c0.2,1.2-0.2,2.2-1.5,1.7L52.5,160.3z"/>
	<path class="st3" d="M52.5,155.9l-1,0.4l0,0h0.1c0.2-0.1,0.5,0,0.9,0.2l0,0l7.9,3.5l0,0c1.1,0.5,1.4,1.2,1.5,2.3
		c0.1,0.7,0,1.4-0.4,1.7l0,0l0.7-0.4h-0.1c0.8-0.4,0.7-1.5,0.5-2.2c-0.3-0.8-0.6-1.5-1.4-1.8l-7.9-3.5c-0.3-0.1-0.6-0.2-0.9,0
		L52.5,155.9z"/>
</g>
<g>
	<path class="st1" d="M28.9,149.7c-1.1-0.5-1.4-1.2-1.5-2.3c-0.2-1.2,0.2-2.2,1.5-1.7l15.7,7.1c1.1,0.5,1.4,1.2,1.5,2.3
		c0.2,1.2-0.2,2.2-1.5,1.7L28.9,149.7z"/>
	<path class="st3" d="M46.4,156.4c0,0-0.3,0.2-0.6,0.3c0.4-0.3,0.5-0.9,0.4-1.6c-0.2-1.1-0.5-1.8-1.5-2.3L29,145.7
		c-0.2-0.1-0.5-0.2-0.7-0.2c-0.1,0-0.1,0-0.1,0l1-0.4c0.2,0,0.4,0,0.6,0.1l15.7,7.1c0.9,0.4,1.2,1,1.4,1.8
		C47.1,154.9,47.2,156.1,46.4,156.4z"/>
</g>
<path class="st3" d="M45,111c-0.3-0.1-0.6-0.1-0.9-0.1c-0.4,0.1-0.6,0.4-0.2,0.6c0.3,0.1,0.6,0.1,0.9,0.1
	C45.2,111.5,45.4,111.2,45,111z"/>
<path class="st5" d="M167.3,191.9c13.9-6.3,27.8-12.6,41.7-18.8c3.6-1.6,7.2-3.3,10.8-4.9c0.9-0.4,1.8-0.8,2.7-1.2
	c0.7-0.3,1.7-0.7,1-1.6c-0.4-0.4-4.7-2.3-5.2-2.5c-3.4-1.5-6.7-3-10.1-4.6c-1.7-0.8-3.4-1.5-5.1-2.3c-2-0.9-3.6-1.8-6-0.8
	c-13.9,6.3-27.8,12.6-41.7,18.8c-3.6,1.6-7.2,3.3-10.8,4.9c-0.9,0.4-1.8,0.8-2.7,1.2c-0.7,0.3-1.7,0.7-1,1.6
	c0.4,0.4,4.7,2.3,5.2,2.5c3.4,1.5,6.7,3,10.1,4.6c1.7,0.8,3.4,1.5,5.1,2.3C163.3,192.1,165,193,167.3,191.9z"/>
<path class="st6" d="M216.6,166.5l-50,22.6c-0.9,0.4-2,0.4-2.9,0l-15.9-7.2c-0.5-0.2-0.5-1,0-1.2l50-22.6c0.9-0.4,2-0.4,2.9,0
	l15.9,7.2C217.2,165.5,217.2,166.3,216.6,166.5z"/>
<g>
	<polygon class="st4" points="41.4,138.9 41.4,142.7 49.9,142.7 	"/>
	<g>
		<polyline class="st7" points="41.9,139.1 41.4,138.9 41.4,139.4 		"/>
		<line class="st8" x1="41.4" y1="140.5" x2="41.4" y2="141.7"/>
		<polyline class="st7" points="41.4,142.2 41.4,142.7 41.9,142.7 		"/>
		<line class="st9" x1="43.8" y1="142.7" x2="48.5" y2="142.7"/>
		<polyline class="st7" points="49.4,142.7 49.9,142.7 49.5,142.5 		"/>
		<line class="st10" x1="47.6" y1="141.7" x2="42.8" y2="139.5"/>
	</g>
</g>
<polygon class="st6" points="42.2,139.9 42.2,142.1 47.2,142.1 "/>
<polygon class="st11" points="105.4,110 114,110 114,113.8 "/>
<polygon class="st12" points="108,110.4 113.1,110.4 113.1,112.8 "/>
<path class="st5" d="M69.2,147.6c16-7.2,32-14.5,48.1-21.7c2.1-0.9,4.1-1.9,6.2-2.8c0.5-0.2,2.3-0.7,2.1-1.7
	c-0.2-0.7-2.1-1.4-2.5-1.6c-4.1-1.9-8.3-3.7-12.4-5.6c-3.9-1.8-7.8-3.5-11.7-5.3c-2-0.9-3.9-1.8-5.9-2.6c-2.2-1-4-2.4-6.8-1.1
	c-16,7.2-32,14.5-48.1,21.7c-2.1,0.9-4.1,1.9-6.2,2.8c-0.5,0.2-2.3,0.7-2.1,1.7c0.2,0.7,2.1,1.4,2.5,1.6c4.1,1.9,8.3,3.7,12.4,5.6
	c3.9,1.8,7.8,3.5,11.7,5.3c2,0.9,3.9,1.8,5.9,2.6C64.6,147.4,66.4,148.8,69.2,147.6z"/>
<path class="st11" d="M128.9,134.1c-1.6-0.7-3.1-1.6-4.8-2.1c-2.2-0.6-3.8,0.2-5.7,1c-3.4,1.5-6.8,3.1-10.2,4.6
	c-3.4,1.5-6.8,3.1-10.2,4.6c-1.8,0.8-3.7,1.7-5.5,2.5c-1.5,0.7-4.6,1.8-2.1,2.9c1.6,0.7,3.1,1.6,4.8,2.1c2.2,0.6,3.8-0.2,5.7-1
	c3.4-1.5,6.8-3.1,10.2-4.6c3.4-1.5,6.8-3.1,10.2-4.6c1.8-0.8,3.7-1.7,5.5-2.5C128.3,136.3,131.3,135.2,128.9,134.1z"/>
<g>
	<g>
		<g>
			<polygon class="st13" points="197.1,171.3 190.5,174.3 180.4,178.8 177.1,171.3 188.8,172 187.1,169.8 			"/>
		</g>
	</g>
</g>
<path class="st6" d="M126.6,135.4l-28.7,12.9c-0.3,0.1-0.7,0.1-1,0l-3.7-1.6c-0.3-0.1-0.3-0.6,0-0.7l28.9-13c0.3-0.2,0.7-0.1,1.1,0
	l3.5,1.6C126.9,134.9,126.9,135.3,126.6,135.4z"/>
<path class="st14" d="M129.1,155.4c-0.9,0-1.7-0.3-2.8-0.8l-5.8-2.6c-0.5-0.2-0.5-0.9,0-1.2l5.2-2.3c5.1-2.3,6.5-2.8,6.8-2.9
	c0.2,0,0.3,0,0.5,0c0.9,0,1.7,0.3,2.8,0.8l5.8,2.6c0.5,0.2,0.5,0.9,0,1.2l-5.2,2.3c-5.1,2.3-6.5,2.8-6.9,2.9
	C129.4,155.4,129.3,155.4,129.1,155.4z"/>
<path class="st14" d="M149.8,146.1c-1,0-6.7-2.5-9-3.6c-0.4-0.2-0.4-0.7,0-0.9c3-1.3,11.6-5.2,11.6-5.2c0.4-0.2,0.7-0.2,1.2-0.2
	c1,0,6.7,2.5,9,3.6c0.4,0.2,0.4,0.7,0,0.9c-3,1.3-11.6,5.2-11.6,5.2C150.6,146,150.2,146.1,149.8,146.1L149.8,146.1z"/>
<path class="st1" d="M145.4,143.6c-2.6,1.2-5.2,2.3-7.7,3.5c-0.8,0.4-6.8,3.2-7.8,3.3c-1.7,0.2-3-0.3-4.4-1
	c-1.2-0.5-2.4-1.1-3.6-1.6c-1.4-0.6-2.8-1.3-4.2-1.9c-1.4-0.6-2.9-1.5-1-2.4c2.6-1.2,5.2-2.3,7.7-3.5c0.8-0.4,6.8-3.2,7.8-3.3
	c1.7-0.2,3,0.3,4.4,1c1.2,0.5,2.4,1.1,3.6,1.6c1.4,0.6,2.8,1.3,4.2,1.9C145.8,141.9,147.3,142.8,145.4,143.6z"/>
<path class="st1" d="M151.6,127.8c-2.6,1.2-5.2,2.3-7.7,3.5c-1.3,0.6-2.7,1.2-4,1.8c-0.4,0.2-3.3,1.3-3.4,2c-0.1,1,2.7,1.9,3.2,2.1
	c1.4,0.6,2.7,1.2,4.1,1.8c2.2,1,5.2,3,8,1.7c2.6-1.2,5.2-2.3,7.7-3.5c1.3-0.6,2.7-1.2,4-1.8c0.4-0.2,3.3-1.3,3.4-2
	c0.1-1-2.7-1.9-3.2-2.1c-1.4-0.6-2.7-1.2-4.1-1.8C157.4,128.5,154.4,126.6,151.6,127.8z"/>
<path class="st14" d="M108.3,164.7c-0.7,0-1.5-0.3-3-1l-5.3-2.4c-0.5-0.2-0.5-0.9,0-1.2l9.9-4.5c1.3-0.6,2.1-0.8,2.8-0.8
	c0.7,0,1.5,0.3,3,1l5.3,2.4c0.5,0.2,0.5,0.9,0,1.2l-9.9,4.5C109.8,164.5,108.9,164.7,108.3,164.7L108.3,164.7z"/>
<path class="st1" d="M124.8,151c-2.6-1.2-5.2-2.3-7.7-3.5c-3.4-1.6-4.3-2.2-8-0.5c-2.6,1.2-5.2,2.3-7.7,3.5
	c-1.4,0.6-2.8,1.3-4.2,1.9c-1.4,0.6-2.9,1.5-1,2.4c2.6,1.2,5.2,2.3,7.7,3.5c3.4,1.6,4.3,2.2,8,0.5c2.6-1.2,5.2-2.3,7.7-3.5
	c1.4-0.6,2.8-1.3,4.2-1.9S126.7,151.9,124.8,151z"/>
<path class="st14" d="M129.9,174.4c-1.3,0-7.4-2.9-8.8-3.5c-0.5-0.2-0.5-0.9,0-1.1c3.2-1.4,11.4-5.1,11.4-5.1
	c0.4-0.2,0.7-0.2,1.2-0.2c1.3,0,7.4,2.9,8.8,3.5c0.5,0.2,0.5,0.9,0,1.1c-3.2,1.4-11.4,5.1-11.4,5.1
	C130.7,174.3,130.3,174.4,129.9,174.4L129.9,174.4z"/>
<path class="st14" d="M150.5,165.1c-1,0-6.5-2.5-8.9-3.5c-0.4-0.2-0.4-0.8,0-1c3.1-1.4,11.5-5.2,11.5-5.2c0.4-0.2,0.7-0.2,1.2-0.2
	c1,0,6.5,2.5,8.9,3.5c0.4,0.2,0.4,0.8,0,1c-3.1,1.4-11.5,5.2-11.5,5.2C151.3,165,150.9,165.1,150.5,165.1L150.5,165.1z"/>
<path class="st1" d="M131.9,169.1c2.6-1.2,5.2-2.3,7.7-3.5c1.3-0.6,2.7-1.2,4-1.8c0.4-0.2,3.3-1.3,3.4-2c0.1-1-2.7-1.9-3.2-2.1
	c-1.4-0.6-2.7-1.2-4.1-1.8c-2.2-1-5.2-3-8-1.7c-2.6,1.2-5.2,2.3-7.7,3.5c-1.3,0.6-2.7,1.2-4,1.8c-0.4,0.2-3.3,1.3-3.4,2
	c-0.1,1,2.7,1.9,3.2,2.1c1.4,0.6,2.7,1.2,4.1,1.8C126,168.3,129.1,170.3,131.9,169.1z"/>
<path class="st14" d="M171.1,155.8c-1,0-6.4-2.4-8.8-3.5c-0.5-0.2-0.5-0.9,0-1.1c3.1-1.4,11.4-5.1,11.4-5.1c0.4-0.2,0.7-0.2,1.2-0.2
	c1.3,0,2.8,0.7,4.2,1.4c0.4,0.2,0.8,0.4,1.1,0.5c0,0,2.1,1,3.5,1.6c0.5,0.2,0.5,0.9,0,1.1c-3.1,1.4-11.4,5.1-11.4,5.1
	C171.9,155.7,171.5,155.8,171.1,155.8L171.1,155.8z"/>
<path class="st1" d="M152.5,159.7c2.6-1.2,5.2-2.3,7.7-3.5c1.3-0.6,2.7-1.2,4-1.8c0.4-0.2,3.3-1.3,3.4-2c0.1-1-2.7-1.9-3.2-2.1
	c-1.4-0.6-2.7-1.2-4.1-1.8c-2.2-1-5.2-3-8-1.7c-2.6,1.2-5.2,2.3-7.7,3.5c-1.3,0.6-2.7,1.2-4,1.8c-0.4,0.2-3.3,1.3-3.4,2
	c-0.1,1,2.7,1.9,3.2,2.1c1.4,0.6,2.7,1.2,4.1,1.8C146.6,159,149.7,161,152.5,159.7z"/>
<path class="st1" d="M173.1,150.4c2.6-1.2,5.2-2.3,7.7-3.5c1.3-0.6,2.7-1.2,4-1.8c0.4-0.2,3.3-1.3,3.4-2c0.1-1-2.7-1.9-3.2-2.1
	c-1.4-0.6-2.7-1.2-4.1-1.8c-2.2-1-5.2-3-8-1.7c-2.6,1.2-5.2,2.3-7.7,3.5c-1.3,0.6-2.7,1.2-4,1.8c-0.4,0.2-3.3,1.3-3.4,2
	c-0.1,1,2.7,1.9,3.2,2.1c1.4,0.6,2.7,1.2,4.1,1.8C167.2,149.7,170.3,151.7,173.1,150.4z"/>
<path class="st6" d="M113.6,120.7c0.8,0.3,0.8,1.4,0,1.7L68,143c-0.7,0.3-1.4,0.3-2.1,0l-24.3-11c-0.8-0.3-0.8-1.4,0-1.8L86.5,110
	c1.2-0.5,2.5-0.5,3.6,0L113.6,120.7z"/>
<g class="st15">
	<path class="st3" d="M129.1,142.2c-1.3,0-2.4-0.4-3.7-1l-7.8-3.5c-1-0.5-2-1-2-1.7c0-0.4,0.3-0.7,1-1.1l8.2-3.7
		c2.8-1.3,6.6-3,7.4-3.1c0.3,0,0.5-0.1,0.8-0.1c1.3,0,2.4,0.4,3.7,1l7.8,3.5c1,0.4,2,1,2,1.7c0,0.4-0.3,0.7-1,1.1l-8.2,3.7
		c-2.8,1.3-6.6,3-7.4,3.1C129.6,142.2,129.4,142.2,129.1,142.2z"/>
	<g>
		<path class="st16" d="M133,128.3c1.3,0,2.4,0.5,3.6,1c1.2,0.5,2.4,1.1,3.6,1.6c1.4,0.6,2.8,1.3,4.2,1.9c1.4,0.6,2.9,1.5,1,2.4
			c-2.6,1.2-5.2,2.3-7.7,3.5c-0.8,0.4-6.8,3.2-7.8,3.3c-0.3,0-0.5,0.1-0.8,0.1c-1.3,0-2.4-0.5-3.6-1s-2.4-1.1-3.6-1.6
			c-1.4-0.6-2.8-1.3-4.2-1.9c-1.4-0.6-2.9-1.5-1-2.4c2.6-1.2,5.2-2.3,7.7-3.5c0.8-0.4,6.8-3.2,7.8-3.3
			C132.5,128.3,132.7,128.3,133,128.3 M133,127.9c-0.3,0-0.5,0-0.8,0.1c-0.6,0.1-2.9,1-7.5,3.1l-0.5,0.2l-7.7,3.5
			c-0.3,0.1-1.1,0.5-1.1,1.2c0,0.8,1,1.4,2.1,1.9l2.2,1l2,0.9l1.8,0.8l1.7,0.8c1.3,0.6,2.4,1,3.8,1c0.3,0,0.5,0,0.8-0.1
			c0.6-0.1,2.9-1,7.5-3.1l0.5-0.2l5-2.3l2.7-1.2c0.3-0.1,1.1-0.5,1.1-1.2c0-0.8-1-1.4-2.1-1.9l-4.2-1.9l-3.4-1.6l-0.1-0.1
			C135.5,128.3,134.3,127.9,133,127.9L133,127.9z"/>
	</g>
</g>
<g class="st15">
	<path class="st3" d="M149.8,132.9c-1.8,0-3.6-0.9-5.1-1.6c-0.4-0.2-0.7-0.4-1-0.5l-4.1-1.8c-0.1,0-0.2-0.1-0.4-0.2
		c-1.6-0.6-3.1-1.3-3-2.1c0.1-0.5,1-1.1,3.2-2.1l0.3-0.1l11.8-5.3c0.6-0.3,1.3-0.4,2-0.4c1.8,0,3.6,0.9,5.1,1.6
		c0.4,0.2,0.7,0.4,1,0.5l4.1,1.8c0.1,0,0.2,0.1,0.4,0.2c1.6,0.6,3.1,1.3,3,2.1c-0.1,0.5-1,1.1-3.3,2.1l-0.3,0.1l-11.8,5.3
		C151.2,132.8,150.5,132.9,149.8,132.9L149.8,132.9z"/>
	<path class="st2" d="M153.5,118.9c2.2,0,4.4,1.3,6.1,2.1c1.4,0.6,2.7,1.2,4.1,1.8c0.5,0.2,3.3,1.1,3.2,2.1c-0.1,0.7-3,1.8-3.4,2
		c-1.3,0.6-2.7,1.2-4,1.8c-2.6,1.2-5.2,2.3-7.7,3.5c-0.6,0.3-1.3,0.4-2,0.4c-2.2,0-4.4-1.3-6.1-2.1c-1.4-0.6-2.7-1.2-4.1-1.8
		c-0.5-0.2-3.3-1.1-3.2-2.1c0.1-0.7,3-1.8,3.4-2c1.3-0.6,2.7-1.2,4-1.8c2.6-1.2,5.2-2.3,7.7-3.5
		C152.2,119.1,152.9,118.9,153.5,118.9 M153.5,118.5c-0.8,0-1.5,0.1-2.1,0.4l-3.3,1.5l-4.4,2l-4,1.8c-0.1,0-0.1,0.1-0.3,0.1
		c-2.4,1-3.3,1.6-3.4,2.2c-0.1,1,1.5,1.8,3.1,2.4c0.2,0.1,0.3,0.1,0.4,0.1l1.9,0.9l2.2,1c0.3,0.1,0.7,0.3,1,0.5
		c1.5,0.7,3.3,1.6,5.2,1.6c0.8,0,1.5-0.1,2.1-0.4l7.7-3.5l4-1.8c0.1,0,0.1-0.1,0.3-0.1c2.4-1,3.3-1.6,3.4-2.2c0.1-1-1.5-1.8-3.1-2.4
		c-0.2-0.1-0.3-0.1-0.4-0.1l-4.1-1.8c-0.3-0.1-0.7-0.3-1-0.5C157.2,119.5,155.4,118.5,153.5,118.5L153.5,118.5z"/>
</g>
<g class="st15">
	<path class="st3" d="M108.3,151.5c-1.2,0-2.3-0.5-3.9-1.2l-8.4-3.8c-0.7-0.3-1-0.7-1-1.1c0-0.7,1-1.2,2-1.7l12-5.4
		c1.6-0.7,2.7-1,3.6-1c1.2,0,2.3,0.5,3.9,1.2l8.4,3.8c0.7,0.3,1,0.7,1,1.1c0,0.7-1,1.2-2,1.7l-11.9,5.4
		C110.3,151.2,109.3,151.5,108.3,151.5L108.3,151.5z"/>
	<path class="st2" d="M112.6,137.6c1.3,0,2.5,0.6,4.5,1.5c2.6,1.2,5.2,2.3,7.7,3.5c1.9,0.9,0.4,1.7-1,2.4c-1.4,0.6-2.8,1.3-4.2,1.9
		c-2.6,1.2-5.2,2.3-7.7,3.5c-1.6,0.7-2.6,1-3.6,1c-1.3,0-2.5-0.6-4.5-1.5c-2.6-1.2-5.2-2.3-7.7-3.5c-1.9-0.9-0.4-1.7,1-2.4
		c1.4-0.6,2.8-1.3,4.2-1.9c2.6-1.2,5.2-2.3,7.7-3.5C110.6,137.9,111.6,137.6,112.6,137.6 M112.6,137.2c-1,0-2.1,0.3-3.7,1l-1.2,0.5
		l-6.5,3l-2.6,1.2l-1.6,0.7c-1.1,0.5-2.1,1.1-2.1,1.9c0,0.7,0.9,1.1,1.1,1.2l3.9,1.7l3.9,1.7l0.6,0.3c1.6,0.7,2.7,1.2,4,1.2
		c1,0,2.1-0.3,3.7-1l4.4-2l3.3-1.5l2-0.9l2.2-1c1.1-0.5,2.1-1.1,2.1-1.9c0-0.7-0.9-1.1-1.1-1.2l-7.7-3.5l-0.6-0.3
		C114.9,137.7,113.9,137.2,112.6,137.2L112.6,137.2z"/>
</g>
<g class="st15">
	<path class="st3" d="M129.9,161.2c-1.8,0-3.6-0.9-5.1-1.6c-0.4-0.2-0.7-0.4-1-0.5l-4.1-1.8c-0.1,0-0.2-0.1-0.4-0.2
		c-1.6-0.6-3.1-1.3-3-2.1c0.1-0.5,1-1.1,3.2-2.1l0.3-0.1l11.8-5.3c0.6-0.3,1.3-0.4,2-0.4c1.8,0,3.6,0.9,5.1,1.6
		c0.4,0.2,0.7,0.4,1,0.5l4.1,1.8c0.1,0,0.2,0.1,0.4,0.2c1.6,0.6,3.1,1.3,3,2.1c-0.1,0.5-1,1.2-3.3,2.1l-0.3,0.1l-11.8,5.3
		C131.3,161.1,130.6,161.2,129.9,161.2L129.9,161.2z"/>
	<g>
		<path class="st16" d="M133.7,147.2c2.2,0,4.4,1.3,6.1,2.1c1.4,0.6,2.7,1.2,4.1,1.8c0.5,0.2,3.3,1.1,3.2,2.1c-0.1,0.7-3,1.8-3.4,2
			c-1.3,0.6-2.7,1.2-4,1.8c-2.6,1.2-5.2,2.3-7.7,3.5c-0.6,0.3-1.3,0.4-2,0.4c-2.2,0-4.4-1.3-6.1-2.1c-1.4-0.6-2.7-1.2-4.1-1.8
			c-0.5-0.2-3.3-1.1-3.2-2.1c0.1-0.7,3-1.8,3.4-2c1.3-0.6,2.7-1.2,4-1.8c2.6-1.2,5.2-2.3,7.7-3.5C132.3,147.3,133,147.2,133.7,147.2
			 M133.7,146.8c-0.8,0-1.5,0.1-2.1,0.4l-7.7,3.5l-4,1.8c-0.1,0-0.1,0.1-0.3,0.1c-2.4,1-3.3,1.6-3.4,2.2c-0.1,1,1.5,1.8,3.1,2.4
			c0.2,0.1,0.3,0.1,0.4,0.1l4.1,1.8c0.3,0.1,0.7,0.3,1,0.5c1.5,0.7,3.3,1.6,5.2,1.6c0.8,0,1.5-0.1,2.1-0.4l3-1.3l4.8-2.1l4-1.8
			c0.1,0,0.1-0.1,0.3-0.1c2.4-1,3.3-1.6,3.4-2.2c0.1-1-1.5-1.8-3.1-2.4c-0.2-0.1-0.3-0.1-0.4-0.1l-3.3-1.5l-0.8-0.4
			c-0.3-0.1-0.7-0.3-1-0.5C137.4,147.7,135.5,146.8,133.7,146.8L133.7,146.8z"/>
	</g>
</g>
<g class="st15">
	<path class="st3" d="M150.5,151.9c-1.8,0-3.6-0.9-5.1-1.6c-0.4-0.2-0.7-0.4-1-0.5l-4.1-1.8c-0.1,0-0.2-0.1-0.4-0.2
		c-1.6-0.6-3.1-1.3-3-2.1c0.1-0.5,1-1.1,3.2-2.1l0.3-0.1l11.8-5.3c0.6-0.3,1.3-0.4,2-0.4c1.8,0,3.6,0.9,5.1,1.6
		c0.4,0.2,0.7,0.4,1,0.5l4.1,1.8c0.1,0,0.2,0.1,0.4,0.2c1.6,0.6,3.1,1.3,3,2.1c-0.1,0.5-1,1.2-3.3,2.1l-0.3,0.1l-11.8,5.3
		C151.9,151.7,151.2,151.9,150.5,151.9L150.5,151.9z"/>
	<path class="st2" d="M154.3,137.9c2.2,0,4.4,1.3,6.1,2.1c1.4,0.6,2.7,1.2,4.1,1.8c0.5,0.2,3.3,1.1,3.2,2.1c-0.1,0.7-3,1.8-3.4,2
		c-1.3,0.6-2.7,1.2-4,1.8c-2.6,1.2-5.2,2.3-7.7,3.5c-0.6,0.3-1.3,0.4-2,0.4c-2.2,0-4.4-1.3-6.1-2.1c-1.4-0.6-2.7-1.2-4.1-1.8
		c-0.5-0.2-3.3-1.1-3.2-2.1c0.1-0.7,3-1.8,3.4-2c1.3-0.6,2.7-1.2,4-1.8c2.6-1.2,5.2-2.3,7.7-3.5C153,138,153.6,137.9,154.3,137.9
		 M154.3,137.5c-0.8,0-1.5,0.1-2.1,0.4l-3.1,1.4l-4.7,2.1l-4,1.8c-0.1,0-0.1,0.1-0.3,0.1c-2.4,1-3.3,1.6-3.4,2.2
		c-0.1,1,1.5,1.8,3.1,2.4c0.2,0.1,0.3,0.1,0.4,0.1l1.9,0.9l2.1,1c0.3,0.1,0.7,0.3,1,0.5c1.5,0.7,3.3,1.6,5.2,1.6
		c0.8,0,1.5-0.1,2.1-0.4l7.7-3.5l0.3-0.2l3.7-1.7c0.1,0,0.1-0.1,0.3-0.1c2.4-1,3.3-1.6,3.4-2.2c0.1-1-1.5-1.8-3.1-2.4
		c-0.2-0.1-0.3-0.1-0.4-0.1l-4.1-1.8c-0.3-0.1-0.7-0.3-1-0.5C158,138.4,156.1,137.5,154.3,137.5L154.3,137.5z"/>
</g>
<g class="st15">
	<path class="st3" d="M171.1,142.6c-1.8,0-3.6-0.9-5.1-1.6c-0.4-0.2-0.7-0.4-1-0.5l-4.1-1.8c-0.1,0-0.2-0.1-0.4-0.2
		c-1.6-0.6-3.1-1.3-3-2.1c0.1-0.5,1-1.1,3.3-2.1l0.3-0.1l11.8-5.3c0.6-0.3,1.3-0.4,2-0.4c1.8,0,3.6,0.9,5.1,1.6
		c0.4,0.2,0.7,0.4,1,0.5l4.1,1.8c0.1,0,0.2,0.1,0.4,0.2c1.6,0.6,3.1,1.3,3,2.1c-0.1,0.5-1,1.1-3.3,2.1l-0.3,0.1l-11.8,5.3
		C172.5,142.4,171.8,142.6,171.1,142.6L171.1,142.6z"/>
	<g>
		<path class="st16" d="M174.9,128.6c2.2,0,4.4,1.3,6.1,2.1c1.4,0.6,2.7,1.2,4.1,1.8c0.5,0.2,3.3,1.1,3.2,2.1c-0.1,0.7-3,1.8-3.4,2
			c-1.3,0.6-2.7,1.2-4,1.8c-2.6,1.2-5.2,2.3-7.7,3.5c-0.6,0.3-1.3,0.4-2,0.4c-2.2,0-4.4-1.3-6.1-2.1c-1.4-0.6-2.7-1.2-4.1-1.8
			c-0.5-0.2-3.3-1.1-3.2-2.1c0.1-0.7,3-1.8,3.4-2c1.3-0.6,2.7-1.2,4-1.8c2.6-1.2,5.2-2.3,7.7-3.5
			C173.6,128.7,174.2,128.6,174.9,128.6 M174.9,128.2c-0.8,0-1.5,0.1-2.1,0.4l-7.3,3.3l-0.4,0.2l-2,0.9l-2,0.9
			c-0.1,0-0.1,0.1-0.3,0.1c-2.4,1-3.3,1.6-3.4,2.2c-0.1,1,1.5,1.8,3.1,2.4c0.2,0.1,0.3,0.1,0.4,0.1l3.5,1.6l0.5,0.2
			c0.3,0.1,0.7,0.3,1,0.5c1.5,0.7,3.3,1.6,5.2,1.6c0.8,0,1.5-0.1,2.1-0.4l2.4-1.1l5.4-2.4l3.5-1.6l0.5-0.2c0.1,0,0.1-0.1,0.3-0.1
			c2.4-1,3.3-1.6,3.4-2.2c0.1-1-1.5-1.8-3.1-2.4c-0.2-0.1-0.3-0.1-0.4-0.1l-1.8-0.8l-2.3-1c-0.3-0.1-0.7-0.3-1-0.5
			C178.6,129.1,176.7,128.2,174.9,128.2L174.9,128.2z"/>
	</g>
</g>
<path class="st17" d="M178.6,172.3l12.1,0.8l-9.8,4.4L178.6,172.3z M189.3,171l4.5,0.7l-3,1.4L189.3,171z"/>
<path class="st13" d="M87.8,122.1c-5.3-2.4-10.1-2.4-15.6-1.1c-6.7,1.5-10.7,6.4-3.4,9.7c5.3,2.4,10.1,2.4,15.6,1.1
	C91.1,130.2,95.1,125.3,87.8,122.1z"/>
<g class="st15">
	<path class="st3" d="M165.3,176.9c-1.3,0-2.4-0.5-3.6-1.1l-15.9-7.2c-3.2-1.4-4.7-2.1-4.9-2.4c-0.3-0.3-0.4-0.6-0.3-0.9
		c0.1-0.5,0.7-0.7,1.2-1l55.4-25c0.7-0.3,1.4-0.5,2.1-0.5c1.3,0,2.4,0.5,3.6,1.1l15.9,7.2c3.2,1.4,4.6,2.1,4.9,2.4
		c0.3,0.3,0.4,0.6,0.3,0.9c-0.1,0.5-0.7,0.7-1.2,1l-55.4,25C166.7,176.8,166,176.9,165.3,176.9L165.3,176.9z"/>
	<path class="st2" d="M199.3,139.1c1.4,0,2.6,0.6,3.9,1.2c1.7,0.8,3.4,1.5,5.1,2.3c3.4,1.5,6.7,3,10.1,4.6c0.4,0.2,4.8,2.1,5.2,2.5
		c0.8,0.9-0.2,1.2-1,1.6c-0.9,0.4-1.8,0.8-2.7,1.2c-3.6,1.6-7.2,3.3-10.8,4.9c-13.9,6.3-27.8,12.6-41.7,18.8c-0.7,0.3-1.4,0.5-2,0.5
		c-1.4,0-2.6-0.6-3.9-1.2c-1.7-0.8-3.4-1.5-5.1-2.3c-3.4-1.5-6.7-3-10.1-4.6c-0.4-0.2-4.8-2.1-5.2-2.5c-0.8-0.9,0.2-1.2,1-1.6
		c0.9-0.4,1.8-0.8,2.7-1.2c3.6-1.6,7.2-3.3,10.8-4.9c13.9-6.3,27.8-12.6,41.7-18.8C197.9,139.3,198.6,139.1,199.3,139.1
		 M199.3,138.7c-0.7,0-1.5,0.2-2.2,0.5l-20.8,9.4l-20.8,9.4l-4.9,2.2l-5.9,2.7l-1.4,0.6l-1.3,0.6l-0.1,0.1c-0.6,0.2-1.2,0.5-1.3,1.1
		c-0.1,0.3,0,0.7,0.3,1c0.2,0.2,0.9,0.7,5,2.5l0.3,0.1l4.8,2.2l5.3,2.4l2.5,1.1l2.5,1.1l0.4,0.2c1.2,0.6,2.4,1.1,3.7,1.1
		c0.7,0,1.5-0.2,2.2-0.5l21.7-9.8l19.9-9l2.6-1.2l8.2-3.7l0.5-0.2l2.2-1l0.1-0.1c0.6-0.2,1.2-0.5,1.3-1.1c0.1-0.3,0-0.7-0.3-1
		c-0.2-0.2-0.9-0.7-5-2.5l-0.3-0.1l-5-2.3l-5-2.3l-2.7-1.2l-2.4-1.1l-0.4-0.2C201.7,139.3,200.6,138.7,199.3,138.7L199.3,138.7z"/>
</g>
<g>
	<polygon class="st12" points="197.5,155.9 191.1,158.8 181.6,163.1 178.4,155.9 189.5,156.6 187.9,154.4 	"/>
</g>
<g>
	<polyline class="st18" points="190.8,156 178,161.8 173.7,152.1 188.7,153.1 	"/>
	<polygon class="st18" points="199.3,152.1 186.5,150.2 190.8,156 	"/>
</g>
<path class="st19" d="M85.6,123c-4.1-1.9-7.8-1.8-12-0.9c-5.2,1.2-8.2,4.9-2.6,7.5c4.1,1.9,7.8,1.8,12,0.9
	C88.2,129.3,91.2,125.6,85.6,123z"/>
<path class="st12" d="M81.9,124.7c-2-0.9-3.9-0.9-6-0.4c-2.6,0.6-4.1,2.5-1.3,3.7c2,0.9,3.9,0.9,6,0.4
	C83.2,127.8,84.8,125.9,81.9,124.7z"/>
<g class="st15">
	<polygon class="st3" points="41.2,131.1 41.2,126.7 50.9,131.1 	"/>
	<g>
		<path class="st16" d="M41.4,127l8.5,3.9h-8.5V127 M41,126.4v0.6v3.9v0.4h0.4h8.5h1.9l-1.7-0.8l-8.5-3.9L41,126.4L41,126.4z"/>
	</g>
</g>
<g class="st15">
	<polygon class="st3" points="104.5,97.9 114.2,97.9 114.2,102.2 	"/>
	<g>
		<path class="st16" d="M114,98.1v3.9l-8.5-3.9H114 M114.4,97.7H114h-8.5h-1.9l1.7,0.8l8.5,3.9l0.6,0.3v-0.6v-3.9L114.4,97.7
			L114.4,97.7z"/>
	</g>
</g>
<g class="st15">
	<path class="st3" d="M67,136.4c-1.3,0-2.5-0.6-3.7-1.2c-0.3-0.2-0.7-0.3-1-0.5l-30-13.6c-0.1,0-0.2-0.1-0.3-0.1
		c-1.1-0.4-2.2-0.9-2.4-1.6c-0.2-1,1.1-1.5,1.9-1.8c0.1,0,0.2-0.1,0.3-0.1L86.1,93c0.8-0.3,1.5-0.5,2.2-0.5c1.3,0,2.5,0.6,3.7,1.2
		c0.3,0.2,0.7,0.3,1,0.5l30,13.6c0.1,0,0.2,0.1,0.3,0.1c1.1,0.4,2.2,0.9,2.4,1.6c0.2,1-1.1,1.5-1.9,1.8c-0.1,0-0.2,0.1-0.3,0.1
		l-54.3,24.5C68.5,136.2,67.8,136.4,67,136.4L67,136.4z"/>
	<path class="st2" d="M88.4,92.8c1.7,0,3,0.9,4.6,1.6c2,0.9,3.9,1.8,5.9,2.6c3.9,1.8,7.8,3.5,11.7,5.3c4.1,1.9,8.3,3.7,12.4,5.6
		c0.4,0.2,2.4,0.9,2.5,1.6c0.2,0.9-1.6,1.4-2.1,1.7c-2.1,0.9-4.1,1.9-6.2,2.8c-16,7.2-32,14.5-48.1,21.7c-0.8,0.3-1.5,0.5-2.1,0.5
		c-1.7,0-3-0.9-4.6-1.6c-2-0.9-3.9-1.8-5.9-2.6c-3.9-1.8-7.8-3.5-11.7-5.3c-4.1-1.9-8.3-3.7-12.4-5.6c-0.4-0.2-2.4-0.9-2.5-1.6
		c-0.2-0.9,1.6-1.4,2.1-1.7c2.1-0.9,4.1-1.9,6.2-2.8c16-7.2,32-14.5,48.1-21.7C87,92.9,87.7,92.8,88.4,92.8 M88.4,92.4
		c-0.8,0-1.5,0.2-2.3,0.5L38,114.6l-3.1,1.4l-3.1,1.4c-0.1,0-0.2,0.1-0.3,0.1c-0.8,0.3-2.3,0.9-2,2c0.2,0.7,1.3,1.2,2.5,1.7
		c0.1,0,0.2,0.1,0.3,0.1l6.2,2.8l6.2,2.8l11.7,5.3l5.9,2.6c0.3,0.2,0.7,0.3,1,0.5c1.2,0.6,2.4,1.2,3.8,1.2c0.8,0,1.5-0.2,2.3-0.5
		l48.1-21.7l3.3-1.5l2.9-1.3c0.1,0,0.2-0.1,0.3-0.1c0.8-0.3,2.3-0.9,2-2c-0.2-0.7-1.3-1.2-2.5-1.7c-0.1,0-0.2-0.1-0.3-0.1l-6.2-2.8
		l-6.2-2.8L99,96.7l-0.6-0.3L93.2,94c-0.3-0.2-0.7-0.3-1-0.5C90.9,92.9,89.8,92.4,88.4,92.4L88.4,92.4z"/>
</g>
<path class="st19" d="M86.3,110.9c-4.5-2-8.5-2-13.2-0.9c-5.7,1.3-9,5.4-2.9,8.2c4.5,2,8.5,2,13.2,0.9
	C89.1,117.7,92.5,113.6,86.3,110.9z"/>
<g>
	<g>
		<path class="st5" d="M91.7,107.5v2.6c0,2.3-3.2,4.5-7.3,5.4c-5.5,1.3-10.3,1.3-15.6-1.1c-2.9-1.3-3.9-2.8-3.9-4.3c0,0,0-1.7,0-2.4
			c0.1,1.4,1.2,2.8,3.9,4c5.3,2.4,10.1,2.4,15.6,1.1C88.4,112,91.5,109.8,91.7,107.5z"/>
		<path class="st4" d="M87.8,103.2c-5.3-2.4-10.1-2.4-15.6-1.1c-6.7,1.5-10.7,6.4-3.4,9.7c5.3,2.4,10.1,2.4,15.6,1.1
			C91.1,111.4,95.1,106.5,87.8,103.2z"/>
	</g>
	<polygon class="st19" points="80.1,110.3 72.5,106.9 83.8,105.2 	"/>
	<polygon class="st14" points="75.6,107.3 81.7,106.4 79.7,109.1 	"/>
</g>
<g>
	<polygon class="st5" points="80.4,104.8 80.4,106.4 71.9,102.6 71.9,100.9 	"/>
	<polygon class="st6" points="84.7,99 84.7,100.6 80.4,106.4 80.4,104.8 	"/>
	<polygon class="st4" points="84.7,99 80.4,104.8 71.9,100.9 	"/>
</g>
<g>
	<path class="st16" d="M84.7,99v1.6l-4.3,5.8l-8.5-3.9v-1.6L84.7,99 M85.1,98.5l-0.5,0.1l-12.8,1.9l-0.3,0.1v0.3v1.6v0.3l0.2,0.1
		l8.5,3.9l0.3,0.1l0.2-0.3l4.3-5.8l0.1-0.1v-0.1V99L85.1,98.5L85.1,98.5z"/>
</g>
<g class="st15">
	<path class="st3" d="M96.8,137.6c-0.5,0-1-0.1-1.6-0.2c-1.2-0.3-2.3-0.9-3.3-1.4c-0.5-0.2-1-0.5-1.5-0.7c-0.7-0.3-1-0.7-1-1.1
		c0-0.8,1.5-1.5,2.7-2l0.4-0.2l26.2-11.8c1.3-0.6,2.5-1.1,3.9-1.1c0.5,0,1,0.1,1.6,0.2c1.2,0.3,2.3,0.9,3.3,1.4
		c0.5,0.2,1,0.5,1.5,0.7c0.7,0.3,1,0.7,1,1.1c0,0.8-1.5,1.5-2.7,2l-0.4,0.2l-26.2,11.8C99.4,137,98.2,137.6,96.8,137.6L96.8,137.6z"
		/>
	<g>
		<path class="st2" d="M122.6,119.2c0.5,0,1,0.1,1.5,0.2c1.7,0.5,3.2,1.4,4.8,2.1c2.4,1.1-0.6,2.2-2.1,2.9c-1.8,0.8-3.7,1.7-5.5,2.5
			c-3.4,1.5-6.8,3.1-10.2,4.6c-3.4,1.5-6.8,3.1-10.2,4.6c-1.4,0.6-2.7,1.3-4.1,1.3c-0.5,0-1-0.1-1.5-0.2c-1.7-0.5-3.2-1.4-4.8-2.1
			c-2.4-1.1,0.6-2.2,2.1-2.9c1.8-0.8,3.7-1.7,5.5-2.5c3.4-1.5,6.8-3.1,10.2-4.6c3.4-1.5,6.8-3.1,10.2-4.6
			C119.9,119.8,121.1,119.2,122.6,119.2 M122.6,118.8c-1.4,0-2.7,0.6-3.9,1.1l-0.4,0.2l-9.3,4.2l-0.8,0.4l-3.5,1.6l-6.7,3l-1.4,0.6
			l-4.1,1.8c-0.1,0.1-0.3,0.1-0.4,0.2c-1.3,0.6-2.8,1.2-2.8,2.2c0,0.7,0.9,1.1,1.1,1.2c0.5,0.2,1,0.5,1.5,0.7
			c1.1,0.5,2.2,1.1,3.4,1.4c0.6,0.2,1.1,0.2,1.6,0.2c1.4,0,2.7-0.6,3.9-1.1l0.4-0.2l5.1-2.3l5.1-2.3l10.2-4.6l3.5-1.6l2-0.9
			c0.1-0.1,0.3-0.1,0.4-0.2c1.3-0.6,2.8-1.2,2.8-2.2c0-0.7-0.9-1.1-1.1-1.2c-0.5-0.2-1-0.5-1.5-0.7c-1.1-0.5-2.2-1.1-3.4-1.4
			C123.7,118.9,123.1,118.8,122.6,118.8L122.6,118.8z"/>
	</g>
</g>
</svg>
