<svg xmlns="http://www.w3.org/2000/svg" xmlns:xlink="http://www.w3.org/1999/xlink" viewBox="0 0 224.62 245.98"><defs><style>.cls-1{fill:url(#linear-gradient);}.cls-2{fill:#bcbec0;}.cls-3{fill:#d1d3d4;}.cls-4{fill:#6d6e71;}.cls-5,.cls-7,.cls-9{fill:#a7a9ac;}.cls-5{stroke:#d31654;}.cls-10,.cls-5,.cls-7,.cls-8{stroke-miterlimit:10;}.cls-5,.cls-7{stroke-width:0.5px;}.cls-6{opacity:0.9;}.cls-7{stroke:#00ffa3;}.cls-10,.cls-8{fill:none;stroke-width:0.25px;}.cls-8{stroke:#e6e7e8;}.cls-10{stroke:#414042;}</style><linearGradient id="linear-gradient" x1="112.31" y1="3.24" x2="112.31" y2="245.28" gradientUnits="userSpaceOnUse"><stop offset="0" stop-color="#f1f2f2"/><stop offset="0.37" stop-color="#eeefef"/><stop offset="0.69" stop-color="#e3e4e5"/><stop offset="1" stop-color="#d1d3d4"/><stop offset="1" stop-color="#d1d3d4"/></linearGradient></defs><title>jbhjbn3Asset 8</title><g id="Layer_2" data-name="Layer 2"><g id="content"><path class="cls-1" d="M84.14,10.79,27.72,43.36A55.45,55.45,0,0,0,0,91.38v66.76A53.52,53.52,0,0,0,26.77,204.5l57.71,33.32a55.67,55.67,0,0,0,55.66,0l57.71-33.32a53.54,53.54,0,0,0,26.77-46.36V91.38a55.44,55.44,0,0,0-27.73-48L140.48,10.79A56.31,56.31,0,0,0,84.14,10.79Z"/><path class="cls-2" d="M194.87,219c-1.4,0-4.71-3.9-6.07-4.65L82.18,152.76c-6.32-3.57-6.5-13.38-6.5-14.49V11c0-1.4-3.54-2.91-2.7-5.2C74.93.45,81.21-.3,84.84.09a28.89,28.89,0,0,1,9.31,3.28L200.7,63.56c6.32,3.57,6.5,13.38,6.5,14.49V199.32a33.91,33.91,0,0,1-1.67,9.85C203.51,214.64,197.82,219,194.87,219Z"/><path class="cls-3" d="M194.3,219a8.57,8.57,0,0,1-4.15-1.14L77.93,154.45c-6.32-3.57-6.51-13.39-6.51-14.49V12.7a16.79,16.79,0,0,1,.94-5.83C74.32,1.52,78,.71,80.07.71a8.57,8.57,0,0,1,4.15,1.14l112.22,63.4c6.32,3.56,6.51,13.38,6.51,14.49V207a16.74,16.74,0,0,1-.94,5.82C200.05,218.18,196.34,219,194.3,219Z"/><path class="cls-4" d="M80.05,7.13a2.16,2.16,0,0,1,1,.32L193.27,70.83c2.47,1.4,3.23,6.67,3.23,8.9V207a10.12,10.12,0,0,1-.54,3.61c-.38,1-.8,2-1.68,2a2.09,2.09,0,0,1-1-.32L81.06,148.85c-2.47-1.4-3.24-6.67-3.24-8.9V12.69a10.13,10.13,0,0,1,.55-3.61c.38-1,.8-1.95,1.68-1.95m0-2h0c-2.36,0-3.2,2.28-3.56,3.25a12.45,12.45,0,0,0-.66,4.3V140c0,.08,0,8.26,4.25,10.64L192.29,214a4.11,4.11,0,0,0,2,.58c2.35,0,3.19-2.29,3.55-3.26a12.25,12.25,0,0,0,.67-4.3V79.73c0-.08-.05-8.26-4.25-10.63L82,5.72a4,4,0,0,0-2-.58Z"/><path class="cls-3" d="M193.27,70.83c2.47,1.4,3.23,6.67,3.23,8.9V207a10.12,10.12,0,0,1-.54,3.61c-.5,1.37-1.09,2.54-2.69,1.63L81.06,148.85c-2.47-1.4-3.24-6.67-3.24-8.9V12.69a10.13,10.13,0,0,1,.55-3.61c.5-1.37,1.08-2.54,2.69-1.63Z"/><polygon class="cls-5" points="103.72 148.36 83.26 136.8 83.26 93.6 103.72 105.16 103.72 148.36"/><polygon class="cls-5" points="127.99 162.07 107.53 150.51 107.53 107.31 127.99 118.87 127.99 162.07"/><polygon class="cls-5" points="153.35 176.39 132.89 164.83 132.89 121.63 153.35 133.19 153.35 176.39"/><polygon class="cls-5" points="172.77 144.12 172.77 162.94 157.66 154.41 157.66 135.59 172.77 144.12"/><polygon class="cls-5" points="172.77 167.69 172.77 186.51 157.66 177.98 157.66 159.16 172.77 167.69"/><polygon class="cls-5" points="190.03 177.44 190.03 196.26 174.93 187.73 174.93 168.91 190.03 177.44"/><polygon class="cls-5" points="190.03 153.87 190.03 172.7 174.93 164.16 174.93 145.34 190.03 153.87"/><polygon class="cls-5" points="83.26 83.89 83.26 33.4 190.03 93.7 190.03 144.2 83.26 83.89"/><path class="cls-2" d="M196.5,79.72V90h0l-118.68-67h0V12.69h0a10.13,10.13,0,0,1,.55-3.61c.5-1.37,1.08-2.54,2.69-1.63L193.27,70.83c2.47,1.4,3.23,6.67,3.23,8.9Z"/><polygon class="cls-3" points="86.27 21.72 83.22 19.99 83.22 15.4 86.27 17.12 86.27 21.72"/><polygon class="cls-3" points="189.84 80.22 186.79 78.5 186.79 73.9 189.84 75.62 189.84 80.22"/><polygon class="cls-3" points="183.37 76.56 180.32 74.84 180.32 70.24 183.37 71.97 183.37 76.56"/><polygon class="cls-3" points="169.34 68.64 166.29 66.92 166.29 62.32 169.34 64.04 169.34 68.64"/><polygon class="cls-3" points="176.9 72.91 173.85 71.19 173.85 66.59 176.9 68.31 176.9 72.91"/><g class="cls-6"><path class="cls-3" d="M166.29,86.22c2.47,1.4,3.23,6.67,3.23,8.9V222.38A10.12,10.12,0,0,1,169,226c-.5,1.37-1.09,2.54-2.69,1.63L54.08,164.24c-2.47-1.4-3.24-6.67-3.24-8.9V28.09a10.15,10.15,0,0,1,.55-3.62c.5-1.37,1.08-2.53,2.69-1.63Z"/><path class="cls-2" d="M50.84,38.32l118.68,67h0V95.12h0c0-2.23-.76-7.5-3.23-8.9L54.08,22.84c-1.61-.9-2.19.26-2.69,1.63a10.15,10.15,0,0,0-.55,3.62h0V38.31Z"/><path class="cls-7" d="M57.36,92.82V69c0-4.62-.39-9.23.06-13.87.15-1.58-.06-3.06,1.75-4a1.3,1.3,0,0,1,1-.1,2.87,2.87,0,0,1,.67.3l7,4L96,71.21,132.7,92l24.46,13.82c1.85,1,3.88,1.55,5.15,3.62a13.25,13.25,0,0,1,1.82,7.38V140.6c0,4.62.38,9.23-.06,13.87-.16,1.59.06,3.06-1.75,4a1.36,1.36,0,0,1-1,.11,2.93,2.93,0,0,1-.67-.31l-7-4L125.5,138.38,88.79,117.64,64.32,103.82c-1.84-1-3.87-1.55-5.14-3.62A13.25,13.25,0,0,1,57.36,92.82Z"/><path class="cls-7" d="M57.36,145.73V130.17c0-4.68-.6-10.84.15-15.56.22-1.39.11-2.71,1.82-3.33a1.37,1.37,0,0,1,1.26.14c3,1.68,6,3.38,9,5.07,2.64,1.49,5.56,2.13,7,5.46a15,15,0,0,1,1.25,6.27v15.57c0,4.67.59,10.83-.16,15.55-.22,1.39-.1,2.72-1.82,3.34a1.36,1.36,0,0,1-1.25-.15c-3-1.67-6-3.37-9-5.06-2.63-1.49-5.55-2.14-7-5.47A15,15,0,0,1,57.36,145.73Z"/><path class="cls-7" d="M102.09,141.94V157.5c0,4.68.6,10.84-.15,15.55-.22,1.4-.11,2.72-1.82,3.34a1.37,1.37,0,0,1-1.26-.15c-3-1.67-6-3.37-9-5.06-2.64-1.49-5.56-2.14-7-5.46a15.13,15.13,0,0,1-1.25-6.28V143.88c0-4.68-.59-10.84.16-15.55.22-1.4.1-2.72,1.81-3.34a1.34,1.34,0,0,1,1.26.15c3,1.67,6,3.37,9,5.06,2.64,1.49,5.56,2.14,7,5.46A15.08,15.08,0,0,1,102.09,141.94Z"/><path class="cls-7" d="M107,173.76V158.2c0-4.68-.6-10.83.15-15.55.22-1.39.11-2.72,1.82-3.34a1.38,1.38,0,0,1,1.26.15c3,1.67,6,3.37,9,5.06,2.64,1.49,5.56,2.14,7,5.47a15,15,0,0,1,1.24,6.27v15.56c0,4.68.6,10.84-.15,15.56-.22,1.39-.1,2.71-1.82,3.33a1.33,1.33,0,0,1-1.25-.15c-3-1.67-6-3.37-9-5.06-2.63-1.49-5.55-2.14-7-5.46A15.08,15.08,0,0,1,107,173.76Z"/><path class="cls-7" d="M131.76,163.34c0-2.64-.38-5.22.41-7.89,1.12-3.75,3.91-1.42,6.17-.14,6.06,3.42,8.53,3.95,8.53,11.88,0,2.65.38,5.23-.41,7.9-1.12,3.75-3.91,1.42-6.17.14C134.22,171.8,131.76,171.27,131.76,163.34Z"/><path class="cls-7" d="M160.89,186.87,154,183a8.54,8.54,0,0,1-4.53-6.07A34.38,34.38,0,0,1,149,169c0-2.09.29-7.5,3.24-5.83l6.9,3.9a8.53,8.53,0,0,1,4.53,6.07,34.35,34.35,0,0,1,.44,7.9C164.13,183.13,163.84,188.53,160.89,186.87Z"/><path class="cls-7" d="M143.63,200.68l-6.91-3.9a8.52,8.52,0,0,1-4.52-6.07,34.29,34.29,0,0,1-.44-7.89c0-2.1.29-7.5,3.24-5.83l6.9,3.9a8.51,8.51,0,0,1,4.53,6.07,34.29,34.29,0,0,1,.44,7.89C146.87,197,146.58,202.35,143.63,200.68Z"/><path class="cls-7" d="M160.89,210.43l-6.9-3.9a8.51,8.51,0,0,1-4.53-6.07,34.29,34.29,0,0,1-.44-7.89c0-2.09.29-7.5,3.24-5.83l6.9,3.9a8.51,8.51,0,0,1,4.53,6.07,34.29,34.29,0,0,1,.44,7.89C164.13,206.7,163.84,212.1,160.89,210.43Z"/><polygon class="cls-8" points="110.18 122.88 113.42 112.92 109.1 89.27 99.39 116.78 110.18 122.88"/><polyline class="cls-8" points="113.42 112.92 116.01 104.96 120.97 128.97 110.18 122.88"/><polygon class="cls-8" points="68.11 145.06 71.02 136.1 73.5 148.11 68.11 145.06"/><polyline class="cls-8" points="69.72 140.09 67.57 128.26 62.71 142.02 68.11 145.06"/><polygon class="cls-8" points="91.84 158.47 94.75 149.51 97.24 161.52 91.84 158.47"/><polyline class="cls-8" points="93.46 153.49 91.3 141.67 86.45 155.42 91.84 158.47"/><polygon class="cls-8" points="116.66 172.49 118.27 167.51 116.12 155.69 111.26 169.44 116.66 172.49"/><polyline class="cls-8" points="118.27 167.51 119.57 163.53 122.05 175.53 116.66 172.49"/><path class="cls-3" d="M60.39,33.7v3a.59.59,0,0,1-.89.51L57.62,36.2a1,1,0,0,1-.53-.89V32.26a.6.6,0,0,1,.89-.52l1.89,1.07A1,1,0,0,1,60.39,33.7Z"/><path class="cls-3" d="M143.56,80.69v3a.59.59,0,0,1-.88.52l-1.89-1.06a1,1,0,0,1-.52-.9V79.24a.59.59,0,0,1,.89-.51L143,79.79A1,1,0,0,1,143.56,80.69Z"/><path class="cls-3" d="M151.12,85v3a.6.6,0,0,1-.89.52l-1.88-1.06a1,1,0,0,1-.53-.9v-3a.6.6,0,0,1,.89-.52l1.89,1.07A1,1,0,0,1,151.12,85Z"/><path class="cls-3" d="M157.59,88.61v3a.59.59,0,0,1-.89.51l-1.88-1.06a1,1,0,0,1-.53-.89v-3a.6.6,0,0,1,.89-.52l1.89,1.07A1,1,0,0,1,157.59,88.61Z"/><path class="cls-3" d="M164.06,92.27v3a.59.59,0,0,1-.88.52l-1.89-1.06a1,1,0,0,1-.52-.9V90.82a.6.6,0,0,1,.89-.52l1.88,1.07A1,1,0,0,1,164.06,92.27Z"/></g><path class="cls-4" d="M53.07,22.52a2.16,2.16,0,0,1,1,.32L166.29,86.22c2.47,1.4,3.23,6.67,3.23,8.9V222.38A10.12,10.12,0,0,1,169,226c-.38,1-.81,1.95-1.68,1.95a2.09,2.09,0,0,1-1-.32L54.08,164.24c-2.47-1.4-3.24-6.67-3.24-8.9V28.09a10.15,10.15,0,0,1,.55-3.62c.38-1,.8-1.95,1.68-1.95m0-2h0c-2.36,0-3.2,2.28-3.56,3.25a12.27,12.27,0,0,0-.66,4.31V155.34c0,.09,0,8.26,4.25,10.64l112.2,63.38a4.14,4.14,0,0,0,2,.58c2.35,0,3.19-2.29,3.55-3.26a12.25,12.25,0,0,0,.67-4.3V95.12c0-.08-.05-8.26-4.25-10.63L55.06,21.11a4,4,0,0,0-2-.58Z"/><g class="cls-6"><path class="cls-3" d="M137.3,102.26c2.48,1.4,3.24,6.67,3.24,8.9V238.42A10.35,10.35,0,0,1,140,242c-.51,1.37-1.09,2.54-2.7,1.63L25.1,180.28c-2.48-1.4-3.24-6.67-3.24-8.9V44.12a10.12,10.12,0,0,1,.54-3.61c.51-1.37,1.09-2.53,2.7-1.63Z"/><path class="cls-2" d="M21.86,54.36l118.68,67h0V111.16h0c0-2.23-.76-7.5-3.24-8.9L25.1,38.88c-1.61-.9-2.19.26-2.7,1.63a10.12,10.12,0,0,0-.54,3.61h0V54.35Z"/><path class="cls-9" d="M28.37,161.77V146.21c0-4.68-.59-10.84.16-15.56.22-1.39.1-2.71,1.81-3.33a1.37,1.37,0,0,1,1.26.14c3,1.68,6,3.38,9,5.06,2.63,1.5,5.55,2.14,7,5.47a15,15,0,0,1,1.24,6.27v15.57c0,4.67.6,10.83-.15,15.55-.22,1.39-.11,2.72-1.82,3.34a1.38,1.38,0,0,1-1.26-.15l-9-5.06c-2.64-1.49-5.56-2.14-7-5.47A15,15,0,0,1,28.37,161.77Z"/><path class="cls-9" d="M73.11,158v15.56c0,4.68.59,10.83-.15,15.55-.23,1.39-.11,2.72-1.82,3.34a1.37,1.37,0,0,1-1.26-.15c-3-1.67-6-3.37-9-5.06-2.64-1.49-5.56-2.14-7-5.47a15,15,0,0,1-1.24-6.27V159.92c0-4.68-.6-10.84.15-15.56.22-1.39.11-2.71,1.82-3.33a1.34,1.34,0,0,1,1.26.15c3,1.67,6,3.37,9,5.06,2.64,1.49,5.56,2.14,7,5.46A15.09,15.09,0,0,1,73.11,158Z"/><path class="cls-9" d="M78,189.8V174.24c0-4.68-.59-10.84.16-15.55.22-1.4.1-2.72,1.81-3.34a1.37,1.37,0,0,1,1.26.15c3,1.67,6,3.37,9,5.06,2.64,1.49,5.56,2.14,7,5.46a15.12,15.12,0,0,1,1.24,6.28v15.56c0,4.68.6,10.84-.15,15.55-.22,1.4-.11,2.72-1.82,3.34a1.35,1.35,0,0,1-1.26-.15c-3-1.67-6-3.37-9-5.06-2.64-1.49-5.56-2.14-7-5.46A15.09,15.09,0,0,1,78,189.8Z"/><path class="cls-9" d="M102.78,179.38c0-2.64-.39-5.23.41-7.89,1.12-3.76,3.91-1.42,6.16-.14,6.07,3.42,8.53,4,8.53,11.88,0,2.64.39,5.23-.41,7.9-1.12,3.75-3.91,1.42-6.17.14C105.24,187.84,102.78,187.31,102.78,179.38Z"/><path class="cls-9" d="M131.91,202.91,125,199a8.56,8.56,0,0,1-4.52-6.07A34.38,34.38,0,0,1,120,185c0-2.09.29-7.5,3.24-5.83l6.9,3.9a8.55,8.55,0,0,1,4.53,6.07,34.34,34.34,0,0,1,.43,7.9C135.14,199.17,134.86,204.57,131.91,202.91Z"/><path class="cls-9" d="M114.65,216.72l-6.91-3.9a8.49,8.49,0,0,1-4.52-6.07,33.74,33.74,0,0,1-.44-7.89c0-2.1.28-7.5,3.23-5.83l6.91,3.9a8.52,8.52,0,0,1,4.52,6.07,34.29,34.29,0,0,1,.44,7.89C117.88,213,117.59,218.39,114.65,216.72Z"/><path class="cls-9" d="M131.91,226.47l-6.91-3.9a8.52,8.52,0,0,1-4.52-6.07,34.29,34.29,0,0,1-.44-7.89c0-2.1.29-7.5,3.24-5.83l6.9,3.9a8.53,8.53,0,0,1,4.53,6.07,34.28,34.28,0,0,1,.43,7.89C135.14,222.74,134.86,228.14,131.91,226.47Z"/><polygon class="cls-10" points="81.2 138.91 84.44 128.96 80.12 105.31 70.41 132.82 81.2 138.91"/><polyline class="cls-10" points="84.44 128.96 87.03 121 91.99 145.01 81.2 138.91"/><polygon class="cls-8" points="39.12 161.1 42.03 152.14 44.52 164.15 39.12 161.1"/><polyline class="cls-8" points="40.74 156.13 38.58 144.3 33.73 158.06 39.12 161.1"/><polygon class="cls-8" points="62.86 174.51 65.77 165.55 68.25 177.56 62.86 174.51"/><polyline class="cls-8" points="64.48 169.53 62.32 157.71 57.46 171.46 62.86 174.51"/><polygon class="cls-8" points="87.67 188.53 89.29 183.55 87.13 171.72 82.28 185.48 87.67 188.53"/><polyline class="cls-8" points="89.29 183.55 90.58 179.57 93.07 191.57 87.67 188.53"/><path class="cls-3" d="M31.41,49.74v3a.59.59,0,0,1-.89.51l-1.89-1.06a1,1,0,0,1-.52-.89V48.29a.59.59,0,0,1,.89-.51l1.88,1.06A1,1,0,0,1,31.41,49.74Z"/><path class="cls-3" d="M114.58,96.73v3a.6.6,0,0,1-.89.52l-1.88-1.06a1,1,0,0,1-.52-.9v-3a.59.59,0,0,1,.88-.52l1.89,1.07A1,1,0,0,1,114.58,96.73Z"/><path class="cls-3" d="M122.13,101V104a.59.59,0,0,1-.88.52l-1.89-1.06a1,1,0,0,1-.52-.9v-3a.6.6,0,0,1,.89-.52l1.88,1.07A1,1,0,0,1,122.13,101Z"/><path class="cls-3" d="M128.61,104.65v3a.59.59,0,0,1-.89.51l-1.88-1.06a1,1,0,0,1-.53-.89V103.2a.59.59,0,0,1,.89-.51l1.89,1.06A1,1,0,0,1,128.61,104.65Z"/><path class="cls-3" d="M135.08,108.31v3a.6.6,0,0,1-.89.52l-1.88-1.06a1,1,0,0,1-.53-.9v-3a.6.6,0,0,1,.89-.52l1.89,1.07A1,1,0,0,1,135.08,108.31Z"/></g><path class="cls-4" d="M24.08,38.56a2.16,2.16,0,0,1,1,.32l112.2,63.38c2.48,1.4,3.24,6.67,3.24,8.9V238.42A10.35,10.35,0,0,1,140,242c-.38,1-.81,1.95-1.68,1.95a2.16,2.16,0,0,1-1-.32L25.1,180.28c-2.48-1.4-3.24-6.67-3.24-8.9V44.12a10.12,10.12,0,0,1,.54-3.61c.38-1,.81-1.95,1.68-1.95m0-2c-2.35,0-3.19,2.28-3.55,3.25a12.21,12.21,0,0,0-.66,4.3V171.38c0,.09,0,8.26,4.25,10.64l112.2,63.38a4.11,4.11,0,0,0,2,.58c2.35,0,3.19-2.29,3.55-3.26a12.21,12.21,0,0,0,.66-4.3V111.16c0-.08-.05-8.26-4.25-10.63L26.08,37.15a4,4,0,0,0-2-.58Z"/></g></g></svg>