<svg xmlns="http://www.w3.org/2000/svg" xmlns:xlink="http://www.w3.org/1999/xlink" viewBox="0 0 487.33 404.29"><defs><style>.cls-1{fill:#c6c6c6;}.cls-2{fill:#e6e7e8;}.cls-3{fill:#bcbec0;}.cls-4{fill:#939598;}.cls-5{fill:#6d6e71;}.cls-6{fill:#00eb96;}.cls-10,.cls-11,.cls-15,.cls-16,.cls-6,.cls-7,.cls-8,.cls-9{opacity:0.9;}.cls-7{fill:#00bd78;}.cls-8{fill:#70ffcb;}.cls-9{fill:url(#linear-gradient);}.cls-10{fill:#d31654;}.cls-11{fill:url(#linear-gradient-2);}.cls-12{fill:#a7a9ac;}.cls-13{fill:#afb0b2;}.cls-14{fill:#cfd0d1;}.cls-15{fill:#fa5288;}.cls-16{fill:url(#linear-gradient-3);}.cls-17,.cls-18{fill:none;stroke:#6d6e71;}.cls-17{stroke-miterlimit:10;}.cls-18{stroke-linejoin:round;}</style><linearGradient id="linear-gradient" x1="468.54" y1="181.67" x2="485" y2="181.67" gradientUnits="userSpaceOnUse"><stop offset="0" stop-color="#fa5288" stop-opacity="0.9"/><stop offset="0.06" stop-color="#fa5288" stop-opacity="0.9"/><stop offset="0.41" stop-color="#fa5288" stop-opacity="0.9"/></linearGradient><linearGradient id="linear-gradient-2" x1="47.52" y1="270.49" x2="68.27" y2="270.49" xlink:href="#linear-gradient"/><linearGradient id="linear-gradient-3" x1="335" y1="119.49" x2="375.85" y2="119.49" xlink:href="#linear-gradient"/></defs><title>Asset 3</title><g id="Layer_2" data-name="Layer 2"><g id="content"><path class="cls-1" d="M347.92,96.51l-25.57-7.09-8.07-7.26-5.83-20.25L183.13,128a4.93,4.93,0,0,1,1.15,3.18,4.67,4.67,0,0,1-4.53,4.8,4.27,4.27,0,0,1-.81-.09l1,155.65,95,25.3,78-107.12Z"/><path class="cls-1" d="M205.41,152.6a5.15,5.15,0,0,1,2.81-4.7l50.56-26.67c1.7-.89,2.81-.16,2.81,1.74v45.08a5.17,5.17,0,0,1-2.81,4.7l-50.56,26.67c-1.7.89-2.81.16-2.81-1.74Z"/><path class="cls-2" d="M198.33,194.88l7.82,4.66h0a2.25,2.25,0,0,1-.67-1.85V152.63a5.18,5.18,0,0,1,2.81-4.71l50.56-26.66a2.45,2.45,0,0,1,1.58-.36h0l-7.59-4.44a1.73,1.73,0,0,0-2,.1l-50.57,26.67a5.17,5.17,0,0,0-2.81,4.7V193a1.85,1.85,0,0,0,.82,1.85"/><path class="cls-2" d="M193.69,116.26c-9.4,5-16.85,17.64-16.85,28.21V282.93l5.33.92V147.59c-1.1-11.18,6.66-23.69,17.08-28.08l109.2-57.6-6.29-2.86L193.69,116.26"/><path class="cls-3" d="M141.27,303.47c2.76-4.61,6.23-14.22.08-18.16-6.34-4.06-13.16,3.64-16,8.33s-6.22,14.23-.07,18.17C131.64,315.87,138.47,308.17,141.27,303.47Z"/><path class="cls-4" d="M137.26,300.74c1.23-2.05,2.77-6.32,0-8.07s-5.84,1.62-7.09,3.7-2.76,6.32,0,8.07S136,302.83,137.26,300.74Z"/><path class="cls-2" d="M125.39,311.87l-10.55-6.18c-6.4-3.75-3-13.41-.23-18.09s9.49-12.39,15.89-8.64l10.06,5.89h0c-6.1-3-12.47,4.3-15.16,8.79s-6.23,14.23-.08,18.17"/><path class="cls-5" d="M126.94,278a7,7,0,0,1,3.56,1l10.07,5.9h0s.49.26.79.46c6.15,3.95,2.68,13.56-.07,18.17-2.25,3.77-7.1,9.48-12.2,9.48a6.88,6.88,0,0,1-3.77-1.14l-10.47-6.13c-6.39-3.75-3-13.41-.23-18.08,2.24-3.82,7.13-9.65,12.33-9.65m0-1c-5.34,0-10.44,5.46-13.19,10.14-3.1,5.28-6.45,15.33.59,19.46l10.47,6.12a7.84,7.84,0,0,0,4.27,1.28c5.24,0,10.31-5.37,13.06-10,2.89-4.84,6.56-15.15-.25-19.52A6.16,6.16,0,0,0,141,284l-10-5.87a8,8,0,0,0-4.06-1.13Z"/><path class="cls-6" d="M289,48.78c2.76-4.61,6.23-14.22.08-18.16-6.34-4.06-13.16,3.64-16,8.33s-6.22,14.23-.07,18.17C279.33,61.18,286.16,53.48,289,48.78Z"/><path class="cls-7" d="M285,46.05c1.23-2,2.77-6.32,0-8.07s-5.84,1.62-7.09,3.71-2.76,6.31,0,8.06S283.7,48.14,285,46.05Z"/><path class="cls-8" d="M273.08,57.18,262.53,51c-6.4-3.75-3-13.41-.23-18.09s9.49-12.39,15.89-8.64l10.06,5.89v0c-6.1-3-12.47,4.29-15.16,8.78s-6.23,14.23-.08,18.17"/><path class="cls-3" d="M427.91,282c2.75-4.61,6.22-14.22.07-18.16-6.34-4.06-13.16,3.64-16,8.33s-6.22,14.23-.07,18.17C418.28,294.35,425.1,286.65,427.91,282Z"/><path class="cls-4" d="M423.89,279.22c1.23-2.05,2.77-6.32,0-8.07s-5.85,1.62-7.1,3.71-2.76,6.31,0,8.07S422.65,281.31,423.89,279.22Z"/><path class="cls-2" d="M412,290.35l-10.55-6.18c-6.4-3.75-3-13.41-.23-18.09s9.49-12.39,15.89-8.64l10.06,5.89v0c-6.1-3-12.47,4.29-15.16,8.78s-6.22,14.23-.07,18.17"/><path class="cls-5" d="M413.57,256.44a7,7,0,0,1,3.56,1l10.07,5.9h0s.49.26.79.46c6.15,3.95,2.68,13.56-.07,18.17-2.25,3.77-7.1,9.48-12.2,9.48a6.88,6.88,0,0,1-3.77-1.14l-10.47-6.12c-6.39-3.76-3-13.42-.23-18.09,2.24-3.82,7.14-9.65,12.33-9.65m0-1c-5.33,0-10.44,5.46-13.19,10.14-3.09,5.28-6.45,15.33.59,19.46l10.47,6.12a7.84,7.84,0,0,0,4.27,1.28c5.24,0,10.31-5.37,13.06-10,2.89-4.84,6.56-15.15-.25-19.52a8.47,8.47,0,0,0-.86-.51l-10-5.87a7.93,7.93,0,0,0-4.06-1.13Z"/><path class="cls-8" d="M125.65,345.56c-4.48-2.87-9.3,2.58-11.29,5.9s-4.4,10.06,0,12.84l-.46-.26-2.07-1.22c-4.58-2.68-2.07-9.6-.08-12.92s6.69-8.59,11.15-6l2.24,1.31"/><path class="cls-6" d="M114.28,351.44c2-3.32,6.8-8.77,11.29-5.9s1.89,9.59-.06,12.85-6.81,8.76-11.29,5.89S112.33,354.7,114.28,351.44Z"/><path class="cls-9" d="M485,173.47c-4.48-2.87-9.31,2.57-11.29,5.89s-4.4,10.06,0,12.85l-.46-.27-2.07-1.21c-4.59-2.69-2.08-9.6-.09-12.93s6.69-8.59,11.16-6l2.23,1.3"/><path class="cls-10" d="M473.62,179.34c2-3.32,6.81-8.76,11.29-5.89s1.9,9.58-.05,12.84-6.81,8.76-11.29,5.89S471.67,182.6,473.62,179.34Z"/><path class="cls-2" d="M337,3.34c-4.48-2.87-9.31,2.58-11.29,5.9s-4.4,10-.05,12.84l-.46-.27-2.07-1.21C318.53,17.92,321,11,323,7.67s6.69-8.59,11.16-6L336.42,3"/><path class="cls-3" d="M325.61,9.21c2-3.32,6.81-8.76,11.29-5.89s1.9,9.58,0,12.85-6.81,8.76-11.29,5.89S323.66,12.47,325.61,9.21Z"/><path class="cls-5" d="M331.68,1a4.84,4.84,0,0,1,2.5.7L336.43,3l.19.11L336.46,3l.43.28c4.37,2.78,1.9,9.59-.05,12.85-1.59,2.66-5,6.7-8.62,6.7a4.9,4.9,0,0,1-2.66-.81,1.12,1.12,0,0,0-.15-.11l-.22-.14-2.08-1.21c-4.58-2.68-2.06-9.6-.08-12.93C324.62,5,328.06,1,331.68,1m0-1c-3.84,0-7.52,3.85-9.51,7.15-.6,1-3.51,6.22-2.39,10.55a5.9,5.9,0,0,0,2.83,3.76l2.07,1.21.2.12h0l.07.06.06,0a5.88,5.88,0,0,0,3.2,1c3.83,0,7.5-3.87,9.48-7.19,2.1-3.51,4.76-11-.27-14.2l-.1-.07a.83.83,0,0,0-.21-.16l-.2-.11L334.69.83a5.91,5.91,0,0,0-3-.83Z"/><path class="cls-10" d="M61.05,275l5,3.07c1.39.86,1.88-.3,2.48-1.32s1.38-2,0-2.83l-5-3.07,5-8.3c.61-1,1.37-2,0-2.83s-1.88.28-2.49,1.3l-5,8.3"/><path class="cls-10" d="M61.05,269.35l-5-3.07c-1.39-.86-1.87.29-2.48,1.32s-1.45,2.1-.07,2.95l5,2.95,0,0-4.94,8.26c-.61,1-1.37,2,0,2.84s1.88-.28,2.49-1.3l5-8.3"/><line class="cls-3" x1="66.01" y1="278.17" x2="61.02" y2="275.09"/><path class="cls-11" d="M53.25,270.39l5.33,3.12v0l-4.94,8.26c-.61,1-1.38,2,0,2.84l-.22-.13-5.09-3h0c-1.39-.86-.62-1.81,0-2.84l5-8.29-5-3.07c-1.39-.86-.62-1.81,0-2.83s1.09-2.18,2.48-1.32l5.11,3-.08,0,4.89-8.18c.61-1,1.09-2.16,2.48-1.31l5.1,3h0c-1.2-.6-1.67.48-2.25,1.44l-5,8.3-5-3.07c-1.4-.86-1.88.3-2.49,1.32s-1.46,2.09-.08,2.94"/><path class="cls-3" d="M197.19,59l5,3.07c1.39.86,1.88-.29,2.49-1.32s1.37-2,0-2.83l-5-3.07,5-8.29c.61-1,1.38-2,0-2.84s-1.88.28-2.49,1.3l-5,8.3-2.77-1.72L192,50.11l-.07,0"/><path class="cls-3" d="M197.19,53.31l-4.95-3.07c-1.39-.86-1.88.3-2.49,1.32s-1.45,2.1-.07,3l5,2.94,0,0-4.94,8.26c-.61,1-1.38,2,0,2.84s1.88-.28,2.49-1.3l4.95-8.3"/><line class="cls-3" x1="202.15" y1="62.13" x2="197.16" y2="59.05"/><path class="cls-2" d="M189.4,54.35l5.33,3.12,0,0-4.94,8.27c-.61,1-1.37,2,0,2.83l-.22-.13-5.08-3h0c-1.39-.86-.61-1.82,0-2.84l5-8.3-5-3.07c-1.38-.85-.61-1.8,0-2.83s1.1-2.18,2.49-1.32l5.1,3-.07,0,4.88-8.18c.61-1,1.1-2.16,2.48-1.3l5.1,3h0c-1.2-.61-1.67.47-2.25,1.44l-4.95,8.29-5-3.06c-1.39-.86-1.88.29-2.49,1.32s-1.46,2.08-.08,2.94"/><path class="cls-5" d="M198.44,40.31a1.7,1.7,0,0,1,.87.3l5.11,3-.07,0h0l.29.14c1.37.88.6,1.82,0,2.84l-5,8.29,5,3.07c1.37.85.6,1.81,0,2.83-.46.78-.85,1.63-1.61,1.63a1.64,1.64,0,0,1-.88-.31l-5-3.06-4.95,8.29c-.46.78-.86,1.62-1.61,1.62a1.67,1.67,0,0,1-.88-.31l-.2-.13-5.09-3h0c-1.39-.85-.62-1.82,0-2.84l4.95-8.3-4.95-3.07c-1.39-.85-.62-1.8,0-2.82.46-.78.85-1.63,1.61-1.63a1.64,1.64,0,0,1,.88.31l5,2.94h0l4.89-8.17c.45-.77.84-1.61,1.6-1.61m0-1c-1.25,0-1.87,1.07-2.31,1.84l-.15.26-4.38,7.32-4.18-2.44a2.51,2.51,0,0,0-1.38-.45c-1.26,0-1.88,1.09-2.33,1.88l-.14.24-.16.26c-.52.85-1.61,2.62.51,3.92L188,54.69l-4.45,7.46-.14.23a3.25,3.25,0,0,0-.72,2.47,2.39,2.39,0,0,0,1.14,1.46l.09.07,5.09,3,.2.11a2.5,2.5,0,0,0,1.39.46c1.24,0,1.86-1.07,2.32-1.85l.15-.25,4.43-7.43,4.09,2.53a2.67,2.67,0,0,0,1.41.46c1.26,0,1.87-1.08,2.32-1.86l.15-.26.15-.25c.52-.86,1.61-2.64-.49-3.94L201,54.52l4.45-7.45.17-.27c.52-.84,1.59-2.59-.48-3.92l-.22-.12,0,0-5.1-3a2.63,2.63,0,0,0-1.38-.44Z"/><path class="cls-3" d="M422.58,212.36l5,3.06c1.39.87,1.88-.29,2.48-1.32s1.38-2,0-2.82l-5-3.07,5-8.3c.61-1,1.37-2,0-2.83s-1.88.27-2.49,1.3l-5,8.3L419.8,205l-2.41-1.49-.07,0"/><path class="cls-3" d="M422.58,206.68l-5-3.07c-1.39-.86-1.87.29-2.48,1.32s-1.45,2.1-.07,2.95l5,2.94,0,0-4.94,8.27c-.61,1-1.37,2,0,2.83s1.88-.27,2.49-1.3l5-8.29"/><line class="cls-3" x1="427.54" y1="215.5" x2="422.54" y2="212.42"/><path class="cls-2" d="M414.78,207.71l5.33,3.13,0,0-4.93,8.26c-.61,1-1.38,2,0,2.84l-.21-.13-5.09-3h0c-1.38-.86-.61-1.81,0-2.84l5-8.3-5-3.06c-1.38-.86-.61-1.81,0-2.83s1.09-2.18,2.48-1.32l5.11,3-.08-.05,4.89-8.17c.61-1,1.09-2.16,2.48-1.31l5.1,3h0c-1.2-.6-1.68.48-2.25,1.44l-5,8.3-5-3.07c-1.39-.86-1.87.29-2.48,1.32s-1.46,2.09-.08,2.94"/><path class="cls-5" d="M423.82,193.68a1.7,1.7,0,0,1,.88.3l5.1,3-.07,0h0a1.61,1.61,0,0,1,.29.15c1.38.88.61,1.81,0,2.83l-5,8.3,5,3.06c1.38.86.61,1.82,0,2.84-.45.77-.84,1.62-1.6,1.62a1.76,1.76,0,0,1-.89-.3l-4.95-3.07-4.95,8.29c-.47.78-.86,1.62-1.61,1.62a1.64,1.64,0,0,1-.88-.31l-.21-.12-5.09-3v0c-1.39-.85-.62-1.81,0-2.83l4.95-8.31-4.95-3.07c-1.39-.85-.62-1.8,0-2.82.46-.77.85-1.62,1.61-1.62a1.7,1.7,0,0,1,.88.3l5,3h0l4.88-8.18c.46-.76.84-1.6,1.6-1.6m0-1c-1.25,0-1.86,1.06-2.31,1.84l-.15.25L417,202.1l-4.18-2.45a2.64,2.64,0,0,0-1.39-.44c-1.25,0-1.87,1.08-2.33,1.87l-.14.25-.15.25c-.53.85-1.61,2.63.5,3.92l4.12,2.55L409,215.52l-.14.23a3.23,3.23,0,0,0-.73,2.46,2.44,2.44,0,0,0,1.14,1.47l.1.06,5.09,3,.19.12a2.6,2.6,0,0,0,1.4.45c1.24,0,1.86-1.06,2.31-1.84l.15-.26,4.44-7.42,4.09,2.53a2.68,2.68,0,0,0,1.41.45c1.25,0,1.87-1.07,2.32-1.86l.14-.26.16-.25c.52-.85,1.61-2.63-.49-3.94l-4.13-2.55,4.46-7.45.16-.27c.52-.84,1.6-2.59-.48-3.92l-.22-.12,0,0-5.11-3a2.61,2.61,0,0,0-1.38-.43Z"/><polygon class="cls-12" points="177.06 248.65 177.06 283.08 169.99 281.86 156.48 273.95 177.06 248.65"/><polygon class="cls-12" points="370.32 195.77 370.32 297.62 168.06 404.29 168.06 281.95 169.18 282.14 269.19 299.44 370.33 175.27 370.32 195.77"/><polygon class="cls-4" points="168.06 281.94 168.06 404.29 154.73 396.49 154.73 274.14 168.06 281.94"/><polygon class="cls-2" points="370.33 175.27 369.2 176.65 269.2 299.44 268.13 298.81 368.14 176.03 369.26 174.65 370.33 175.27"/><polygon class="cls-2" points="169.92 281.82 163.85 278.27 158.52 275.14 156.47 273.94 155.8 274.76 157.4 275.74 162.73 278.86 166.99 281.36 168.06 281.98 169.92 281.82"/><polygon class="cls-2" points="177.06 248.65 156.92 273.38 155.8 274.76 154.73 274.14 155.85 272.76 177.06 246.72 177.06 248.65"/><path class="cls-2" d="M317.66,92.23c-5.14-2.41-9.21-8.6-9.21-13.4V61.93l5.33,2.42s.09,18.8.15,19.37c0,.09,0,.16,0,.24a13.51,13.51,0,0,0,3.7,8.27Z"/><path class="cls-1" d="M313.79,64.35v16.9c0,11.22,6.6,15.87,16.78,10.69a89.45,89.45,0,0,1,15.5-13.62Z"/><path class="cls-3" d="M345.38,187.39A50.26,50.26,0,0,0,357,181.93v7.78h0L345.38,204h0Z"/><path class="cls-4" d="M366.9,174.4a73.33,73.33,0,0,1-9.91,7.53v7.79h0l11.58-14.23Z"/><path class="cls-2" d="M368.57,175.49l-1.67-1.09.84-.76,1.52,1Z"/><polygon class="cls-2" points="0.85 180.39 131.63 24.07 66.02 203.38 0.85 180.39"/><polygon class="cls-13" points="66.02 203.38 67.79 216.28 131.63 24.07 66.02 203.38"/><polygon class="cls-14" points="67.79 216.28 131.63 24.07 86.39 210.7 67.79 216.28"/><polygon class="cls-2" points="151.27 233.7 86.39 210.71 131.63 24.07 151.27 233.7"/><path class="cls-2" d="M439.33,98.69a3.68,3.68,0,0,0-1.78,1.06c-1.58,1.91-1.63,3.71-1.41,6.19,1.26,14.93-1.68,29.7-8.77,45.59l.06-.17c-.77,2.37-.81,4.21.69,6.36a3.1,3.1,0,0,0,1.6,1.31v.06l-2.63,0c-2.13-.07-2.45-1.58-2.87-3.24a7.57,7.57,0,0,1,.13-4.47l-.06.16c7-15.75,9.93-30.81,8.61-46-.48-2.65.26-7.65,3.88-7.22l2.58.41"/><path class="cls-2" d="M419.92,85.54a4,4,0,0,0-1.84,1,6.48,6.48,0,0,0-1.87,6.12c4.7,25.41-.3,46.9-15.67,69.18-1.19,2.19-1.56,4-.48,6.38a3.14,3.14,0,0,0,1.33,1.58l0,.05-2.57-.51c-2.08-.46-2.12-2-2.23-3.71a7.57,7.57,0,0,1,.95-4.37c15-21.85,20.16-43.28,15.66-69.18-.36-2.64.65-7.46,4.16-7.07l2.59.55"/><path class="cls-2" d="M309.83,171c4,14.72-1.6,25-8,36.92h0l-2.67-1.56h0c6.44-11.93,12-22.2,8-36.93-7.77-22.09,3.68-50.52,15.8-67.43,11.44-16,37.27-40.73,60-27.43l.28.29c-9.28-4.15-20.07-1.62-28.81,2.78-11.58,5.84-19.88,14-27.51,24.15C314.11,118.94,301.84,148.29,309.83,171Z"/><path class="cls-1" d="M309.73,171c-8-22.75,4.28-52.1,17.08-69.2,7.63-10.18,15.93-18.31,27.51-24.15,10.67-5.38,24.39-8,34.7,1,19.43,16.88,8.45,51.64-1,69-9.67,17.66-32.3,43.84-56.8,41.33-12.11-.12-23,11.09-29.49,18.93C308.13,196,313.69,185.76,309.73,171Z"/><path class="cls-10" d="M360.05,159l3.95-6.61c-2.9-1.8-.26-3.77.48-5.68a60.25,60.25,0,0,1,2.51-5.48c1.83-3.58,3.84-7.06,5.9-10.51,3.69-6.17,12.49-19.44,3-25.33s-17,8.14-20.74,14.33c-2.05,3.44-4.15,6.84-6.44,10.14-1.14,1.65-2.31,3.26-3.61,4.79s-1.85,4.88-4.76,3.07l-3.95,6.61Z"/><polygon class="cls-15" points="331.05 141.18 336.35 144.28 340.3 137.67 335 134.57 331.05 141.18"/><path class="cls-16" d="M335,134.57c2.92,1.8,3.43-1.52,4.76-3.08s2.47-3.14,3.62-4.79c2.28-3.3,4.38-6.7,6.43-10.13,3.7-6.19,11.12-20.29,20.74-14.34h0l4.21,2.47,1.09.64c-9.62-6-17,8.14-20.73,14.33-2.06,3.44-4.16,6.84-6.44,10.14-1.14,1.64-2.32,3.26-3.62,4.79s-1.84,4.87-4.76,3.07Z"/><path class="cls-10" d="M350.44,158.07l-3.95-2.44-3.95-2.44c-2,3.25-4.42,6.27,0,9S348.49,161.34,350.44,158.07Z"/><path class="cls-15" d="M342.54,153.19l-5.27-3.11c-2,3.41-4.46,6.67.28,9.22h0l5,2.91h0c-4.38-2.76-1.91-5.78,0-9"/><path class="cls-10" d="M380.41,104.29l2.23-3.74c1.14-1.9,2.35-3.61-.11-5.19s-3.49.35-4.63,2.26l-2.23,3.74A5.18,5.18,0,0,1,380.41,104.29Z"/><path class="cls-15" d="M382.07,95.09l-4.87-2.85c-2.5-1.55-3.46.37-4.6,2.27l-2.23,3.74,5.3,3.1,2.23-3.73c1.14-1.92,2.13-3.86,4.63-2.26"/><path class="cls-2" d="M443.09,254l.18-.33-.24.29Z"/><polygon class="cls-2" points="440.44 252.44 440.44 252.43 440.44 252.43 440.44 252.44"/><polygon class="cls-2" points="443.11 253.99 443.09 253.98 443.09 253.99 443.11 253.99"/><path class="cls-3" d="M443,254l0-.05h0Z"/><path class="cls-5" d="M369.21,71.08a27.37,27.37,0,0,1,14,3.83,19.11,19.11,0,0,1,5.62,3.64c19.37,17,8.65,51.59-.85,69C378.78,164.37,357.72,189,334.5,189c-1.09,0-2.19-.06-3.3-.17H331c-11.86,0-22.54,10.82-29,18.6l-.25.28-2.58-1.51c6.44-11.93,12-22.2,8-36.92-7.76-22.09,3.69-50.52,15.8-67.44,9.13-12.75,27.59-30.77,46.21-30.77m0-1c-18.22,0-36.71,16.8-47,31.19-13.33,18.62-23.43,47-15.94,68.32,3.83,14.3-1.62,24.4-7.93,36.1l0,.05-.46.85.84.48,2.57,1.51.7.41.55-.61.25-.28C312.83,196,322.33,189.84,331,189.84h.14c1.11.11,2.23.17,3.35.17,10.54,0,21.84-5.08,32.66-14.68A105.81,105.81,0,0,0,388.88,148c9.05-16.54,20.83-52.5.63-70.18A20.22,20.22,0,0,0,383.66,74a28.41,28.41,0,0,0-14.45-3.93Z"/><path class="cls-17" d="M205.63,199.41a2,2,0,0,0,2-.08l50.56-26.67A5.16,5.16,0,0,0,261,168V122.89a2.11,2.11,0,0,0-1.23-2.09h0l-7.59-4.44a1.75,1.75,0,0,0-2,.11l-50.57,26.67a5.16,5.16,0,0,0-2.81,4.7v45.07a1.83,1.83,0,0,0,.83,1.84l0,0,8.12,4.75"/><path class="cls-2" d="M206.5,242.59c-1.5-.88-.58-5.16,1.9-6.66l22.47-11.85a2.59,2.59,0,0,1,1.58-.36h0l-8.19-5.06L200.4,231.25A5.45,5.45,0,0,0,198,234.2c-.51,1.37-1,2.49.46,3.59l0,0,8,4.67"/><path class="cls-1" d="M208.4,242.37c-3.8,2-3.19-4.52,0-6.44l22.47-11.85c1.7-.9,2.81-.16,2.81,1.73a5.16,5.16,0,0,1-2.81,4.7Z"/><path class="cls-1" d="M259,203l-50.56,26.67c-3.8,2-3.19-4.52,0-6.44L259,196.61C262.75,194.6,262.14,201.12,259,203Z"/><path class="cls-2" d="M198.42,225.14c-1.46-1.1-1-2.22-.46-3.59a5.45,5.45,0,0,1,2.45-3L251,191.93a1.77,1.77,0,0,1,2-.11l7.58,4.45h0a2.36,2.36,0,0,0-1.57.34l-50.56,26.67c-2.28,1.38-3.25,5.1-2.22,6.38l0,0-7.72-4.52"/><path class="cls-6" d="M259,190.26l-50.56,26.67c-3.8,2-3.19-4.52,0-6.44L259,183.82C262.75,181.82,262.14,188.34,259,190.26Z"/><path class="cls-8" d="M198.42,212.36c-1.46-1.1-1-2.22-.46-3.6a5.46,5.46,0,0,1,2.45-2.94L251,179.15a1.77,1.77,0,0,1,2-.11l7.58,4.44h0a2.36,2.36,0,0,0-1.57.34L208.41,210.5c-2.28,1.37-3.25,5.1-2.22,6.38l0,0-7.72-4.52"/><path class="cls-18" d="M198.14,225.08c-1.48-1.14-.88-2.58-.47-3.67a5.54,5.54,0,0,1,2.48-3l4.52-2.38L198.14,212h0c-1.49-1.13-1-2.27-.48-3.68a5.5,5.5,0,0,1,2.49-3l51.4-27.06a2.09,2.09,0,0,1,1.59.17l7.73,4.55h0c2.12,1.12,1.66,5.47-1,6.86l-4.68,2.49,6.05,3.57c2.4,1,1.39,5.58-1.48,6.84l-32.6,17.37,5.68,3.91h0a2.81,2.81,0,0,1,1.26,2.14,5.25,5.25,0,0,1-2.85,4.79l-22.83,12a2,2,0,0,1-2.25.16l-7.89-4.84,0,0c-1.49-1.12-1-2.26-.47-3.67a5.49,5.49,0,0,1,2.48-3l4.4-2.24-6.41-4.21Z"/><path class="cls-3" d="M422.52,88.91c5,28.88-.57,53.29-17.51,78.77-1.33,2.44-3.65,3.47-5,.58-1.08-2.39-.71-4.19.49-6.37,15.36-22.29,20.36-43.77,15.66-69.18A6.5,6.5,0,0,1,418,86.57c2.19-2.25,4.09-.5,4.48,2.28"/><path class="cls-3" d="M427.33,151.55c7.09-15.88,10-30.65,8.77-45.58-.21-2.48-.17-4.28,1.41-6.19,2-2.42,4-.61,4.49,2.14,2,17.89-1.09,35.49-9.2,54.51l.06-.16c-.86,2.64-2.95,4.08-4.77,1.47-1.51-2.15-1.47-4-.69-6.35"/><path class="cls-17" d="M177.06,283.3s-.89-105.83.06-140.37c.25-8.91,2.85-19.76,20.35-28.45,18.14-9,104.91-55.34,104.91-55.34l43.54,19.15"/><polygon class="cls-2" points="166.89 281.3 268.13 298.81 269.19 299.44 168.06 281.98 166.89 281.3"/><path class="cls-17" d="M308.34,62.11l-.11,18.12s3.79,17.88,22.09,11.6"/><polygon class="cls-17" points="65.72 203.38 0.84 180.39 131.63 24.07 151.27 233.7 86.39 210.71 67.79 216.29 65.72 203.38"/></g></g></svg>