<?xml version="1.0" encoding="utf-8"?>
<!-- Generator: Adobe Illustrator 22.1.0, SVG Export Plug-In . SVG Version: 6.00 Build 0)  -->
<svg version="1.1" id="Layer_1" xmlns="http://www.w3.org/2000/svg" xmlns:xlink="http://www.w3.org/1999/xlink" x="0px" y="0px"
	 viewBox="0 0 450 492" style="enable-background:new 0 0 450 492;" xml:space="preserve">
<style type="text/css">
	.st0{fill:#E6E7E8;}
	.st1{fill:#CCCCCC;}
	.st2{fill:#F2F2F2;}
	.st3{fill:#E6E6E6;}
	.st4{fill-rule:evenodd;clip-rule:evenodd;fill:#FFFFFF;}
	.st5{fill-rule:evenodd;clip-rule:evenodd;fill:#F0F4FA;}
	.st6{fill-rule:evenodd;clip-rule:evenodd;fill:#DCE4F2;}
	.st7{fill-rule:evenodd;clip-rule:evenodd;fill:#E4EAF5;}
	.st8{fill-rule:evenodd;clip-rule:evenodd;fill:#F7FAFF;}
	.st9{fill-rule:evenodd;clip-rule:evenodd;fill:#05345E;}
	.st10{fill-rule:evenodd;clip-rule:evenodd;fill:#032747;}
	.st11{fill-rule:evenodd;clip-rule:evenodd;fill:#084478;}
	.st12{fill-rule:evenodd;clip-rule:evenodd;fill:#D1D2D2;}
	.st13{fill-rule:evenodd;clip-rule:evenodd;fill:#E4ECED;}
	.st14{fill-rule:evenodd;clip-rule:evenodd;fill:#F7FCFC;}
	.st15{fill-rule:evenodd;clip-rule:evenodd;fill:#00FFA3;}
	.st16{fill-rule:evenodd;clip-rule:evenodd;fill:#D31654;}
	.st17{fill-rule:evenodd;clip-rule:evenodd;fill:#184C7F;}
	.st18{fill-rule:evenodd;clip-rule:evenodd;fill:#05A3DD;}
	.st19{fill-rule:evenodd;clip-rule:evenodd;fill:#FFDBA7;}
	.st20{fill-rule:evenodd;clip-rule:evenodd;fill:#F0C17D;}
	.st21{fill-rule:evenodd;clip-rule:evenodd;fill:#8C6C4A;}
	.st22{fill-rule:evenodd;clip-rule:evenodd;fill:#F7CC8F;}
	.st23{fill-rule:evenodd;clip-rule:evenodd;fill:#279CD6;}
	.st24{fill-rule:evenodd;clip-rule:evenodd;fill:#163240;}
	.st25{fill-rule:evenodd;clip-rule:evenodd;fill:#027CB2;}
	.st26{fill-rule:evenodd;clip-rule:evenodd;}
	.st27{fill-rule:evenodd;clip-rule:evenodd;fill:#9FA3BD;}
	.st28{fill-rule:evenodd;clip-rule:evenodd;fill:#48453E;}
	.st29{fill-rule:evenodd;clip-rule:evenodd;fill:#1F4351;}
	.st30{fill-rule:evenodd;clip-rule:evenodd;fill:#294F5E;}
	.st31{fill-rule:evenodd;clip-rule:evenodd;fill:#376375;}
	.st32{fill-rule:evenodd;clip-rule:evenodd;fill:#041D33;}
	.st33{fill-rule:evenodd;clip-rule:evenodd;fill:#08355C;}
	.st34{fill-rule:evenodd;clip-rule:evenodd;fill:#367C83;}
	.st35{fill-rule:evenodd;clip-rule:evenodd;fill:#46AAB4;}
	.st36{fill-rule:evenodd;clip-rule:evenodd;fill:#021A30;}
	.st37{fill-rule:evenodd;clip-rule:evenodd;fill:#615D54;}
	.st38{fill-rule:evenodd;clip-rule:evenodd;fill:#C1C3D4;}
	.st39{opacity:0.1;fill-rule:evenodd;clip-rule:evenodd;}
	.st40{fill-rule:evenodd;clip-rule:evenodd;fill:#005BAB;}
	.st41{fill-rule:evenodd;clip-rule:evenodd;fill:#290F01;}
	.st42{fill-rule:evenodd;clip-rule:evenodd;fill:#E2D7E3;}
	.st43{fill-rule:evenodd;clip-rule:evenodd;fill:#8A8B8C;}
	.st44{fill-rule:evenodd;clip-rule:evenodd;fill:#F5EBF5;}
	.st45{fill-rule:evenodd;clip-rule:evenodd;fill:#042847;}
	.st46{fill-rule:evenodd;clip-rule:evenodd;fill:#CBBECC;}
	.st47{fill-rule:evenodd;clip-rule:evenodd;fill:#25232B;}
	.st48{fill-rule:evenodd;clip-rule:evenodd;fill:#D0DBDF;}
	.st49{fill-rule:evenodd;clip-rule:evenodd;fill:#33303B;}
	.st50{fill-rule:evenodd;clip-rule:evenodd;fill:#ECF3F6;}
	.st51{fill-rule:evenodd;clip-rule:evenodd;fill:#632404;}
	.st52{fill-rule:evenodd;clip-rule:evenodd;fill:#EBF4F5;}
	.st53{fill-rule:evenodd;clip-rule:evenodd;fill:#C8D8D9;}
	.st54{fill-rule:evenodd;clip-rule:evenodd;fill:#331202;}
	.st55{fill-rule:evenodd;clip-rule:evenodd;fill:#471A03;}
	.st56{fill-rule:evenodd;clip-rule:evenodd;fill:#CCE4F0;}
	.st57{fill-rule:evenodd;clip-rule:evenodd;fill:#05CF87;}
	.st58{fill-rule:evenodd;clip-rule:evenodd;fill:#5CFFC4;}
	.st59{fill-rule:evenodd;clip-rule:evenodd;fill:#CED0E0;}
</style>
<g>
	<g>
		<g>
			<path class="st0" d="M225.7,15.8c9.8,0,19.5,2.5,28.3,7.6l150.5,86.9c17.2,9.9,27.8,28.3,27.8,48.2v175.4
				c0,19.2-10.2,36.9-26.8,46.5L253.6,468c-8.6,5-18.3,7.5-27.9,7.5s-19.3-2.5-27.9-7.5L46,380.4c-16.6-9.6-26.8-27.3-26.8-46.5
				V158.5c0-19.9,10.6-38.2,27.8-48.2l150.5-86.9C206.2,18.4,216,15.8,225.7,15.8 M225.7,4.8c-11.8,0-23.5,3.1-33.8,9L41.5,100.8
				c-20.5,11.9-33.3,34-33.3,57.7v175.4c0,23,12.4,44.5,32.3,56l151.8,87.7c10.1,5.9,21.7,9,33.4,9s23.3-3.1,33.4-9L411,389.9
				c20-11.5,32.3-33,32.3-56V158.5c0-23.7-12.8-45.8-33.3-57.7L259.5,13.9C249.2,8,237.6,4.8,225.7,4.8L225.7,4.8z"/>
		</g>
	</g>
	<g>
		<g>
			<g>
				<path class="st1" d="M224.2,245.2l-199,114.6c6.9,12.3,17,22.8,29.6,30.1l128.9,74.4c25.5,14.7,56.9,14.7,82.3,0L395,389.8
					c12.3-7.1,22.2-17.2,29.1-29.1L224.2,245.2z"/>
			</g>
			<path class="st2" d="M424,360.7c6.8-11.8,10.5-25.4,10.5-39.5V172.2c0-29.3-15.6-56.4-41-71l-127-73.3
				c-12.9-7.4-27.2-11.2-41.6-11.2l-0.7,228.5L424,360.7z"/>
			<path class="st3" d="M224.9,16.7c-14.4,0-28.8,3.7-41.7,11.2l-127,73.3c-25.4,14.6-41,41.7-41,71v149.1c0,13.7,3.6,26.9,10,38.5
				l199-114.6L224.9,16.7z"/>
		</g>
		<g>
			<g>
				<polygon class="st4" points="189.6,234.1 58,310.1 57.4,142.4 189.1,66.4 				"/>
				<polygon class="st5" points="58.1,310 58,300 181,228.8 189.5,234.1 				"/>
				<polygon class="st6" points="189.5,234.1 180.8,229 180.2,71.5 189.1,66.4 				"/>
			</g>
			<g>
				<polygon class="st6" points="130,268.5 121.8,263.2 122.2,105.1 130.2,100.4 132.2,111.5 				"/>
				<polygon class="st7" points="142.4,93.3 143,260.9 130,268.5 129.4,100.9 				"/>
			</g>
			<g>
				<polygon class="st8" points="57.3,249.7 57.2,239.6 180.2,168.4 188.7,173.7 				"/>
				<polygon class="st8" points="57.3,237.3 57.2,227.3 180.2,156.1 188.7,161.4 				"/>
				<polygon class="st8" points="57.3,225 57.2,214.9 180.2,143.7 188.7,149 				"/>
				<polygon class="st8" points="57.3,212.6 57.2,202.6 180.2,131.4 188.7,136.7 				"/>
				<polygon class="st8" points="57.3,200.3 57.2,190.2 180.2,119 188.7,124.3 				"/>
				<polygon class="st8" points="57.3,187.9 57.2,177.9 180.2,106.7 188.7,111.9 				"/>
				<polygon class="st8" points="57.3,175.5 57.2,165.5 180.2,94.3 188.7,99.6 				"/>
				<polygon class="st8" points="57.3,163.2 57.2,153.1 180.2,81.9 188.7,87.2 				"/>
				<polygon class="st8" points="57.3,150.8 57.2,140.8 180.2,69.6 188.7,74.9 				"/>
			</g>
		</g>
		<g>
			<g>
				<g>
					<polygon class="st9" points="361.4,257.2 366.3,254.3 366.3,259.5 361.4,262.4 					"/>
					<polygon class="st10" points="268.9,204 273.8,201.2 366.3,254.3 361.4,257.2 					"/>
					<polygon class="st11" points="361.4,257.2 361.4,262.4 268.9,209.2 268.9,204 					"/>
				</g>
				<g>
					<polygon class="st12" points="271.6,125.8 273.6,124.7 363.5,176.9 361.6,178 					"/>
					<polygon class="st13" points="361.6,178 363.5,176.9 363.3,254.6 361.3,255.8 					"/>
					<polygon class="st14" points="361.6,178 361.3,255.8 271.4,203.6 271.6,125.8 					"/>
				</g>
				<path class="st15" d="M351.4,186.8l1.5,0.9l0,0.9l-1.5-0.9L351.4,186.8L351.4,186.8z M344.1,237.2l0-1.8l0.8,0.4l0,1.8
					L344.1,237.2L344.1,237.2z M344.1,233.7l0-1.8l0.8,0.4l0,1.8L344.1,233.7L344.1,233.7z M344.1,230.2l0-1.7l0.8,0.4l0,1.7
					L344.1,230.2L344.1,230.2z M344.1,226.7l0-1.7l0.7,0.4l0,1.7L344.1,226.7L344.1,226.7z M344.2,223.2l0-1.8l0.7,0.4l0,1.8
					L344.2,223.2L344.2,223.2z M344.2,219.7l0-1.8l0.7,0.4l0,1.8L344.2,219.7L344.2,219.7z M344.2,216.2l0-1.7l0.7,0.4l0,1.7
					L344.2,216.2L344.2,216.2z M344.2,212.7l0-1.8l0.7,0.4l0,1.8L344.2,212.7L344.2,212.7z M344.2,209.2l0-1.8l0.7,0.4l0,1.8
					L344.2,209.2L344.2,209.2z M344.2,205.7l0-1.8l0.7,0.4l0,1.8L344.2,205.7L344.2,205.7z M344.2,202.1l0-1.7l0.7,0.4l0,1.7
					L344.2,202.1L344.2,202.1z M344.2,198.7l0-1.7l0.7,0.4l0,1.7L344.2,198.7L344.2,198.7z M344.2,195.2l0-1.8l0.8,0.4l0,1.8
					L344.2,195.2L344.2,195.2z M344.2,191.7l0-1.8l0.8,0.4l0,1.8L344.2,191.7L344.2,191.7z M344.3,188.2l0-1.7l0.8,0.4l0,1.7
					L344.3,188.2L344.3,188.2z M344.3,184.7l0-1.8l0.8,0.4l0,1.8L344.3,184.7L344.3,184.7z M344.3,181.2l0-1.8l0.8,0.4l0,1.8
					L344.3,181.2L344.3,181.2z M344.3,175.9l0.8,0.4l0,1.7l-0.8-0.4L344.3,175.9L344.3,175.9z M334,231.4l0-1.8l0.7,0.4l0,1.8
					L334,231.4L334,231.4z M334,227.9l0-1.8l0.7,0.4l0,1.8L334,227.9L334,227.9z M334.1,220.9l0-1.7l0.7,0.4l0,1.7L334.1,220.9
					L334.1,220.9z M334.1,217.4l0-1.8l0.7,0.4l0,1.8L334.1,217.4L334.1,217.4z M334.1,210.3l0-1.7l0.7,0.4l0,1.7L334.1,210.3
					L334.1,210.3z M334.1,206.8l0-1.8l0.7,0.4l0,1.8L334.1,206.8L334.1,206.8z M334.1,203.3l0-1.8l0.7,0.4l0,1.8L334.1,203.3
					L334.1,203.3z M334.1,196.3l0-1.7l0.7,0.4l0,1.7L334.1,196.3L334.1,196.3z M334.1,192.9l0-1.7l0.7,0.4l0,1.7L334.1,192.9
					L334.1,192.9z M334.2,185.9l0-1.8l0.7,0.4l0,1.8L334.2,185.9L334.2,185.9z M334.2,182.3l0-1.7l0.7,0.4l0,1.7L334.2,182.3
					L334.2,182.3z M334.7,177.4l0.2,0.1l0,1.8l-0.7-0.4l0-1.1l-1-0.6l0-0.9l1.5,0.9L334.7,177.4L334.7,177.4z M334.2,175.3l0-1.8
					l0.7,0.4l0,1.8L334.2,175.3L334.2,175.3z M334.2,170.1l0.7,0.4l0,1.7l-0.7-0.4L334.2,170.1L334.2,170.1z M323.9,225.5l0-1.8
					l0.7,0.4l0,1.8L323.9,225.5L323.9,225.5z M323.9,222l0-1.8l0.7,0.4l0,1.8L323.9,222L323.9,222z M323.9,218.5l0-1.7l0.7,0.4
					l0,0.9l0.8,0.5l0,0.9L323.9,218.5L323.9,218.5L323.9,218.5L323.9,218.5z M323.9,215l0-1.7l0.7,0.4l0,1.7L323.9,215L323.9,215z
					 M323.9,211.5l0-1.8l0.7,0.4l0,1.8L323.9,211.5L323.9,211.5z M324,204.5l0-1.7l0.7,0.4l0,1.7L324,204.5L324,204.5z M324,201
					l0-1.8l0.7,0.4l0,1.8L324,201L324,201z M324,190.5l0-1.7l0.7,0.4l0,1.7L324,190.5L324,190.5z M324,187l0-1.7l0.7,0.4l0,1.7
					L324,187L324,187z M324,180l0-1.8l0.7,0.4l0,1.8L324,180L324,180z M324,176.5l0-1.7l0.7,0.4l0,1.7L324,176.5L324,176.5z
					 M324,169.5l0-1.8l0.7,0.4l0,1.8L324,169.5L324,169.5z M324.1,164.2l0.7,0.4l0,1.7l-0.7-0.4L324.1,164.2L324.1,164.2z
					 M313.7,219.7l0-1.8l0.8,0.5l0,1.8L313.7,219.7L313.7,219.7z M313.8,216.2l0-1.8l0.8,0.5l0,1.8L313.8,216.2L313.8,216.2z
					 M313.8,212.7l0-1.7l0.8,0.5l0,1.7L313.8,212.7L313.8,212.7z M313.8,209.2l0-1.7l0.8,0.5l0,1.7L313.8,209.2L313.8,209.2z
					 M313.8,205.7l0-1.8l0.8,0.5l0,1.8L313.8,205.7L313.8,205.7z M313.8,202.2l0-1.8l0.8,0.5l0,1.8L313.8,202.2L313.8,202.2z
					 M313.8,198.6l0-1.7l0.8,0.5l0,1.7L313.8,198.6L313.8,198.6z M313.8,195.1l0-1.8l0.8,0.5l0,1.8L313.8,195.1L313.8,195.1z
					 M313.8,191.6l0-1.8l0.8,0.5l0,1.8L313.8,191.6L313.8,191.6z M313.8,188.1l0-1.8l0.8,0.5l0,1.8L313.8,188.1L313.8,188.1z
					 M313.8,184.6l0-1.7l0.8,0.5l0,1.7L313.8,184.6L313.8,184.6z M313.9,181.2l0-1.7l0.8,0.5l0,1.7L313.9,181.2L313.9,181.2z
					 M313.9,177.7l0-1.8l0.8,0.5l0,1.8L313.9,177.7L313.9,177.7z M313.9,174.2l0-1.8l0.8,0.5l0,1.8L313.9,174.2L313.9,174.2z
					 M313.9,170.6l0-1.7l0.8,0.5l0,1.7L313.9,170.6L313.9,170.6z M313.9,167.1l0-1.8l0.8,0.5l0,1.8L313.9,167.1L313.9,167.1z
					 M313.9,163.6l0-1.8l0.8,0.5l0,1.8L313.9,163.6L313.9,163.6z M313.9,158.4l0.8,0.5l0,1.7l-0.8-0.5L313.9,158.4L313.9,158.4z
					 M303.7,213.9l0-1.8l0.7,0.4l0,1.8L303.7,213.9L303.7,213.9z M303.7,210.4l0-1.8l0.7,0.4l0,1.8L303.7,210.4L303.7,210.4z
					 M303.7,206l0-0.9l0.7,0.4l0,1.7l-0.2-0.1v0.1l-1.5-0.9l0-0.9L303.7,206L303.7,206z M303.7,203.3l0-1.7l0.7,0.4l0,1.7
					L303.7,203.3L303.7,203.3z M303.7,199.8l0-1.8l0.7,0.4l0,1.8L303.7,199.8L303.7,199.8z M304.3,194.9l0.2,0.1l0,1.8l-0.7-0.4
					l0-1.1l-0.9-0.5l0-0.9l1.5,0.9L304.3,194.9L304.3,194.9z M303.7,192.8l0-1.7l0.7,0.4l0,1.7L303.7,192.8L303.7,192.8z
					 M303.7,189.3l0-1.8l0.7,0.4l0,1.8L303.7,189.3L303.7,189.3z M303.7,185.8l0-1.8l0.7,0.4l0,1.8L303.7,185.8L303.7,185.8z
					 M303.8,182.3l0-1.8l0.7,0.4l0,1.8L303.8,182.3L303.8,182.3z M303.8,178.8l0-1.7l0.7,0.4l0,1.7L303.8,178.8L303.8,178.8z
					 M303.8,175.3l0-1.7l0.7,0.4l0,1.7L303.8,175.3L303.8,175.3z M303.8,168.3l0-1.8l0.7,0.4l0,1.8L303.8,168.3L303.8,168.3z
					 M303.8,164.8l0-1.7l0.7,0.4l0,1.7L303.8,164.8L303.8,164.8z M303.8,157.8l0-1.8l0.7,0.4l0,1.8L303.8,157.8L303.8,157.8z
					 M303.8,152.5l0.7,0.4l0,1.7l-0.7-0.4L303.8,152.5L303.8,152.5z M283.4,202.2l0-1.8l0.7,0.4l0,1.8L283.4,202.2L283.4,202.2z
					 M283.4,198.7l0-1.8l0.7,0.4l0,1.8L283.4,198.7L283.4,198.7z M283.4,195.2l0-1.7l0.7,0.4l0,1.7L283.4,195.2L283.4,195.2z
					 M283.5,191.7l0-1.7l0.7,0.4l0,1.7L283.5,191.7L283.5,191.7z M283.5,188.2l0-1.8l0.7,0.4l0,1.8L283.5,188.2L283.5,188.2z
					 M283.5,184.6l0-1.8l0.7,0.4l0,1.8L283.5,184.6L283.5,184.6z M283.5,181.1l0-1.7l0.7,0.4l0,1.7L283.5,181.1L283.5,181.1z
					 M283.5,177.6l0-1.8l0.7,0.4l0,1.8L283.5,177.6L283.5,177.6z M283.5,174.1l0-1.8l0.7,0.4l0,1.8L283.5,174.1L283.5,174.1z
					 M283.5,170.6l0-1.8l0.7,0.4l0,1.8L283.5,170.6L283.5,170.6z M283.5,167.1l0-1.7l0.7,0.4l0,1.7L283.5,167.1L283.5,167.1z
					 M283.5,163.7l0-1.7l0.7,0.4l0,1.7L283.5,163.7L283.5,163.7z M283.5,160.1l0-1.8l0.7,0.4l0,1.8L283.5,160.1L283.5,160.1z
					 M283.6,156.6l0-1.8l0.7,0.4l0,1.8L283.6,156.6L283.6,156.6z M283.6,153.1l0-1.7l0.7,0.4l0,1.7L283.6,153.1L283.6,153.1z
					 M283.6,149.6l0-1.8l0.7,0.4l0,1.8L283.6,149.6L283.6,149.6z M283.6,146.1l0-1.8l0.7,0.4l0,1.8L283.6,146.1L283.6,146.1z
					 M283.6,140.9l0.7,0.4l0,1.7l-0.7-0.4L283.6,140.9L283.6,140.9z M293.5,208l0-1.8l0.8,0.5l0,1.8L293.5,208L293.5,208z
					 M293.5,204.5l0-1.8l0.8,0.5l0,1.8L293.5,204.5L293.5,204.5z M293.5,201l0-1.7l0.8,0.5l0,0.9l0.8,0.5l0,0.9l-1.5-0.9L293.5,201
					L293.5,201L293.5,201z M293.6,197.5l0-1.7l0.8,0.5l0,1.7L293.6,197.5L293.6,197.5z M293.6,194l0-1.8l0.8,0.5l0,1.8L293.6,194
					L293.6,194z M293.6,187l0-1.7l0.8,0.5l0,1.7L293.6,187L293.6,187z M293.6,183.5l0-1.8l0.8,0.5l0,1.8L293.6,183.5L293.6,183.5z
					 M293.6,172.9l0-1.7l0.8,0.5l0,1.7L293.6,172.9L293.6,172.9z M293.6,169.5l0-1.7l0.8,0.5l0,1.7L293.6,169.5L293.6,169.5z
					 M293.7,162.5l0-1.8l0.8,0.5l0,1.8L293.7,162.5L293.7,162.5z M293.7,159l0-1.7l0.8,0.5l0,1.7L293.7,159L293.7,159z M293.7,152
					l0-1.8l0.8,0.5l0,1.8L293.7,152L293.7,152z M293.7,146.7l0.8,0.5l0,1.7l-0.8-0.5L293.7,146.7L293.7,146.7z M275.4,190.6l0-0.9
					l1.5,0.9l0,0.9L275.4,190.6L275.4,190.6z M278.5,192.4l0-0.9l1.5,0.8l0,0.9L278.5,192.4L278.5,192.4z M281.5,194.1l0-0.9
					l1.5,0.9l0,0.9L281.5,194.1L281.5,194.1z M284.5,195.8l0-0.9l1.5,0.9l0,0.9L284.5,195.8L284.5,195.8z M287.5,197.6l0-0.9
					l1.5,0.9l0,0.9L287.5,197.6L287.5,197.6z M290.6,199.3l0-0.9l1.5,0.9l0,0.9L290.6,199.3L290.6,199.3z M296.6,202.8l0-0.9
					l1.5,0.9l0,0.9L296.6,202.8L296.6,202.8z M299.7,204.6l0-0.9l1.5,0.9l0,0.9L299.7,204.6L299.7,204.6z M305.7,208.1l0-0.9
					l1.5,0.9l0,0.9L305.7,208.1L305.7,208.1z M308.8,209.9l0-0.9l1.5,0.9l0,0.9L308.8,209.9L308.8,209.9z M311.8,211.6l0-0.9
					l1.5,0.9l0,0.9L311.8,211.6L311.8,211.6z M314.8,213.4l0-0.9l1.5,0.9l0,0.9L314.8,213.4L314.8,213.4z M317.9,215.1l0-0.9
					l1.5,0.9l0,0.9L317.9,215.1L317.9,215.1z M321,216.9l0-0.9l1.5,0.9l0,0.9L321,216.9L321,216.9z M327,220.4l0-0.9l1.5,0.9l0,0.9
					L327,220.4L327,220.4z M330.1,222.1l0-0.9l1.5,0.8l0,0.9L330.1,222.1L330.1,222.1z M334.6,224.7L334.6,224.7l-1.5-0.8l0-0.9
					l1,0.6l0-0.9l0.7,0.4l0,1.7L334.6,224.7L334.6,224.7z M336.1,225.6l0-0.9l1.5,0.9l0,0.9L336.1,225.6L336.1,225.6z M339.2,227.4
					l0-0.9l1.5,0.9l0,0.9L339.2,227.4L339.2,227.4z M342.2,229.1l0-0.9l1.5,0.9l0,0.9L342.2,229.1L342.2,229.1z M345.2,230.9l0-0.9
					l1.5,0.9l0,0.9L345.2,230.9L345.2,230.9z M348.3,232.7l0-0.9l1.5,0.9l0,0.9L348.3,232.7L348.3,232.7z M351.3,233.5l1.5,0.9
					l0,0.9l-1.5-0.9L351.3,233.5L351.3,233.5z M275.5,178.9l0-0.9l1.5,0.9l0,0.9L275.5,178.9L275.5,178.9z M278.5,180.6l0-0.9
					l1.5,0.8l0,0.9L278.5,180.6L278.5,180.6z M281.5,182.4l0-0.9l1.5,0.9l0,0.9L281.5,182.4L281.5,182.4z M284.6,184.1l0-0.9
					l1.5,0.9l0,0.9L284.6,184.1L284.6,184.1z M287.6,185.9l0-0.9l1.5,0.9l0,0.9L287.6,185.9L287.6,185.9z M290.6,187.6l0-0.9
					l1.5,0.9l0,0.9L290.6,187.6L290.6,187.6z M293.7,188.8v-0.2l1.5,0.9l0,0.9l-0.8-0.5l0,1.1l-0.8-0.5L293.7,188.8L293.7,188.8
					L293.7,188.8z M296.7,191.1l0-0.9l1.5,0.9l0,0.9L296.7,191.1L296.7,191.1z M299.7,192.9l0-0.9l1.5,0.9l0,0.9L299.7,192.9
					L299.7,192.9z M305.8,196.4l0-0.9l1.5,0.9l0,0.9L305.8,196.4L305.8,196.4z M308.8,198.2l0-0.9l1.5,0.9l0,0.9L308.8,198.2
					L308.8,198.2z M311.9,199.9l0-0.9l1.5,0.9l0,0.9L311.9,199.9L311.9,199.9z M314.9,201.6l0-0.9l1.5,0.9l0,0.9L314.9,201.6
					L314.9,201.6z M317.9,203.4l0-0.9l1.5,0.9l0,0.9L317.9,203.4L317.9,203.4z M321,205.2l0-0.9l1.5,0.9l0,0.9L321,205.2L321,205.2z
					 M324,206.3V206l1.5,0.9l0,0.9l-0.8-0.5l0,1.1l-0.7-0.4L324,206.3L324,206.3L324,206.3z M327,208.7l0-0.9l1.5,0.9l0,0.9
					L327,208.7L327,208.7z M330.1,210.4l0-0.9l1.5,0.8l0,0.9L330.1,210.4L330.1,210.4z M333.1,212.2l0-0.9l1.5,0.9v0.2l0.2,0.1
					l0,1.8l-0.7-0.4l0-1.1L333.1,212.2L333.1,212.2z M336.2,213.9l0-0.9l1.5,0.9l0,0.9L336.2,213.9L336.2,213.9z M339.2,215.7l0-0.9
					l1.5,0.9l0,0.9L339.2,215.7L339.2,215.7z M342.2,217.4l0-0.9l1.5,0.9l0,0.9L342.2,217.4L342.2,217.4z M345.3,219.2l0-0.9
					l1.5,0.9l0,0.9L345.3,219.2L345.3,219.2z M348.3,220.9l0-0.9l1.5,0.9l0,0.9L348.3,220.9L348.3,220.9z M351.3,221.8l1.5,0.9
					l0,0.9l-1.5-0.9L351.3,221.8L351.3,221.8z M275.5,167.2l0-0.9l1.5,0.9l0,0.9L275.5,167.2L275.5,167.2z M278.5,169l0-0.9l1.5,0.8
					l0,0.9L278.5,169L278.5,169z M281.5,170.7l0-0.9l1.5,0.9l0,0.9L281.5,170.7L281.5,170.7z M284.6,172.5l0-0.9l1.5,0.9l0,0.9
					L284.6,172.5L284.6,172.5z M287.6,174.2l0-0.9l1.5,0.9l0,0.9L287.6,174.2L287.6,174.2z M290.7,176l0-0.9l1.5,0.9l0,0.9
					L290.7,176L290.7,176z M293.7,177.7l0-0.9l1.5,0.9l0,0.9L293.7,177.7L293.7,177.7z M293.6,180l0.8,0.5l0-1.8l-0.8-0.5L293.6,180
					L293.6,180z M293.6,176.4l0.8,0.5l0-1.8l-0.8-0.5L293.6,176.4L293.6,176.4z M296.7,179.5l0-0.9l1.5,0.9l0,0.9L296.7,179.5
					L296.7,179.5z M299.7,181.2l0-0.9l1.5,0.9l0,0.9L299.7,181.2L299.7,181.2z M302.8,183l1.5,0.9l0-0.9l-1.5-0.9L302.8,183
					L302.8,183z M305.8,184.7l0-0.9l1.5,0.9l0,0.9L305.8,184.7L305.8,184.7z M308.9,186.5l0-0.9l1.5,0.9l0,0.9L308.9,186.5
					L308.9,186.5z M311.9,188.3l0-0.9l1.5,0.9l0,0.9L311.9,188.3L311.9,188.3z M314.9,190l0-0.9l1.5,0.9l0,0.9L314.9,190L314.9,190z
					 M318,191.8l0-0.9l1.5,0.9l0,0.9L318,191.8L318,191.8z M321,193.5l0-0.9l1.5,0.9l0,0.9L321,193.5L321,193.5z M324,195.2l0-0.9
					l1.5,0.9l0,0.9L324,195.2L324,195.2z M324,197.5l0.7,0.4l0-1.8l-0.7-0.4L324,197.5L324,197.5z M324,194l0.7,0.4l0-1.8l-0.7-0.4
					L324,194L324,194z M327.1,197l0-0.9l1.5,0.9l0,0.9L327.1,197L327.1,197z M330.1,198.8l0-0.9l1.5,0.8l0,0.9L330.1,198.8
					L330.1,198.8z M333.1,200.5l0-0.9l1.5,0.9l0,0.9L333.1,200.5L333.1,200.5z M334.1,199.8l0.7,0.4l0-1.8l-0.7-0.4L334.1,199.8
					L334.1,199.8z M336.2,202.3l0-0.9l1.5,0.9l0,0.9L336.2,202.3L336.2,202.3z M339.2,204l0-0.9l1.5,0.9l0,0.9L339.2,204L339.2,204z
					 M342.2,205.8l0-0.9l1.5,0.9l0,0.9L342.2,205.8L342.2,205.8z M345.3,207.5l0-0.9l1.5,0.9l0,0.9L345.3,207.5L345.3,207.5z
					 M348.3,209.3l0-0.9l1.5,0.9l0,0.9L348.3,209.3L348.3,209.3z M351.3,210.1l1.5,0.9l0,0.9l-1.5-0.9L351.3,210.1L351.3,210.1z
					 M275.5,155.5l0-0.8l1.5,0.9l0,0.8L275.5,155.5L275.5,155.5z M278.6,157.3l0-0.8l1.5,0.8l0,0.8L278.6,157.3L278.6,157.3z
					 M281.6,159l0-0.8l1.5,0.9l0,0.8L281.6,159L281.6,159z M284.6,160.8l0-0.8l1.5,0.9l0,0.8L284.6,160.8L284.6,160.8z M287.6,162.5
					l0-0.8l1.5,0.9l0,0.8L287.6,162.5L287.6,162.5z M290.7,164.3l0-0.8l1.5,0.9l0,0.8L290.7,164.3L290.7,164.3z M294.4,165.6
					l0.8,0.5l0,0.8l-0.8-0.5l-0.7-0.4l-0.1-0.1l0-1.8l0.8,0.5L294.4,165.6L294.4,165.6z M296.7,167.8l0-0.8l1.5,0.9l0,0.8
					L296.7,167.8L296.7,167.8z M299.8,169.5l0-0.8l1.5,0.9l0,0.8L299.8,169.5L299.8,169.5z M302.8,170.5l0.9,0.5l0-0.9l0.7,0.4
					l0,1.8l-0.2-0.1l-0.6-0.3l-0.9-0.5L302.8,170.5L302.8,170.5z M305.8,173l0-0.8l1.5,0.9l0,0.8L305.8,173L305.8,173z M308.9,174.8
					l0-0.8l1.5,0.9l0,0.8L308.9,174.8L308.9,174.8z M311.9,176.5l0-0.8l1.5,0.9l0,0.8L311.9,176.5L311.9,176.5z M314.9,178.3l0-0.8
					l1.5,0.9v0.8L314.9,178.3L314.9,178.3z M318,180l0-0.8l1.5,0.9l0,0.8L318,180L318,180z M321.1,181.8l0-0.8l1.5,0.9l0,0.8
					L321.1,181.8L321.1,181.8z M324.7,183.1l0.8,0.5l0,0.8l-0.8-0.5l-0.7-0.4l0,0l0-1.8l0.7,0.4L324.7,183.1L324.7,183.1z
					 M327.1,185.3l0-0.8l1.5,0.9l0,0.8L327.1,185.3L327.1,185.3z M330.2,187.1l0-0.8l1.5,0.8l0,0.8L330.2,187.1L330.2,187.1z
					 M333.2,188l1,0.6l0-0.9l0.7,0.4l0,1.8l-0.2-0.1l-0.5-0.3l-1-0.6L333.2,188L333.2,188z M336.2,190.6l0-0.8l1.5,0.9l0,0.8
					L336.2,190.6L336.2,190.6z M339.3,192.3l0-0.8l1.5,0.9l0,0.8L339.3,192.3L339.3,192.3z M342.3,194.1l0-0.8l1.5,0.9l0,0.8
					L342.3,194.1L342.3,194.1z M345.3,195.8l0-0.8l1.5,0.9l0,0.8L345.3,195.8L345.3,195.8z M348.4,197.6l0-0.8l1.5,0.9l0,0.8
					L348.4,197.6L348.4,197.6z M351.4,198.5l1.5,0.9l0,0.8l-1.5-0.9L351.4,198.5L351.4,198.5z M275.6,143.9l0-0.9l1.5,0.9l0,0.9
					L275.6,143.9L275.6,143.9z M278.6,145.6l0-0.9l1.5,0.8l0,0.9L278.6,145.6L278.6,145.6z M281.6,147.4l0-0.9l1.5,0.9l0,0.9
					L281.6,147.4L281.6,147.4z M284.7,149.1l0-0.9l1.5,0.9l0,0.9L284.7,149.1L284.7,149.1z M287.7,150.8l0-0.9l1.5,0.9l0,0.9
					L287.7,150.8L287.7,150.8z M290.7,152.6l0-0.9l1.5,0.9l0,0.9L290.7,152.6L290.7,152.6z M293.8,153.7l0-0.3l1.5,0.9l0,0.9
					l-0.8-0.5l0,1.1l-0.8-0.5L293.8,153.7L293.8,153.7L293.8,153.7z M296.8,156.1l0-0.9l1.5,0.9l0,0.9L296.8,156.1L296.8,156.1z
					 M299.8,157.9l0-0.9l1.5,0.9l0,0.9L299.8,157.9L299.8,157.9z M302.9,159.6l0-0.9l1.5,0.9v0.3l0.2,0.1l0,1.8l-0.7-0.4l0-1.1
					L302.9,159.6L302.9,159.6z M305.9,161.4l0-0.9l1.5,0.9l0,0.9L305.9,161.4L305.9,161.4z M308.9,163.1l0-0.9l1.5,0.9l0,0.9
					L308.9,163.1L308.9,163.1z M312,164.9l0-0.9l1.5,0.9l0,0.9L312,164.9L312,164.9z M315,166.6l0-0.9l1.5,0.9l0,0.9L315,166.6
					L315,166.6z M318,168.4l0-0.9l1.5,0.9l0,0.9L318,168.4L318,168.4z M321.1,170.2l0-0.9l1.5,0.9l0,0.9L321.1,170.2L321.1,170.2z
					 M324.1,171.3V171l1.5,0.9l0,0.9l-0.8-0.5l0,1.1L324,173L324.1,171.3L324.1,171.3L324.1,171.3z M327.1,173.6l0-0.9l1.5,0.9
					l0,0.9L327.1,173.6L327.1,173.6z M330.2,175.4l0-0.9l1.5,0.8l0,0.9L330.2,175.4L330.2,175.4z M336.2,178.9l0-0.9l1.5,0.9l0,0.9
					L336.2,178.9L336.2,178.9z M339.3,180.7l0-0.9l1.5,0.9l0,0.9L339.3,180.7L339.3,180.7z M342.3,182.4l0-0.9l1.5,0.9l0,0.9
					L342.3,182.4L342.3,182.4z M345.4,184.2l0-0.9l1.5,0.9l0,0.9L345.4,184.2L345.4,184.2z M348.4,185.9l0-0.9l1.5,0.9l0,0.9
					L348.4,185.9z"/>
				<g>
					<polygon class="st9" points="361.4,174.4 366.3,171.6 366.3,176.8 361.4,179.6 					"/>
					<polygon class="st10" points="268.9,121.3 273.8,118.4 366.3,171.6 361.4,174.4 					"/>
					<polygon class="st11" points="361.4,174.4 361.4,179.6 268.9,126.5 268.9,121.3 					"/>
				</g>
			</g>
			<g>
				<polygon class="st15" points="336.2,194.2 345.3,230.2 337.6,225.8 327,219.7 332.3,204.9 				"/>
				<polygon class="st16" points="324.1,172.6 332.3,204.9 327,219.7 337.6,225.8 329.1,220.9 310.5,210.2 319.5,185.4 				"/>
				<polygon class="st17" points="312.4,158.9 319.5,185.4 310.5,210.2 329.1,220.9 310.8,210.4 295.3,201.4 303.5,181.1 				"/>
				<polygon class="st18" points="297.4,157.1 303.5,181.1 295.3,201.4 310.8,210.4 283.8,194.7 				"/>
			</g>
			<g>
				<g>
					<path class="st19" d="M349.8,237l-0.2,0c-1.3-1.1-1.9-1.5-2.5-2.1c-0.8-0.8-1.4-1.8-2.1-3.6c-0.4-0.9-0.5-1-1.4-1.4l-1.8-0.9
						c-1.1-0.6-1.3-0.4-2.6-0.4c-1.1,0-2.2,0.1-2.2,0.8c0,0.7,1,0.8,2.1,1.1c0.5,1.7,1,3,1,4.7c1.4,1.9,1.9,3,3.4,3.5
						c0.5,0.2,1,0.1,1.8,0.1l2.6,3.1L349.8,237z"/>
					<path class="st20" d="M337.1,229.6c0.2,0.6,1.1,0.6,2.1,0.9c0,0.2,0.5,0.8,0.4,0.9c-0.2,0.2-1-0.3-1,0c-0.1,1-0.2,2.1,0.1,3.4
						c0.1,0.1,1.7,0.7,1.8,0.9c1.2,1.6,1.8,2.7,3.1,3.1c0.4,0.1,0.7,0.1,1.2,0.1c-0.5-1.9-0.1-5.5-1.1-7c-0.5-0.8-1.1-1.4-3.2-2.2
						C339,229.5,337.7,229.4,337.1,229.6z"/>
					<path class="st21" d="M343,234.2c0.2,0.4-0.2,1.4-0.7,1.3l0,0c-0.5,0-1.1,0.2-1.3-0.3l-13.4-32.7L343,234.2z"/>
					<path class="st22" d="M340.4,233c-0.6-0.2-1.5-0.5-1.8-0.8c-0.2-0.2-0.2-0.6-0.1-0.8c0.1-0.3,0-0.4,0.6-0.2
						c0.4,0.1,0.9,0.3,1.4,0.5C341.2,232,341.5,233.3,340.4,233z"/>
					<path class="st19" d="M340.7,234.7c-0.6-0.1-1.8-0.7-2.1-1c-0.2-0.2-0.2-0.6-0.1-0.8c0.1-0.3,0.1-0.4,0.5-0.3
						c0.4,0.1,1.3,0.6,1.7,0.8C341.5,233.6,341.8,234.9,340.7,234.7z"/>
					<path class="st19" d="M340.4,235.8c-0.5-0.1-1.4-0.6-1.7-0.8c-0.1-0.1-0.1-0.5-0.1-0.7c0-0.2,0.1-0.3,0.4-0.2
						c0.3,0.1,1.1,0.5,1.4,0.6c0.6,0.3,0.9,1.2,0.2,1.1C340.5,235.8,340.5,235.8,340.4,235.8z"/>
					<path class="st19" d="M343.5,230.9c-1.1,0.3-2.5-0.3-3.5-1.3c-0.4-0.4-0.8-0.9-1.2-1.1c-0.2-0.1-0.5-0.1-0.7,0.1
						c-0.3,0.3-0.3,1.5,0.8,2.5l1.8,1.5c0.8,2.8,1.4,3.6,4.3,4.4l1.5-1.8l-1.7-3L343.5,230.9z"/>
				</g>
				<path class="st17" d="M363.4,248.7L348,235c-1.9,0.7-3.8,2.3-4,4.2l13.8,15.4C362.2,258.5,368,254.3,363.4,248.7z"/>
				<path class="st17" d="M360,231.3l-2,15.3c-0.6,5.1,6.4,8.9,7.6,2.4l4.5-18.7c1.2-10.7-4.1-10.7-7.2-8.4
					C360.4,223.8,360.4,228.3,360,231.3z"/>
				<g>
					<path class="st23" d="M377.1,334.7c-0.8,2.8-1.5,3.6-2.8,4.8c-0.9,0.9-6,4.2-6.3,5.1c-0.3,0.7-0.3,1.9,0.8,2.6
						c1.2,0.8,3.4,0.7,5,0.5c3.3-0.5,5.8-2.4,8.4-4.3c0.3,0.3,1.4-0.1,2.5-0.8c0.9-0.5,1.3-1,1.5-1.8c0.1-0.6,0-1.8-0.1-2.5
						c-0.2-1.7-0.9-3-1.7-4.7l-3.2-0.7L377.1,334.7z"/>
					<path class="st24" d="M367.9,345.1c-0.1,0.7,0.1,1.5,1,2c1.2,0.8,3.4,0.7,5,0.5c3.3-0.5,5.8-2.4,8.4-4.3
						c0.3,0.3,1.4-0.1,2.5-0.8c0.9-0.5,1.3-1,1.5-1.8c0-0.3,0-0.8,0-1.3c-0.4,1.3-3,2.5-4.3,2.5c-2.6,1.9-5.2,3.7-8.4,4.2
						c-1.6,0.2-3.8,0.3-5-0.5C368.2,345.5,368,345.3,367.9,345.1z"/>
				</g>
				<g>
					<path class="st23" d="M369,329.9c-0.8,2.8-1.5,3.6-2.8,4.8c-0.9,0.9-6,4.2-6.3,5.1c-0.3,0.7-0.3,1.9,0.8,2.6
						c1.2,0.8,3.4,0.7,5,0.5c3.3-0.5,5.8-2.4,8.4-4.3c0.3,0.3,1.4-0.1,2.5-0.8c0.9-0.5,1.3-1,1.5-1.8c0.1-0.6,0-1.8-0.1-2.5
						c-0.2-1.7-0.9-3-1.7-4.7l-3.2-0.7L369,329.9z"/>
					<path class="st24" d="M359.8,340.4c-0.1,0.7,0.1,1.5,1,2c1.2,0.8,3.4,0.7,5,0.5c3.3-0.5,5.8-2.4,8.4-4.3
						c0.3,0.3,1.4-0.1,2.5-0.8c0.9-0.5,1.3-1,1.5-1.8c0-0.3,0-0.8,0-1.3c-0.4,1.2-3,2.5-4.3,2.5c-2.6,1.9-5.2,3.7-8.4,4.2
						c-1.6,0.2-3.8,0.3-5-0.5C360.2,340.8,359.9,340.6,359.8,340.4z"/>
				</g>
				<path class="st10" d="M377,263.8c0.8,3.8,1.8,7.1,2.1,11c0.5,7.2-2.7,19.2-3.2,27l0.3,5.7c0.6,5.9,0.3,12.1,0.8,21.2
					c0,0.3,0.1,0.5,0,0.8c1.2,1,0.3,2.8-2.2,4.2c-2.6,1.5-6,2-7.6,1.1c-0.4-0.2-0.7-0.6-0.7-1l0,0c-0.2-0.2-1.3-33.6-1.7-37.7
					c-0.5-11.7-0.5-22.3-0.9-34.8L377,263.8z"/>
				<path class="st9" d="M385.8,265.8c0.7,6.1,2.2,9.1,1,15.7c-1.2,6.6-2.1,13.9-2.5,20.6l1,8.6c0.6,5.9-0.2,15.5,0.3,24.6v0
					c0.3,1-0.7,2.4-2.7,3.6c-2.6,1.5-6,2-7.6,1.1c-0.5-0.3-0.7-0.6-0.7-1l0,0l-2.2-39.2c-0.5-11.7-0.8-21-1.2-33.4L385.8,265.8z"/>
				<path class="st25" d="M390.3,234.2c0.5,3.5-1.8,9.9-2.2,13.3c-0.7,5.8-1.2,8.9-1.3,16.1c0,1.8,0.4,6.8,0.6,10.7
					c0.2,1.2-0.3,2.3-1.6,3c-3.3,1.9-10.6,0.8-16.2-2.4c-3.6-2.1-5.7-4.6-5.9-6.6l0,0l-2.9-30.3c-0.7-7.1-0.9-15,3.9-17.2
					c3.7-2.1,10.6-1.2,16.9,2.5C387.2,226.5,390.5,230.6,390.3,234.2z"/>
				<path class="st20" d="M378.2,216.6c0.2,2.1,0.6,4.7,0.6,6.7c0.1,3.7-7.4,5.2-8.4,1.9c-0.1-1.8-0.5-3.7-0.7-5.5L378.2,216.6z"/>
				<g>
					<path class="st19" d="M366,211.1c0.2,2.7-0.3,3.8,1.3,8.1c0.5,1.3,1.3,2.8,1.7,3.1c0.5,0.3,2,1.1,2.6,1
						c1.2-0.2,3.8-1.9,4.7-2.5c2.1-1.2,1.9-1.8,2.2-4.3l0.9-3.6l-1-7.1c-4.3-1.1-8.1-1.8-10.1-1C366.5,205.6,365.6,205.9,366,211.1z
						"/>
					<path class="st26" d="M377.7,203c2.3,0.6,3.8,3.4,3.7,6.4c-0.1,3-1.6,6-2.9,8.3c-0.2-2.1,0.6-4.3-0.3-4.9
						c-0.5-0.3-2.1-0.2-2.8,2.6c-0.6-1.9-0.4-2.4-0.8-4.1c-0.4-5.6-8.2,0.1-10-5.3c1.3-0.8,2-3,4.2-4.1
						C371.3,200.7,375.9,200.9,377.7,203z"/>
				</g>
				<g>
					<path class="st19" d="M384.3,275.7c-0.6,1.1-1,1.4-1.6,2.3c-0.6,1-0.3,3.6-0.4,4.4c0,0.9,1.1,1.3,1.3,0.2
						c0.1-0.8-0.2-2,0.6-2.4c0.1,0.9-0.2,2.6-0.3,3.1c-0.3,1.3-1.8-0.7-1.6,1.5c0.5,0.2,1,0.5,2.1,0.7c0.9,0.2,1.4,0.3,2.3,0.1
						c1.2-0.3,2.4-0.3,3.1-1.3l0.2-4.2l0.5-4L384.3,275.7z"/>
					<path class="st18" d="M386,227.4c1.9,1.5,3.5,3.2,3.9,4.3c2.4,5.8,1.5,14.1,2.4,22.4l-1.4,22.5c-1.8,0.9-5.9,1.1-7.3-0.2
						l0.5-22.5l-3.3-13C380,232.5,383.5,226.4,386,227.4z"/>
				</g>
			</g>
		</g>
		<g>
			<path class="st27" d="M220.1,271.8c0.2,4.8-7.5,4.8-7.6,0.9c-5.3-4.4-10.6-8.9-15.8-13.5l3.6-9.3
				C205.9,252.1,219.8,266.9,220.1,271.8z"/>
			<g>
				<path class="st28" d="M216.9,339.1c0.6,2.8,7.3,8.1,8.6,9.5c0.8,0.9,0.3,3.2-0.9,3.9c-1.3,0.8-3.5,0.8-5.3,0.5
					c-2-0.3-4.4-2.4-7.1-4.1c-2.7-1.7-5.9-2.8-5.9-4.3c0.1-2.1,0.7-3.7,1.1-6.7l3.8,1L216.9,339.1z"/>
				<g>
					<g>
						<path class="st29" d="M176.3,335.7c0,0.1,0,0.1,0,0.2c0,0,0,0,0,0c0,0.1,0,0.1,0.1,0.2c0,0,0,0,0,0c0,0.1,0.1,0.1,0.1,0.1
							c0,0,0.1,0.1,0.1,0.1c0,0,0.1,0.1,0.1,0.1l13.1,7.6l0,2.1l-13.1-7.6c0,0,0,0,0,0c0,0-0.1,0-0.1-0.1c0,0-0.1-0.1-0.1-0.1
							c0,0,0,0,0,0c0,0-0.1-0.1-0.1-0.1c0,0,0,0,0,0c0,0,0,0,0,0c0,0,0,0,0,0c0,0,0-0.1,0-0.1c0,0,0,0,0,0c0,0,0,0,0,0
							c0,0,0,0,0-0.1c0,0,0-0.1,0-0.1c0,0,0,0,0,0l0,0L176.3,335.7z"/>
						<path class="st30" d="M190.4,344.2C190.4,344.2,190.4,344.2,190.4,344.2c0.3,0.1,0.5,0.1,0.7,0.1c0,0,0,0,0,0
							c0.2,0,0.4,0,0.6-0.1c0,0,0,0,0,0c0.2,0,0.4-0.1,0.5-0.2l15.2-8.8c0.3-0.2,0.5-0.4,0.5-0.7l0,2.1c0,0.2-0.2,0.5-0.5,0.7
							l-15.2,8.8c-0.1,0-0.2,0.1-0.2,0.1c-0.1,0-0.1,0-0.2,0.1c0,0-0.1,0-0.1,0c0,0,0,0,0,0c0,0,0,0,0,0c-0.1,0-0.1,0-0.2,0
							c-0.1,0-0.1,0-0.2,0c-0.1,0-0.1,0-0.2,0c0,0,0,0-0.1,0c0,0,0,0,0,0c0,0-0.1,0-0.1,0c-0.1,0-0.1,0-0.2,0c-0.1,0-0.1,0-0.2,0
							c0,0-0.1,0-0.1,0c0,0-0.1,0-0.1,0c0,0-0.1,0-0.1,0c-0.1,0-0.3-0.1-0.4-0.2l0-2.1C190,344.1,190.2,344.2,190.4,344.2z"/>
						<path class="st31" d="M176.7,335c-0.7,0.4-0.7,1,0,1.4l13.1,7.6c0.6,0.4,1.7,0.4,2.4,0l15.2-8.8c0.6-0.4,0.7-1,0-1.4
							l-13.1-7.6c-0.6-0.4-1.7-0.4-2.4,0L176.7,335z"/>
					</g>
					<g>
						<polygon class="st32" points="192.1,299.6 191.6,309.9 192.1,337.3 194.8,335.7 194.8,298.1 						"/>
						<polygon class="st33" points="192.1,299.6 189.4,298.1 189.4,335.7 192.1,337.3 						"/>
					</g>
					<g>
						<polygon class="st34" points="203.2,312.1 205.4,310.8 205.4,309.1 203.2,310.4 						"/>
						<path class="st32" d="M178.5,292.2c0-0.3-0.1-0.5-0.1-0.8l2.2-1.3c0,0.3,0,0.6,0.1,0.9c0,0,0,0.1,0,0.1c0,0.3,0.1,0.6,0.2,0.9
							c0,0,0,0.1,0,0.1c0.1,0.3,0.2,0.6,0.3,0.9c0,0,0,0,0,0c0.1,0.3,0.3,0.6,0.5,0.9c0,0,0,0,0,0c0.2,0.3,0.4,0.6,0.6,0.9
							c0,0,0,0,0.1,0.1c0.2,0.2,0.4,0.5,0.6,0.7c0,0,0.1,0.1,0.1,0.1c0.2,0.2,0.3,0.3,0.5,0.5c0.1,0.1,0.2,0.1,0.2,0.2
							c0.2,0.2,0.5,0.4,0.8,0.5l-2.2,1.3c-0.3-0.2-0.5-0.3-0.8-0.5c-0.1-0.1-0.2-0.1-0.2-0.2c-0.1-0.1-0.2-0.2-0.3-0.3
							c-0.1-0.1-0.1-0.1-0.2-0.2c0,0-0.1-0.1-0.1-0.1c0-0.1-0.1-0.1-0.1-0.2c-0.1-0.1-0.2-0.3-0.3-0.4c0,0-0.1-0.1-0.1-0.1
							c0,0,0,0-0.1-0.1c0,0-0.1-0.1-0.1-0.1c-0.1-0.1-0.2-0.2-0.2-0.3c-0.1-0.1-0.1-0.2-0.2-0.3c0,0,0,0,0,0c0,0,0,0,0,0
							c-0.1-0.1-0.1-0.2-0.2-0.3c-0.1-0.1-0.1-0.2-0.2-0.3c0-0.1-0.1-0.2-0.1-0.3c0,0,0,0,0,0c0,0,0,0,0,0c-0.1-0.1-0.1-0.2-0.1-0.4
							c0-0.1-0.1-0.3-0.1-0.4c0-0.1,0-0.1-0.1-0.2c0,0,0-0.1,0-0.1c0,0,0-0.1,0-0.1c0-0.2-0.1-0.3-0.1-0.5c0-0.1,0-0.2,0-0.3
							c0,0,0-0.1,0-0.1C178.5,292.3,178.5,292.3,178.5,292.2z"/>
						<polygon class="st32" points="178.4,291.4 180.6,290.2 180.6,267.7 178.5,269 						"/>
						<polygon class="st35" points="178.5,269 180.6,267.7 179.2,266.9 177,268.1 						"/>
						<polygon class="st35" points="184.6,297.1 205.4,309.1 203.2,310.4 182.4,298.4 						"/>
						<path class="st33" d="M177,268.1l1.4,0.8l-0.1,22.5c0,2.5,1.8,5.6,4,6.9l20.8,12l0,1.7l-20.8-12c-3-1.7-5.4-6-5.4-9.4
							L177,268.1z"/>
					</g>
					<g>
						<path class="st29" d="M169.5,301.3c0,0.1,0,0.2,0,0.3c0,0,0,0,0,0c0,0.1,0.1,0.2,0.1,0.2c0,0,0,0,0,0c0.1,0.1,0.1,0.2,0.2,0.2
							c0.1,0,0.1,0.1,0.2,0.1c0.1,0,0.1,0.1,0.2,0.1l20.2,11.7l0,3.2l-20.2-11.7c0,0,0,0,0,0c0,0-0.1-0.1-0.1-0.1
							c-0.1,0-0.1-0.1-0.2-0.1c0,0,0,0,0,0c-0.1-0.1-0.1-0.1-0.2-0.2c0,0,0,0,0,0c0,0,0,0,0,0c0,0,0,0,0-0.1c0,0,0-0.1-0.1-0.1
							c0,0,0,0,0,0c0,0,0,0,0,0c0,0,0-0.1,0-0.1c0,0,0-0.1,0-0.1c0,0,0,0,0,0l0,0L169.5,301.3z"/>
						<path class="st30" d="M191.2,314.4c0,0,0.1,0,0.1,0c0.3,0.1,0.6,0.1,0.9,0.1c0,0,0,0,0,0c0.3,0,0.6,0,0.9-0.1c0,0,0,0,0,0
							c0.3-0.1,0.6-0.2,0.8-0.3l23.4-13.5c0.5-0.3,0.8-0.7,0.8-1.1l0,3.2c0,0.4-0.2,0.8-0.8,1.1L194,317.4c-0.1,0.1-0.2,0.1-0.4,0.2
							c-0.1,0-0.2,0.1-0.3,0.1c-0.1,0-0.1,0-0.2,0c0,0,0,0,0,0c0,0-0.1,0-0.1,0c-0.1,0-0.2,0-0.3,0c-0.1,0-0.2,0-0.2,0
							c-0.1,0-0.2,0-0.3,0c0,0-0.1,0-0.1,0c0,0,0,0,0,0c0,0-0.1,0-0.1,0c-0.1,0-0.2,0-0.3,0c-0.1,0-0.2,0-0.3,0c0,0-0.1,0-0.1,0
							c0,0-0.1,0-0.1,0c-0.1,0-0.2,0-0.2-0.1c-0.2-0.1-0.4-0.1-0.6-0.2l0-3.2C190.6,314.3,190.9,314.4,191.2,314.4z"/>
						<path class="st31" d="M170.2,300.3c-1,0.6-1,1.5,0,2.1l20.2,11.7c1,0.6,2.6,0.6,3.6,0l23.4-13.5c1-0.6,1-1.5,0-2.1l-20.2-11.7
							c-1-0.6-2.6-0.6-3.6,0L170.2,300.3z"/>
					</g>
					<g>
						<path class="st9" d="M165.4,274l0,16.3c0,0.1,0,0.3,0,0.4c0,0,0,0,0,0c0,0.1,0.1,0.2,0.1,0.3c0,0,0,0,0,0
							c0,0.1,0.1,0.1,0.1,0.2c0.1,0.1,0.2,0.2,0.3,0.3l-2.8-1.6c-0.1-0.1-0.2-0.2-0.3-0.3c0,0,0,0,0,0c0,0,0-0.1-0.1-0.1
							c0,0,0,0,0,0c0,0,0,0,0,0c0,0,0-0.1,0-0.1c0,0,0-0.1,0-0.1c0,0,0-0.1,0-0.1c0,0,0,0,0,0c0,0,0,0,0,0c0,0,0,0,0,0
							c0,0,0-0.1,0-0.1c0,0,0-0.1,0-0.1c0,0,0-0.1,0-0.1c0,0,0-0.1,0-0.1v0l0-16.3L165.4,274z"/>
						<path class="st11" d="M166.5,271.4C166.5,271.4,166.5,271.4,166.5,271.4c-0.1,0.1-0.2,0.2-0.3,0.4l0,0
							c-0.1,0.1-0.2,0.3-0.3,0.4c0,0,0,0,0,0c-0.1,0.1-0.1,0.3-0.2,0.4l0,0c-0.1,0.1-0.1,0.3-0.2,0.4c0,0,0,0,0,0
							c0,0.2-0.1,0.3-0.1,0.4c0,0,0,0,0,0c0,0.1,0,0.3,0,0.4l-2.8-1.6c0,0,0-0.1,0-0.1c0,0,0-0.1,0-0.1c0,0,0-0.1,0-0.1
							c0,0,0-0.1,0-0.1c0,0,0-0.1,0-0.1v0c0,0,0,0,0,0c0,0,0-0.1,0-0.1c0,0,0-0.1,0-0.1c0,0,0-0.1,0-0.1c0,0,0-0.1,0-0.1
							c0,0,0-0.1,0-0.1c0,0,0,0,0,0c0,0,0,0,0,0c0,0,0-0.1,0-0.1c0,0,0-0.1,0-0.1c0,0,0-0.1,0-0.1c0,0,0-0.1,0-0.1c0,0,0,0,0-0.1
							c0,0,0,0,0,0c0,0,0,0,0,0c0,0,0-0.1,0-0.1c0,0,0-0.1,0-0.1c0,0,0-0.1,0.1-0.1c0,0,0-0.1,0.1-0.1c0,0,0,0,0,0c0,0,0,0,0,0
							c0-0.1,0.1-0.1,0.1-0.2c0-0.1,0.1-0.1,0.1-0.2c0,0,0,0,0,0c0,0,0,0,0,0c0,0,0.1-0.1,0.1-0.1c0,0,0-0.1,0.1-0.1
							c0,0,0-0.1,0.1-0.1c0,0,0-0.1,0.1-0.1c0,0,0,0,0,0s0,0,0,0c0,0,0,0,0.1-0.1c0,0,0.1-0.1,0.1-0.1c0,0,0.1,0,0.1-0.1
							c0,0,0.1,0,0.1-0.1c0,0,0,0,0,0c0,0,0,0,0,0c0,0,0,0,0,0c0,0,0.1,0,0.1-0.1c0,0,0.1,0,0.1-0.1c0,0,0.1,0,0.1-0.1
							c0,0,0.1,0,0.1,0c0,0,0,0,0,0l23.4-13.5c0,0,0,0,0.1,0c0,0,0,0,0.1,0c0,0,0,0,0.1,0c0,0,0,0,0.1,0c0,0,0,0,0.1,0c0,0,0,0,0,0
							l0,0c0,0,0,0,0.1,0c0,0,0,0,0.1,0c0,0,0,0,0.1,0c0,0,0.1,0,0.1,0c0,0,0,0,0.1,0c0,0,0,0,0,0c0,0,0,0,0,0c0,0,0.1,0,0.1,0
							c0,0,0.1,0,0.1,0c0,0,0.1,0,0.1,0l0,0c0,0,0,0,0,0c0,0,0.1,0,0.1,0c0.1,0,0.1,0,0.1,0.1l2.8,1.6c-0.1,0-0.2-0.1-0.3-0.1
							c0,0,0,0,0,0c-0.1,0-0.2,0-0.3,0c0,0,0,0,0,0c-0.1,0-0.2,0-0.3,0.1c0,0,0,0,0,0c-0.1,0-0.2,0.1-0.4,0.2l-23.4,13.5
							c-0.1,0.1-0.2,0.2-0.4,0.2c0,0,0,0,0,0C166.7,271.2,166.6,271.3,166.5,271.4z"/>
						<path class="st10" d="M167.2,270.8l23.4-13.5c1-0.6,1.8-0.1,1.8,1l0,16.3c0,1.1-0.8,2.6-1.8,3.1l-23.4,13.5
							c-1,0.6-1.8,0.1-1.8-1l0-16.3C165.4,272.8,166.2,271.4,167.2,270.8z"/>
					</g>
				</g>
				<path class="st36" d="M206.3,304.1l-1.5,8.7l0.6,28.2c1.1,4,10.6,4.5,12.1-2.5c0.3-12.6,0.4-25.7,0.4-37.4
					c-2.1-3.7-11-9.8-12.9-10.1L206.3,304.1z"/>
				<g>
					<path class="st36" d="M196,284.7c6.3,2.5,17.3,9.1,21,12.8c0.6,0.6,0.7,1.5,0.8,2.3c0.9,6-4.7,7.7-7.7,6.8
						c-8.4-2.6-14.8-8.6-22.5-14.7L196,284.7z"/>
					<path class="st10" d="M186.8,289.9c6.3,2.5,18.8,10.8,22.1,15.7c0.5,0.7,0.7,1.5,0.8,2.3c0.9,6-4.8,8.5-7.8,7.6
						c-6-1.8-14.8-6.3-21-10.5c-2.6-1.8-10.4-3.1-7.7-18.2L186.8,289.9z"/>
				</g>
				<path class="st37" d="M207.8,345.2c0.6,2.8,7.3,8.1,8.6,9.5c0.8,0.9,0.3,3.2-0.9,3.9c-1.3,0.8-3.5,0.8-5.3,0.5
					c-2-0.3-4.4-2.4-7.1-4.1c-2.7-1.7-5.9-2.8-5.9-4.3c0.1-2.1,0.7-3.7,1.1-6.7l3.8,1L207.8,345.2z"/>
				<path class="st10" d="M198.1,310l-1.5,8.7l0.8,25.4c0,3.8,11.9,6.5,11.9,0.5c0.3-12.4,0.5-24.5,0.4-36.2
					c-2.1-3.7-11-11.1-12.9-11.4L198.1,310z"/>
			</g>
			<path class="st38" d="M177.6,255.4c4.1-6.8,15.7-8.2,19.6-7.9c2.6,0.3,5.9,1.6,7.1,3.9c4.5,8.6-8,23.1-9.3,28.2
				c-0.3,1.2,0.3,2.2,1,3.5c-4.2,12.6-23.7,8.9-23.2,3.8c0.2-2.5,1.9-7.8,3-13.3C177.5,265.4,175,259.7,177.6,255.4z"/>
			<path class="st39" d="M198.2,341.5l-44,25.3c-15.1,8.7-15.1,30.4-0.1,39.1c0.2,0.1,0.5,0.3,0.7,0.4c22.4,13,50.1,13.1,72.7,0.2
				l44-25.3c15.1-8.7,15.1-30.4,0.1-39.1c-0.2-0.1-0.5-0.3-0.7-0.4C248.4,328.6,220.7,328.5,198.2,341.5z"/>
			<g>
				<g>
					<path class="st20" d="M281.4,346.5c0,0.2,0,0.4,0,0.6c-0.3,7.8,0.7,15.5,0.8,23.6c-0.6,5.8-1.6,9.9-3.2,11.4
						c-0.3,0.3-0.8,0.9-1.8,0.5c-0.1,0-0.2,0.1-0.2,0.2l3.9,3.1l6.2-11.9c0.1-0.6,0.5-1.1,0.3-1.7c-0.2-0.4-0.8-1.4-0.6-2.5
						c1.6-9.1,3.2-15.7,3-21.7c-0.1-2.3-0.1-4.1-0.2-5.7L281.4,346.5z"/>
					<path class="st10" d="M281.1,381c0.9-2.1,1.7-4.1,2.6-5.7c0.4-0.7,1.1-3.2,3.6-3c1.7,1.5,2,3.7,1.4,6.1c-0.8,3-1,5.7-1.3,9.2
						l-0.4,0.2l-0.3-0.2c0-3.7,0.5-4.2-0.5-7.9c-1.6,1.1-1.5,2.7-1.8,4.5c-0.1,0.5-0.1,0.7-0.8,1.3c-1,0.7-2.9,1.7-3.2,1.6
						c-0.5,0-1.7-0.8-2.3-1.1c-1.1-0.6-2-1.7-1.7-2.5c0.3-0.9,0.9-0.9,0.9-0.9c0.1,0.5,1.5,1.2,1.9,0.9
						C279.7,383.3,280.7,382.1,281.1,381z"/>
					<path class="st19" d="M272.7,350c0.1,0.6,0.1,1.2,0.1,2c-0.3,7.8,0.7,15.5,0.8,23.6c-0.6,5.8-1.6,9.9-3.2,11.4
						c-0.3,0.3-0.8,0.9-1.8,0.5c-0.1,0-0.2,0.1-0.2,0.2l3.9,3.1l6.2-11.9c0.1-0.6,0.5-1.1,0.3-1.7c-0.2-0.4-0.8-1.4-0.6-2.5
						c1.6-9.1,3.2-15.7,3-21.7c-0.1-2.7-0.2-4.8-0.2-6.4l-0.3,0.2C280.7,346.9,276,348.7,272.7,350z"/>
					<path class="st9" d="M272.5,385.9c0.9-2.1,1.7-4.1,2.6-5.7c0.4-0.7,1.1-3.2,3.6-3c1.7,1.5,2,3.7,1.4,6.1c-0.8,3-1,5.7-1.3,9.2
						l-0.4,0.2l-0.3-0.2c0-3.7,0.5-4.2-0.5-7.9c-1.6,1.1-1.5,2.7-1.8,4.5c-0.1,0.5-0.1,0.7-0.8,1.3c-1,0.7-2.9,1.7-3.2,1.6
						c-0.5,0-1.7-0.8-2.3-1.1c-1.1-0.6-2-1.7-1.7-2.5c0.3-0.9,0.9-0.9,0.9-0.9c0.1,0.5,1.5,1.2,1.9,0.9
						C271.1,388.1,272.1,386.9,272.5,385.9z"/>
				</g>
				<g>
					<g>
						<path class="st9" d="M286,396c0,0.1,0,0.1,0,0.2c0,0,0,0,0,0c0,0.1,0,0.1,0.1,0.2c0,0,0,0,0,0c0,0,0.1,0.1,0.1,0.1
							c0,0,0.1,0.1,0.1,0.1c0,0,0.1,0.1,0.1,0.1l13.1,7.6l0,2.1l-13.1-7.6c0,0,0,0,0,0c0,0-0.1,0-0.1-0.1c0,0-0.1-0.1-0.1-0.1
							c0,0,0,0,0,0c0,0-0.1-0.1-0.1-0.1c0,0,0,0,0,0c0,0,0,0,0,0c0,0,0,0,0,0c0,0,0-0.1,0-0.1c0,0,0,0,0,0c0,0,0,0,0,0
							c0,0,0,0,0-0.1c0,0,0-0.1,0-0.1c0,0,0,0,0,0l0,0L286,396z"/>
						<path class="st10" d="M300.1,404.6C300.1,404.6,300.1,404.6,300.1,404.6c0.3,0.1,0.5,0.1,0.7,0.1c0,0,0,0,0,0
							c0.2,0,0.4,0,0.6-0.1c0,0,0,0,0,0c0.2,0,0.4-0.1,0.5-0.2l15.2-8.8c0.3-0.2,0.5-0.4,0.5-0.7l0,2.1c0,0.2-0.2,0.5-0.5,0.7
							l-15.2,8.8c-0.1,0-0.2,0.1-0.2,0.1c-0.1,0-0.1,0-0.2,0.1c0,0-0.1,0-0.1,0c0,0,0,0,0,0c0,0,0,0,0,0c-0.1,0-0.1,0-0.2,0
							c-0.1,0-0.1,0-0.2,0c-0.1,0-0.1,0-0.2,0c0,0,0,0-0.1,0c0,0,0,0,0,0c0,0-0.1,0-0.1,0c-0.1,0-0.1,0-0.2,0c-0.1,0-0.1,0-0.2,0
							c0,0-0.1,0-0.1,0c0,0-0.1,0-0.1,0c0,0-0.1,0-0.1,0c-0.1,0-0.3-0.1-0.4-0.2l0-2.1C299.7,404.4,299.9,404.5,300.1,404.6z"/>
						<path class="st11" d="M286.5,395.4c-0.7,0.4-0.7,1,0,1.4l13.1,7.6c0.6,0.4,1.7,0.4,2.4,0l15.2-8.8c0.6-0.4,0.7-1,0-1.4
							l-13.1-7.6c-0.6-0.4-1.7-0.4-2.4,0L286.5,395.4z"/>
					</g>
					<g>
						<polygon class="st32" points="301.8,360 301.3,370.2 301.8,397.6 304.5,396.1 304.5,358.4 						"/>
						<polygon class="st33" points="301.8,360 299.1,358.4 299.1,396.1 301.8,397.6 						"/>
					</g>
					<g>
						<path class="st32" d="M289.4,358.3l22.3,12.9c0.3,0.2,0.5,0.3,0.8,0.4c0,0,0.1,0,0.2,0.1c0.2,0.1,0.5,0.1,0.7,0.2
							c0,0,0,0,0.1,0c0.2,0,0.5,0,0.7,0c0,0,0,0,0,0c0.2,0,0.4-0.1,0.6-0.2c0,0,0,0,0,0h0c0,0,0,0,0,0l-2.3,1.3c0,0,0,0,0,0
							c-0.1,0-0.1,0.1-0.2,0.1c-0.1,0-0.1,0.1-0.2,0.1c0,0-0.1,0-0.2,0c0,0,0,0,0,0c0,0,0,0-0.1,0c-0.1,0-0.2,0-0.3,0
							c-0.1,0-0.2,0-0.3,0c0,0-0.1,0-0.1,0c0,0,0,0-0.1,0c-0.1,0-0.1,0-0.2,0c-0.1,0-0.2,0-0.4-0.1c-0.1,0-0.1,0-0.2-0.1
							c-0.1,0-0.1,0-0.2-0.1c-0.1,0-0.1,0-0.2-0.1c-0.2-0.1-0.4-0.2-0.6-0.3l-22.3-12.9L289.4,358.3z"/>
						<path class="st33" d="M287.1,359.6l22.3,12.9c2.4,1.4,4.3,0.3,4.3-2.5l0.1-24.1l1.6,0.9l-0.1,24.1c0,3.7-2.6,5.2-5.9,3.3
							l-22.3-12.9L287.1,359.6z"/>
					</g>
					<g>
						<path class="st9" d="M277.4,360.6c0,0.1,0,0.2,0,0.3c0,0,0,0,0,0c0,0.1,0.1,0.2,0.1,0.2c0,0,0,0,0,0c0.1,0.1,0.1,0.2,0.2,0.2
							c0.1,0,0.1,0.1,0.2,0.1c0.1,0,0.1,0.1,0.2,0.1l20.2,11.7l0.4,1.4l-0.4,1.9l-20.2-11.7c0,0,0,0,0,0c0,0-0.1-0.1-0.1-0.1
							c-0.1,0-0.1-0.1-0.2-0.1c0,0,0,0,0,0c-0.1-0.1-0.1-0.1-0.2-0.2c0,0,0,0,0,0c0,0,0,0,0,0c0,0,0,0,0-0.1c0,0-0.1-0.1-0.1-0.1
							c0,0,0,0,0,0c0,0,0,0,0,0c0,0,0-0.1,0-0.1c0,0,0-0.1,0-0.1c0,0,0,0,0,0l0,0L277.4,360.6z"/>
						<path class="st10" d="M299.2,373.6c0,0,0.1,0,0.1,0c0.3,0.1,0.6,0.1,0.9,0.1c0,0,0,0,0,0c0.3,0,0.6,0,0.9-0.1c0,0,0,0,0,0
							c0.3-0.1,0.6-0.2,0.8-0.3l23.4-13.5c0.5-0.3,0.8-0.7,0.8-1.1l0,3.2c0,0.4-0.2,0.8-0.8,1.1L302,376.6c-0.1,0.1-0.2,0.1-0.4,0.2
							c-0.1,0-0.2,0.1-0.3,0.1c0,0-0.1,0-0.2,0c0,0,0,0,0,0c0,0-0.1,0-0.1,0c-0.1,0-0.2,0-0.3,0c-0.1,0-0.2,0-0.2,0
							c-0.1,0-0.2,0-0.3,0c0,0-0.1,0-0.1,0c0,0,0,0,0,0c0,0-0.1,0-0.1,0c-0.1,0-0.2,0-0.3,0c-0.1,0-0.2,0-0.3,0c0,0-0.1,0-0.1,0
							c0,0-0.1,0-0.1,0c-0.1,0-0.2,0-0.2-0.1c-0.2-0.1-0.4-0.1-0.6-0.2l0-3.2C298.6,373.5,298.9,373.6,299.2,373.6z"/>
						<path class="st11" d="M278.2,359.5c-1,0.6-1,1.5,0,2.1l20.2,11.7c1,0.6,2.6,0.6,3.6,0l23.4-13.5c1-0.6,1-1.5,0-2.1L305.2,346
							c-1-0.6-2.6-0.6-3.6,0L278.2,359.5z"/>
					</g>
				</g>
				<path class="st40" d="M312.7,344.5l4.9,1.1c1.6,3.5,2.2,6.5,1.5,9.1c-1.3,5.5-9,10.4-14.2,11.2c-9.7,1.5-24.9-10.5-32.5-14.4
					c-0.4-6.6,0.4-8.1,3.1-9.7c4.9-3,8.7-3.8,13.3-2.1c5.8,2.2,10.9,3.2,15.4,5.4L312.7,344.5z"/>
			</g>
			<g>
				<g>
					<g>
						<path class="st9" d="M119.7,371.8c0,0.1,0,0.1,0,0.2c0,0,0,0,0,0c0,0.1,0,0.1,0.1,0.2c0,0,0,0,0,0c0,0,0.1,0.1,0.1,0.1
							c0,0,0.1,0.1,0.1,0.1c0,0,0.1,0.1,0.1,0.1l13.1,7.6l0,2.1l-13.1-7.6c0,0,0,0,0,0c0,0-0.1,0-0.1-0.1c0,0-0.1-0.1-0.1-0.1
							c0,0,0,0,0,0c0,0-0.1-0.1-0.1-0.1c0,0,0,0,0,0c0,0,0,0,0,0c0,0,0,0,0,0c0,0,0-0.1,0-0.1c0,0,0,0,0,0c0,0,0,0,0,0
							c0,0,0,0,0-0.1c0,0,0-0.1,0-0.1c0,0,0,0,0,0l0,0L119.7,371.8z"/>
						<path class="st10" d="M133.8,380.3C133.8,380.3,133.9,380.3,133.8,380.3c0.3,0.1,0.5,0.1,0.7,0.1c0,0,0,0,0,0
							c0.2,0,0.4,0,0.6-0.1c0,0,0,0,0,0c0.2,0,0.4-0.1,0.5-0.2l15.2-8.8c0.3-0.2,0.5-0.4,0.5-0.7l0,2.1c0,0.2-0.2,0.5-0.5,0.7
							l-15.2,8.8c-0.1,0-0.2,0.1-0.2,0.1c-0.1,0-0.1,0-0.2,0.1c0,0-0.1,0-0.1,0c0,0,0,0,0,0c0,0,0,0-0.1,0c-0.1,0-0.1,0-0.2,0
							c-0.1,0-0.1,0-0.2,0c-0.1,0-0.1,0-0.2,0c0,0,0,0-0.1,0c0,0,0,0,0,0c0,0-0.1,0-0.1,0c-0.1,0-0.1,0-0.2,0c-0.1,0-0.1,0-0.2,0
							c0,0-0.1,0-0.1,0c0,0-0.1,0-0.1,0c0,0-0.1,0-0.1,0c-0.1,0-0.3-0.1-0.4-0.2l0-2.1C133.4,380.2,133.6,380.2,133.8,380.3z"/>
						<path class="st11" d="M120.2,371.1c-0.7,0.4-0.7,1,0,1.4l13.1,7.6c0.6,0.4,1.7,0.4,2.4,0l15.2-8.8c0.6-0.4,0.7-1,0-1.4
							l-13.1-7.6c-0.6-0.4-1.7-0.4-2.4,0L120.2,371.1z"/>
					</g>
					<g>
						<polygon class="st32" points="135.5,335.7 135,345.9 135.5,373.3 138.2,371.8 138.2,334.1 						"/>
						<polygon class="st33" points="135.5,335.7 132.8,334.1 132.9,371.8 135.5,373.3 						"/>
					</g>
					<g>
						<polygon class="st34" points="146.7,348.1 148.8,346.9 148.8,345.2 146.7,346.5 						"/>
						<path class="st32" d="M121.9,328.3c0-0.3-0.1-0.5-0.1-0.8l2.2-1.3c0,0.3,0,0.6,0.1,0.9c0,0,0,0.1,0,0.1c0,0.3,0.1,0.6,0.2,0.9
							c0,0,0,0.1,0,0.1c0.1,0.3,0.2,0.6,0.3,0.9c0,0,0,0,0,0c0.1,0.3,0.3,0.6,0.5,0.9c0,0,0,0,0,0c0.2,0.3,0.4,0.6,0.6,0.9
							c0,0,0,0,0.1,0.1c0.2,0.2,0.4,0.5,0.6,0.7c0,0,0.1,0.1,0.1,0.1c0.2,0.2,0.3,0.3,0.5,0.5c0.1,0.1,0.2,0.1,0.2,0.2
							c0.2,0.2,0.5,0.4,0.8,0.5l-2.2,1.3c-0.3-0.1-0.5-0.3-0.8-0.5c-0.1-0.1-0.2-0.1-0.2-0.2c-0.1-0.1-0.2-0.2-0.3-0.3
							c-0.1-0.1-0.1-0.1-0.2-0.2c0,0-0.1-0.1-0.1-0.1c0-0.1-0.1-0.1-0.2-0.2c-0.1-0.1-0.2-0.3-0.3-0.4c0,0-0.1-0.1-0.1-0.1
							c0,0,0-0.1-0.1-0.1c0,0-0.1-0.1-0.1-0.1c-0.1-0.1-0.2-0.2-0.2-0.3c-0.1-0.1-0.1-0.2-0.2-0.3c0,0,0,0,0,0c0,0,0,0,0,0
							c-0.1-0.1-0.1-0.2-0.2-0.3c-0.1-0.1-0.1-0.2-0.2-0.3c0-0.1-0.1-0.2-0.1-0.3c0,0,0,0,0,0c0,0,0,0,0,0c-0.1-0.1-0.1-0.2-0.1-0.4
							c0-0.1-0.1-0.3-0.1-0.4c0-0.1,0-0.1-0.1-0.2c0,0,0-0.1,0-0.1c0,0,0-0.1,0-0.1c0-0.2-0.1-0.3-0.1-0.5c0-0.1,0-0.2,0-0.3
							c0,0,0-0.1,0-0.1C121.9,328.4,121.9,328.3,121.9,328.3z"/>
						<polygon class="st32" points="121.8,327.5 124,326.2 124,303.8 121.9,305 						"/>
						<polygon class="st35" points="121.9,305 124,303.8 122.6,302.9 120.4,304.2 						"/>
						<polygon class="st35" points="128,333.2 148.8,345.2 146.7,346.5 125.8,334.4 						"/>
						<path class="st33" d="M120.4,304.2l1.4,0.8l-0.1,22.5c0,2.5,1.8,5.6,4,6.9l20.8,12l0,1.7l-20.8-12c-3-1.7-5.4-6-5.4-9.4
							L120.4,304.2z"/>
					</g>
					<g>
						<path class="st29" d="M112.9,337.4c0,0.1,0,0.2,0,0.3c0,0,0,0,0,0c0,0.1,0.1,0.2,0.1,0.2c0,0,0,0,0,0c0.1,0.1,0.1,0.2,0.2,0.2
							c0.1,0,0.1,0.1,0.2,0.1c0.1,0,0.1,0.1,0.2,0.1l20.2,11.7l0,3.2l-20.2-11.7c0,0,0,0,0,0c0,0-0.1-0.1-0.1-0.1
							c-0.1,0-0.1-0.1-0.2-0.1c0,0,0,0,0,0c-0.1-0.1-0.1-0.1-0.2-0.2c0,0,0,0,0,0c0,0,0,0,0,0c0,0,0,0,0-0.1c0,0,0-0.1-0.1-0.1
							c0,0,0,0,0,0c0,0,0,0,0,0c0,0,0-0.1,0-0.1c0,0,0-0.1,0-0.1c0,0,0,0,0,0l0,0L112.9,337.4z"/>
						<path class="st30" d="M134.6,350.5c0,0,0.1,0,0.1,0c0.3,0.1,0.6,0.1,0.9,0.1c0,0,0,0,0,0c0.3,0,0.6,0,0.9-0.1c0,0,0,0,0,0
							c0.3-0.1,0.6-0.2,0.8-0.3l23.4-13.5c0.5-0.3,0.8-0.7,0.8-1.1l0,3.2c0,0.4-0.2,0.8-0.8,1.1l-23.4,13.5
							c-0.1,0.1-0.2,0.1-0.4,0.2c-0.1,0-0.2,0.1-0.3,0.1c-0.1,0-0.1,0-0.2,0c0,0,0,0,0,0c0,0-0.1,0-0.1,0c-0.1,0-0.2,0-0.3,0
							c-0.1,0-0.2,0-0.2,0c-0.1,0-0.2,0-0.3,0c0,0-0.1,0-0.1,0c0,0,0,0,0,0c0,0-0.1,0-0.1,0c-0.1,0-0.2,0-0.3,0c-0.1,0-0.2,0-0.3,0
							c0,0-0.1,0-0.1,0c0,0-0.1,0-0.1,0c-0.1,0-0.2,0-0.2-0.1c-0.2-0.1-0.4-0.1-0.6-0.2l0-3.2C134.1,350.3,134.3,350.4,134.6,350.5z
							"/>
						<path class="st31" d="M113.6,336.3c-1,0.6-1,1.5,0,2.1l20.2,11.7c1,0.6,2.6,0.6,3.6,0l23.4-13.5c1-0.6,1-1.5,0-2.1l-20.2-11.7
							c-1-0.6-2.6-0.6-3.6,0L113.6,336.3z"/>
					</g>
					<g>
						<path class="st9" d="M108.8,310l0,16.3c0,0.1,0,0.3,0,0.4c0,0,0,0,0,0c0,0.1,0.1,0.2,0.1,0.3c0,0,0,0,0,0
							c0,0.1,0.1,0.1,0.1,0.2c0.1,0.1,0.2,0.2,0.3,0.3l-2.8-1.6c-0.1-0.1-0.2-0.2-0.3-0.3c0,0,0,0,0,0c0,0,0-0.1-0.1-0.1
							c0,0,0,0,0,0s0,0,0,0c0,0,0-0.1,0-0.1c0,0,0-0.1,0-0.1c0,0,0-0.1,0-0.1c0,0,0,0,0,0c0,0,0,0,0,0c0,0,0,0,0,0c0,0,0-0.1,0-0.1
							c0,0,0-0.1,0-0.1c0,0,0-0.1,0-0.1c0,0,0-0.1,0-0.1v0l0-16.3L108.8,310z"/>
						<path class="st11" d="M109.9,307.5C109.9,307.5,109.9,307.5,109.9,307.5c-0.1,0.1-0.2,0.2-0.3,0.4c0,0,0,0,0,0
							c-0.1,0.1-0.2,0.3-0.3,0.4c0,0,0,0,0,0c-0.1,0.1-0.1,0.3-0.2,0.4c0,0,0,0,0,0c-0.1,0.1-0.1,0.3-0.2,0.4c0,0,0,0,0,0
							c0,0.1-0.1,0.3-0.1,0.4v0c0,0.1,0,0.3,0,0.4l-2.8-1.6c0,0,0-0.1,0-0.1c0,0,0-0.1,0-0.1c0,0,0-0.1,0-0.1c0,0,0-0.1,0-0.1
							c0,0,0-0.1,0-0.1v0c0,0,0,0,0,0c0,0,0-0.1,0-0.1c0,0,0-0.1,0-0.1c0,0,0-0.1,0-0.1c0,0,0-0.1,0-0.1c0,0,0-0.1,0-0.1
							c0,0,0,0,0,0c0,0,0,0,0,0c0,0,0-0.1,0-0.1c0,0,0-0.1,0-0.1c0,0,0-0.1,0-0.1c0,0,0-0.1,0-0.1c0,0,0,0,0-0.1l0,0c0,0,0,0,0,0
							c0,0,0-0.1,0-0.1c0,0,0-0.1,0-0.1c0,0,0-0.1,0.1-0.1c0,0,0-0.1,0.1-0.1c0,0,0,0,0,0c0,0,0,0,0,0c0-0.1,0.1-0.1,0.1-0.2
							c0-0.1,0.1-0.1,0.1-0.2c0,0,0,0,0,0l0,0c0,0,0.1-0.1,0.1-0.1c0,0,0-0.1,0.1-0.1c0,0,0-0.1,0.1-0.1c0,0,0-0.1,0.1-0.1
							c0,0,0,0,0,0c0,0,0,0,0,0c0,0,0,0,0.1-0.1c0,0,0.1-0.1,0.1-0.1c0,0,0.1,0,0.1-0.1c0,0,0.1,0,0.1-0.1c0,0,0,0,0,0c0,0,0,0,0,0
							c0,0,0,0,0,0c0,0,0.1,0,0.1-0.1c0,0,0.1,0,0.1-0.1c0,0,0.1,0,0.1-0.1c0,0,0.1,0,0.1,0c0,0,0,0,0,0l23.4-13.5c0,0,0,0,0.1,0
							c0,0,0,0,0.1,0c0,0,0,0,0.1,0c0,0,0,0,0.1,0c0,0,0,0,0.1,0c0,0,0,0,0,0c0,0,0,0,0,0c0,0,0,0,0.1,0c0,0,0,0,0.1,0
							c0,0,0,0,0.1,0c0,0,0.1,0,0.1,0c0,0,0,0,0.1,0c0,0,0,0,0,0c0,0,0,0,0,0c0,0,0.1,0,0.1,0c0,0,0.1,0,0.1,0c0,0,0.1,0,0.1,0l0,0
							c0,0,0,0,0,0c0,0,0.1,0,0.1,0c0.1,0,0.1,0,0.1,0.1l2.8,1.6c-0.1,0-0.2-0.1-0.3-0.1l0,0c-0.1,0-0.2,0-0.3,0c0,0,0,0,0,0
							c-0.1,0-0.2,0-0.3,0.1c0,0,0,0,0,0c-0.1,0-0.2,0.1-0.4,0.2l-23.4,13.5c-0.1,0.1-0.2,0.2-0.4,0.3c0,0,0,0,0,0
							C110.1,307.2,110,307.3,109.9,307.5z"/>
						<path class="st10" d="M110.6,306.9l23.4-13.5c1-0.6,1.8-0.1,1.8,1l0,16.3c0,1.1-0.8,2.6-1.8,3.1l-23.4,13.5
							c-1,0.6-1.8,0.1-1.8-1l0-16.3C108.8,308.9,109.6,307.5,110.6,306.9z"/>
					</g>
				</g>
				<g>
					<path class="st41" d="M129.4,265.8c4.8,6.6,1.6,19.1,5.5,24.4c-19.3,4.7-17.7-25.5-15-27C121.6,262.1,127.1,262.6,129.4,265.8z
						"/>
					<path class="st42" d="M119.5,290c-3.7,2.1-6.7,4.2-6.9,7c-0.1,1.2,1.7,2.3,2,3.9c0.7,3.3,2.2,7,3.8,10c2.3,4.4,3,7.2,1.7,11.7
						c-5.3,17.7,16.1,28.8,19.6,16c1.1-3.8,0.5-9.1-3.1-17.2c-1.2-2.8-0.5-4.8-0.5-6.2c0-1.2,1-3.4,1.7-6.4c1.3-2.3,1.6-4.7,1.4-6.6
						c-0.4-2.7-2.3-5.7-3.9-8.9c-0.9-1.9-1.6-3.5-2.6-4.5c-0.1-0.1-0.2-0.2-0.4-0.3c-0.1-0.2-0.2-0.4-0.4-0.5
						C128.1,285.8,122.3,288.4,119.5,290z"/>
					<path class="st43" d="M130.8,319.4c0-0.3-0.1-0.5-0.1-0.8l2.2-1.3c0,0.3,0,0.6,0.1,0.9c0,0,0,0.1,0,0.1c0,0.3,0.1,0.6,0.2,0.9
						c0,0,0,0.1,0,0.1c0.1,0.3,0.2,0.6,0.3,0.9c0,0,0,0,0,0c0.1,0.3,0.3,0.6,0.5,0.9c0,0,0,0,0,0c0.2,0.3,0.4,0.6,0.6,0.9
						c0,0,0,0.1,0.1,0.1c0.2,0.2,0.4,0.5,0.6,0.7c0,0,0.1,0.1,0.1,0.1c0.2,0.2,0.3,0.3,0.5,0.5c0.1,0.1,0.2,0.1,0.2,0.2
						c0.2,0.2,0.5,0.4,0.8,0.5l-2.2,1.3c-0.3-0.1-0.5-0.3-0.8-0.5c-0.1-0.1-0.2-0.1-0.2-0.2c-0.1-0.1-0.2-0.2-0.3-0.3
						c-0.1-0.1-0.1-0.1-0.2-0.2c0,0-0.1-0.1-0.1-0.1c0-0.1-0.1-0.1-0.2-0.2c-0.1-0.1-0.2-0.3-0.3-0.4c0,0-0.1-0.1-0.1-0.1
						c0,0,0,0-0.1-0.1c0,0-0.1-0.1-0.1-0.1c-0.1-0.1-0.2-0.2-0.2-0.3c-0.1-0.1-0.1-0.2-0.2-0.3c0,0,0,0,0,0c0,0,0,0,0,0
						c-0.1-0.1-0.1-0.2-0.2-0.3c-0.1-0.1-0.1-0.2-0.2-0.3c0-0.1-0.1-0.2-0.1-0.3c0,0,0,0,0,0c0,0,0,0,0,0c-0.1-0.1-0.1-0.2-0.1-0.4
						c0-0.1-0.1-0.3-0.1-0.4c0-0.1,0-0.1-0.1-0.2c0,0,0-0.1,0-0.1c0,0,0-0.1,0-0.1c0-0.2-0.1-0.3-0.1-0.5c0-0.1,0-0.2,0-0.3
						c0,0,0-0.1,0-0.1C130.8,319.5,130.8,319.4,130.8,319.4z"/>
					<path class="st20" d="M120,280.2c0.4,1.5,2.2,5,1,9.1l7.8,3.2l0.7-2.3c-1.1-3.3-1.5-5.3-1.1-8.4L120,280.2z"/>
					<path class="st19" d="M128.2,265.7c3.2,4.6,1.8,7.8,2.2,11.6c0.2,2-0.3,3.6-0.8,4.8c-0.6,1.7-1.4,2.5-2.4,2.8
						c-1.9,0.6-9.7-2.7-10.3-5.3l-2.3-9.9L128.2,265.7z"/>
					<path class="st20" d="M162.2,343.1c1.3,8.4,1.1,16.9,1.9,25.6l-3.5,4.1c-3.2-13-6.8-19.9-7.3-27.5c-0.3-4.4-0.5-7.3-0.8-9.4
						C151.7,328.3,161.3,336.7,162.2,343.1z"/>
					<path class="st19" d="M153.8,338.5c0.6,4-0.3,6.1,0.2,9.1c1.3,8.4,1.1,16.9,1.9,25.6l-3.5,4.1c-3.2-13-6.8-19.9-7.3-27.5
						c-0.3-4-0.5-6.7-0.8-8.8C141.9,322.2,152.9,330.1,153.8,338.5z"/>
					<path class="st16" d="M118.7,331.7c0.3,3.6,1.3,7.8,4.2,10.1c5,4,14.4,2.8,21.8,8.1c0.1,0.1,0.1,0.1,0.2,0.2l0.1,0l0.1,0.1l0,0
						c1.9,0.7,7.8,0,12.6-2.8c5-2.6,6.3-6.3,5.5-7.5c-0.9-2.1-1.6-4.3-3.8-5.6c-3.8-2.3-18-10.7-21.6-11c-0.3-0.5-0.6-1-0.9-1.5
						l0.1-0.1c-1.8-4,0-8.8,1-12.7c1.3-2.3,1.8-5.1,1.5-7c-0.4-2.6-2.1-5.7-3.7-8.9c-0.9-1.9-2.4-3.9-3.4-5
						c-0.5-0.5-1.5-0.9-2.4-0.9c1.4,1.3,5,12.5,3.6,17c-1.3-4.6-10.7-11.9-14.6-13.7c-2,1-2.7,1.5-4.1,2.7c5.5-0.8,8.2,5.8,7.9,13
						c-0.2,3.1-1.5,5.2-4.1,5.3c1.3,3.1,2.3,5.7,2,7.5C120,322.7,118.2,326.1,118.7,331.7C118.7,331.7,118.7,331.7,118.7,331.7z"/>
					<path class="st44" d="M120.6,288.2c2.8,1.7,5.4,2.4,8.2,4.2l0.1,3.6c-3-2.6-5.3-3.3-8.7-5.4L120.6,288.2z"/>
					<path class="st41" d="M119.9,278.3c-0.2-2.2-1.3-2.4-1.9-2.2c-0.8,0.2-0.9,1-0.7,2c0.3,0.9,0.5,2.2,1.1,3
						c0.4,0.6,0.7-0.2,1.1,0c2.3,3.1,2.4,9.2,3.6,11.1c-12.3,0.4-14-16.8-9.8-25c2.8-5.5,13.9-6.3,16-0.5
						C131.3,272.3,121.6,273.7,119.9,278.3z"/>
					<path class="st44" d="M128.5,287.1c0.2,0.9,0.4,2.7,0.2,5.3c0.9,0.6,1.9,1.4,2.9,2c-0.4-2.8-0.6-3.9-1.3-6.7L128.5,287.1z"/>
					<path class="st19" d="M155.1,368.7c0.5,2.9,2.7,12.5,3.8,14.7c0.5,1,1.1,2.2,2.2,3.8c0,0-2.5,1.4-2.8,1.5
						c-0.3,0.1-4.8-0.6-4.8-0.6s-2.8-7-2.8-7.4c-0.5-4.7-3-3.9-0.7-7.8c1-1.7,0.5-3.8,0.2-5.7L155.1,368.7z"/>
					<path class="st9" d="M160,385.5c1,1.7,1.9,2,2,3c0,1.3-2.6,1.7-3.5,1.8c-1.3,0.1-3.9-0.8-5.1-2c-0.7-2.8-1.9-5.1-2.9-7.8
						l0.7,6.8l-0.6,0c-0.4-2.4-1.2-5.2-1.8-7.3c-0.3-0.8-0.7-1.6-0.8-2c-0.4-2,0.9-3.5,1.9-5.1c1.2,3.6,2.8,12,6.7,13.3
						C157.8,386.7,159.5,386.1,160,385.5z"/>
					<path class="st20" d="M163.2,363.8c0.5,2.9,2.7,12.5,3.8,14.7c0.5,1,1.1,2.2,2.2,3.8c0,0-2.5,1.4-2.8,1.5
						c-0.3,0.1-4.8-0.6-4.8-0.6s-2.8-7-2.8-7.4c-0.5-4.7-3-3.9-0.7-7.8c1-1.7,0.5-3.8,0.2-5.7L163.2,363.8z"/>
					<path class="st45" d="M168.1,380.6c1,1.7,1.9,2,2,3c0,1.3-2.6,1.7-3.5,1.8c-1.3,0.1-3.9-0.8-5.1-2c-0.7-2.8-1.9-5.1-2.9-7.8
						l0.8,6.8l-0.6,0c-0.4-2.4-1.2-5.2-1.8-7.3c-0.3-0.8-0.7-1.6-0.8-2c-0.4-2,0.9-3.5,1.9-5.1c1.2,3.6,2.8,12,6.7,13.3
						C165.9,381.8,167.5,381.2,168.1,380.6z"/>
					<path class="st46" d="M131.1,287.5c3,0.1,10.4,8.8,14.2,12.9c2.5,2.6,5.2,5.8,4.2,7.1c-3.1,4.2-7.9-0.5-10.2-2.5
						c0.2-1,0.2-2,0.1-2.9c-0.4-2.6-2.1-5.7-3.7-8.9c-0.9-1.9-2.4-3.9-3.4-5C132.1,287.9,131.6,287.6,131.1,287.5z"/>
				</g>
			</g>
			<g>
				<g>
					<g>
						<g>
							<path class="st32" d="M226.7,415.4l4.6,3.5c-0.1,4.2,0,6.3-1.7,7.4c-2,1.3-5.4,0.3-7.4-0.7l-0.5-1.6c-2-0.3-1.5,0.3-3.6-0.9
								c-3.5-2-8.8-5-9.5-8.5c-0.2-0.9,0.5-2.5,1.4-2.4l10.3,1.8L226.7,415.4z"/>
							<path class="st47" d="M233.3,388l-1.7,32.4l0,0c0,0.3-0.1,0.5-0.3,0.6c-1.1,0.6-4.7-0.4-8-2.4c-1.4-0.8-2.5-1.6-3.3-2.4
								c-0.4-0.3-0.8-0.5-1.2-0.8l-1.9-35.6L233.3,388z"/>
						</g>
						<path class="st48" d="M230.9,424.5c-0.2,0.8-0.6,1.3-1.2,1.8c-1.9,1.4-5.4,0.3-7.5-0.6l-0.6-1.6c-2.8-0.3-2,0.2-4.9-1.3
							c-3.4-1.8-7.6-4.3-8.4-7.4c-0.2-0.6,0.1-1.7,0.6-2.2c-0.1,0.3-0.1,0.7,0,0.9c0.8,3.1,4.9,5.6,8.4,7.4c2.8,1.5,2.1,1,4.9,1.3
							l0.6,1.6c2.1,0.8,5.5,2,7.5,0.6C230.5,424.8,230.7,424.7,230.9,424.5z"/>
						<g>
							<path class="st33" d="M215.5,421.7l4.7,3.3c0.1,4.2,0.2,6.3-1.4,7.5c-1.9,1.4-5.3,0.5-7.4-0.4l-0.6-1.6
								c-2.8-0.3-2,0.2-4.9-1.3c-3.4-1.8-7.6-4.3-8.4-7.4c-0.2-0.9,0.4-2.5,1.3-2.4l10.1,1.2L215.5,421.7z"/>
							<path class="st49" d="M222.3,386.2c-0.2,2.9-0.4,5.8-0.5,8.8l-1,31.9l0,0c0,0.2-0.1,0.3-0.3,0.5c-1.1,0.6-4.7-0.4-8-2.4
								c-3.2-1.8-5-3.8-4.2-4.5l-0.2-34.8C208,378.3,222.2,379.8,222.3,386.2z"/>
						</g>
					</g>
					<g>
						<g>
							<path class="st9" d="M221.9,434.1c0,0.1,0,0.1,0,0.2c0,0,0,0,0,0c0,0.1,0,0.1,0.1,0.2c0,0,0,0,0,0c0,0,0.1,0.1,0.1,0.1
								c0,0,0.1,0.1,0.1,0.1c0,0,0.1,0.1,0.1,0.1l13.1,7.6l0,2.1l-13.1-7.6c0,0,0,0,0,0c0,0-0.1,0-0.1-0.1c0,0-0.1-0.1-0.1-0.1
								c0,0,0,0,0,0c0,0-0.1-0.1-0.1-0.1c0,0,0,0,0,0c0,0,0,0,0,0c0,0,0,0,0,0c0,0,0-0.1,0-0.1c0,0,0,0,0,0c0,0,0,0,0,0
								c0,0,0,0,0-0.1c0,0,0-0.1,0-0.1c0,0,0,0,0,0l0,0L221.9,434.1z"/>
							<path class="st10" d="M236,442.6C236,442.6,236.1,442.6,236,442.6c0.3,0.1,0.5,0.1,0.7,0.1c0,0,0,0,0,0c0.2,0,0.4,0,0.6-0.1
								c0,0,0,0,0,0c0.2,0,0.4-0.1,0.5-0.2l15.2-8.8c0.3-0.2,0.5-0.4,0.5-0.7l0,2.1c0,0.2-0.2,0.5-0.5,0.7l-15.2,8.8
								c-0.1,0-0.2,0.1-0.2,0.1c-0.1,0-0.1,0-0.2,0.1c0,0-0.1,0-0.1,0c0,0,0,0,0,0c0,0,0,0-0.1,0c-0.1,0-0.1,0-0.2,0
								c-0.1,0-0.1,0-0.2,0c-0.1,0-0.1,0-0.2,0c0,0,0,0-0.1,0c0,0,0,0,0,0c0,0-0.1,0-0.1,0c-0.1,0-0.1,0-0.2,0c-0.1,0-0.1,0-0.2,0
								c0,0-0.1,0-0.1,0c0,0-0.1,0-0.1,0c0,0-0.1,0-0.1,0c-0.1,0-0.3-0.1-0.4-0.2l0-2.1C235.7,442.5,235.8,442.5,236,442.6z"/>
							<path class="st11" d="M222.4,433.4c-0.7,0.4-0.7,1,0,1.4l13.1,7.6c0.6,0.4,1.7,0.4,2.4,0l15.2-8.8c0.6-0.4,0.7-1,0-1.4
								l-13.1-7.6c-0.6-0.4-1.7-0.4-2.4,0L222.4,433.4z"/>
						</g>
						<g>
							<polygon class="st32" points="237.7,398 237.2,408.3 237.7,435.7 240.4,434.1 240.4,396.4 							"/>
							<polygon class="st33" points="237.7,398 235,396.5 235.1,434.1 237.7,435.7 							"/>
						</g>
						<g>
							<path class="st32" d="M225.3,396.3l22.3,12.9c0.3,0.2,0.5,0.3,0.8,0.4c0,0,0.1,0,0.1,0.1c0.2,0.1,0.5,0.1,0.7,0.2
								c0,0,0,0,0.1,0c0.2,0,0.5,0,0.7,0c0,0,0,0,0,0c0.2,0,0.4-0.1,0.6-0.2h0h0h0l-2.3,1.3c0,0,0,0,0,0c-0.1,0-0.1,0.1-0.2,0.1
								c-0.1,0-0.2,0.1-0.2,0.1c0,0-0.1,0-0.2,0c0,0,0,0,0,0c0,0,0,0-0.1,0c-0.1,0-0.2,0-0.3,0c-0.1,0-0.2,0-0.3,0c0,0-0.1,0-0.1,0
								c0,0,0,0-0.1,0c-0.1,0-0.1,0-0.2,0c-0.1,0-0.2,0-0.4-0.1c-0.1,0-0.1,0-0.2-0.1c-0.1,0-0.1,0-0.2-0.1c-0.1,0-0.1,0-0.2-0.1
								c-0.2-0.1-0.4-0.2-0.6-0.3L223,397.6L225.3,396.3z"/>
							<path class="st33" d="M223,397.6l22.3,12.9c2.4,1.4,4.3,0.3,4.3-2.5l0.1-24.1l1.6,0.9l-0.1,24.1c0,3.7-2.6,5.2-5.9,3.3
								L223,399.4L223,397.6z"/>
						</g>
						<g>
							<path class="st9" d="M213.4,398.6c0,0.1,0,0.2,0,0.3c0,0,0,0,0,0c0,0.1,0.1,0.2,0.1,0.2c0,0,0,0,0,0c0.1,0.1,0.1,0.2,0.2,0.2
								c0.1,0,0.1,0.1,0.2,0.1c0.1,0,0.1,0.1,0.2,0.1l20.2,11.7l0.4,1.4l-0.4,1.9l-20.2-11.7c0,0,0,0,0,0c0,0-0.1-0.1-0.1-0.1
								c-0.1,0-0.1-0.1-0.2-0.1c0,0,0,0,0,0c-0.1-0.1-0.1-0.1-0.2-0.2c0,0,0,0,0,0c0,0,0,0,0,0c0,0,0,0,0-0.1c0,0,0-0.1-0.1-0.1
								c0,0,0,0,0,0c0,0,0,0,0,0c0,0,0-0.1,0-0.1c0,0,0-0.1,0-0.1c0,0,0,0,0,0v0L213.4,398.6z"/>
							<path class="st10" d="M235.1,411.7c0,0,0.1,0,0.1,0c0.3,0.1,0.6,0.1,0.9,0.1c0,0,0,0,0,0c0.3,0,0.6,0,0.9-0.1c0,0,0,0,0,0
								c0.3-0.1,0.6-0.2,0.8-0.3l23.4-13.5c0.5-0.3,0.8-0.7,0.8-1.1l0,3.2c0,0.4-0.2,0.8-0.8,1.1l-23.4,13.5
								c-0.1,0.1-0.2,0.1-0.4,0.2c-0.1,0-0.2,0.1-0.3,0.1c-0.1,0-0.1,0-0.2,0c0,0,0,0,0,0c0,0-0.1,0-0.1,0c-0.1,0-0.2,0-0.3,0
								c-0.1,0-0.2,0-0.2,0c-0.1,0-0.2,0-0.3,0c0,0-0.1,0-0.1,0c0,0,0,0,0,0c0,0-0.1,0-0.1,0c-0.1,0-0.2,0-0.3,0c-0.1,0-0.2,0-0.3,0
								c0,0-0.1,0-0.1,0c0,0-0.1,0-0.1,0c-0.1,0-0.2,0-0.2-0.1c-0.2-0.1-0.4-0.1-0.6-0.2l0-3.2C234.5,411.5,234.8,411.6,235.1,411.7
								z"/>
							<path class="st11" d="M214.1,397.5c-1,0.6-1,1.5,0,2.1l20.2,11.7c1,0.6,2.6,0.6,3.6,0l23.4-13.5c1-0.6,1-1.5,0-2.1L241.2,384
								c-1-0.6-2.6-0.6-3.6,0L214.1,397.5z"/>
						</g>
					</g>
					<path class="st47" d="M241.1,401.7c-6.2-1.4-10.9-8-18.1-13.1l-6.4-3.2c-0.4-6.6,0.1-8.7,3.1-9.7c5.7-2,15.6,3.2,23.1,6.9
						L241.1,401.7z"/>
					<path class="st49" d="M252.6,384.3l4,2.2c1.4,6.5,0.6,11.1-2.4,14.2c-4.3,4.5-13.2,7.9-21.6,6c-6.2-1.4-10.9-8-18.1-13.1
						l-6.4-3.2c-0.4-6.6,0.1-8.7,3.1-9.7c5.7-2,15.6,3.2,23.1,6.9L252.6,384.3z"/>
				</g>
				<path class="st48" d="M220.1,430.8c-0.2,0.8-0.6,1.3-1.2,1.7c-1.9,1.4-5.3,0.5-7.4-0.4l-0.6-1.6c-2.8-0.3-2,0.2-4.9-1.3
					c-3.4-1.8-7.6-4.3-8.4-7.4c-0.2-0.6,0.1-1.7,0.6-2.2c-0.1,0.3-0.1,0.7,0,0.9c0.8,3.1,4.9,5.6,8.4,7.4c2.8,1.5,2.1,1,4.9,1.3
					l0.6,1.6c2.1,0.8,5.5,1.8,7.4,0.4C219.7,431.1,219.9,431,220.1,430.8z"/>
			</g>
			<path class="st17" d="M191.8,291.4l-55.3,31.8c-18.9,10.9-19,38.2-0.1,49.2c0.3,0.2,0.6,0.3,0.9,0.5c28.2,16.4,63,16.5,91.3,0.2
				l55.3-31.8c18.9-10.9,19-38.2,0.1-49.2c-0.3-0.2-0.6-0.3-0.9-0.5C254.9,275.2,220.1,275.1,191.8,291.4z"/>
			<path class="st25" d="M191.8,286.9l-55.3,31.8c-18.9,10.9-19,38.2-0.1,49.2c0.3,0.2,0.6,0.3,0.9,0.5c28.2,16.4,63,16.5,91.3,0.2
				l55.3-31.8c18.9-10.9,19-38.2,0.1-49.2c-0.3-0.2-0.6-0.3-0.9-0.5C254.9,270.7,220.1,270.6,191.8,286.9z"/>
			<path class="st50" d="M290,325.4c-0.3,0.2-0.6,0.7-0.6,1.1c0,0.4,0.3,0.5,0.6,0.4c0.7-0.3,0.7-0.7,0.6-1.1
				C290.6,325.4,290.4,325.2,290,325.4z"/>
			<path class="st20" d="M197.1,244.2c-1.4,3.2-3,4.1-4.6,7c-0.8,2.9,3.2,7.4,6.5,6c1.5-1.9,3.5-3.5,4.9-5.1L197.1,244.2z"/>
			<g>
				<path class="st19" d="M212.1,245c-0.5,2.9,0.3,2.2-2.1,6.7c-0.7,1.3-4.2,4.3-4.7,4.5c-0.6,0.3-1.9,0.3-2.6,0.1
					c-1.3-0.4-4-4-4.6-5.1c-1.4-2.4-2.2-3.2-1.3-5.4l0.3-2.7l1.9-7.8c4.9-0.8,9.2-1.1,11.3,0C212.4,236.3,213.1,239.2,212.1,245z"/>
				<path class="st51" d="M200.3,232.3c-7,0.8-5.1,10.8-4.3,13.9c0.5-0.2,1,0.1,1.1-0.5c0.3-1.3,1.1-2.3,1.8-2.3
					c0.9,0,1.4,1.1,1.1,3.6c0.9-0.9,2.2-1.8,3.4-3.6c0.1,0.1,9.2,2.7,11.8-2.3c-1.3-1.1-2.2-7-5-8.5
					C206.9,230.9,202.5,230.8,200.3,232.3z"/>
			</g>
			<g>
				<path class="st52" d="M302.2,312.1c-6.5,3.8-10.1,7.8-8,9c2.1,1.2,9.1-0.8,15.6-4.6c6.5-3.8,10.1-7.8,8-9
					C315.7,306.3,308.7,308.4,302.2,312.1z"/>
				<path class="st52" d="M316.9,317.8c0.3-5.4-0.3-10.3-4.1-9.6c-3.9,0.7-11.4,6.4-15.6,8.6l6.2,2L316.9,317.8z"/>
				<path class="st53" d="M317.1,308.1c2.9,2.7,0.2,19.9,0,23.8c-1.8,2.9-4.8,1.8-6.3-0.1l-0.9-10.1
					C310.2,315.1,315.2,307.3,317.1,308.1z"/>
				<path class="st20" d="M301.6,306.2c0.2,1.6,1.7,5.2,0,9.2c3.6-0.7,7.5-3.3,8.6-4.8c0.1-1,0.3-2,0.6-3.1L301.6,306.2z"/>
				<path class="st52" d="M298.5,316c-11.3,5.3-2.4,13.5-0.7,26.1c0.1,1-0.8,4.2-1.6,7.3c-0.6,3.4,4.8,4.4,8.3,4.2
					c6.7-0.5,14.1-4.4,13.1-10c-1.2-1.8-3.4-4.1-2.7-9.9c0.5-4.5,1.4-5.8,2-9.7c0.4-2.7,2.1-13.6-2.9-13.4
					C312.2,310.6,301.1,314.8,298.5,316z"/>
				<path class="st19" d="M300.1,292.5c-0.9,1.7-2.2,2-2.2,4.3c0,1.8-0.1,11.7,3.1,13.8c1.1,0.7,4.1-1,5.9-2.5
					c1.2-1.1,0.8-3,1.3-3.7l-2.7-11.2L300.1,292.5z"/>
				<path class="st54" d="M313.4,290.3c4.3,3.1,4.5,8.8,2,13.2c-1.2,2.2-1.5,2.8-3.4,3.8c-0.9,0.4-2.2,1.4-3.7,1.3
					c-1.8-0.1-3.6-7.5-5.4-7.7c-0.7-0.1-1.4,0.8-1.2,3.7c-1.2-2.8-2.2-3.7-4-5.9C294.7,289.7,309,284.7,313.4,290.3z"/>
				<path class="st55" d="M324.7,313.3c-4.6,2.8-7.4,4.6-9.7,2.2c-4.7-4.7-5.7-17.4-2.6-23.4c0.5-0.9,0.3-1.1,0-1
					c-0.8-0.1-3-2.4-2.2-2.9c9.2-5.9,13.2,0.1,13,5.7C322.6,307.3,318.4,311.1,324.7,313.3z"/>
				<path class="st11" d="M310.6,287.8c-0.8,0.3-1.5,0.4-1.7,1c-0.3,1,0.5,2.7,1.2,3.3c0.6,0.4,2-0.4,2.5-1
					C311.4,290.7,310.5,289,310.6,287.8z"/>
				<path class="st20" d="M304.8,311.9c-2.2,1.2-3.3,2.6-2.6,3c0.6,0.7,3.5,0.8,5.6-0.5s2.9-3.6,2.2-4
					C309.3,310,307,310.6,304.8,311.9z"/>
				<g>
					<g>
						<path class="st9" d="M302,342.9l0,16.3c0,0.1,0,0.3,0,0.4c0,0,0,0,0,0c0,0.1,0.1,0.2,0.1,0.3c0,0,0,0,0,0
							c0,0.1,0.1,0.1,0.1,0.2c0.1,0.1,0.2,0.2,0.3,0.3l-2.8-1.6c-0.1-0.1-0.2-0.2-0.3-0.3c0,0,0,0,0,0c0,0,0-0.1-0.1-0.1
							c0,0,0,0,0,0s0,0,0,0c0,0,0-0.1,0-0.1c0,0,0-0.1,0-0.1c0,0,0-0.1,0-0.1c0,0,0,0,0,0c0,0,0,0,0,0c0,0,0,0,0,0c0,0,0-0.1,0-0.1
							c0,0,0-0.1,0-0.1c0,0,0-0.1,0-0.1c0,0,0-0.1,0-0.1v0l0-16.3L302,342.9z"/>
						<path class="st11" d="M303.1,340.3C303.1,340.3,303.1,340.3,303.1,340.3c-0.1,0.1-0.2,0.2-0.3,0.4c0,0,0,0,0,0
							c-0.1,0.1-0.2,0.3-0.3,0.4c0,0,0,0,0,0c-0.1,0.1-0.2,0.3-0.2,0.4c0,0,0,0,0,0c-0.1,0.1-0.1,0.3-0.2,0.4c0,0,0,0,0,0
							c0,0.1-0.1,0.3-0.1,0.4v0c0,0.1,0,0.3,0,0.4l-2.8-1.6c0,0,0-0.1,0-0.1c0,0,0-0.1,0-0.1c0,0,0-0.1,0-0.1c0,0,0-0.1,0-0.1
							c0,0,0-0.1,0-0.1v0c0,0,0,0,0,0c0,0,0-0.1,0-0.1c0,0,0-0.1,0-0.1c0,0,0-0.1,0-0.1c0,0,0-0.1,0-0.1c0,0,0,0,0-0.1c0,0,0,0,0,0
							c0,0,0,0,0,0c0,0,0-0.1,0-0.1c0,0,0-0.1,0-0.1c0,0,0-0.1,0-0.1c0,0,0-0.1,0-0.1c0,0,0,0,0-0.1l0,0c0,0,0,0,0,0
							c0,0,0-0.1,0-0.1c0,0,0-0.1,0-0.1c0,0,0-0.1,0.1-0.1c0,0,0-0.1,0.1-0.1c0,0,0,0,0,0c0,0,0,0,0,0c0-0.1,0.1-0.1,0.1-0.2
							c0-0.1,0.1-0.1,0.1-0.2c0,0,0,0,0,0l0,0c0,0,0.1-0.1,0.1-0.1c0,0,0-0.1,0.1-0.1c0,0,0-0.1,0.1-0.1c0,0,0-0.1,0.1-0.1
							c0,0,0,0,0,0c0,0,0,0,0,0c0,0,0,0,0.1-0.1c0,0,0.1-0.1,0.1-0.1c0,0,0.1,0,0.1-0.1c0,0,0.1,0,0.1-0.1c0,0,0,0,0,0c0,0,0,0,0,0
							c0,0,0,0,0,0c0,0,0.1,0,0.1-0.1c0,0,0.1,0,0.1-0.1c0,0,0.1,0,0.1-0.1c0,0,0.1,0,0.1,0c0,0,0,0,0,0l23.4-13.5c0,0,0,0,0.1,0
							c0,0,0.1,0,0.1,0c0,0,0,0,0.1,0c0,0,0,0,0.1,0c0,0,0,0,0.1,0c0,0,0,0,0,0l0,0c0,0,0,0,0.1,0c0,0,0,0,0.1,0c0,0,0,0,0.1,0
							c0,0,0.1,0,0.1,0c0,0,0,0,0.1,0c0,0,0,0,0,0c0,0,0,0,0,0c0,0,0.1,0,0.1,0c0,0,0.1,0,0.1,0c0,0,0.1,0,0.1,0l0,0c0,0,0,0,0,0
							c0,0,0.1,0,0.1,0c0.1,0,0.1,0,0.1,0.1l2.8,1.6c-0.1,0-0.2-0.1-0.3-0.1l0,0c-0.1,0-0.2,0-0.3,0c0,0,0,0,0,0
							c-0.1,0-0.2,0-0.3,0.1c0,0,0,0,0,0c-0.1,0-0.2,0.1-0.4,0.2l-23.4,13.5c-0.1,0.1-0.2,0.2-0.4,0.3c0,0,0,0,0,0
							C303.4,340.1,303.3,340.2,303.1,340.3z"/>
						<path class="st10" d="M303.9,339.8l23.4-13.5c1-0.6,1.8-0.1,1.8,1l0,16.3c0,1.1-0.8,2.6-1.8,3.1l-23.4,13.5
							c-1,0.6-1.8,0.1-1.8-1l0-16.3C302,341.8,302.8,340.3,303.9,339.8z"/>
					</g>
					<g>
						<path class="st32" d="M315.4,370.9l0.1-24.1l2.3-1.3l-0.1,24.1c0,1.2-0.3,2.1-0.7,2.8c-0.3,0.4-0.6,0.7-1,1l-2.3,1.3
							C314.7,374.1,315.3,372.8,315.4,370.9z"/>
						<polygon class="st32" points="315.4,346.8 317.7,345.5 316.2,344.6 313.9,345.9 						"/>
						<path class="st33" d="M309.5,372.5c2.4,1.4,4.3,0.3,4.3-2.5l0.1-24.1l1.6,0.9l-0.1,24.1c0,3.7-2.6,5.2-5.9,3.3L309.5,372.5z"
							/>
					</g>
				</g>
			</g>
			<path class="st52" d="M292.1,321.3c3.6-8.1,13.5-5.5,9.5,3.2c-2,4.3-6.1,10.9-8.6,15.3c-2.3,4.1-4.7,4.1-6.1,3.1
				c-1.4-1-2.1-3.3,0-7.7C289.1,330.3,289.9,326.2,292.1,321.3z"/>
			<g>
				<polygon class="st50" points="177.6,352 200,365 224.4,350.9 202,337.9 				"/>
				<g>
					<polygon class="st56" points="202.2,340.8 182.8,352 183.7,352.5 203.1,341.3 					"/>
					<polygon class="st56" points="204.6,342.2 185.2,353.4 186.1,353.9 205.5,342.7 					"/>
					<polygon class="st56" points="207.3,343.7 187.9,354.9 188.8,355.5 208.2,344.3 					"/>
					<polygon class="st56" points="210.3,345.5 190.9,356.7 191.8,357.2 211.2,346 					"/>
				</g>
			</g>
			<g>
				<polygon class="st50" points="247.9,318.8 270.3,331.8 294.7,317.7 272.3,304.7 				"/>
				<g>
					<polygon class="st56" points="272.5,307.6 253.1,318.8 254,319.3 273.4,308.1 					"/>
					<polygon class="st56" points="274.9,309 255.5,320.2 256.4,320.7 275.8,309.5 					"/>
					<polygon class="st56" points="277.6,310.5 258.2,321.7 259.1,322.3 278.5,311.1 					"/>
					<polygon class="st56" points="280.6,312.3 261.2,323.5 262.1,324 281.5,312.8 					"/>
				</g>
			</g>
			<g>
				<polygon class="st50" points="190.9,291.5 213.4,304.5 237.8,290.4 215.3,277.4 				"/>
				<g>
					<polygon class="st56" points="223.5,284.5 204.1,295.7 205,296.2 224.4,285 					"/>
					<polygon class="st56" points="225.9,285.9 206.6,297.1 207.4,297.6 226.8,286.4 					"/>
					<polygon class="st56" points="228.6,287.4 209.2,298.6 210.1,299.1 229.5,288 					"/>
					<polygon class="st56" points="231.6,289.2 212.2,300.4 213.1,300.9 232.5,289.7 					"/>
				</g>
			</g>
			<g>
				<polygon class="st50" points="129.1,328.2 151.5,341.3 175.9,327.2 153.5,314.1 				"/>
				<g>
					<polygon class="st56" points="161.7,321.3 142.3,332.4 143.2,333 162.6,321.8 					"/>
					<polygon class="st56" points="164.1,322.7 144.7,333.8 145.6,334.4 165,323.2 					"/>
					<polygon class="st56" points="166.8,324.2 147.4,335.4 148.3,335.9 167.7,324.7 					"/>
					<polygon class="st56" points="169.7,325.9 150.4,337.1 151.3,337.7 170.6,326.5 					"/>
				</g>
			</g>
			<g>
				<g>
					<path class="st46" d="M139,317.5c-0.9-1.4-2.4-2.6-3.3-3.2c3.1-3.8,10.5-13.6,13.9-8.4C152.1,309.8,141.8,315.5,139,317.5z"/>
					<path class="st19" d="M138.3,314.4c0.8,0.8,1.7,2.2,0.7,3.3c-1.4,1.8-4.9,2.7-7,3.4l-1.5-1.6
						C131.6,317.2,134.5,310.6,138.3,314.4z"/>
				</g>
				<g>
					<path class="st44" d="M118.6,295.1c3.9,4.2,4.9,17.2,5.8,23.4l-4.1,2.3c-0.1-0.3-1.2-0.6-1.3-0.9c-2.2-6-5.8-14.9-6.5-20.6
						c-0.3-2.4,0.6-4.6,2.3-5.1C115.9,293.7,117.7,294.1,118.6,295.1z"/>
					<path class="st19" d="M138.3,321.5l2.3-0.1c2.6-0.3,3.4-0.1,4.7,1.1c1.3,1.1,3.2,3,4.6,4.8l-1.9,2.1c-1.5-0.7-2.8-2.2-4.2-3
						c-1.4-0.8-3.4,0.7-4.3,0.1l-3.5-2.3L138.3,321.5z"/>
					<path class="st44" d="M123.1,315.8c5.3,1.2,10.3,3.8,15.6,5.4c-0.6,1.4-0.8,2.5-1,4.2c-5.3-1.4-10.2-2.4-15.6-3.5
						c-2.8-0.5-3.6-2.2-3.4-3.7C118.9,316.6,120.4,315.2,123.1,315.8z"/>
				</g>
			</g>
			<g>
				<path class="st20" d="M275.4,328.8c-2.5-0.7-2.7-0.9-5.2-2.5c-0.9-0.6-1.4-0.9-2.9-1.1c-0.7-0.1-5.7-2.4-6.8-0.9l-0.8,1.1
					c-0.4,1.1-0.1,1.1,0.1,1.8c0.1,0.5,1.4,1.6,4.6,3.1c1.9,0.8,2.4,2,4.2,2.2c1.2,0.1,2.1-0.1,3.3,0l3,0.5l0.4-4l-0.1,0
					L275.4,328.8z"/>
				<path class="st52" d="M274.3,328.2c-1.5,0-2.8,3.3-2.2,4.7l13.5,9.5c3.4,1.8,5.4,0.6,5.9-1.2c0.5-1.7,0-4.2-3.6-5.6L274.3,328.2
					z"/>
			</g>
			<g>
				<g>
					<path class="st20" d="M211.9,346.1l4-2.6l4-0.3l3.5,0.2l3.5,1.6l4.2,2l-0.6,2.1l-1.5,1.6l-2.5-1.1c-1.4,0.7-2.2,1-3,1
						c-0.9,0-1.7-0.3-3.4-0.8c-3.2-0.1-4-0.4-3.9-1.3c0.1-1.2,1.1-0.9,2.8-0.8c2.4,0.2,2.7-1.3,0.5-1.9c-1.2,0.1-2.3,0-3.6,0.2
						C213.4,347.5,212.4,347.2,211.9,346.1z"/>
					<path class="st57" d="M240.5,348.2l-11.8-2.8c-1.8,1-2.4,3.1-1.9,5.4l13.1,4.7L240.5,348.2z"/>
				</g>
				<g>
					<path class="st57" d="M237.6,341.2c-7.2,4.2-11.1,8.6-8.8,10c2.3,1.4,10.1-0.9,17.2-5.1c7.2-4.2,11.1-8.6,8.8-10
						C252.5,334.8,244.8,337.1,237.6,341.2z"/>
					<g>
						<path class="st20" d="M249.3,326.8c-0.9,7.8-1.1,6.2,0.8,14.1l-10.2,4.8c0.9-11.1-0.3-12.2-3.5-22.8L249.3,326.8z"/>
						<path class="st19" d="M233.3,317.6c-0.8,1.9-1.3,3.5-1.1,5.9c0.1,1.9,0.7,4.8,1,6.7c0.3,1.6,1.1,7.4,2.4,8
							c0.9,0.4,5.5-1.5,7-3.3c1.1-1.3-0.1-4.7,0.4-5.5l-3.9-11.7L233.3,317.6z"/>
						<path class="st54" d="M247.2,314.1c4.9,2.9,5.5,8.9,3.3,13.8c-1,2.2-1.6,3.6-1.7,7.4c-3.2,1.3-5.1,0.7-7.6-2.4
							c-2.5-3.1-2.3-6.7-4.2-6.7c-0.8,0-1.4,1-0.9,4c-1.5-2.9-2.1-6.8-4.2-9c-1-1.1-1.5-2.2-1.6-3.8c1.8-0.3,3-2.3,5-3.3
							C239.4,312.2,244.7,311.3,247.2,314.1z"/>
					</g>
					<path class="st15" d="M249.1,336.2c0.1,2.7-6.2,3.9-9.1,2l-0.8,2.1c2.5,3.5,11,3.2,10.8-1L249.1,336.2z"/>
					<path class="st15" d="M250.1,339c1.9-0.9,2.3-3.2,4.1-3.1c0.5,0,1.1,0.4,1.7,0.8c2.2,1.1,3.8,4.6,4.2,8.3
						c1.6,12.8-4.1,14.6-3.5,30.3c0.1,2.9,1,11.2,1.7,16.7c-1,13-27,14.3-28.3-1.1c0.2-3.5,0.4-7.2,0.1-11.2
						c-0.9-12.7-3.9-24.6-2.7-27.4c0.8-1.8,2-5.1,5.3-7.3c2.9-2,3.8-2.9,6.5-5C244.8,342.5,249.6,340.8,250.1,339z"/>
					<path class="st19" d="M213.7,364.5c-2.5-1.9-2.6-2.2-4.6-5.1c-0.8-1.1-1.1-1.6-2.7-2.6c-1.5-0.9-5.1-0.3-8.2-0.8
						c-2.1-0.3-2.7,1.2-2.8,2.2c-0.2,1.9,2.1,3,3.7,4.4c1.4,1.3,2.1,2,4.1,3c1.3,0.7,3,1.1,4.3,1.8l3.2,2.3l2.9-5l-0.1-0.1
						L213.7,364.5z"/>
					<path class="st58" d="M227.9,372.1l-16.1-10c-3.1,2.3-3.1,2.6-5.1,5.7c1.5,1.6,16.8,13.5,22.6,16.9c2.6,1.5,3.8,0.8,5.5-1.7
						C237.7,378.7,232.4,374.9,227.9,372.1z"/>
					<path class="st58" d="M230.3,347.1c-2.5,2.1-2.6,2.7-3.2,4.2c-1.6,4.6-0.9,14.2-1,22.1c0.3,6.5-1.1,10.4,5.3,10.9
						c3,0.4,3.8-0.7,4.4-3.7l3.8-19.1C240.7,350.4,233.7,345.6,230.3,347.1z"/>
					<g>
						<g>
							<path class="st9" d="M237.9,380.9l0,16.3c0,0.1,0,0.3,0,0.4c0,0,0,0,0,0c0,0.1,0.1,0.2,0.1,0.3c0,0,0,0,0,0
								c0,0.1,0.1,0.1,0.1,0.2c0.1,0.1,0.2,0.2,0.3,0.3l-2.8-1.6c-0.1-0.1-0.2-0.2-0.3-0.3c0,0,0,0,0,0c0,0,0-0.1-0.1-0.1
								c0,0,0,0,0,0c0,0,0,0,0,0c0,0,0-0.1,0-0.1c0,0,0-0.1,0-0.1c0,0,0-0.1,0-0.1c0,0,0,0,0,0c0,0,0,0,0,0c0,0,0,0,0,0
								c0,0,0-0.1,0-0.1c0,0,0-0.1,0-0.1s0-0.1,0-0.1c0,0,0-0.1,0-0.1v0l0-16.3L237.9,380.9z"/>
							<path class="st11" d="M239,378.4C239,378.4,239,378.4,239,378.4c-0.1,0.1-0.2,0.2-0.3,0.4l0,0c-0.1,0.1-0.2,0.3-0.3,0.4
								c0,0,0,0,0,0c-0.1,0.1-0.1,0.3-0.2,0.4c0,0,0,0,0,0c-0.1,0.1-0.1,0.3-0.2,0.4c0,0,0,0,0,0c0,0.2-0.1,0.3-0.1,0.4v0
								c0,0.1,0,0.3,0,0.4l-2.8-1.6c0,0,0-0.1,0-0.1c0,0,0-0.1,0-0.1c0,0,0-0.1,0-0.1c0,0,0-0.1,0-0.1c0,0,0-0.1,0-0.1c0,0,0,0,0,0
								c0,0,0,0,0,0c0,0,0-0.1,0-0.1c0,0,0-0.1,0-0.1c0,0,0-0.1,0-0.1c0,0,0-0.1,0-0.1c0,0,0,0,0-0.1c0,0,0,0,0,0c0,0,0,0,0,0
								c0,0,0-0.1,0-0.1c0,0,0-0.1,0-0.1c0,0,0-0.1,0-0.1c0,0,0-0.1,0-0.1c0,0,0,0,0-0.1c0,0,0,0,0,0c0,0,0,0,0,0c0,0,0-0.1,0-0.1
								c0,0,0-0.1,0-0.1c0,0,0-0.1,0.1-0.1c0,0,0-0.1,0.1-0.1c0,0,0,0,0,0c0,0,0,0,0,0c0-0.1,0.1-0.1,0.1-0.2c0-0.1,0.1-0.1,0.1-0.2
								c0,0,0,0,0,0c0,0,0,0,0,0c0,0,0.1-0.1,0.1-0.1c0,0,0-0.1,0.1-0.1c0,0,0-0.1,0.1-0.1c0,0,0-0.1,0.1-0.1c0,0,0,0,0,0
								c0,0,0,0,0,0c0,0,0,0,0.1-0.1c0,0,0.1-0.1,0.1-0.1c0,0,0.1-0.1,0.1-0.1c0,0,0.1,0,0.1-0.1c0,0,0,0,0,0c0,0,0,0,0,0
								c0,0,0,0,0,0c0,0,0.1,0,0.1-0.1c0,0,0.1,0,0.1-0.1c0,0,0.1,0,0.1-0.1c0,0,0.1,0,0.1,0c0,0,0,0,0,0l23.4-13.5c0,0,0,0,0.1,0
								c0,0,0,0,0.1,0c0,0,0,0,0.1,0c0,0,0,0,0.1,0c0,0,0,0,0.1,0c0,0,0,0,0,0l0,0c0,0,0,0,0.1,0c0,0,0.1,0,0.1,0c0,0,0,0,0.1,0
								c0,0,0.1,0,0.1,0c0,0,0,0,0.1,0c0,0,0,0,0,0c0,0,0,0,0,0c0,0,0.1,0,0.1,0c0,0,0.1,0,0.1,0c0,0,0.1,0,0.1,0l0,0l0,0
								c0,0,0.1,0,0.1,0c0.1,0,0.1,0,0.1,0.1l2.8,1.6c-0.1,0-0.2-0.1-0.3-0.1l0,0c-0.1,0-0.2,0-0.3,0c0,0,0,0,0,0
								c-0.1,0-0.2,0-0.3,0.1c0,0,0,0,0,0c-0.1,0-0.2,0.1-0.4,0.2l-23.4,13.5c-0.1,0.1-0.2,0.2-0.4,0.3c0,0,0,0,0,0
								C239.2,378.2,239.1,378.3,239,378.4z"/>
							<path class="st10" d="M239.7,377.8l23.4-13.5c1-0.6,1.8-0.1,1.8,1l0,16.3c0,1.1-0.8,2.6-1.8,3.1l-23.4,13.5
								c-1,0.6-1.8,0.1-1.8-1l0-16.3C237.9,379.8,238.7,378.4,239.7,377.8z"/>
						</g>
						<g>
							<path class="st32" d="M251.2,409l0.1-24.1l2.3-1.3l-0.1,24.1c0,1.2-0.3,2.1-0.7,2.8c-0.3,0.4-0.6,0.7-1,1l-2.3,1.3
								C250.6,412.1,251.2,410.8,251.2,409z"/>
							<polygon class="st32" points="251.3,384.9 253.6,383.5 252,382.6 249.7,384 							"/>
							<path class="st33" d="M245.3,410.5c2.4,1.4,4.3,0.3,4.3-2.5l0.1-24.1l1.6,0.9l-0.1,24.1c0,3.7-2.6,5.2-5.9,3.3L245.3,410.5z"
								/>
						</g>
					</g>
				</g>
			</g>
			<g>
				<path class="st27" d="M206.4,285c-1.1-1.8-3-3.2-4.1-3.9c3.9-4.7,13-16.9,17.3-10.4C222.7,275.4,210,282.5,206.4,285z"/>
				<path class="st20" d="M205.6,281.3c1,1,2.1,2.8,0.9,4.2c-1.8,2.2-6.1,3.4-8.7,4.2l-1.8-2C197.3,284.6,200.8,276.5,205.6,281.3z"
					/>
			</g>
			<g>
				<path class="st19" d="M192.2,285.5c0.6,0.2,1.2,0.2,2.7-0.1c1.4-0.3,3.1-1.1,3.7-1.1l4.8,0.6c1.5,0.3,2,1,1.7,1.4
					c-0.3,0.5-1.6,0.6-3.1,0.5c2.7,1.7,3.5,2.2,5.1,4.2c1.3,1.6-1.9,2.9-2.6,2.9c-3.1,0-5.1-2.3-8.1-2.4c-3.3-0.1-4.4-0.8-7.4-2.1
					L192.2,285.5z"/>
				<path class="st59" d="M185.9,260.2c-1.2,7.6-8.5,19.2-11.9,25.2l-5.9-0.8c0.1-0.4-0.7-1.6-0.6-1.9c2.4-7.8,5.4-19.5,9.1-25.9
					c1.5-2.6,4.2-4.2,6.2-3.4C185.8,254.6,186.3,257.4,185.9,260.2z"/>
				<path class="st59" d="M173,278.5c6.8,1.2,14.9,4.6,21.7,6.4c0.7,1.1-1,5.8-2,6.5c-6.8-1.4-14.1-2.3-20.8-4
					c-3.6-0.9-4.6-2.6-4.5-4.5C167.6,280.8,169.5,277.9,173,278.5z"/>
			</g>
		</g>
	</g>
</g>
</svg>
