<svg xmlns="http://www.w3.org/2000/svg" xmlns:xlink="http://www.w3.org/1999/xlink" viewBox="0 0 187.62 270"><defs><style>.cls-1{fill:#c6c6c6;}.cls-2{fill:none;}.cls-3{isolation:isolate;}.cls-4{clip-path:url(#clip-path);}.cls-5{clip-path:url(#clip-path-2);}.cls-6{fill:#444;}.cls-7{fill:#464646;}.cls-8{fill:#494949;}.cls-9{fill:#4b4b4b;}.cls-10{fill:#4e4e4e;}.cls-11{fill:#515151;}.cls-12{fill:#535353;}.cls-13{fill:#565656;}.cls-14{fill:#585858;}.cls-15{fill:#5b5b5b;}.cls-16{fill:#5e5e5e;}.cls-17{fill:#c5c5c5;}.cls-18{fill:#898989;}.cls-19{clip-path:url(#clip-path-3);}.cls-20{fill:#b8b8b8;}.cls-21{fill:#b3b3b3;}.cls-22{fill:#adadad;}.cls-23{fill:#a8a8a8;}.cls-24{fill:#a3a3a3;}.cls-25{fill:#9e9e9e;}.cls-26{fill:#999;}.cls-27{fill:#949494;}.cls-28{fill:#8f8f8f;}.cls-29{fill:#8a8a8a;}.cls-30{fill:#858585;}.cls-31{fill:#d8d8d8;}.cls-32{fill:#e6e7e8;}.cls-33{fill:url(#linear-gradient);}.cls-34{fill:url(#linear-gradient-2);}.cls-35{fill:url(#linear-gradient-3);}.cls-36{fill:url(#linear-gradient-4);}.cls-37{fill:url(#linear-gradient-5);}.cls-38{fill:url(#linear-gradient-6);}.cls-39{fill:url(#linear-gradient-7);}.cls-40{fill:url(#linear-gradient-8);}.cls-41{fill:url(#linear-gradient-9);}.cls-42{fill:#a7a9ac;}</style><clipPath id="clip-path"><path class="cls-1" d="M23.93,80.14l.51,178.37c26.38,15.33,69.29,15.32,95.84,0l-.5-178.37C93.22,95.46,50.32,95.47,23.93,80.14Z"/></clipPath><clipPath id="clip-path-2"><path class="cls-2" d="M51.24,32l0,10.72c35.67-20.59,93.52-20.59,129,0l0-10.72C144.76,11.41,86.91,11.41,51.24,32Z"/></clipPath><clipPath id="clip-path-3"><path class="cls-2" d="M16.89,67.45l0,10.72c30.2,17.55,79.51,17.55,109.89,0l0-10.72C96.4,85,47.09,85,16.89,67.45Z"/></clipPath><linearGradient id="linear-gradient" y1="63.51" x2="187.62" y2="63.51" gradientUnits="userSpaceOnUse"><stop offset="0" stop-color="#184c7f"/><stop offset="1" stop-color="#027cb2"/></linearGradient><linearGradient id="linear-gradient-2" x1="0.01" y1="83.83" x2="187.62" y2="83.83" xlink:href="#linear-gradient"/><linearGradient id="linear-gradient-3" x1="0.01" y1="104.15" x2="187.62" y2="104.15" xlink:href="#linear-gradient"/><linearGradient id="linear-gradient-4" x1="0.01" y1="124.47" x2="187.62" y2="124.47" xlink:href="#linear-gradient"/><linearGradient id="linear-gradient-5" x1="0.01" y1="144.8" x2="187.62" y2="144.8" xlink:href="#linear-gradient"/><linearGradient id="linear-gradient-6" x1="0.01" y1="165.12" x2="187.62" y2="165.12" xlink:href="#linear-gradient"/><linearGradient id="linear-gradient-7" x1="0.01" y1="185.44" x2="187.62" y2="185.44" xlink:href="#linear-gradient"/><linearGradient id="linear-gradient-8" x1="0.01" y1="205.76" x2="187.62" y2="205.76" xlink:href="#linear-gradient"/><linearGradient id="linear-gradient-9" x1="0.01" y1="226.09" x2="187.62" y2="226.09" xlink:href="#linear-gradient"/></defs><title>Asset 4</title><g id="Layer_2" data-name="Layer 2"><g id="content"><g class="cls-3"><path class="cls-1" d="M23.93,80.14l.51,178.37c26.38,15.33,69.29,15.32,95.84,0l-.5-178.37C93.22,95.46,50.32,95.47,23.93,80.14Z"/><g class="cls-4"><path class="cls-1" d="M38.78,86.67a97.39,97.39,0,0,0,12.83,3.19q4.26.78,8.64,1.21,3.73.36,7.51.5c2.31.08,4.63.09,6.94,0s4.46-.18,6.68-.36,4.41-.43,6.59-.73,4.51-.72,6.72-1.17q3.6-.75,7.07-1.74A85.47,85.47,0,0,0,110,84.82a73.07,73.07,0,0,0,9.79-4.69l.5,178.37a74.17,74.17,0,0,1-9.78,4.69c-2.65,1-5.41,2-8.23,2.78-2.32.66-4.68,1.23-7.08,1.73q-3.31.69-6.72,1.17c-2.18.31-4.38.55-6.59.74s-4.44.3-6.67.35-4.63.05-6.94,0q-3.78-.12-7.52-.5c-2.91-.29-5.8-.69-8.64-1.2A97.66,97.66,0,0,1,39.29,265a76.45,76.45,0,0,1-14.85-6.52L23.93,80.14A76.75,76.75,0,0,0,38.78,86.67Z"/></g></g><path class="cls-1" d="M4.14,66.91c-.83.48-.83,1.25,0,1.72l19.8,11.51c26.39,15.33,69.29,15.32,95.85,0l27.33-15.78L183,43.64a.91.91,0,0,0,0-1.71l-9.32-5.41c-32.16-18.69-84.51-18.69-116.9,0Z"/><path class="cls-1" d="M3.67,68.22v0a1.35,1.35,0,0,0,.45.39L26.82,80.14,24.44,258.51,4.64,247l0,0a1.89,1.89,0,0,1-.27-.2.86.86,0,0,1-.13-.14l0,0v0l0-.07-.06-.12,0-.12s0-.08,0-.12v0L3.52,67.78A.75.75,0,0,0,3.67,68.22Z"/><path class="cls-1" d="M147.11,64.35,183,43.64a1,1,0,0,0,.62-.87l.5,178.37a1.07,1.07,0,0,1-.62.87l-35.87,20.71L120.28,258.5l-.5-178.37Z"/><g class="cls-3"><g class="cls-5"><path class="cls-6" d="M51.24,32l0,10.72a99.09,99.09,0,0,1,13.11-6.28l0-10.72A99.09,99.09,0,0,0,51.24,32"/><path class="cls-7" d="M64.35,25.72l0,10.72q5.34-2.1,11.05-3.73L75.4,22q-5.7,1.62-11.05,3.73"/><path class="cls-8" d="M75.4,22l0,10.72c3.11-.89,6.28-1.66,9.51-2.33l0-10.72c-3.23.67-6.4,1.44-9.51,2.33"/><path class="cls-9" d="M84.91,19.66l0,10.72c3-.62,6-1.14,9-1.58l0-10.72c-3,.44-6.07,1-9,1.58"/><path class="cls-10" d="M94,18.08,94,28.8c2.94-.41,5.91-.74,8.89-1l0-10.72c-3,.25-5.95.58-8.89,1"/><path class="cls-11" d="M102.85,17.09l0,10.72c3-.25,6-.41,9-.48l0-10.72c-3,.07-6,.23-9,.48"/><path class="cls-12" d="M111.86,16.61l0,10.72c3.12-.08,6.25-.06,9.36,0l0-10.72c-3.12-.1-6.24-.12-9.36,0"/><path class="cls-13" d="M121.22,16.65l0,10.72c3.4.12,6.79.34,10.14.68l0-10.72c-3.35-.34-6.74-.56-10.14-.68"/><path class="cls-14" d="M131.36,17.33l0,10.72c3.93.39,7.83.93,11.65,1.62L143,19c-3.82-.69-7.72-1.23-11.65-1.62"/><path class="cls-15" d="M143,19l0,10.72A130.51,130.51,0,0,1,160.31,34l0-10.72A130.51,130.51,0,0,0,143,19"/><path class="cls-16" d="M160.28,23.25l0,10.72a102.31,102.31,0,0,1,19.92,8.75l0-10.72a102.57,102.57,0,0,0-19.92-8.75"/></g></g><polygon class="cls-7" points="3.41 59.62 3.44 70.34 51.27 42.72 51.24 32 3.41 59.62"/><polygon class="cls-17" points="3.41 59.62 3.44 70.34 16.92 78.17 16.89 67.45 3.41 59.62"/><polygon class="cls-18" points="126.78 67.46 126.81 78.18 184.21 45.04 184.18 34.32 126.78 67.46"/><g class="cls-3"><g class="cls-19"><path class="cls-20" d="M16.89,67.45l0,10.72a87.27,87.27,0,0,0,17,7.46l0-10.72a87.27,87.27,0,0,1-17-7.46"/><path class="cls-21" d="M33.87,74.91l0,10.72A113.1,113.1,0,0,0,48.62,89.3l0-10.72a113.1,113.1,0,0,1-14.72-3.67"/><path class="cls-22" d="M48.59,78.58l0,10.72c3.26.59,6.58,1,9.93,1.38l0-10.72c-3.35-.33-6.67-.79-9.93-1.38"/><path class="cls-23" d="M58.52,80l0,10.72c2.86.28,5.75.48,8.64.58l0-10.72c-2.89-.1-5.78-.29-8.64-.58"/><path class="cls-24" d="M67.16,80.54l0,10.72q4,.13,8,0l0-10.72q-4,.11-8,0"/><path class="cls-25" d="M75.14,80.57l0,10.72q3.85-.09,7.68-.41l0-10.72q-3.82.32-7.68.41"/><path class="cls-26" d="M82.82,80.16l0,10.72c2.54-.21,5.07-.49,7.57-.84l0-10.72c-2.5.35-5,.63-7.57.84"/><path class="cls-27" d="M90.39,79.32l0,10.72c2.6-.37,5.18-.82,7.71-1.35L98.1,78c-2.53.52-5.11,1-7.71,1.34"/><path class="cls-28" d="M98.1,78l0,10.71c2.75-.57,5.46-1.23,8.11-2l0-10.72c-2.65.75-5.36,1.42-8.11,2"/><path class="cls-29" d="M106.21,76l0,10.72c3.23-.92,6.38-2,9.41-3.18l0-10.72c-3,1.2-6.18,2.26-9.41,3.18"/><path class="cls-30" d="M115.62,72.81l0,10.72a84.49,84.49,0,0,0,11.16-5.35l0-10.72a84.49,84.49,0,0,1-11.16,5.35"/></g></g><path class="cls-31" d="M3.43,59.62,16.9,67.45C47.11,85,96.41,85,126.8,67.46l57.4-33.14-4-2.32c-35.43-20.59-93.29-20.59-129,0Z"/><path class="cls-32" d="M181.91,31l5.68,3.3L128.48,68.45c-31.34,18.09-82.17,18.08-113.3,0L0,59.62,49.54,31C86.15,9.88,145.54,9.88,181.91,31Zm-165,36.43C47.09,85,96.4,85,126.78,67.46l57.4-33.14-4-2.32c-35.44-20.59-93.29-20.59-129,0L3.41,59.62l13.48,7.83"/><path class="cls-33" d="M15.18,68.44c1.73,1,3.54,1.94,5.39,2.83.49.24,1,.46,1.47.69,1.68.78,3.39,1.51,5.15,2.2.22.08.43.18.66.27,1.87.71,3.79,1.35,5.74,2,1.35.43,2.73.8,4.12,1.18,1,.28,2.09.59,3.15.85,1.46.35,2.94.64,4.42.94,1.09.22,2.16.47,3.25.66l1.38.22c1.83.3,3.68.56,5.53.78l1.63.2c1.06.11,2.14.17,3.21.26,1.81.15,3.62.29,5.44.37,1.15.05,2.31.07,3.47.09,1.47,0,2.94,0,4.41,0,1.22,0,2.44,0,3.66-.1s2.72-.12,4.08-.22,2.47-.19,3.7-.3,2.68-.28,4-.45,2.4-.32,3.59-.51c1.43-.22,2.84-.47,4.25-.74,1.11-.21,2.22-.43,3.32-.67,1.69-.37,3.34-.78,5-1.22,1-.28,2.12-.54,3.16-.85.56-.16,1.12-.34,1.67-.52,1.65-.51,3.27-1.07,4.87-1.66.47-.17.94-.33,1.4-.51,1.45-.56,2.85-1.18,4.25-1.8.69-.31,1.4-.58,2.07-.9,2-1,4-2,5.86-3.06l59.11-34.13,0,10.72L128.51,79.17c-1.88,1.09-3.84,2.1-5.86,3.06-.67.32-1.38.59-2.06.89-1.19.53-2.36,1.08-3.59,1.57-.22.08-.44.15-.66.24l-1.42.52c-1.59.58-3.21,1.14-4.85,1.65-.56.18-1.12.36-1.68.52-.37.11-.73.24-1.1.34-.67.2-1.38.33-2.06.51-1.65.44-3.3.85-5,1.22-.44.1-.86.23-1.3.32-.66.14-1.35.23-2,.35-1.41.27-2.82.52-4.25.74-.57.09-1.12.21-1.68.29s-1.27.14-1.91.22c-1.33.17-2.66.32-4,.45-.63.06-1.25.15-1.89.21s-1.21,0-1.81.09c-1.36.1-2.72.17-4.08.22-.67,0-1.34.09-2,.11s-1.09,0-1.64,0c-1.47,0-2.94,0-4.42,0-.72,0-1.45,0-2.17,0-.43,0-.86-.07-1.29-.08-1.82-.08-3.63-.22-5.44-.37-.73-.06-1.46-.07-2.18-.14l-1-.13c-.55-.05-1.08-.12-1.63-.19-1.85-.22-3.7-.48-5.53-.78l-1.38-.22-.67-.11c-.87-.16-1.71-.37-2.57-.55-1.49-.3-3-.59-4.43-.94-1.06-.26-2.1-.57-3.15-.85-1.39-.38-2.77-.75-4.12-1.18-.3-.09-.61-.16-.9-.26-1.65-.53-3.26-1.1-4.85-1.71l-.64-.26q-2.64-1-5.16-2.2L20.6,82c-1.85-.9-3.66-1.83-5.39-2.83L0,70.34,0,59.62Z"/><path class="cls-2" d="M51.25,58.22l0,10.72c35.67-20.59,93.5-20.6,128.94,0l0-10.72C144.75,37.62,86.92,37.63,51.25,58.22Z"/><path class="cls-2" d="M109.55,43c-1.55.06-3.09.14-4.63.25C106.46,43.09,108,43,109.55,43Z"/><path class="cls-2" d="M116.3,100.42h0c.78-.3,1.53-.66,2.3-1C117.83,99.77,117.08,100.12,116.3,100.42Z"/><path class="cls-2" d="M74.15,48.6l-1.9.59Z"/><path class="cls-2" d="M114.88,100.94q-2.38.87-4.85,1.65h0q2.46-.78,4.85-1.65Z"/><path class="cls-2" d="M83.43,46.24c-1.91.42-3.79.89-5.66,1.39C79.64,47.13,81.52,46.66,83.43,46.24Z"/><path class="cls-2" d="M108.35,103.11c-1,.31-2.1.57-3.15.85h0c1.06-.28,2.12-.54,3.16-.85Z"/><path class="cls-2" d="M159.24,49.16c-1.53-.48-3.1-.9-4.67-1.33C156.14,48.26,157.71,48.68,159.24,49.16Z"/><path class="cls-2" d="M142.24,45l-1.57-.25Z"/><path class="cls-2" d="M151,46.86c-1.64-.4-3.32-.73-5-1.07C147.64,46.13,149.32,46.46,151,46.86Z"/><path class="cls-2" d="M134.35,43.9l-1.82-.22Z"/><path class="cls-2" d="M118.75,42.86c-1.68,0-3.35,0-5,0C115.4,42.81,117.07,42.82,118.75,42.86Z"/><path class="cls-2" d="M125.11,43.06,123.73,43Z"/><path class="cls-2" d="M40.85,104.63l-1.41-.38,1.42.38Z"/><path class="cls-2" d="M55.43,107.23c-1.85-.22-3.7-.48-5.53-.78h0q2.74.45,5.54.78Z"/><path class="cls-2" d="M48.52,106.23c-1.09-.19-2.16-.44-3.24-.66h0c1.09.22,2.16.47,3.25.66Z"/><path class="cls-2" d="M27.83,100.63h0l.26.09Z"/><path class="cls-2" d="M20.56,97.48c-1.85-.9-3.66-1.83-5.39-2.83,1.73,1,3.55,1.93,5.39,2.83Z"/><path class="cls-2" d="M64.39,62.66C68,61.25,71.65,60,75.45,58.92c3.11-.88,6.29-1.66,9.51-2.33Q89.43,55.66,94,55c2.93-.42,5.9-.75,8.88-1s6-.4,9-.48,6.24-.06,9.36.05c3.39.11,6.78.34,10.14.67,3.92.39,7.81.93,11.64,1.62a131.79,131.79,0,0,1,17.25,4.3A106.4,106.4,0,0,1,174.7,66L126.77,93.67c-30.38,17.54-79.69,17.54-109.89,0l-4.19-2.44L51.28,68.94A99.09,99.09,0,0,1,64.39,62.66Z"/><path class="cls-2" d="M92.63,106.59l-1.07.15,1.07-.15Z"/><path class="cls-2" d="M60.27,53.72c-.77.34-1.58.66-2.34,1C58.69,54.38,59.49,54.06,60.27,53.72Z"/><path class="cls-2" d="M100.2,105.18c-1.1.24-2.2.46-3.32.67h0c1.12-.21,2.22-.43,3.32-.67Z"/><path class="cls-2" d="M60.27,107.69c-1.07-.09-2.15-.15-3.21-.27h0c1.06.12,2.14.18,3.21.27Z"/><path class="cls-2" d="M66.71,51.08l-1.6.58Z"/><path class="cls-34" d="M3.43,81.94,11,86.32l4.19,2.44c1.73,1,3.54,1.94,5.39,2.83h0c2.35,1.14,4.77,2.2,7.27,3.16a2,2,0,0,1,.26.09,109.44,109.44,0,0,0,11.35,3.52l1.41.38h0c1.45.35,2.93.64,4.41.94h0c1.08.22,2.15.47,3.24.66h0l1.38.22h0c1.83.3,3.68.56,5.53.78h0l1.62.2h0c1.06.11,2.14.18,3.21.27h0a138.64,138.64,0,0,0,31.29-1c.35-.06.71-.1,1.07-.15h0c1.43-.23,2.84-.48,4.25-.74h0c1.12-.22,2.22-.43,3.32-.67h0c1.69-.36,3.34-.78,5-1.22h0c1-.28,2.11-.54,3.15-.84h0L110,96.7h0q2.46-.77,4.85-1.65h0l1.42-.52h0c.78-.3,1.53-.64,2.3-1a86.67,86.67,0,0,0,9.87-4.79l48-27.73,3.7-2.14,7.38-4.26,0,10.72L128.5,99.49c-1.88,1.09-3.84,2.1-5.86,3.06-.67.32-1.38.59-2.06.9-1.19.52-2.36,1.07-3.59,1.56l-.66.24-1.41.52q-2.4.89-4.86,1.66l-1.68.52c-.37.1-.73.23-1.1.34-.67.19-1.38.32-2.06.5-1.64.44-3.3.86-5,1.22-.44.1-.86.23-1.3.32-.66.14-1.35.23-2,.35-1.41.27-2.82.52-4.25.74-.57.09-1.11.22-1.68.3s-1.27.13-1.91.21c-1.33.17-2.66.32-4,.45-.63.06-1.25.16-1.89.21s-1.21,0-1.81.1c-1.36.09-2.71.16-4.07.21-.68,0-1.35.1-2,.11s-1.09,0-1.64,0c-1.47,0-2.94,0-4.41,0-.73,0-1.45,0-2.18,0-.43,0-.86-.06-1.29-.08-1.82-.08-3.63-.21-5.44-.36-.72-.07-1.46-.08-2.18-.15l-1-.12-1.62-.2q-2.79-.33-5.54-.78l-1.38-.22-.67-.11c-.87-.15-1.7-.37-2.56-.54-1.49-.31-3-.6-4.44-1-1.06-.26-2.1-.56-3.14-.85-1.39-.38-2.78-.75-4.13-1.18l-.9-.25q-2.46-.81-4.85-1.71l-.64-.27c-1.76-.68-3.48-1.42-5.16-2.2q-.73-.33-1.47-.69c-1.84-.89-3.66-1.82-5.39-2.83L0,90.67,0,80Z"/><path class="cls-32" d="M3.42,80.07l9.27,5.39,4.19,2.43c30.2,17.56,79.51,17.56,109.89,0L174.7,60.24l5.5-3.18,4-2.3h3.42L180.21,59l-3.7,2.14-48,27.73C126.59,90,124.63,91,122.61,92c-.67.32-1.38.6-2.07.9s-1.3.55-1.94.83-1.52.67-2.3,1l-1.42.52q-2.38.89-4.85,1.66l-1.68.52c-1,.31-2.1.56-3.16.84-1.64.44-3.3.86-5,1.23-1.1.24-2.2.46-3.32.67-1.41.27-2.82.52-4.25.74l-1.07.15c-.84.12-1.67.25-2.52.35-1.33.17-2.67.32-4,.45s-2.46.22-3.7.31-2.72.16-4.08.22-2.44.08-3.66.1c-1.47,0-2.94,0-4.42,0-1.15,0-2.31,0-3.46-.1-1.82-.08-3.63-.21-5.44-.36-1.07-.09-2.15-.16-3.21-.27l-1.62-.19q-2.79-.34-5.54-.79l-1.38-.22c-1.09-.19-2.16-.44-3.25-.65-1.48-.3-3-.6-4.41-1-.48-.11-.94-.26-1.42-.38L37.7,98c-1.39-.37-2.77-.75-4.12-1.17-1.86-.59-3.7-1.21-5.49-1.88l-.26-.09-.65-.27c-1.76-.68-3.47-1.42-5.15-2.19l-1.47-.7c-1.84-.89-3.66-1.82-5.39-2.83L11,86.45,3.43,82.06,0,80.07Z"/><path class="cls-35" d="M3.43,102.26,11,106.65l4.19,2.43c1.73,1,3.54,1.94,5.39,2.83h0c2.35,1.13,4.77,2.19,7.27,3.15l.26.09a107.06,107.06,0,0,0,11.35,3.52c.47.13.94.27,1.41.38h0c1.45.35,2.93.65,4.41,1h0c1.08.22,2.15.46,3.24.65h0l1.38.22h0c1.83.3,3.68.56,5.53.79h0l1.62.19h0c1.06.11,2.14.18,3.21.27h0a138.06,138.06,0,0,0,31.29-.95l1.07-.15h0c1.43-.22,2.84-.47,4.25-.74h0c1.12-.21,2.22-.43,3.32-.67h0c1.69-.37,3.34-.79,5-1.23h0c1-.28,2.11-.53,3.15-.84h0L110,117h0q2.46-.78,4.85-1.66h0l1.42-.51h0c.78-.3,1.53-.64,2.3-1a86.67,86.67,0,0,0,9.87-4.79l48-27.73,3.7-2.13L187.59,75l0,10.72L128.5,119.81c-1.88,1.09-3.84,2.1-5.86,3.06-.67.32-1.38.59-2.06.9-1.19.53-2.36,1.08-3.59,1.56-.22.09-.44.16-.66.24l-1.41.52q-2.4.89-4.86,1.66l-1.68.52-1.1.34c-.67.19-1.38.32-2.06.5-1.64.44-3.3.86-5,1.23-.44.09-.86.22-1.3.32-.66.13-1.35.22-2,.35-1.41.27-2.82.51-4.25.74-.57.08-1.11.21-1.68.29s-1.27.13-1.91.21c-1.33.17-2.66.32-4,.45-.63.06-1.25.16-1.89.21s-1.21.06-1.81.1c-1.36.09-2.71.16-4.07.22-.68,0-1.35.09-2,.1s-1.09,0-1.64,0c-1.47,0-2.94,0-4.41,0-.73,0-1.45,0-2.18,0-.43,0-.86-.07-1.29-.09-1.82-.08-3.63-.21-5.44-.36-.72-.06-1.46-.08-2.18-.15l-1-.12-1.62-.19q-2.79-.34-5.54-.79l-1.38-.22-.67-.1c-.87-.16-1.7-.38-2.56-.55-1.49-.3-3-.6-4.44-.95-1.06-.26-2.1-.56-3.14-.85-1.39-.37-2.78-.75-4.13-1.17-.3-.1-.61-.17-.9-.26-1.64-.53-3.26-1.11-4.85-1.71l-.64-.27c-1.76-.68-3.48-1.42-5.16-2.2q-.73-.33-1.47-.69c-1.84-.89-3.66-1.82-5.39-2.83L0,111l0-10.72Z"/><path class="cls-32" d="M3.42,100.27l9.27,5.39,4.19,2.43c30.2,17.56,79.51,17.56,109.89,0L174.7,80.44l5.5-3.18,4-2.3h3.42l-7.38,4.27-3.7,2.13-48,27.73c-1.88,1.09-3.84,2.1-5.86,3.06-.67.32-1.38.6-2.07.9s-1.3.55-1.94.83-1.52.67-2.3,1l-1.42.51q-2.38.88-4.85,1.66l-1.68.52c-1,.31-2.1.56-3.16.84-1.64.44-3.3.86-5,1.23-1.1.24-2.2.46-3.32.67-1.41.27-2.82.52-4.25.74l-1.07.15c-.84.12-1.67.25-2.52.35-1.33.17-2.67.32-4,.45s-2.46.22-3.7.31-2.72.16-4.08.22-2.44.08-3.66.1c-1.47,0-2.94,0-4.42,0-1.15,0-2.31,0-3.46-.1-1.82-.08-3.63-.21-5.44-.36-1.07-.09-2.15-.16-3.21-.27l-1.62-.19q-2.79-.35-5.54-.79l-1.38-.22c-1.09-.19-2.16-.43-3.25-.65-1.48-.3-3-.6-4.41-1-.48-.11-.94-.26-1.42-.38l-1.74-.47c-1.39-.37-2.77-.75-4.12-1.17-1.86-.59-3.7-1.21-5.49-1.88l-.26-.09c-.22-.08-.43-.18-.65-.27-1.76-.68-3.47-1.42-5.15-2.19l-1.47-.69c-1.84-.9-3.66-1.83-5.39-2.84L11,106.65l-7.55-4.39-3.42-2Z"/><path class="cls-36" d="M3.43,122.58,11,127l4.19,2.43c1.73,1,3.54,1.94,5.39,2.84h0c2.35,1.13,4.77,2.2,7.27,3.15l.26.09A107.06,107.06,0,0,0,39.44,139c.47.13.94.27,1.41.38h0c1.45.36,2.93.65,4.41,1h0c1.08.22,2.15.47,3.24.66h0l1.38.22h0c1.83.3,3.68.56,5.53.78h0l1.62.19h0c1.06.12,2.14.18,3.21.27h0a138.06,138.06,0,0,0,31.29-.95l1.07-.15h0c1.43-.22,2.84-.47,4.25-.74h0c1.12-.21,2.22-.43,3.32-.67h0c1.69-.37,3.34-.79,5-1.22h0c1-.28,2.11-.54,3.15-.85h0l1.68-.52h0q2.46-.78,4.85-1.66h0c.47-.17,1-.33,1.42-.51h0c.78-.31,1.53-.65,2.3-1a86.62,86.62,0,0,0,9.87-4.78l48-27.74,3.7-2.13,7.38-4.26,0,10.72L128.5,140.13c-1.88,1.09-3.84,2.11-5.86,3.06-.67.32-1.38.6-2.06.9-1.19.53-2.36,1.08-3.59,1.56l-.66.25c-.47.18-.94.34-1.41.51q-2.4.89-4.86,1.66l-1.68.52c-.37.11-.73.24-1.1.34-.67.19-1.38.33-2.06.51-1.64.43-3.3.85-5,1.22-.44.1-.86.23-1.3.32-.66.14-1.35.22-2,.35-1.41.27-2.82.52-4.25.74-.57.09-1.11.21-1.68.29s-1.27.13-1.91.21c-1.33.17-2.66.32-4,.45-.63.06-1.25.16-1.89.21s-1.21.06-1.81.1c-1.36.09-2.71.16-4.07.22-.68,0-1.35.09-2,.11s-1.09,0-1.64,0c-1.47,0-2.94,0-4.41,0-.73,0-1.45,0-2.18,0l-1.29-.09c-1.82-.08-3.63-.21-5.44-.36-.72-.06-1.46-.07-2.18-.15l-1-.12-1.62-.19q-2.79-.33-5.54-.78l-1.38-.22-.67-.11c-.87-.16-1.7-.38-2.56-.55-1.49-.3-3-.59-4.44-1-1.06-.25-2.1-.56-3.14-.84-1.39-.38-2.78-.76-4.13-1.18-.3-.09-.61-.16-.9-.26q-2.46-.8-4.85-1.71l-.64-.26c-1.76-.69-3.48-1.43-5.16-2.2L20.59,143c-1.84-.9-3.66-1.83-5.39-2.84L0,131.31,0,120.6Z"/><path class="cls-32" d="M3.42,120.6,12.69,126l4.19,2.44c30.2,17.55,79.51,17.55,109.89,0l47.93-27.67,5.5-3.18,4-2.29h3.42l-7.38,4.26-3.7,2.13-48,27.74c-1.88,1.08-3.84,2.1-5.86,3.05-.67.32-1.38.6-2.07.9s-1.3.55-1.94.83-1.52.67-2.3,1c-.47.18-1,.34-1.42.51q-2.38.88-4.85,1.66l-1.68.52c-1,.31-2.1.57-3.16.85-1.64.43-3.3.85-5,1.22-1.1.24-2.2.46-3.32.67-1.41.27-2.82.52-4.25.74l-1.07.15c-.84.12-1.67.25-2.52.35-1.33.17-2.67.32-4,.45s-2.46.23-3.7.31-2.72.17-4.08.22-2.44.08-3.66.1c-1.47,0-2.94,0-4.42,0-1.15,0-2.31,0-3.46-.1-1.82-.08-3.63-.21-5.44-.36-1.07-.09-2.15-.15-3.21-.27L55.44,142q-2.79-.33-5.54-.78L48.52,141c-1.09-.19-2.16-.44-3.25-.66-1.48-.3-3-.59-4.41-1-.48-.11-.94-.25-1.42-.38l-1.74-.46c-1.39-.38-2.77-.76-4.12-1.18-1.86-.59-3.7-1.21-5.49-1.88l-.26-.09-.65-.26c-1.76-.69-3.47-1.43-5.15-2.2l-1.47-.69c-1.84-.9-3.66-1.83-5.39-2.84L11,127l-7.55-4.39L0,120.6Z"/><path class="cls-37" d="M3.43,142.9,11,147.29l4.19,2.44c1.73,1,3.54,1.93,5.39,2.83h0c2.35,1.14,4.77,2.2,7.27,3.15l.26.09a107.09,107.09,0,0,0,11.35,3.53l1.41.38h0c1.45.35,2.93.64,4.41.94h0c1.08.22,2.15.47,3.24.66h0l1.38.22h0c1.83.3,3.68.56,5.53.78h0c.54.07,1.07.14,1.62.19h0c1.06.12,2.14.18,3.21.27h0a137.48,137.48,0,0,0,31.29-1l1.07-.15h0c1.43-.22,2.84-.47,4.25-.74h0c1.12-.21,2.22-.43,3.32-.67h0c1.69-.37,3.34-.78,5-1.22h0c1-.28,2.11-.54,3.15-.85h0c.56-.16,1.12-.34,1.68-.52h0c1.64-.51,3.26-1.07,4.85-1.65h0l1.42-.52h0c.78-.3,1.53-.65,2.3-1a85,85,0,0,0,9.87-4.78l48-27.74,3.7-2.13,7.38-4.26,0,10.72L128.5,160.46c-1.88,1.08-3.84,2.1-5.86,3.06-.67.31-1.38.59-2.06.89-1.19.53-2.36,1.08-3.59,1.57l-.66.24c-.47.18-.94.34-1.41.51q-2.4.89-4.86,1.66c-.56.18-1.12.36-1.68.52-.37.11-.73.24-1.1.34-.67.2-1.38.33-2.06.51-1.64.43-3.3.85-5,1.22-.44.1-.86.23-1.3.32-.66.14-1.35.22-2,.35-1.41.27-2.82.52-4.25.74-.57.09-1.11.21-1.68.29s-1.27.14-1.91.22c-1.33.17-2.66.32-4,.44-.63.07-1.25.16-1.89.22s-1.21.05-1.81.09c-1.36.1-2.71.17-4.07.22-.68,0-1.35.09-2,.11s-1.09,0-1.64,0c-1.47,0-2.94,0-4.41,0-.73,0-1.45,0-2.18,0-.43,0-.86-.07-1.29-.08-1.82-.08-3.63-.22-5.44-.37-.72-.06-1.46-.07-2.18-.14l-1-.13c-.54-.05-1.08-.12-1.62-.19q-2.79-.33-5.54-.78L48.55,172l-.67-.11c-.87-.16-1.7-.37-2.56-.55-1.49-.3-3-.59-4.44-1-1.06-.25-2.1-.56-3.14-.84-1.39-.38-2.78-.75-4.13-1.18-.3-.09-.61-.16-.9-.26q-2.46-.79-4.85-1.71l-.64-.26q-2.64-1-5.16-2.2l-1.47-.69c-1.84-.9-3.66-1.83-5.39-2.83L0,151.64l0-10.72Z"/><path class="cls-32" d="M3.42,140.92l9.27,5.38,4.19,2.44c30.2,17.55,79.51,17.55,109.89,0l47.93-27.67,5.5-3.18,4-2.29h3.42l-7.38,4.26-3.7,2.13-48,27.74c-1.88,1.09-3.84,2.1-5.86,3.06-.67.32-1.38.59-2.07.9l-1.94.82c-.77.32-1.52.68-2.3,1l-1.42.52c-1.59.58-3.21,1.14-4.85,1.65-.56.18-1.12.36-1.68.52-1,.31-2.1.57-3.16.85q-2.46.66-5,1.22c-1.1.24-2.2.46-3.32.67-1.41.27-2.82.52-4.25.74l-1.07.15c-.84.13-1.67.25-2.52.36-1.33.17-2.67.32-4,.45s-2.46.22-3.7.3-2.72.17-4.08.22-2.44.09-3.66.1c-1.47,0-2.94,0-4.42,0-1.15,0-2.31,0-3.46-.09-1.82-.08-3.63-.22-5.44-.37-1.07-.09-2.15-.15-3.21-.27-.55-.05-1.08-.12-1.62-.19q-2.79-.33-5.54-.78l-1.38-.22c-1.09-.19-2.16-.44-3.25-.66-1.48-.3-3-.59-4.41-.94l-1.42-.38-1.74-.47c-1.39-.38-2.77-.75-4.12-1.18-1.86-.58-3.7-1.2-5.49-1.88l-.26-.09-.65-.26c-1.76-.69-3.47-1.42-5.15-2.2l-1.47-.69c-1.84-.89-3.66-1.83-5.39-2.83L11,147.29,3.43,142.9l-3.42-2Z"/><path class="cls-38" d="M3.43,163.23,11,167.61l4.19,2.44c1.73,1,3.54,1.94,5.39,2.83h0c2.35,1.14,4.77,2.2,7.27,3.16l.26.08a107.09,107.09,0,0,0,11.35,3.53l1.41.38h0c1.45.35,2.93.64,4.41.94h0c1.08.22,2.15.47,3.24.66h0l1.38.22h0c1.83.3,3.68.56,5.53.78h0l1.62.2h0c1.06.11,2.14.18,3.21.27h0a138.64,138.64,0,0,0,31.29-.95l1.07-.16h0c1.43-.22,2.84-.47,4.25-.74h0c1.12-.21,2.22-.42,3.32-.67h0c1.69-.36,3.34-.78,5-1.22h0c1-.28,2.11-.54,3.15-.84h0L110,178h0q2.46-.77,4.85-1.65h0l1.42-.52h0c.78-.3,1.53-.65,2.3-1a86.67,86.67,0,0,0,9.87-4.79l48-27.73,3.7-2.14,7.38-4.26,0,10.72L128.5,180.78c-1.88,1.09-3.84,2.1-5.86,3.06-.67.32-1.38.59-2.06.9-1.19.52-2.36,1.07-3.59,1.56l-.66.24-1.41.52c-1.6.58-3.22,1.14-4.86,1.65-.56.18-1.12.36-1.68.52l-1.1.35c-.67.19-1.38.32-2.06.5q-2.46.66-5,1.22c-.44.1-.86.23-1.3.32-.66.14-1.35.23-2,.35-1.41.27-2.82.52-4.25.74-.57.09-1.11.22-1.68.3s-1.27.13-1.91.21c-1.33.17-2.66.32-4,.45-.63.06-1.25.16-1.89.21s-1.21.05-1.81.1c-1.36.09-2.71.16-4.07.21-.68,0-1.35.09-2,.11s-1.09,0-1.64,0c-1.47,0-2.94,0-4.41,0-.73,0-1.45,0-2.18,0-.43,0-.86-.06-1.29-.08-1.82-.08-3.63-.21-5.44-.37-.72-.06-1.46-.07-2.18-.14l-1-.12-1.62-.2q-2.79-.33-5.54-.78l-1.38-.22-.67-.11c-.87-.15-1.7-.37-2.56-.55-1.49-.3-3-.59-4.44-.94-1.06-.26-2.1-.56-3.14-.85-1.39-.38-2.78-.75-4.13-1.18l-.9-.25q-2.46-.81-4.85-1.71l-.64-.27c-1.76-.68-3.48-1.42-5.16-2.2-.49-.23-1-.45-1.47-.69-1.84-.89-3.66-1.82-5.39-2.83L0,172l0-10.72Z"/><path class="cls-32" d="M3.42,161.24l9.27,5.39,4.19,2.43c30.2,17.55,79.51,17.55,109.89,0L174.7,141.4l5.5-3.17,4-2.3h3.42l-7.38,4.26-3.7,2.14-48,27.73c-1.88,1.09-3.84,2.1-5.86,3.06-.67.32-1.38.59-2.07.9l-1.94.83c-.77.32-1.52.67-2.3,1l-1.42.52q-2.38.89-4.85,1.65l-1.68.53c-1,.3-2.1.56-3.16.84-1.64.44-3.3.86-5,1.22-1.1.24-2.2.46-3.32.67-1.41.27-2.82.52-4.25.74l-1.07.16L89,182.5c-1.33.17-2.67.32-4,.45s-2.46.22-3.7.31-2.72.16-4.08.21-2.44.09-3.66.1c-1.47,0-2.94,0-4.42,0-1.15,0-2.31,0-3.46-.09-1.82-.08-3.63-.21-5.44-.36-1.07-.09-2.15-.16-3.21-.27l-1.62-.2q-2.79-.33-5.54-.78l-1.38-.22c-1.09-.19-2.16-.44-3.25-.66-1.48-.3-3-.59-4.41-.94l-1.42-.38-1.74-.47c-1.39-.38-2.77-.75-4.12-1.18-1.86-.58-3.7-1.2-5.49-1.88l-.26-.08-.65-.27c-1.76-.68-3.47-1.42-5.15-2.2q-.74-.33-1.47-.69c-1.84-.89-3.66-1.82-5.39-2.83L11,167.61l-7.55-4.38-3.42-2Z"/><path class="cls-39" d="M3.43,183.55,11,187.94l4.19,2.43c1.73,1,3.54,1.94,5.39,2.83h0c2.35,1.13,4.77,2.19,7.27,3.15l.26.09A109.44,109.44,0,0,0,39.44,200c.47.13.94.27,1.41.38h0c1.45.35,2.93.65,4.41,1h0c1.08.22,2.15.46,3.24.65h0l1.38.22h0c1.83.3,3.68.56,5.53.79h0l1.62.19h0c1.06.11,2.14.18,3.21.27h0a138.06,138.06,0,0,0,31.29-.95l1.07-.15h0c1.43-.22,2.84-.47,4.25-.74h0c1.12-.21,2.22-.43,3.32-.67h0c1.69-.37,3.34-.79,5-1.23h0c1-.28,2.11-.53,3.15-.84h0l1.68-.52h0q2.46-.78,4.85-1.66h0l1.42-.52h0c.78-.3,1.53-.64,2.3-1a86.67,86.67,0,0,0,9.87-4.79l48-27.73,3.7-2.14,7.38-4.26,0,10.72L128.5,201.1c-1.88,1.09-3.84,2.1-5.86,3.06-.67.32-1.38.59-2.06.9-1.19.53-2.36,1.08-3.59,1.56l-.66.24-1.41.52q-2.4.88-4.86,1.66l-1.68.52-1.1.34c-.67.19-1.38.32-2.06.5-1.64.44-3.3.86-5,1.23-.44.09-.86.22-1.3.32-.66.13-1.35.22-2,.35-1.41.26-2.82.51-4.25.74-.57.08-1.11.21-1.68.29s-1.27.13-1.91.21c-1.33.17-2.66.32-4,.45-.63.06-1.25.16-1.89.21s-1.21.06-1.81.1c-1.36.09-2.71.16-4.07.22-.68,0-1.35.09-2,.1s-1.09,0-1.64,0c-1.47,0-2.94,0-4.41,0-.73,0-1.45,0-2.18,0l-1.29-.09c-1.82-.08-3.63-.21-5.44-.36-.72-.06-1.46-.08-2.18-.15l-1-.12-1.62-.19q-2.79-.35-5.54-.79l-1.38-.22-.67-.1c-.87-.16-1.7-.38-2.56-.55-1.49-.3-3-.6-4.44-1-1.06-.26-2.1-.56-3.14-.85-1.39-.37-2.78-.75-4.13-1.17-.3-.1-.61-.17-.9-.26-1.64-.53-3.26-1.11-4.85-1.71l-.64-.27c-1.76-.68-3.48-1.42-5.16-2.2l-1.47-.69c-1.84-.89-3.66-1.82-5.39-2.83L0,192.28l0-10.72Z"/><path class="cls-32" d="M3.42,181.56,12.69,187l4.19,2.43c30.2,17.56,79.51,17.56,109.89,0l47.93-27.66,5.5-3.18,4-2.3h3.42l-7.38,4.26-3.7,2.14-48,27.73c-1.88,1.09-3.84,2.1-5.86,3.06-.67.32-1.38.6-2.07.9s-1.3.55-1.94.83-1.52.67-2.3,1l-1.42.52q-2.38.89-4.85,1.66l-1.68.52c-1,.31-2.1.56-3.16.84-1.64.44-3.3.86-5,1.23-1.1.24-2.2.46-3.32.67-1.41.27-2.82.52-4.25.74l-1.07.15c-.84.12-1.67.25-2.52.35-1.33.17-2.67.32-4,.45s-2.46.22-3.7.31-2.72.16-4.08.22-2.44.08-3.66.1c-1.47,0-2.94,0-4.42,0-1.15,0-2.31,0-3.46-.1-1.82-.08-3.63-.21-5.44-.36-1.07-.09-2.15-.16-3.21-.27L55.44,203q-2.79-.35-5.54-.79L48.52,202c-1.09-.19-2.16-.44-3.25-.65-1.48-.3-3-.6-4.41-1-.48-.11-.94-.26-1.42-.38l-1.74-.47c-1.39-.37-2.77-.75-4.12-1.17-1.86-.59-3.7-1.21-5.49-1.88l-.26-.09-.65-.27c-1.76-.68-3.47-1.42-5.15-2.19l-1.47-.69c-1.84-.9-3.66-1.83-5.39-2.84L11,187.94l-7.55-4.39-3.42-2Z"/><path class="cls-40" d="M3.43,203.87,11,208.26l4.19,2.43c1.73,1,3.54,1.94,5.39,2.84h0c2.35,1.13,4.77,2.2,7.27,3.15l.26.09a107.06,107.06,0,0,0,11.35,3.52c.47.13.94.27,1.41.38h0c1.45.36,2.93.65,4.41,1h0c1.08.22,2.15.46,3.24.66h0l1.38.22h0c1.83.3,3.68.56,5.53.78h0l1.62.19h0c1.06.12,2.14.18,3.21.27h0a138.06,138.06,0,0,0,31.29-1l1.07-.15h0c1.43-.22,2.84-.47,4.25-.74h0c1.12-.21,2.22-.43,3.32-.67h0c1.69-.37,3.34-.79,5-1.22h0c1-.28,2.11-.54,3.15-.85h0l1.68-.52h0q2.46-.78,4.85-1.66h0c.47-.17,1-.33,1.42-.51h0c.78-.31,1.53-.65,2.3-1a86.67,86.67,0,0,0,9.87-4.79l48-27.73,3.7-2.13,7.38-4.26,0,10.72L128.5,221.42c-1.88,1.09-3.84,2.11-5.86,3.06-.67.32-1.38.6-2.06.9-1.19.53-2.36,1.08-3.59,1.56l-.66.25c-.47.18-.94.34-1.41.51q-2.4.88-4.86,1.66l-1.68.52c-.37.11-.73.24-1.1.34-.67.19-1.38.32-2.06.5-1.64.44-3.3.86-5,1.23-.44.09-.86.23-1.3.32-.66.14-1.35.22-2,.35-1.41.27-2.82.52-4.25.74-.57.09-1.11.21-1.68.29s-1.27.13-1.91.21c-1.33.17-2.66.32-4,.45-.63.06-1.25.16-1.89.21s-1.21.06-1.81.1c-1.36.09-2.71.16-4.07.22-.68,0-1.35.09-2,.11s-1.09,0-1.64,0c-1.47,0-2.94,0-4.41,0-.73,0-1.45,0-2.18,0l-1.29-.09c-1.82-.08-3.63-.21-5.44-.36-.72-.06-1.46-.07-2.18-.15l-1-.12L55.47,234q-2.79-.34-5.54-.79L48.55,233l-.67-.11c-.87-.16-1.7-.38-2.56-.55-1.49-.3-3-.59-4.44-1-1.06-.26-2.1-.56-3.14-.84-1.39-.38-2.78-.76-4.13-1.18-.3-.09-.61-.16-.9-.26q-2.46-.8-4.85-1.71l-.64-.26c-1.76-.69-3.48-1.43-5.16-2.2l-1.47-.69c-1.84-.9-3.66-1.83-5.39-2.84L0,212.6l0-10.71Z"/><path class="cls-32" d="M3.42,201.89l9.27,5.38,4.19,2.44c30.2,17.55,79.51,17.55,109.89,0l47.93-27.67,5.5-3.18,4-2.29h3.42l-7.38,4.26-3.7,2.13-48,27.73c-1.88,1.09-3.84,2.11-5.86,3.06-.67.32-1.38.6-2.07.9s-1.3.55-1.94.83-1.52.67-2.3,1c-.47.18-1,.34-1.42.51q-2.38.89-4.85,1.66l-1.68.52c-1,.31-2.1.57-3.16.85-1.64.43-3.3.85-5,1.22-1.1.24-2.2.46-3.32.67-1.41.27-2.82.52-4.25.74l-1.07.15c-.84.12-1.67.25-2.52.35-1.33.17-2.67.32-4,.45s-2.46.23-3.7.31-2.72.17-4.08.22-2.44.08-3.66.1c-1.47,0-2.94,0-4.42,0-1.15,0-2.31,0-3.46-.1-1.82-.08-3.63-.21-5.44-.36-1.07-.09-2.15-.15-3.21-.27l-1.62-.19q-2.79-.33-5.54-.78l-1.38-.22c-1.09-.2-2.16-.44-3.25-.66-1.48-.3-3-.59-4.41-1-.48-.11-.94-.26-1.42-.38l-1.74-.47c-1.39-.37-2.77-.75-4.12-1.17-1.86-.59-3.7-1.21-5.49-1.88l-.26-.09-.65-.26c-1.76-.69-3.47-1.43-5.15-2.2l-1.47-.69c-1.84-.9-3.66-1.83-5.39-2.84L11,208.26l-7.55-4.39-3.42-2Z"/><path class="cls-41" d="M3.43,224.19,11,228.58,15.17,231c1.73,1,3.54,1.93,5.39,2.83h0c2.35,1.14,4.77,2.2,7.27,3.15l.26.09a107.09,107.09,0,0,0,11.35,3.53l1.41.38h0c1.45.35,2.93.64,4.41.94h0c1.08.22,2.15.47,3.24.66h0l1.38.22h0c1.83.3,3.68.56,5.53.78h0c.54.07,1.07.14,1.62.19h0c1.06.12,2.14.18,3.21.27h0a137.48,137.48,0,0,0,31.29-.95l1.07-.15h0c1.43-.22,2.84-.47,4.25-.74h0c1.12-.21,2.22-.43,3.32-.67h0c1.69-.37,3.34-.79,5-1.22h0c1-.28,2.11-.54,3.15-.85h0c.56-.16,1.12-.34,1.68-.52h0q2.46-.78,4.85-1.65h0c.47-.17,1-.33,1.42-.51h0c.78-.3,1.53-.65,2.3-1a85,85,0,0,0,9.87-4.78l48-27.74,3.7-2.13,7.38-4.26,0,10.72L128.5,241.75c-1.88,1.08-3.84,2.1-5.86,3.06-.67.31-1.38.59-2.06.89-1.19.53-2.36,1.08-3.59,1.56l-.66.25-1.41.51q-2.4.89-4.86,1.66l-1.68.52c-.37.11-.73.24-1.1.34-.67.19-1.38.33-2.06.51-1.64.43-3.3.85-5,1.22-.44.1-.86.23-1.3.32-.66.14-1.35.22-2,.35-1.41.27-2.82.52-4.25.74-.57.09-1.11.21-1.68.29s-1.27.14-1.91.22c-1.33.17-2.66.31-4,.44-.63.07-1.25.16-1.89.22s-1.21.05-1.81.09c-1.36.1-2.71.17-4.07.22-.68,0-1.35.09-2,.11s-1.09,0-1.64,0c-1.47,0-2.94,0-4.41,0-.73,0-1.45,0-2.18,0-.43,0-.86-.07-1.29-.09-1.82-.08-3.63-.21-5.44-.36-.72-.06-1.46-.07-2.18-.14l-1-.13c-.54,0-1.08-.12-1.62-.19q-2.79-.33-5.54-.78l-1.38-.22-.67-.11c-.87-.16-1.7-.37-2.56-.55-1.49-.3-3-.59-4.44-.95-1.06-.25-2.1-.56-3.14-.84-1.39-.38-2.78-.75-4.13-1.18-.3-.09-.61-.16-.9-.26q-2.46-.8-4.85-1.71l-.64-.26c-1.76-.69-3.48-1.43-5.16-2.2l-1.47-.69c-1.84-.9-3.66-1.83-5.39-2.83L0,232.93l0-10.72Z"/><path class="cls-32" d="M3.42,222.21l9.27,5.38L16.88,230c30.2,17.55,79.51,17.55,109.89,0l47.93-27.67,5.5-3.18,4-2.29h3.42l-7.38,4.26-3.7,2.13-48,27.74c-1.88,1.08-3.84,2.1-5.86,3.06-.67.31-1.38.59-2.07.9l-1.94.82c-.77.32-1.52.68-2.3,1-.47.18-1,.34-1.42.51q-2.38.88-4.85,1.66c-.56.18-1.12.36-1.68.52-1,.31-2.1.57-3.16.85-1.64.43-3.3.85-5,1.22-1.1.24-2.2.46-3.32.67-1.41.27-2.82.52-4.25.74l-1.07.15c-.84.13-1.67.25-2.52.36-1.33.17-2.67.32-4,.45s-2.46.22-3.7.3-2.72.17-4.08.22-2.44.09-3.66.1c-1.47,0-2.94,0-4.42,0-1.15,0-2.31,0-3.46-.09-1.82-.08-3.63-.22-5.44-.37-1.07-.09-2.15-.15-3.21-.27-.55,0-1.08-.12-1.62-.19q-2.79-.33-5.54-.78l-1.38-.22c-1.09-.19-2.16-.44-3.25-.66-1.48-.3-3-.59-4.41-.94l-1.42-.38-1.74-.47c-1.39-.38-2.77-.75-4.12-1.18-1.86-.58-3.7-1.2-5.49-1.88l-.26-.09-.65-.26c-1.76-.69-3.47-1.42-5.15-2.2l-1.47-.69C18.72,233,16.9,232,15.17,231L11,228.58l-7.55-4.39-3.42-2Z"/><path class="cls-2" d="M71,35.16V39.7c23.93-13.81,62.5-14,86.68-.56l0-4.54C133.53,21.17,95,21.35,71,35.16Z"/><polygon class="cls-1" points="53.81 58.9 42.88 52.54 42.9 60.98 53.84 67.34 53.81 58.9"/><polygon class="cls-32" points="59.26 55.75 48.32 49.4 42.88 52.54 53.81 58.9 59.26 55.75"/><polygon class="cls-42" points="53.81 58.9 53.84 67.34 59.29 64.19 59.26 55.75 53.81 58.9"/><polygon class="cls-1" points="42.2 64.09 31.26 57.73 31.28 66.17 42.22 72.53 42.2 64.09"/><polygon class="cls-32" points="47.66 60.94 36.72 54.58 31.26 57.73 42.2 64.09 47.66 60.94"/><polygon class="cls-42" points="42.2 64.09 42.22 72.53 47.69 69.37 47.66 60.94 42.2 64.09"/><polygon class="cls-1" points="176.72 10.86 176.72 37.66 177.33 38.28 177.23 11.99 176.72 10.86"/><polygon class="cls-42" points="177.23 11.99 177.33 38.28 178.08 37.85 177.75 10.86 177.23 11.99"/><polygon class="cls-32" points="176.72 10.86 177.23 11.99 177.75 10.86 177.24 9.73 176.72 10.86"/><polygon class="cls-1" points="125.42 40.47 125.42 67.28 126.04 67.89 125.94 41.6 125.42 40.47"/><polygon class="cls-42" points="125.94 41.6 126.04 67.89 126.78 67.46 126.46 40.47 125.94 41.6"/><polygon class="cls-32" points="125.42 40.47 125.94 41.6 126.46 40.47 125.94 39.35 125.42 40.47"/><polygon class="cls-1" points="65.46 1.19 65.59 45.83 67.64 47.02 67.51 2.38 65.46 1.19"/><polygon class="cls-42" points="67.51 2.38 67.64 47.02 69.7 45.83 69.57 1.19 67.51 2.38"/><polygon class="cls-32" points="65.46 1.19 67.51 2.38 69.57 1.19 67.53 0 65.46 1.19"/><polygon class="cls-1" points="70.95 20.36 71.03 48.55 73.08 49.74 73 21.55 70.95 20.36"/><polygon class="cls-42" points="73 21.55 73.08 49.74 75.14 48.55 75.06 20.36 73 21.55"/><polygon class="cls-32" points="70.95 20.36 73 21.55 75.06 20.36 73.01 19.17 70.95 20.36"/></g></g></svg>