<svg xmlns="http://www.w3.org/2000/svg" viewBox="0 0 206.6272 270"><title>Asset 6</title><path d="M138.085,71.3032,98.9115,50.5223a4.9,4.9,0,0,1-2.7908-3.0315V184.5654c-.3022,1.3578.65,2.8651,2.7908,4l39.1735,20.7807a14.3991,14.3991,0,0,0,6.25,1.4958V72.799A14.4019,14.4019,0,0,1,138.085,71.3032Z" fill="#939598"/><path d="M90.096,138.29,50.9223,115.673a5.2115,5.2115,0,0,1-2.7909-3.3v97.3727c-.3021,1.4776.6505,3.1181,2.7909,4.3541L90.096,236.7167a13.4572,13.4572,0,0,0,6.25,1.6281v-98.427A13.4558,13.4558,0,0,1,90.096,138.29Z" fill="#939598"/><path d="M192.5554,184.9006s1.2322-137.3255.1068-136.7271l-41.8214,24.65c-1.4313.7612-4.819,2.7843-6.8468,2.7387l.3407,37.9138a4.1472,4.1472,0,0,1-1.7215,1.7126l-40.8494,23.5848a10.5812,10.5812,0,0,1-5.4183,1.144v37.84a4.19,4.19,0,0,1-1.669,1.6306L53.8272,202.9728a10.58,10.58,0,0,1-5.4185,1.1442v61.021a10.579,10.579,0,0,0,5.4185-1.1442l136.7753-75.9274C192.16,187.238,192.7912,186.0791,192.5554,184.9006Z" fill="#c6c6c6"/><path d="M42.1592,202.4893,2.9855,179.8721a5.2114,5.2114,0,0,1-2.7908-3.2995v59.9668c-.3021,1.4778.6506,3.1181,2.7908,4.354L42.1592,263.51a13.4594,13.4594,0,0,0,6.25,1.6279V204.117A13.4557,13.4557,0,0,1,42.1592,202.4893Z" fill="#939598"/><path d="M190.6025,50.9358,149.753,74.52c-2.9782,1.7194-8.2288,1.5019-11.668-.4835L98.9114,51.42c-3.4389-1.9854-3.816-5.017-.8376-6.7366l40.85-23.5843c2.978-1.7195,8.2288-1.5019,11.6678.4836l39.1737,22.6171C193.204,46.1848,193.5809,49.2162,190.6025,50.9358Z" fill="#e6e7e8"/><path d="M142.6132,115.1891l-40.8494,23.5847c-2.9783,1.7194-8.2289,1.5018-11.6678-.4837L50.9222,115.673c-3.439-1.9855-3.8162-5.0169-.8377-6.7365l40.85-23.5844c2.9783-1.72,8.2288-1.5019,11.6678.4837l39.1738,22.617C145.2146,110.4382,145.5916,113.47,142.6132,115.1891Z" fill="#e6e7e8"/><path d="M94.6767,179.3884l-40.85,23.5844c-2.9784,1.7195-8.229,1.5019-11.6679-.4835L2.9855,179.8723c-3.439-1.9854-3.8161-5.017-.8378-6.7364l40.85-23.5846c2.9783-1.72,8.2289-1.5019,11.6678.4837l39.1738,22.6169C97.2778,174.6374,97.6548,177.6689,94.6767,179.3884Z" fill="#e6e7e8"/><path d="M192.71,48.1735s-.6005-3.1137-2.8974-3.9741l-39.1736-22.617c-3.4391-1.9856-8.69-2.2032-11.6678-.4837l-40.85,23.5844c-1.5574.8991-2.1886,2.1572-1.953,3.4367V84.211a10.43,10.43,0,0,0-5.1868,1.1411L50.1321,108.9365c-1.5577.8993-2.1889,2.1576-1.953,3.4373v36.0371a10.3973,10.3973,0,0,0-5.1342,1.14L2.1953,173.1359c-1.5576.8992-2.1887,2.1574-1.9528,3.4371V236.54c-.3022,1.4777.6505,3.1181,2.7908,4.3539L42.2068,263.51a13.4582,13.4582,0,0,0,6.25,1.6279h0a10.5782,10.5782,0,0,0,5.4183-1.1442L190.65,188.0664c1.5576-.8284,2.1887-1.9873,1.9529-3.1658C192.603,184.9006,193.8352,47.5752,192.71,48.1735ZM91.5514,138.9652c.07.0279.1466.0453.2175.0721C91.6979,139.0106,91.6217,138.993,91.5514,138.9652Zm1.5569.5027c.0252.0065.0515.0094.0769.0159C93.16,139.4775,93.1336,139.4744,93.1083,139.4679Zm-44.0735-25.37.02.0228Zm.8291.8161c.0107.0088.0233.0171.0341.0259C49.8872,114.9311,49.8746,114.9228,49.8639,114.914Zm-1.3869-1.6628-.0025-.0048Z" fill="none" stroke="#6d6e71" stroke-miterlimit="10" stroke-width="0.3754"/><path d="M14.5108,169.5124a3.9373,3.9373,0,0,1-1.8449-1.08c-.0974.4311-.1948.8643-.2944,1.2954-.0787.3337-.1369.6468-.2156.9618h.0787c.3152,1.0779,4.3532,2.7841,6.335,2.8442a20.3616,20.3616,0,0,0,4.1188-.4126,6.96,6.96,0,0,0,1.5693-.5307c-.0208.2365-.06.4727-.0787.6676a16.71,16.71,0,0,0,6.6478-1.1754A4.6341,4.6341,0,0,0,33.671,170.69c.3524-.3337-.6281-.6882-.45-1.1774-3.14-1.8614-3.3747-.6487-6.965-1.708a15.64,15.64,0,0,1-2.1953-1.6667l-.2154.9039C21.6084,169.5518,17.2367,170.3353,14.5108,169.5124Z" fill="#241303"/><path d="M55.4016,133.07c.57-.4292,1.1753-.86,1.7847-1.3123.57-.4311,1.1567-.8622,1.7455-1.2935,3.5116-2.5891,7.16-5.2964,9.747-7.2573.2942-.2157.5907-.4332.8435-.6281,1.2749-.9992,2.1975-1.7455,2.5685-2.0771-.2736-2.1974-.508-4.0235-.8043-6.2954-1.47,1.37-4.6268,4.0006-8.1965,6.8819.0974.57.1577,1.1174.2364,1.6855l-.0416.0413a.2306.2306,0,0,1,.0208.1162c-.8437.7669-2.1579,1.845-2.7465,2.3154-.079-.6094-.1161-1.2934-.1949-1.9818-5.2175,4.1792-10.5512,8.3167-12.22,9.4942l-.0373.0373a4.2178,4.2178,0,0,0-.8249-.8416c0-.0187-.0208-.0187-.0208-.0414.0787.7669.1783,1.4925.2362,2.16.0208.1348.0395.2737.06.4314.0372.3916.0766.8043.1159,1.1753.0208.2757.04.5494.079.8043.0206.2363.0393.4519.06.6655,0,.0787.0186.1781.0186.2549a.0686.0686,0,0,0,.0206.06c0,.1182.0187.2156.0187.315,0,.0768.0187.1369.0187.1948s.0208.1183.0208.1575a2.8561,2.8561,0,0,1,.0393.3732s2.49-1.8056,5.883-4.2972q.7371-.5285,1.5319-1.1152C55.3829,133.093,55.3829,133.07,55.4016,133.07Z" fill="#bf1352"/><path d="M44.7321,136.4657a8.3658,8.3658,0,0,1,.7856.5286c.2944.1783.568.3545.8625.5493a.8364.8364,0,0,1,.1761.0974v-.0787C46.007,137.2286,45.36,136.8389,44.7321,136.4657Z" fill="#00000a"/><path d="M57.1863,131.758c-.6094.4519-1.2148.8831-1.7847,1.3123.3729,2.67.9223,5.2776,1.4324,7.9061.118-.1.2341-.197.3523-.2944a21.9079,21.9079,0,0,0,.3337,4.0009c.06.02.1161.0766.1762.1,0,.0185.04.0185.04.0372.0787.6281.1762,1.3349.2549,2.0791a.5743.5743,0,0,1,.0208.1762c.92,7.3154,2.4895,20.2216,3.4908,24.9293a8.0025,8.0025,0,0,0,4.2163-.9225,14.2841,14.2841,0,0,0,6.2375-5.9431c-.394-8.9635-1.2375-17.2594-1.8635-26.0465h.0187c.1159-3.0575-.51-6.0987-.5889-9.14-.0392.0208-.0579.06-.0974.0787-.197-2.2946-.4893-4.6266-.7461-6.824-2.5871,1.9609-6.2354,4.6682-9.747,7.2573C58.343,130.8958,57.7563,131.3269,57.1863,131.758Z" fill="#184c7f"/><path d="M47.8892,137.9747c0-.0579-.0187-.118-.0187-.1948,0-.0994-.0187-.1968-.0187-.315a.0686.0686,0,0,1-.0206-.06c0-.0768-.0186-.1762-.0186-.2549-.0208-.2136-.04-.4292-.06-.6655-.0395-.2549-.0582-.5286-.079-.8043-.0393-.371-.0787-.7837-.1159-1.1753-.0208-.1577-.04-.2966-.06-.4314-.0579-.6673-.1575-1.3929-.2362-2.16-.5286-4.1356-1.1567-9.0008-1.4884-11.7452a.02.02,0,0,1-.0206-.0209,27.2665,27.2665,0,0,0-3.0805-1.8843c-.7629-.371-1.5485-.9991-2.332-1.2935v-.0187a3.4342,3.4342,0,0,0-.06-.7275.0353.0353,0,0,1,0-.056c-.0086-.3526-.02-.5931-.0392-.8457l-.1762-.0974-.7047-.4127c.0972.8644.2154,1.7455.315,2.6473.1762,1.3557.3315,2.7652.5285,4.1789.1161,1.0013.2344,2.0191.3524,3.0412a.2293.2293,0,0,1,.0208.1159c.1762,1.49.371,2.983.5472,4.4735.2363,1.8035.4706,3.6069.6882,5.3917.6863.4124,1.49.9225,2.3135,1.4718.06.0372.1161.0788.1575.0975a2.5,2.5,0,0,0,.2549.1575.0183.0183,0,0,0,.0187.0186c.3131.1968.6468.3917.9618.5887a8.3658,8.3658,0,0,0-.7856-.5286c.6281.3732,1.2749.7629,1.8242,1.0966v.0787c.7048.4333,1.2355.767,1.393.8644a2.8561,2.8561,0,0,0-.0393-.3732C47.91,138.093,47.8892,138.0329,47.8892,137.9747Z" fill="#dd1f6c"/><path d="M33.3184,52.5822c-.8643-6.3951-2.2553-15.8268.6075-22.477-.8229-.2362-1.6854-.47-2.5311-.7047a26.2184,26.2184,0,0,1-3.6276-1.198c-1.7455,4.1789-.0393,14.5145.3523,16.4962,1.1983,7.1187,2.9043,14.1,4.08,21.2394a6.4972,6.4972,0,0,0-1.6873-2.04c0,2.3734.8457,4.9024.8457,7.6283,0,2.5519-.3337,5.2777-.3337,7.8253,0,3.5719-.2549,7.16-.3131,10.7275.1369.1.3131.1783.4706.2757.0374.0208.0787.04.1161.0582a24.59,24.59,0,0,0,2.8047,1.3536c.197-.6655.3919-1.3331.568-2.0191.1762-2.6886.3545-5.3938.452-8.12.0206-.2944.0206-.5886.0206-.8831,0-.4124.0186-.8229.0186-1.2354.0208-.1369.04-.2736.0582-.4126C36.515,70.625,34.26,60.8388,33.3184,52.5822Z" fill="#0e3b59"/><path d="M84.3689,169.16c-1.4492,2.6077-8.3749,3.806-10.0809,4.2165-1.1172.2549-10.7461,1.0985-13.9446.2942a13.966,13.966,0,0,0,.0788,2.6077,11.3409,11.3409,0,0,0,5.315.8417c.4893,0,2.1186-.2136,2.1186-.2136.4517-.3337.3129-.9991.6674-1.2562.9412-.5678,2.1165-.118,3,.1183a8.0587,8.0587,0,0,0,1.4718.2549c.47-.06,1.2354-.2363,1.8035-.2736,1.3349-.3545,2.844-.6882,4.1768-1.0987a19.627,19.627,0,0,0,5.572-2.8461C84.4682,170.5136,84.4682,169.8669,84.3689,169.16Z"/><path d="M74.288,173.3765c1.706-.41,8.6317-1.6088,10.0809-4.2165,0-.0206.02-.0206.02-.0393,0-.2156-.4519-.6468-.9409-1.0592a11.7947,11.7947,0,0,0-1.5507-1.1174s-1.509.3129-2.2761.3711c-1.92.2156-5.5886-1.5485-7.6657-2.1766a14.2841,14.2841,0,0,1-6.2375,5.9431,8.0025,8.0025,0,0,1-4.2163.9225,1.8377,1.8377,0,0,1-1.0221-.4311l-.0579.1159c-.0187.57-.058,1.277-.0788,1.9817C63.5419,174.475,73.1708,173.6314,74.288,173.3765Z" fill="#241303"/><path d="M68.09,75.7246a39.6724,39.6724,0,0,1,4.2,3.4907c.5867-.3131.8811-.6862.5285-1.1774-.02-.0187-.0392-.0374-.0392-.058-.5681-.8045-1.961-2.4317-3.1779-3.8246A21.6868,21.6868,0,0,1,68.09,75.7246Z" fill="#ffc8af"/><path d="M66.7571,76.9992a1.0262,1.0262,0,0,0-.1556.137c-.375.3336-.7087.7068-1.08,1.04-.0579.0374-.118.0974-.1762.1369-.3916.2944-.9017.4706-1.2747.7835l-.0789.1c.962.92,1.8036,1.6874,2.1974,2.0979l-.0187.0187c1.0365.8435,1.4116.8643,1.5485.4725.1575-.51-1.02-1.8242-1.9609-3.2566a10.5121,10.5121,0,0,0,2.2946,2.4317c.2549.1968,1.1153.9824,1.43.5886l.0993-.0787c.2736-.4706-1.9236-3.0017-2.8066-4.432.6882.6861,4.0422,3.6464,4.6682,3.7251.118.1575.6094-.1556.4912-.45-.5886-1.4118-2.8047-3.294-3.8639-4.55-.4706.452-.941.8831-1.3142,1.217Z" fill="#ffc8af"/><path d="M46.1832,117.1853c.0187.0788.0187.1762.0414.255q.97,7.6521,1.9195,15.319c1.6689-1.1775,7.0026-5.315,12.22-9.4942a9.7826,9.7826,0,0,0-.2551-1.3515h.0187v-.0206a.1928.1928,0,0,0-.0187-.1c.8624-.705,1.8824-1.4118,2.7633-2.1558,0,.0579.0227.0974.0227.1575.0561.3732.1161.7627.1762,1.1566,0,.0393.0187.0975.0187.1367,3.57-2.8813,6.7268-5.5117,8.1965-6.8819.2176-.2178.3938-.394.5307-.5307-.5307-4.2558-1.4884-8.8639-2.0191-13.0223-.0582-.0186.0787.0187,0,0-3.9635,3-17.1225,12.57-22.3194,15.7461-.1575.0994-.3151.1989-.4726.2964C46.693,116.8909,46.4194,117.0692,46.1832,117.1853Z" fill="#d31654"/><path d="M62.2464,72.5673a29.2866,29.2866,0,0,1-2.51,1.7849,24.1955,24.1955,0,0,0,4.2556,4.8444l.0789-.1c.373-.3129.8831-.4891,1.2747-.7835.0582-.0395.1183-.0995.1762-.1369.3713-.3337.705-.7069,1.08-1.04a1.0262,1.0262,0,0,1,.1556-.137v-.0184c.3732-.3339.8436-.765,1.3142-1.217a.5364.5364,0,0,1-.0975-.1182c.0374.0208.0788.0582.1162.079a21.6868,21.6868,0,0,0,1.5111-1.5693c-1.1775-1.3537-2.2367-2.51-2.3154-2.5891v-.0187h.0208c1.001-.4706,2.3528-.5493,2.6678-1.53a1.73,1.73,0,0,0-.0788-1.4324,11.2947,11.2947,0,0,1-4.8257.8436l-.2135-.058C64.62,70.4488,62.9138,71.96,62.2464,72.5673Z" fill="#ffc8af"/><path d="M59.7174,72.6834c-.0186.57-.0416,1.1382-.0416,1.706.023-.0185.0416-.0185.06-.0372a29.2866,29.2866,0,0,0,2.51-1.7849c.6674-.6073,2.3734-2.1185,2.61-3.1964a.8475.8475,0,0,0,0-.4311l.0186-.0416c-.3525-.2341-.8437-.5865-1.1961-.7835A16.8769,16.8769,0,0,1,59.7174,72.6834Z" fill="#cce6f3"/><path d="M63.6788,68.1147c.1554-.2549.2944-.4914.41-.7047l-.1159-.1182a14.6519,14.6519,0,0,1-4.0008-2.7861c-.0788,2.7653-.1575,5.5307-.255,8.1777A16.8769,16.8769,0,0,0,63.6788,68.1147Z" fill="#184c7f"/><path d="M62.8951,119.7952c0-.06-.0227-.1-.0227-.1575-.8809.744-1.9009,1.4508-2.7633,2.1558a.1928.1928,0,0,1,.0187.1v.0206a6.1029,6.1029,0,0,1,.2549,1.2335c.079.6674.139,1.3556.197,1.9818.6075-.4914,1.8637-1.5507,2.7051-2.3136l.0416-.0413c-.0787-.5681-.139-1.1153-.2364-1.6855,0-.0392-.0187-.0974-.0187-.1367C63.0112,120.5579,62.9512,120.1684,62.8951,119.7952Z" fill="#bbbfd4"/><path d="M59.3048,101.6133c.0787.568.2736,1.3536-.0187,1.7642-.2568.3753-1.513.2175-1.8261-.3711a15.3626,15.3626,0,0,1-4.3719,2.49c-.8436.139-1.9818-.0579-2.6491.079.1575,1.0985.315,2.1785.4519,3.3538l.118.0374a1.59,1.59,0,0,1-1.5878.9618h-.0787c-.1575-1.1153-.3152-2.1951-.4311-3.2751-1.65,1.1566-3.2567,2.2759-4.7493,3.2959-.3711.2549-.744.51-1.1151.765-.7858.5285-1.5319,1.02-2.2161,1.4716-.1575.0975-.315.1949-.4519.2923-.3732.2363-.7277.452-1.0592.6695a1.3877,1.3877,0,0,0-.2363.1348,1.2881,1.2881,0,0,0-.2135.1389,1.5159,1.5159,0,0,1,.2528.1369c.2944.1575,5.2176,2.7072,7.0792,3.8639-.0187-.0788-.0187-.1575-.0374-.2363l.0256.1723c.2362-.1161.6459-.33.959-.5245.1575-.0975.2779-.2356.4354-.3349,5.1388-3.2753,18.2709-12.8057,22.2136-15.8446-2.6285-.8251-5.1968-2.2161-7.8066-3.1405-.197.1388-.4314.2758-.6468.4519-.7255.45-1.5485,1.02-2.45,1.6666A10.0415,10.0415,0,0,1,59.3048,101.6133Z" fill="#bf1352"/><path d="M58.0114,147.0749a.5743.5743,0,0,0-.0208-.1762c-.0787-.7442-.1762-1.451-.2549-2.0791,0-.0187-.04-.0187-.04-.0372-.06-.0229-.1161-.079-.1762-.1a21.9079,21.9079,0,0,1-.3337-4.0009c-.1182.0974-.2343.1949-.3523.2944-.51-2.6285-1.0595-5.2362-1.4324-7.9061-.0187,0-.0187.0227-.0374.0227q-.7959.5846-1.5319,1.1152c-.0974,1.4324.7047,3.7873.9225,4.8652.2342,1.0406.4891,2.0584.7255,3.0805-.0394.0373-.0787.0579-.1161.0974.1161.45.2136.92.3316,1.3723-.0393-.0208-.0766-.0394-.118-.0581.1575,2.3135.4706,4.5294.7068,6.0987.7443,4.9231,1.509,9.3738,2.1371,12.8666.2737,1.3929.51,2.6264.7256,3.6857.0787.4124.1388.7856.2156,1.1379.1368.6676.2571,1.217.3545,1.6668.1575.6881.2737,1.1774.3337,1.3536a1.3624,1.3624,0,0,0,.429,1.1983,1.8377,1.8377,0,0,0,1.0221.4311C60.5009,167.2965,58.9318,154.39,58.0114,147.0749Z" fill="#184c7f"/><path d="M58.2269,68.1147c.1161,1.9818.1948,3.7273.1948,5.3545v.4517c0,2.96-.1574,5.57-.3731,8.4515-.2342,2.9043-.5678,5.9431-.7835,9.0815q.5286-.3235,1.0592-.7047c.255-.1783.4914-.3545.7442-.5494,0-1.1982.2944-7.7673.6073-15.81,0-.5678.023-1.1359.0416-1.706.0975-2.647.1762-5.4124.255-8.1777.1161-4.2557.1948-8.4928.1948-12.2385,0-1.4906-.0186-2.9209-.0394-4.235a52.5689,52.5689,0,0,0-.47-7.3942c.1575,8.4721-1.3144,17.8272-1.4118,26.378C58.2269,67.3892,58.2269,67.7624,58.2269,68.1147Z" fill="#0e3b59"/><path d="M51.7926,49.9144a111.2918,111.2918,0,0,0-.1369,17.3379,3.0141,3.0141,0,0,1,2.04.6262,3.9115,3.9115,0,0,0-1.9818,2.57,2.8538,2.8538,0,0,0-.1369.4312c-1.1379,3.7085-.941,9.689-.941,12.0439a109.01,109.01,0,0,0,.6487,12.9828v.1367A9.579,9.579,0,0,0,56.54,94.671a7.3612,7.3612,0,0,0,.6073-.489c.0208-.9247.0787-1.8264.1182-2.7281.2157-3.1384.5493-6.1772.7835-9.0815.2157-2.8813.3731-5.4912.3731-8.4515v-.4517c0-1.6272-.0787-3.3727-.1948-5.3545,0-.3523,0-.7255.0187-1.0987.0974-8.5508,1.5693-17.9059,1.4118-26.378a.9213.9213,0,0,1-.0374-.197,2.806,2.806,0,0,0-.1991-.6073c-.0766-.2343-.1741-.4334-.2341-.6281C53.6956,35.1052,52.0288,46.4816,51.7926,49.9144Z" fill="#184c7f"/><path d="M57.1469,94.182a7.3612,7.3612,0,0,1-.6073.489l.0787.1162a10.2754,10.2754,0,0,0-.0974,1.6873,1.2251,1.2251,0,0,1-.3545.4313l.0208.118a5.488,5.488,0,0,1,.96,1.8243c.1182.3337.2156.6862.3131,1.0592a5.1021,5.1021,0,0,1,.1388,2.7259,2.34,2.34,0,0,1-.7461,1.02,13.5771,13.5771,0,0,1-3.2545,1.706,1.4291,1.4291,0,0,0-.1391.058,1.7848,1.7848,0,0,1-.371.0787c.5472.0208,4.4714-6.3141,4.2931-6.6478.1-.0393.1989-.0788.2963-.1183a.6679.6679,0,0,1,.8831.2365,2.411,2.411,0,0,1,.3339.6653c.9017-.6466,1.7247-1.2168,2.45-1.6666a48.0263,48.0263,0,0,0-3.1571-6.0592V91.885c.0393-.3729.0974-.7648.1367-1.1358q-.5318.3823-1.0592.7047C57.2256,92.3556,57.1677,93.2573,57.1469,94.182Z" fill="#184c7f"/><path d="M59.2861,103.3775c.2923-.4106.0974-1.1962.0187-1.7642a10.0415,10.0415,0,0,0-.41-1.9817,2.411,2.411,0,0,0-.3339-.6653.6679.6679,0,0,0-.8831-.2365c-.0974.04-.4311.079-.5306.1183.1783.3337.1742.9639.3131,1.3163a4.3786,4.3786,0,0,1-.3193,3.2131C57.4538,103.9661,59.0293,103.7528,59.2861,103.3775Z" fill="#350000"/><path d="M48.0093,44.1888l-.1967-.0208c-.3524,4.1958.2154,8.7273.2154,12.9062,0,7.7839.2365,14.239.5472,19.1208,0,.2343-.0184.4519-.0371.6675-.1762,2.4524-.1762,4.9232-.1762,7.3942,0,2.529-.2365,5.0788,0,7.55.0974.8437.2133,1.7268.3129,2.6077.0582.5122.1182,1.0034.1369,1.4927.3129.0392.6094.0787.9223.0974a13.244,13.244,0,0,0,1.5506.0393v-.1367a109.01,109.01,0,0,1-.6487-12.9828c0-2.3549-.1969-8.3354.941-12.0439a2.8538,2.8538,0,0,1,.1369-.4312,3.9115,3.9115,0,0,1,1.9818-2.57,3.0141,3.0141,0,0,0-2.04-.6262,111.2918,111.2918,0,0,1,.1369-17.3379c.2362-3.4328,1.903-14.8092,7.3942-10.7088a15.39,15.39,0,0,0-.8043-1.903,9.0109,9.0109,0,0,0-2.55-2.7051l-.0787.0766a9.6167,9.6167,0,0,0-1.6067-1.0386C49.5765,33.793,48.596,40.6193,48.0093,44.1888Z" fill="#184c7f"/><path d="M51.4608,102.712a5.1014,5.1014,0,0,1-.6487.2944,2.6458,2.6458,0,0,1,.3337,1.2749c-.4126.2944-.8416.568-1.2169.7835.1577.197.2965.3524.4313.51h.0788c.6673-.1369,1.8055.06,2.6491-.079a1.7848,1.7848,0,0,0,.371-.0787,1.4291,1.4291,0,0,1,.1391-.058,13.5771,13.5771,0,0,0,3.2545-1.706,2.34,2.34,0,0,0,.7461-1.02,5.1021,5.1021,0,0,0-.1388-2.7259c-.823.3339-1.8222.7049-2.6264.96C53.7349,101.3,52.6175,102.1234,51.4608,102.712Z" fill="#ffc8af"/><path d="M50.184,98.2013a40.0149,40.0149,0,0,0-.1948,4.4693,2.809,2.809,0,0,1,.3916-.2736,1.45,1.45,0,0,1,.2551.315c.058.0788.1181.1949.1762.2944a5.1014,5.1014,0,0,0,.6487-.2944c1.1567-.5886,2.2741-1.4116,3.3728-1.8448.8042-.255,1.8034-.626,2.6264-.96-.0975-.373-.1949-.7255-.3131-1.0592a5.488,5.488,0,0,0-.96-1.8243l-.0208-.118C54.989,98.0043,52.1263,98.4375,50.184,98.2013Z" fill="#ffc8af"/><path d="M49.734,98.1412c.1369.0208.2923.04.45.06,1.9423.2362,4.805-.197,5.9824-1.2955a1.2251,1.2251,0,0,0,.3545-.4313,10.2754,10.2754,0,0,1,.0974-1.6873L56.54,94.671a9.579,9.579,0,0,1-5.255,1.3724,13.244,13.244,0,0,1-1.5506-.0393v2.1371Z" fill="#e8f6ff"/><path d="M49.9289,105.0648c.3753-.2155.8043-.4891,1.2169-.7835a2.6458,2.6458,0,0,0-.3337-1.2749c-.0581-.1-.1182-.2156-.1762-.2944a22.3005,22.3005,0,0,1-1.9424,1.43c.06.8251.1388,1.6688.2178,2.51.1159,1.08.2736,2.16.4311,3.2751h.0787a1.59,1.59,0,0,0,1.5878-.9618l-.118-.0374c-.1369-1.1753-.2944-2.2553-.4519-3.3538H50.36C50.2254,105.4172,50.0866,105.2618,49.9289,105.0648Z" fill="#350000"/><path d="M31.0238,79.352c0-2.5476.3337-5.2734.3337-7.8253,0-2.7259-.8457-5.2549-.8457-7.6283a6.4972,6.4972,0,0,1,1.6873,2.04c-1.1753-7.1392-2.8813-14.1207-4.08-21.2394-.3916-1.9817-2.0978-12.3173-.3523-16.4962a26.2184,26.2184,0,0,0,3.6276,1.198c.8457.2344,1.7082.4685,2.5311.7047a41.5542,41.5542,0,0,1,8.1777,3.1178c5.8643,3.3146,3.1779,12.4957,2.668,18.103a31.1124,31.1124,0,0,0,.1388,9.1583c.626,3.3167.2549,5.8663,0,9.297a137.9313,137.9313,0,0,0-.7669,22.9475c.06.5472.118,1.1174.1762,1.6667a21.3852,21.3852,0,0,0,4.3551.0185c-.1-.8809-.2155-1.764-.3129-2.6077-.2365-2.4708,0-5.0206,0-7.55,0-2.471,0-4.9418.1762-7.3942.0187-.2156.0371-.4332.0371-.6675-.3107-4.8818-.5472-11.3369-.5472-19.1208,0-4.1789-.5678-8.71-.2154-12.9062l.1967.0208c.5867-3.5695,1.5672-10.3958,6.138-10.5533-1.335-.7069-2.9227-1.3142-4.042-1.7848-.5288-.2156-1.0386-.45-1.5672-.686a54.0937,54.0937,0,0,0-7.1206-2.9809q-2.677-.8241-5.4124-1.47a50.6333,50.6333,0,0,0-5.257-.9618,40.82,40.82,0,0,0-4.1168-.3152A3.45,3.45,0,0,0,23.57,27.0456c-2.1165,3.06-1.43,9.7283.06,13.1424.5307,3.097,1.2354,5.92,2,8.8639.7648,2.9416,1.5878,5.9992,2.2947,9.65l-.0788.0186c.6468,3.7459,1.0592,18.103-.1575,29.32a10.0861,10.0861,0,0,0,1.2957,1.0034c.0185,0,.0185.0186.0393.0186.0974.058.2156.1367.3317.2155.3938.2343.8457.51,1.3556.8022C30.7689,86.5121,31.0238,82.9239,31.0238,79.352Z" fill="#0e3b59"/><path d="M48.6935,104.1423a22.3005,22.3005,0,0,0,1.9424-1.43,1.45,1.45,0,0,0-.2551-.315,2.809,2.809,0,0,0-.3916.2736,40.0149,40.0149,0,0,1,.1948-4.4693c-.1577-.0206-.3131-.0393-.45-.06V96.0041c-.3129-.0187-.6094-.0582-.9223-.0974-.0187-.4893-.0787-.9805-.1369-1.4927a21.3852,21.3852,0,0,1-4.3551-.0185,27.9891,27.9891,0,0,1-3.1365-.4706,34.1892,34.1892,0,0,1-3.7478-.96,1.3925,1.3925,0,0,0-.3131-.1c-.1159-.0393-.2363-.0788-.3524-.118-.2942,2.4916,1.4324,6.8053,2.2161,8.8265,1.2933,3.06,3.5882,5.5307,5.176,8.3747,1.4926-1.02,3.0991-2.1393,4.7493-3.2959C48.8323,105.8111,48.7535,104.9674,48.6935,104.1423Z" fill="#0e3b59"/><path d="M46.1458,17.3982a4.8452,4.8452,0,0,0-1.3742.7255,7.5357,7.5357,0,0,0-.2552-1.5319h-.0186c-.3129-1.4116-1.8262-3.215-2.3341-1.7848a3.0814,3.0814,0,0,0-.1575.9039,7.1751,7.1751,0,0,0,.3523,2.04,5.9745,5.9745,0,0,0,.8833,2.0585.5432.5432,0,0,0,.4311.255c.0206,0,.0393,0,.0393-.0208v.12c.6676,1.4884,2.4336,4.5107,3.6276,3.4494l.0788.0789c1.0987-.962.4706-2.5871.6882-4.1377a17.81,17.81,0,0,0,.371-5.1573c-.1946-1.2562-1.509-2.5311-1.3929-3.7272A26.16,26.16,0,0,0,45.85,14.5914C45.9469,15.7875,46.0671,16.7888,46.1458,17.3982Z" fill="#ffc8af"/><path d="M46.2019,117.44v-.0187c-1.8616-1.1567-6.1567-3.4141-6.138-3.3933.0206.2154.06.4519.0787.6467a1.8268,1.8268,0,0,1-.0962.5888,25.7359,25.7359,0,0,1,2.4712,1.29c.6949.3877,1.3387.8731,2.0887,1.2356l.8825.4707.0289-.0157a.1784.1784,0,0,0,.0187.0974v.0187c.0395.3545.1182.9826.2363,1.7868v.0209c.3317,2.7444.96,7.61,1.4884,11.7452,0,.0227.0208.0227.0208.0414a4.2178,4.2178,0,0,1,.8249.8416l.0373-.0373q-.939-7.68-1.9195-15.319Z" fill="#dd1f6c"/><path d="M43.7122,20.1634c-.0393,1.0365,0,2.6867,0,4.2745a25.14,25.14,0,0,0,3.2566-.4311,2.9227,2.9227,0,0,0,.45-.3151l-.0788-.0789C46.1458,24.6741,44.38,21.6518,43.7122,20.1634Z" fill="#ffc8af"/><path d="M45.85,14.5914A26.16,26.16,0,0,1,47.0849,10.67a1.465,1.465,0,0,1,.197-.626c-.2157-.962-.705-1.9238-1.0386-2.9435C45.5759,8.924,45.6546,12.1414,45.85,14.5914Z" fill="#ffc8af"/><path d="M33.3,17.2986c0,.3526.1346.7256.1346.9786,1.59-.1161,3.1966-2.0979,4.6685-1.47a.9249.9249,0,0,0-.1162.6073c1.2354-.2528,3.4513-1.6064,3.9406-2.7051l.2363.0974c.5079-1.43,2.0212.3732,2.3341,1.7848h.0186a7.5357,7.5357,0,0,1,.2552,1.5319,4.8452,4.8452,0,0,1,1.3742-.7255c-.0787-.6094-.1989-1.6107-.2963-2.8068-.1949-2.45-.2736-5.6674.3938-7.4914a2.7827,2.7827,0,0,1,.5285-.9226A1.319,1.319,0,0,1,47.8312,5.67C44.5559,1.9817,42.5162.765,39.927.2549,39.4379.1762,38.9257.0974,38.4759.06a13.7235,13.7235,0,0,1,4.0609,2.471,11.075,11.075,0,0,0-1.9609.2343c.7234,1.7266,1.5878,4.0607-.2571,5.5305a3.887,3.887,0,0,1-.371-1.0985,7.5972,7.5972,0,0,1-2.9414,3.3146c-.6281.3731-3.7065,1.8635-2.3549,0-2.3736,2.0791-6.3745,2.57-8.7852.51a8.33,8.33,0,0,0,.1949,1.6668,10.22,10.22,0,0,0,1.5877,2.8834c.452.4912,1.0221,1.1193,1.59,1.7848A16.582,16.582,0,0,0,33.3,17.2986Z" fill="#4a301e"/><path d="M45.5364,118.3607v-.0187a.1784.1784,0,0,1-.0187-.0974l-.9038-.4893-.0767-.0393-4.2579-2.4523-.0184.0581H40.24c.0207.2278.0333.4589.0392.8457a.0353.0353,0,0,0,0,.056,5.4976,5.4976,0,0,0,.06.7275v.0187c.7835.2944,1.5691.9225,2.332,1.2935a27.2665,27.2665,0,0,1,3.0805,1.8843.02.02,0,0,0,.0206.0209v-.0209C45.6546,119.3433,45.5759,118.7152,45.5364,118.3607Z" fill="#a80f46"/><path d="M41.4175,28.1838a54.0937,54.0937,0,0,1,7.1206,2.9809A33.754,33.754,0,0,0,44.32,27.9494c-.2136-.12-.4127-.257-.6262-.3731h0a14.4939,14.4939,0,0,0-3.2564-1.4137c.0206-.06-.0187.06,0,0a11.1837,11.1837,0,0,0-1.1382-.2945,20.57,20.57,0,0,0-6.0779-.8227c-.0788,0-.1388.0206-.2176.0206a7.2378,7.2378,0,0,0-2.04.4914,1.6294,1.6294,0,0,1-.1948.1161l-.0208.0787a50.6333,50.6333,0,0,1,5.257.9618Q38.7411,27.3607,41.4175,28.1838Z" fill="#0e3b59"/><path d="M37.4354,92.965a34.1892,34.1892,0,0,0,3.7478.96,27.9891,27.9891,0,0,0,3.1365.4706c-.0582-.5493-.1161-1.12-.1762-1.6667A137.9313,137.9313,0,0,1,44.91,69.7813c.2549-3.4307.626-5.98,0-9.297a31.1124,31.1124,0,0,1-.1388-9.1583c.51-5.6073,3.1963-14.7884-2.668-18.103a41.5542,41.5542,0,0,0-8.1777-3.1178c-2.8628,6.65-1.4718,16.0819-.6075,22.477C34.26,60.8388,36.515,70.625,35.22,79.0971c.2176,2.0605.4124,4.2766.6487,6.4345.0187-.1182.0581-.2157.0787-.3339.0187.2343.0374.4914.0788.7236.0374.4333.0768.8831.1369,1.3163a.182.182,0,0,0,.0187.0974c-.0187.197-.0582.3938-.0788.5887v.0186c.0206.2363.06.452.0788.6882.1762,1.449.3337,2.8629.5285,4.0983.0208,0,.0414.0187.06.0187.1161.0392.2365.0787.3524.118A1.3925,1.3925,0,0,1,37.4354,92.965Z" fill="#0e3b59"/><path d="M39.3592,114.8117h-.0208l-.0261-.0123-.0527-.025c-.0582-.3916-.1161-.7856-.1556-1.1588l.0187-.0579a1.5159,1.5159,0,0,0-.2528-.1369,1.2881,1.2881,0,0,1,.2135-.1389,1.3877,1.3877,0,0,1,.2363-.1348c.3315-.2175.686-.4332,1.0592-.6695.1369-.0974.2944-.1948.4519-.2923.6842-.4519,1.43-.9431,2.2161-1.4716.3711-.2552.744-.51,1.1151-.765-1.5878-2.844-3.8827-5.315-5.176-8.3747-.7837-2.0212-2.51-6.3349-2.2161-8.8265-.0187,0-.0393-.0187-.06-.0187-.1948-1.2354-.3523-2.6493-.5285-4.0983-.0187-.2362-.0582-.4519-.0788-.6882v-.0186c.0206-.1949.06-.3917.0788-.5887a.182.182,0,0,1-.0187-.0974c-.06-.4332-.0995-.883-.1369-1.3163-.06.2363-.0371-.8865-.0953-.6522-.2362-2.529-.4933-3.7591-.7109-6.172-.0187.139-.0374.2757-.0582.4126,0,.4125-.0186.823-.0186,1.2354,0,.2945,0,.5887-.0206.8831-.0975,2.7259-.2758,5.4311-.452,8.12-.1761.686-.371,1.3536-.568,2.0191a24.59,24.59,0,0,1-2.8047-1.3536,3.9011,3.9011,0,0,0-.7255,1.451,12.5107,12.5107,0,0,0-.3524,1.9631,3.5213,3.5213,0,0,0,.2549.2757C28.8867,102.3,26.9629,109.83,26.1006,118.05a147.62,147.62,0,0,1-6.53,30.6546c-1.706,6.198-5.0808,14.1-5.06,20.8081,2.7259.8229,7.0976.0394,9.3345-2.4708l.2154-.9039V166.1l.4893-2.1185a47.3494,47.3494,0,0,1,3.5116-7.1184,91.4149,91.4149,0,0,0,5.3937-12.6118c1.9818-5.9431,4.5687-12.1993,5.8644-18.416-.0208-.0208,0-.0208,0-.0416.1182-.5865.2341-1.1753.3315-1.7639a12.0044,12.0044,0,0,0,.5515-2.3923c-.197-1.4137-.3523-2.8232-.5285-4.1789C39.5746,116.5572,39.4564,115.6761,39.3592,114.8117Z" fill="#15446b"/><path d="M43.7122,20.1634a.3793.3793,0,0,1-.0393-.0993.5432.5432,0,0,1-.4311-.255c-.9226,2.0584-1.9612,4.1769-2.8047,6.3535-.0187.06.0206-.06,0,0a14.4939,14.4939,0,0,1,3.2564,1.4137h0c.0373-.8043.0373-1.9444.0187-3.1384C43.7122,22.85,43.6729,21.2,43.7122,20.1634Z" fill="#ffc8af"/><path d="M43.7122,20.0433c0,.0208-.0187.0208-.0393.0208a.3793.3793,0,0,0,.0393.0993Z" fill="#fbb686"/><path d="M39.2989,25.8681a11.1837,11.1837,0,0,1,1.1382.2945c.8435-2.1766,1.8821-4.2951,2.8047-6.3535a5.9745,5.9745,0,0,1-.8833-2.0585A19.8348,19.8348,0,0,0,41.1832,21.2a16.7336,16.7336,0,0,1-7.9435.1,29.5461,29.5461,0,0,1-.2363,3.7665c.0788,0,.1388-.0206.2176-.0206A20.57,20.57,0,0,1,39.2989,25.8681Z" fill="#ffc8af"/><path d="M41.1832,21.2a19.8348,19.8348,0,0,1,1.1753-3.4493,7.1751,7.1751,0,0,1-.3523-2.04,3.0814,3.0814,0,0,1,.1575-.9039l-.2363-.0974c-.4893,1.0987-2.7052,2.4523-3.9406,2.7051a.9249.9249,0,0,1,.1162-.6073c-1.4719-.6281-3.0784,1.3537-4.6685,1.47,0-.253-.1346-.626-.1346-.9786a16.582,16.582,0,0,1-4.0609.0582c1.1754,1.335,2.4522,2.844,3.1571,3.7852l.0393-.0374c.2736.0766.5493.1369.8043.1949A16.7336,16.7336,0,0,0,41.1832,21.2Z" fill="#3a1e05"/><path d="M34.6515,10.512c-1.3516,1.8635,1.7268.3731,2.3549,0a7.5972,7.5972,0,0,0,2.9414-3.3146,3.887,3.887,0,0,0,.371,1.0985c1.8449-1.47.98-3.8039.2571-5.53a11.075,11.075,0,0,1,1.9609-.2343A13.7235,13.7235,0,0,0,38.4759.06C38.0055.0187,37.5929,0,37.28,0a13.339,13.339,0,0,0-7.8835,2.9229,10.2263,10.2263,0,0,0-2.5911,2.6078,6.6085,6.6085,0,0,0-.6842,2.7465,23.67,23.67,0,0,0-.2549,2.7446C28.277,13.0823,32.2779,12.5911,34.6515,10.512Z" fill="#3a1e05"/><path d="M24.179,173.2583c.0186-.1949.0579-.4311.0787-.6676a6.96,6.96,0,0,1-1.5693.5307,20.3616,20.3616,0,0,1-4.1188.4126c-1.9818-.06-6.02-1.7663-6.335-2.8442h-.0787c-.1762.8417-.3545,1.6668-.5494,2.5084,1.903,1.4717,4.8839,2.9414,7.1787,2.57a1.7242,1.7242,0,0,0,.3129-.0788c.7837-.1575,1.5693-.3131,2.3736-.5307l.0393-.056a1.2253,1.2253,0,0,1,1.2935-.883h.0208a.9062.9062,0,0,1,.4311.3918l.0209.0393a3.8569,3.8569,0,0,0,2.8626.8811,10.445,10.445,0,0,0,5.7277-1.5092c1.6457-1.1172,1.8034-1.7266,1.8034-3.3333a4.6341,4.6341,0,0,1-2.8442,1.3931A16.71,16.71,0,0,1,24.179,173.2583Z"/><path d="M19.5708,148.7043a147.62,147.62,0,0,0,6.53-30.6546c.8623-8.2193,2.7861-15.75,4.3738-23.9465a3.5213,3.5213,0,0,1-.2549-.2757,12.5107,12.5107,0,0,1,.3524-1.9631,3.9011,3.9011,0,0,1,.7255-1.451c-.0374-.0187-.0787-.0374-.1161-.0582-.1575-.0974-.3337-.1762-.4706-.2757-.51-.2921-.9618-.5679-1.3556-.8022-.2135.7049-.45,1.53-.6075,2.3135,0,.0393-.0186.0788-.0186.118a1.4911,1.4911,0,0,0-.058.4106L28.63,92.082c-.0187.0374-.0187.0974-.0374.1369-.0995.4125-.1969.8249-.2965,1.2562,0,.0372,0,.058-.0187.0788-.92,3.783-1.8822,8.1362-2.8231,12.6283,0,.0392-.8438,9.3572-1.2749,13.5922a48.6772,48.6772,0,0,1-1.5507,11.024c-1.7246,6.43-5.3542,11.8654-7.0583,18.4531-.06.1783-.12.3732-.1783.568h-.0206a107.0585,107.0585,0,0,0-2.1953,10.63c-.2944,2.2388-.6073,4.4921-1.0592,6.4159v.0974a2.202,2.202,0,0,0,.5493,1.47,3.9373,3.9373,0,0,0,1.8449,1.08C14.49,162.8045,17.8648,154.9023,19.5708,148.7043Z" fill="#15446b"/><path d="M28.729,91.7088c-.0393.1369-.058.255-.0994.3732l.0414.0374A1.4911,1.4911,0,0,1,28.729,91.7088Z" fill="#001"/><path d="M40.2609,115.34l4.2763,2.3757a14.0911,14.0911,0,0,0-2.06-1.2169c-.7256-.3545-1.4511-.941-2.1975-1.2354a.457.457,0,0,0-.1367-.0767v-.139a.6422.6422,0,0,0,0-.19c0-.0187.0509-.0279.0509-.0466-.0187-.2341-.1086-.5285-.1294-.7834-.2942-.1554-.6468-.3131-.9412-.4706l-.0187.0579c.04.3732.0974.7672.1556,1.1588l.0788.0373.7255.4127.1762.0974h.0208Z" fill="#dd1f6c"/><path d="M206.6272,106.1345,206.24,83.6129l-21.6148,21.4959,6.9458.37-25.1307,51.4058L150.1583,127.751l-39.0068,88.9505L89.3359,193.3034l-3.9151,8.4833c-.0748.1622-7.5515,16.3647-14.9211,32.4881C54.9943,268.1979,55.6388,268.3554,55.1457,270c0,0,9.1938-3.2679,9.1654-3.1872,1.0244-2.91,14.8907-33.2618,25.5284-56.373l22.0794,23.68,37.3824-85.246,15.7525,28.1866,34.6256-71.2828Z" fill="#00ffa3"/><path d="M85.63,201.3336l3.706-8.03-7.7886-3.4579L77.62,198.3214c-.0749.1621-7.5753,16.35-14.9682,32.46-15.5547,33.8938-14.91,34.0525-15.4058,35.6963l7.9,3.5224c.4955-1.6437,0-1.9977,15.354-35.7252C77.8608,218.105,85.5549,201.4957,85.63,201.3336Z" fill="#5cffc4"/><polygon points="191.571 105.478 184.626 105.109 206.373 83.762 198.611 80.375 176.863 101.721 182.745 104.272 161.448 147.946 150.227 127.795 166.467 156.959 191.571 105.478" fill="#5cffc4"/><polygon points="150.227 127.795 142.465 124.407 104.812 209.916 89.336 193.303 111.151 216.702 150.227 127.795" fill="#5cffc4"/><path d="M88.2562,213.6869l15.8148,17.0178.0147-.0334,7.7475,3.4207L89.7882,210.37C88.861,212.3765,87.8224,214.6265,88.2562,213.6869Z" fill="#05e28d"/><polygon points="146.745 154.809 157.289 173.745 165.051 177.133 149.339 148.917 146.745 154.809" fill="#05e28d"/></svg>