<svg xmlns="http://www.w3.org/2000/svg" xmlns:xlink="http://www.w3.org/1999/xlink" viewBox="0 0 187.6247 270"><defs><clipPath id="a"><path d="M23.9342,80.1417,24.44,258.506c26.3833,15.3322,69.2888,15.3218,95.8445-.01L119.779,80.1317C93.223,95.4638,50.3176,95.4742,23.9342,80.1417Z" fill="#c6c6c6"/></clipPath><clipPath id="b"><path d="M51.242,32.0033l.03,10.7194c35.6657-20.5914,93.5211-20.5914,128.9547.0006l-.03-10.7194C144.7627,11.4121,86.9073,11.4118,51.242,32.0033Z" fill="none"/></clipPath><clipPath id="c"><path d="M16.8867,67.449l.03,10.7192c30.2046,17.553,79.5119,17.5533,109.8958.0112L126.7825,67.46C96.3989,85.0024,47.0916,85.0021,16.8867,67.449Z" fill="none"/></clipPath><linearGradient id="d" y1="63.5068" x2="187.6247" y2="63.5068" gradientUnits="userSpaceOnUse"><stop offset="0" stop-color="#184c7f"/><stop offset="1" stop-color="#027cb2"/></linearGradient><linearGradient id="e" x1="0.0089" y1="83.8292" x2="187.6154" y2="83.8292" xlink:href="#d"/><linearGradient id="f" x1="0.0089" y1="104.1516" x2="187.6154" y2="104.1516" xlink:href="#d"/><linearGradient id="g" x1="0.0089" y1="124.474" x2="187.6154" y2="124.474" xlink:href="#d"/><linearGradient id="h" x1="0.0089" y1="144.7963" x2="187.6154" y2="144.7963" xlink:href="#d"/><linearGradient id="i" x1="0.0089" y1="165.1186" x2="187.6154" y2="165.1186" xlink:href="#d"/><linearGradient id="j" x1="0.0089" y1="185.4411" x2="187.6154" y2="185.4411" xlink:href="#d"/><linearGradient id="k" x1="0.0089" y1="205.7633" x2="187.6154" y2="205.7633" xlink:href="#d"/><linearGradient id="l" x1="0.0089" y1="226.0858" x2="187.6154" y2="226.0858" xlink:href="#d"/><clipPath id="m"><path d="M170.98,24.7911l-5.9985-1.8422a1.0647,1.0647,0,0,0,.7917-.1051A2.5093,2.5093,0,0,0,166.87,21.645a3.9865,3.9865,0,0,0,.4294-1.8218l5.9985,1.8421a3.989,3.989,0,0,1-.4294,1.8218,2.509,2.509,0,0,1-1.0977,1.1988A1.0651,1.0651,0,0,1,170.98,24.7911Z" fill="none"/></clipPath><clipPath id="n"><path d="M170.2269,27.3161l-5.9984-1.8421a2.0368,2.0368,0,0,1-.7515-.4356A3.7729,3.7729,0,0,1,162.4,22.2128l5.9984,1.8421a3.7732,3.7732,0,0,0,1.0767,2.8256A2.0362,2.0362,0,0,0,170.2269,27.3161Z" fill="none"/></clipPath><clipPath id="o"><path d="M155.0183,32.319,149.02,30.4769a1.7482,1.7482,0,0,0,1.3019-.1644,4.2536,4.2536,0,0,0,1.852-2.0286l5.9985,1.8421a4.2539,4.2539,0,0,1-1.852,2.0287A1.7487,1.7487,0,0,1,155.0183,32.319Z" fill="none"/></clipPath><clipPath id="p"><path d="M151.4031,22.5726l5.9984,1.8422a1.63,1.63,0,0,1,.61.3561,3.0688,3.0688,0,0,1,.86,2.2932,6.3276,6.3276,0,0,1-.6992,3.0619l-5.9985-1.8421a6.3259,6.3259,0,0,0,.6992-3.0619,3.0687,3.0687,0,0,0-.86-2.2932A1.6319,1.6319,0,0,0,151.4031,22.5726Z" fill="none"/></clipPath><clipPath id="q"><path d="M154.2482,34.9163,148.25,33.0742a2.7331,2.7331,0,0,1-1.0217-.5977,5.0589,5.0589,0,0,1-1.4308-3.8034,10.4253,10.4253,0,0,1,1.1647-5.0611,7.0079,7.0079,0,0,1,3.0577-3.364,2.8958,2.8958,0,0,1,2.1558-.2744l5.9985,1.8421a2.8958,2.8958,0,0,0-2.1558.2744,7.0081,7.0081,0,0,0-3.0577,3.3641,10.4235,10.4235,0,0,0-1.1647,5.061,5.0593,5.0593,0,0,0,1.4307,3.8035A2.7353,2.7353,0,0,0,154.2482,34.9163Z" fill="none"/></clipPath><clipPath id="r"><path d="M144.926,37.3622,138.9276,35.52a1.7486,1.7486,0,0,0,1.3018-.1677,4.0258,4.0258,0,0,0,1.6164-1.62,6.9436,6.9436,0,0,0,.91-2.5349l5.9984,1.8422a6.9438,6.9438,0,0,1-.91,2.5348,4.0238,4.0238,0,0,1-1.6163,1.62A1.7489,1.7489,0,0,1,144.926,37.3622Z" fill="none"/></clipPath><clipPath id="s"><path d="M141.3741,27.4832l5.9984,1.8421a1.5281,1.5281,0,0,1,.1979.0762l-5.9985-1.8421A1.5268,1.5268,0,0,0,141.3741,27.4832Z" fill="none"/></clipPath><clipPath id="t"><path d="M142.1,24.9538l5.9984,1.8421a2.8617,2.8617,0,0,0-2.1051.2338l-5.9985-1.8422A2.8619,2.8619,0,0,1,142.1,24.9538Z" fill="none"/></clipPath><clipPath id="u"><path d="M144.1406,39.8293l-5.9984-1.8422a2.66,2.66,0,0,1-1.0162-.6,5.0835,5.0835,0,0,1-1.39-3.8233,10.377,10.377,0,0,1,1.1717-5.0224,7.0735,7.0735,0,0,1,3.0526-3.3364l5.9985,1.8421a7.0725,7.0725,0,0,0-3.0526,3.3364,10.3773,10.3773,0,0,0-1.1718,5.0224,5.0841,5.0841,0,0,0,1.39,3.8234A2.6637,2.6637,0,0,0,144.1406,39.8293Z" fill="none"/></clipPath><clipPath id="v"><path d="M122.5942,56.0486l-5.9985-1.8421a4.1163,4.1163,0,0,0,.4273.1066,5.33,5.33,0,0,0,3.3784-.5387,10.6528,10.6528,0,0,0,3.6441-3.1131,17.1567,17.1567,0,0,0,3.3822-9.8628c-.0265-2.465-1.0314-3.6916-2.334-4.0916l5.9985,1.8421c1.3026.4,2.3075,1.6266,2.3339,4.0916a17.1553,17.1553,0,0,1-3.3822,9.8628A10.6508,10.6508,0,0,1,126.4,55.6165a5.3307,5.3307,0,0,1-3.3783.5388A4.1351,4.1351,0,0,1,122.5942,56.0486Z" fill="none"/></clipPath><clipPath id="w"><path d="M121.9944,37.0073a4.5754,4.5754,0,0,1,3.0993-.3l5.9984,1.8421a4.5755,4.5755,0,0,0-3.0993.3Z" fill="none"/></clipPath><clipPath id="x"><path d="M123.83,51.1655l-5.9984-1.8421a3.0235,3.0235,0,0,0,2.2545-.2347c3.5759-1.7441,6.1819-9.3431,1.8157-10.684L127.9,40.2469c4.3662,1.3408,1.76,8.94-1.8157,10.6839A3.0229,3.0229,0,0,1,123.83,51.1655Z" fill="none"/></clipPath><clipPath id="y"><path d="M116.5958,54.2065c-.0888-.0272-.1742-.0568-.2564-.0881l5.9985,1.8421c.0821.0313.1676.0609.2563.0881Z" fill="none"/></clipPath><clipPath id="z"><path d="M128.7439,31.93l5.9985,1.8421a3.3021,3.3021,0,0,0-1.66-.0252,8.5182,8.5182,0,0,0-1.3286.3877,5.4755,5.4755,0,0,0-.5065.2189,8.91,8.91,0,0,0-2.5249,1.8559,15.7915,15.7915,0,0,0-1.4931,1.9879l-5.9985-1.8421a15.7867,15.7867,0,0,1,1.4931-1.9879,8.911,8.911,0,0,1,2.5249-1.8559,5.5168,5.5168,0,0,1,.5065-.219,8.5292,8.5292,0,0,1,1.3286-.3877A3.302,3.302,0,0,1,128.7439,31.93Z" fill="none"/></clipPath><clipPath id="aa"><path d="M126.3386,40.0447,120.34,38.2026a5.5666,5.5666,0,0,1,1.4877-1.119c.0547-.0267.11-.0523.1665-.0763l5.9984,1.8421c-.0563.024-.1118.05-.1665.0763A5.5682,5.5682,0,0,0,126.3386,40.0447Z" fill="none"/></clipPath><clipPath id="ab"><path d="M126.3386,40.0447,120.34,38.2026a12.4789,12.4789,0,0,1,.8907-1.8475l5.9985,1.8421A12.4893,12.4893,0,0,0,126.3386,40.0447Z" fill="none"/></clipPath><clipPath id="ac"><polygon points="126.317 40.045 120.318 38.203 120.329 38.192 126.327 40.034 126.317 40.045" fill="none"/></clipPath><clipPath id="ad"><path d="M131.0284,24.2473,125.03,22.4052l.0564-.0152,5.9984,1.8421Z" fill="none"/></clipPath><clipPath id="ae"><path d="M131.0516,24.2551l-5.9985-1.8421-.0232-.0078,5.9985,1.8421Z" fill="none"/></clipPath><clipPath id="af"><path d="M123.0135,23.1823a10.5816,10.5816,0,0,1,2.0081-.7476l5.9984,1.8422a10.5768,10.5768,0,0,0-2.0081.7475,16.8909,16.8909,0,0,0-5.3987,4.4222,26.4594,26.4594,0,0,0-3.5634,5.5928,24.5829,24.5829,0,0,0-1.1278,2.75,24.8992,24.8992,0,0,0-1.34,6.9016c-.0482,1.5435-.123,7.509,3.4254,10.4643a4.6174,4.6174,0,0,0,1.33.805l-.7006-.2151-.7427-.2281-.7709-.2368-.7849-.241-.785-.2411-.7709-.2367-.7428-.2281-.7007-.2152a4.6174,4.6174,0,0,1-1.33-.805c-3.5485-2.9554-3.4737-8.9208-3.4255-10.4644a24.9056,24.9056,0,0,1,1.34-6.9015,24.6111,24.6111,0,0,1,1.1278-2.75,26.4588,26.4588,0,0,1,3.5635-5.5927A16.8875,16.8875,0,0,1,123.0135,23.1823Z" fill="none"/></clipPath><clipPath id="ag"><path d="M124.7871,22.3258l5.9985,1.8422a8.6167,8.6167,0,0,0-6.3818.736l-5.9984-1.8421A8.617,8.617,0,0,1,124.7871,22.3258Z" fill="none"/></clipPath><clipPath id="ah"><path d="M119.0874,62.42l-5.9985-1.8421c-4.03-1.2377-6.8606-5.9449-7.0668-12.8158a31.6338,31.6338,0,0,1,3.1253-14.2893c2.2493-4.7249,5.54-8.5973,9.258-10.4108l5.9984,1.8421c-3.7182,1.8135-7.0086,5.6859-9.2579,10.4108a31.6352,31.6352,0,0,0-3.1254,14.2893C112.2267,56.4751,115.0569,61.1822,119.0874,62.42Z" fill="none"/></clipPath></defs><title>Asset 2</title><g style="isolation:isolate"><path d="M23.9342,80.1417,24.44,258.506c26.3833,15.3322,69.2888,15.3218,95.8445-.01L119.779,80.1317C93.223,95.4638,50.3176,95.4742,23.9342,80.1417Z" fill="#c6c6c6"/><g clip-path="url(#a)"><path d="M38.7815,86.67a98.082,98.082,0,0,0,12.8251,3.1929c2.8392.5122,5.7259.9131,8.64,1.2034q3.7338.3718,7.5141.5007,3.4659.1185,6.94.032,3.3473-.0836,6.6754-.3572,3.3171-.2731,6.59-.7364,3.4-.4816,6.7216-1.1688,3.6-.7463,7.0729-1.7338c2.8288-.8062,5.5812-1.7329,8.2347-2.7807a73.6991,73.6991,0,0,0,9.7841-4.6908l.5056,178.3642a73.675,73.675,0,0,1-9.7838,4.6906c-2.6535,1.0478-5.4063,1.9745-8.2348,2.7807q-3.4667.9879-7.0732,1.7337-3.317.6872-6.7215,1.1692-3.2677.4631-6.59.7364-3.324.2738-6.6754.3571-3.4692.0861-6.94-.0322-3.7745-.1288-7.5144-.5007c-2.9139-.29-5.8-.6912-8.64-1.2031a98.146,98.146,0,0,1-12.8251-3.1929,76.59,76.59,0,0,1-14.847-6.529l-.5059-178.364A76.5781,76.5781,0,0,0,38.7815,86.67Z" fill="#c6c6c6"/></g></g><path d="M4.1429,66.9135c-.8281.4779-.8324,1.2429-.01,1.721L23.9342,80.1417c26.3834,15.3325,69.2888,15.3221,95.8448-.01l27.3289-15.7784,35.868-20.7085c.81-.4675.8324-1.2432.0279-1.71l-9.3246-5.419c-32.1609-18.69-84.5132-18.69-116.903.01Z" fill="#c6c6c6"/><path d="M3.67,68.2241l.0113.0167a1.4292,1.4292,0,0,0,.4522.3937L26.8166,80.1417,24.44,258.5057,4.6387,246.9988l-.0262-.0156a1.6661,1.6661,0,0,1-.2695-.1994,1.1973,1.1973,0,0,1-.1306-.1407c-.01-.0124-.0167-.0253-.026-.038l-.0109-.0167c-.0162-.0237-.0343-.0467-.0479-.0707a.8817.8817,0,0,1-.0556-.1187.7609.7609,0,0,1-.0334-.1173.704.704,0,0,1-.0139-.1194v-.0184L3.5189,67.78A.7866.7866,0,0,0,3.67,68.2241Z" fill="#c6c6c6"/><path d="M147.1079,64.3533l35.868-20.7085a1.0567,1.0567,0,0,0,.6194-.8719l.5058,178.364a1.0571,1.0571,0,0,1-.6194.8722l-35.8683,20.7085-27.3288,15.7783L119.779,80.1317Z" fill="#c6c6c6"/><g style="isolation:isolate"><g clip-path="url(#b)"><path d="M51.242,32.0033l.03,10.7194a98.6756,98.6756,0,0,1,13.1032-6.2816l-.03-10.7192A98.6574,98.6574,0,0,0,51.242,32.0033" fill="#444"/><path d="M64.3452,25.7219l.03,10.7192c3.5616-1.4061,7.2571-2.65,11.0559-3.7325L75.401,21.99c-3.7988,1.0823-7.4943,2.3264-11.0558,3.7324" fill="#464646"/><path d="M75.401,21.99l.03,10.7191q4.66-1.3282,9.5108-2.331l-.03-10.7194Q80.07,20.6617,75.401,21.99" fill="#494949"/><path d="M84.9118,19.6582l.03,10.7194q4.4663-.9257,9.0519-1.5744l-.03-10.7191q-4.5792.6489-9.052,1.5741" fill="#4b4b4b"/><path d="M93.9638,18.0841l.03,10.7191q4.4063-.6247,8.886-.9933l-.0306-10.7191q-4.4736.3688-8.8856.9933" fill="#4e4e4e"/><path d="M102.8494,17.0908,102.88,27.81q4.4839-.3691,9.0067-.4816l-.03-10.7192q-4.5168.1125-9.007.4817" fill="#515151"/><path d="M111.8564,16.6091l.03,10.7192q4.6824-.1164,9.367.0432l-.0306-10.7191q-4.6777-.16-9.3667-.0433" fill="#535353"/><path d="M121.2231,16.6524l.0306,10.7191q5.0937.1743,10.1409.6759l-.03-10.7191q-5.0384-.502-10.141-.6759" fill="#565656"/><path d="M131.3641,17.3283l.03,10.7191c3.9291.3915,7.8215.9319,11.649,1.6223l-.03-10.7192c-3.8278-.69-7.72-1.2311-11.6493-1.6222" fill="#585858"/><path d="M143.0134,18.9505l.03,10.7192a132.0662,132.0662,0,0,1,17.2655,4.2974l-.03-10.7192a132.0487,132.0487,0,0,0-17.2654-4.2974" fill="#5b5b5b"/><path d="M160.2788,23.2479l.03,10.7192a102.7423,102.7423,0,0,1,19.9178,8.7562l-.03-10.7194a102.7455,102.7455,0,0,0-19.9179-8.756" fill="#5e5e5e"/></g></g><polygon points="3.412 59.618 3.442 70.337 51.272 42.723 51.242 32.003 3.412 59.618" fill="#464646"/><polygon points="3.412 59.618 3.442 70.337 16.917 78.168 16.887 67.449 3.412 59.618" fill="#c5c5c5"/><polygon points="126.782 67.46 126.813 78.179 184.213 45.04 184.182 34.32 126.782 67.46" fill="#898989"/><g style="isolation:isolate"><g clip-path="url(#c)"><path d="M16.8867,67.449l.03,10.7192a87.5688,87.5688,0,0,0,16.9809,7.4651l-.03-10.7191A87.5711,87.5711,0,0,1,16.8867,67.449" fill="#b8b8b8"/><path d="M33.8679,74.9142l.03,10.7191a112.5551,112.5551,0,0,0,14.718,3.6636l-.03-10.7192a112.6094,112.6094,0,0,1-14.7179-3.6635" fill="#b3b3b3"/><path d="M48.5858,78.5777l.03,10.7192c3.2632.5883,6.5811,1.0492,9.93,1.3827l-.03-10.7192c-3.3493-.3335-6.6676-.7944-9.9305-1.3827" fill="#adadad"/><path d="M58.5163,79.96l.03,10.7192q4.2947.4276,8.6432.5762l-.03-10.7194q-4.3415-.1484-8.6433-.576" fill="#a8a8a8"/><path d="M67.16,80.5364l.03,10.7194q3.9868.1362,7.9835.0369l-.0306-10.7192q-3.9908.099-7.9831-.0371" fill="#a3a3a3"/><path d="M75.1427,80.5735l.0306,10.7192q3.8488-.0956,7.6756-.41l-.0306-10.7194q-3.8212.3147-7.6756.4107" fill="#9e9e9e"/><path d="M82.8183,80.1628l.0306,10.7194q3.8121-.3142,7.5718-.8462l-.03-10.7195q-3.7546.5322-7.5721.8463" fill="#999"/><path d="M90.39,79.3165l.03,10.7195q3.9017-.5531,7.7125-1.3415l-.03-10.7192q-3.8055.7882-7.7125,1.3412" fill="#949494"/><path d="M98.1029,77.9753l.03,10.7192q4.1247-.8548,8.1025-1.9857l-.0306-10.7195q-3.97,1.1316-8.1022,1.986" fill="#8f8f8f"/><path d="M106.2051,75.9893l.0306,10.7195c3.2358-.9221,6.384-1.982,9.4178-3.18L115.6229,72.81c-3.0338,1.1977-6.1817,2.2575-9.4178,3.1793" fill="#8a8a8a"/><path d="M115.6229,72.81l.0306,10.7192a84.0627,84.0627,0,0,0,11.16-5.35L126.7825,67.46a84.0576,84.0576,0,0,1-11.16,5.35" fill="#858585"/></g></g><path d="M3.4269,59.618l13.475,7.831c30.2047,17.5531,79.5119,17.5534,109.8958.0112l57.4-33.14-3.9859-2.3163C144.778,11.4121,86.9226,11.4118,51.257,32.0033Z" fill="#d8d8d8"/><path d="M181.9079,31.0158l5.6862,3.3047L128.4828,68.4483c-31.3406,18.0944-82.17,18.0838-113.3074-.0112L0,59.618,49.5416,31.0152C86.1458,9.8819,145.5418,9.8821,181.9079,31.0158ZM16.8867,67.449c30.2046,17.5531,79.5122,17.5531,109.8958.011l57.4-33.1395-3.9857-2.3166c-35.434-20.5918-93.2894-20.5921-128.9547-.0006l-47.83,27.615L16.8867,67.449" fill="#e6e7e8"/><path d="M15.1754,68.4371c1.7338,1.0074,3.5491,1.9384,5.3982,2.8337.4842.2343.9731.4629,1.4646.69,1.6789.7745,3.3923,1.5121,5.15,2.197.2217.0864.4344.183.6572.2677,1.87.7131,3.7959,1.3551,5.7424,1.9673,1.351.4249,2.7354.7987,4.1187,1.1754,1.0506.2863,2.09.5906,3.1568.8489,1.4548.352,2.9395.6451,4.4208.9449,1.0829.2193,2.152.4663,3.2473.6577.4563.08.9181.1447,1.3764.22q2.7472.45,5.5357.7826c.5413.0648,1.0806.1351,1.6239.1937,1.0659.1144,2.1425.1792,3.2145.2686,1.8067.1505,3.6166.283,5.4345.3623,1.1567.05,2.3152.0747,3.4742.0963,1.47.0271,2.9386.04,4.4084.02,1.2221-.0159,2.4428-.0525,3.663-.1006q2.0442-.08,4.08-.2182,1.8545-.1281,3.6988-.3079,2.0139-.1941,4.0117-.4482,1.8016-.2288,3.5872-.5053c1.4262-.2214,2.8406-.4715,4.2481-.739,1.1143-.2119,2.2247-.43,3.3254-.6713,1.6831-.3684,3.3388-.7858,4.9846-1.2216,1.0564-.28,2.1247-.54,3.1635-.8475.5618-.1666,1.1155-.345,1.6721-.52q2.4721-.776,4.8658-1.66c.4669-.172.9417-.3343,1.4034-.5127,1.45-.56,2.8476-1.181,4.2456-1.8018.6874-.3053,1.4-.5829,2.0741-.9028,2.0157-.9567,3.9772-1.971,5.8606-3.0583L187.5944,34.32l.03,10.7194L128.5134,79.1675c-1.8846,1.0878-3.8463,2.1024-5.8635,3.0594-.67.3182-1.3781.5941-2.0621.8979-1.1887.528-2.3589,1.0768-3.5857,1.5611-.2182.0862-.447.1585-.6664.2433-.4649.18-.942.3427-1.4121.5162q-2.3887.8816-4.856,1.6562c-.5592.1756-1.1141.3543-1.6787.5218-.369.1092-.7267.2352-1.0977.341-.6719.1913-1.3781.3242-2.0571.5041-1.65.4373-3.3065.8546-4.9936,1.2239-.44.096-.86.2277-1.3022.319-.663.1375-1.3473.2237-2.0148.3506-1.4113.2683-2.8263.5185-4.2562.74-.5638.0874-1.1129.2116-1.6793.292-.6293.0891-1.2718.1323-1.9039.2128q-2,.2538-4.0123.4482c-.6321.0611-1.2547.1591-1.8888.2113-.601.0495-1.2084.055-1.8108.0968q-2.0387.1406-4.0812.2182c-.6745.0265-1.3447.0914-2.02.1081-.5454.0135-1.0913-.015-1.6369-.0078-1.4753.02-2.9459.0072-4.4205-.02-.7238-.0135-1.4487.0144-2.1719-.01-.4321-.0147-.8584-.0671-1.29-.0861-1.8226-.0793-3.633-.2116-5.4443-.3626-.7232-.06-1.4547-.0733-2.1754-.145-.3462-.0346-.6874-.0862-1.0333-.1234-.5439-.0585-1.0827-.1288-1.6246-.1937q-2.787-.3337-5.5342-.7823c-.4592-.0752-.9209-.14-1.3784-.22-.2216-.0386-.4473-.0666-.6684-.1067-.8717-.1571-1.713-.3758-2.5766-.55-1.4827-.3-2.9666-.5932-4.4222-.9454-1.0677-.258-2.1045-.5624-3.1554-.8486-1.3847-.3768-2.7686-.7506-4.1213-1.1761-.2955-.0931-.6068-.1617-.9005-.2568q-2.4641-.7991-4.8433-1.7107c-.22-.0839-.4292-.1793-.6477-.2643-1.76-.6855-3.4745-1.4236-5.1552-2.1987-.4929-.2274-.982-.456-1.4674-.6912-1.8491-.8956-3.6636-1.826-5.3977-2.8335L.03,70.3372,0,59.618Z" fill="url(#d)"/><path d="M51.2512,58.2229l.03,10.7192c35.6656-20.5914,93.5025-20.6018,128.9362-.01l-.03-10.7191C144.7535,37.6211,86.9165,37.6315,51.2512,58.2229Z" fill="none"/><path d="M109.5514,42.9476q-2.321.0916-4.6333.2478C106.4608,43.0885,108.0026,43.0087,109.5514,42.9476Z" fill="none"/><path d="M116.2965,100.419l-.0006,0c.7861-.3041,1.5306-.6555,2.3019-.9769C117.8343,99.7719,117.0822,100.1152,116.2965,100.419Z" fill="none"/><path d="M74.154,48.5974c-.64.19-1.2714.3929-1.9052.592C72.8832,48.99,73.5133,48.7873,74.154,48.5974Z" fill="none"/><path d="M114.883,100.9355q-2.3866.8808-4.8531,1.6554h0q2.4662-.7743,4.8542-1.6556Z" fill="none"/><path d="M83.4343,46.24c-1.9131.4188-3.7953.8932-5.666,1.3887C79.6405,47.1328,81.52,46.659,83.4343,46.24Z" fill="none"/><path d="M108.3482,103.1132c-1.0353.3067-2.1.5658-3.1522.8446l-.002,0c1.0532-.2793,2.1183-.5384,3.1545-.8451Z" fill="none"/><path d="M159.2405,49.1635c-1.5331-.4819-3.104-.9059-4.6732-1.3334C156.1373,48.2576,157.7065,48.6813,159.2405,49.1635Z" fill="none"/><path d="M142.2363,45.0388c-.52-.0908-1.0469-.1652-1.57-.2505C141.19,44.8739,141.7157,44.9477,142.2363,45.0388Z" fill="none"/><path d="M150.9648,46.8619c-1.6464-.3981-3.3274-.73-5.0047-1.07C147.6382,46.1321,149.3175,46.4635,150.9648,46.8619Z" fill="none"/><path d="M134.354,43.8973c-.6067-.0726-1.2115-.1519-1.8205-.2173C133.1431,43.7454,133.7467,43.8247,134.354,43.8973Z" fill="none"/><path d="M118.7451,42.855c-1.6715-.0311-3.343-.0455-5.0154-.0233C115.4035,42.81,117.0722,42.8239,118.7451,42.855Z" fill="none"/><path d="M125.1141,43.0617c-.46-.0271-.9212-.0467-1.3821-.07C124.1932,43.0153,124.6535,43.0343,125.1141,43.0617Z" fill="none"/><path d="M40.8546,104.6259c-.4776-.1156-.9425-.2516-1.4124-.38.4744.1211.9356.2646,1.4132.38Z" fill="none"/><path d="M55.4339,107.2305q-2.7865-.3339-5.5351-.7823l-.0015,0q2.7486.45,5.5377.7829Z" fill="none"/><path d="M48.5224,106.2285c-1.0953-.1914-2.1644-.4387-3.247-.6577l-.0041-.0009c1.0844.2194,2.1549.4672,3.252.6589Z" fill="none"/><path d="M27.835,100.6338h0c.0836.0319.1729.0562.2568.0879C28.0079,100.69,27.9186,100.6657,27.835,100.6338Z" fill="none"/><path d="M20.5632,97.4792c-1.8488-.8953-3.6636-1.826-5.397-2.8334,1.734,1.0077,3.5494,1.9387,5.3984,2.834Z" fill="none"/><path d="M64.3916,62.657c3.5629-1.4066,7.26-2.651,11.06-3.7339q4.6623-1.3283,9.5135-2.3316,4.4667-.9252,9.0525-1.5747,4.4054-.6243,8.8845-.9927,4.4832-.3691,9.0041-.4816,4.6807-.1168,9.363.0432,5.0915.1738,10.1366.6756c3.9267.3909,7.8165.9314,11.6418,1.6211a131.9888,131.9888,0,0,1,17.2573,4.2954A107.647,107.647,0,0,1,174.6967,66L126.7735,93.669C96.39,111.2111,47.0821,111.2108,16.8777,93.6577l-4.189-2.4342L51.2815,68.9421A98.7433,98.7433,0,0,1,64.3916,62.657Z" fill="none"/><path d="M92.6278,106.592c-.3551.0551-.714.0986-1.07.1508.3563-.0522.7152-.0957,1.0709-.1511Z" fill="none"/><path d="M60.2743,53.7171c-.7788.3459-1.5853.66-2.3492,1.023C58.689,54.3775,59.4949,54.0633,60.2743,53.7171Z" fill="none"/><path d="M100.2011,105.1822c-1.098.24-2.2057.458-3.3171.67h-.0009c1.1123-.2116,2.2209-.43,3.32-.67Z" fill="none"/><path d="M60.2671,107.6925c-1.0694-.0891-2.1442-.1536-3.2078-.2681l-.0018,0c1.0651.1144,2.1408.1792,3.2119.2686Z" fill="none"/><path d="M66.7111,51.0792c-.5313.1962-1.072.3807-1.5975.5839C65.64,51.46,66.1793,51.2754,66.7111,51.0792Z" fill="none"/><path d="M3.4264,81.9369l7.551,4.3879,4.1888,2.4345c1.7334,1.0074,3.5482,1.9379,5.397,2.8334l.0014.0006c2.3466,1.1363,4.763,2.1982,7.27,3.154.0836.0317.1729.0565.2568.0879a107.0983,107.0983,0,0,0,11.35,3.5243c.47.128.9348.2643,1.4124.38l.0008,0c1.4537.3517,2.9352.6442,4.4159.9437l.0041.0009c1.0826.2193,2.1517.4664,3.247.658h.0009c.4557.08.9163.1445,1.374.2194h.0015q2.7471.45,5.5351.7826l.0011,0c.5413.0648,1.0792.1349,1.6225.1934l.0018,0c1.0636.1141,2.1384.1787,3.2078.268l.0023,0a137.9717,137.9717,0,0,0,31.2884-.95c.356-.0525.7149-.0957,1.07-.1508l.0009,0c1.4293-.2219,2.8437-.4718,4.2544-.74l.0009,0c1.1114-.2113,2.2191-.43,3.3171-.67l.0017-.0005c1.6865-.369,3.3422-.7864,4.9912-1.223l.002-.0006c1.0527-.279,2.1169-.5379,3.1522-.8446l0,0c.5655-.1674,1.1213-.3461,1.6814-.5223h0q2.4657-.7738,4.8531-1.655l.0011-.0006c.47-.1735.9469-.3364,1.4118-.516h.0006c.7857-.3038,1.5378-.6471,2.3013-.9768a85.8,85.8,0,0,0,9.8761-4.7851l48.0373-27.7344,3.6946-2.1333,7.3793-4.26.03,10.7191L128.5041,99.49c-1.8845,1.0878-3.8466,2.1025-5.8631,3.06-.67.3177-1.3764.5932-2.0595.8964-1.19.5284-2.3607,1.0778-3.5883,1.5623-.2185.0865-.4479.1591-.6679.2439-.4632.179-.9382.3415-1.4063.5142q-2.3927.8833-4.8638,1.6591c-.5578.175-1.1112.3531-1.6747.52-.3689.1095-.7269.2355-1.0985.3413-.6719.1914-1.3778.3243-2.0571.5041-1.65.4373-3.3062.8547-4.9936,1.2239-.44.0963-.86.2277-1.3023.3191-.6626.1375-1.3472.2237-2.0148.3505-1.4112.2683-2.8262.5185-4.2562.74-.5638.0873-1.1129.2118-1.6793.292-.6292.089-1.2714.1323-1.9038.2127-1.3334.1692-2.6683.3188-4.0123.4485-.6321.0608-1.2547.1588-1.8889.211-.6012.05-1.2092.0553-1.8122.0968q-2.0351.141-4.0745.2179c-.6763.0269-1.3482.0917-2.0249.1084-.5471.0136-1.0945-.0147-1.6416-.0075-1.4729.0193-2.9418.0067-4.4141-.02-.7247-.0136-1.45.0147-2.174-.01-.4317-.0147-.8583-.0672-1.29-.0859-1.8228-.08-3.6333-.2119-5.4444-.3629-.7232-.06-1.4547-.0732-2.1753-.145-.3468-.0346-.6886-.0862-1.0345-.1234-.5422-.0582-1.0792-.1282-1.62-.1931q-2.7912-.3342-5.542-.7834c-.4577-.075-.9183-.1395-1.374-.2191-.2217-.0389-.448-.0669-.669-.1069-.8688-.1568-1.7076-.3748-2.5686-.5491-1.4864-.3007-2.9741-.5944-4.4334-.9475-1.0639-.2574-2.0976-.5606-3.145-.8457-1.3873-.3776-2.7735-.752-4.1285-1.1783-.2952-.0928-.6068-.1614-.9-.2569q-2.4645-.7989-4.8436-1.7107c-.2191-.0836-.4278-.1784-.646-.2634-1.7614-.686-3.4773-1.4245-5.1595-2.2008-.4918-.2268-.98-.4548-1.464-.69-1.8494-.8953-3.6644-1.8257-5.3982-2.8334L.04,90.67.0089,79.9509Z" fill="url(#e)"/><path d="M3.4209,80.0729l9.2678,5.3858,4.189,2.4342c30.2044,17.5531,79.5119,17.5533,109.8958.0112l47.9232-27.6686L180.2,57.0582l3.9728-2.2939h3.4119l-7.3793,4.26-3.6946,2.1333L128.4739,88.8922c-1.884,1.0878-3.8461,2.1022-5.8623,3.0591-.6722.3191-1.3821.5958-2.0673.9-.641.2845-1.3005.5471-1.9465.8261-.7713.3214-1.5158.6728-2.3019.9766-.4649.1795-.9422.3427-1.4118.5162q-2.3869.8811-4.8542,1.6557c-.56.1755-1.1164.3548-1.6814.5223-1.0362.3067-2.1013.5658-3.1545.8451-1.6479.4367-3.3056.8546-4.9912,1.2233-1.0988.24-2.2074.4586-3.32.67-1.4092.268-2.8265.5182-4.2544.74-.3557.0553-.7146.0988-1.0709.151-.8362.1225-1.6718.2473-2.5132.354q-1.9988.2538-4.0126.4485-1.8448.1776-3.699.3078-2.0369.141-4.0818.2182c-1.2181.0482-2.4365.0845-3.6569.1006-1.4738.0193-2.947.0069-4.42-.02-1.155-.0214-2.3094-.0459-3.4621-.096-1.8211-.0793-3.633-.2116-5.4426-.3626-1.0711-.0894-2.1468-.1543-3.2119-.2687-.5427-.0582-1.0814-.1285-1.6225-.1934q-2.7882-.3342-5.5377-.7829c-.4574-.0749-.9186-.1392-1.374-.219-1.0971-.1917-2.1676-.44-3.252-.6589-1.48-.2992-2.9628-.5924-4.4159-.944-.4776-.1153-.9388-.2589-1.4132-.38-.58-.1586-1.1636-.3111-1.7438-.469-1.3836-.3767-2.7689-.7509-4.12-1.176-1.86-.5849-3.695-1.204-5.4861-1.8794-.0839-.0317-.1732-.0559-.2568-.0879-.2214-.0844-.4327-.18-.6526-.266-1.758-.6849-3.471-1.4222-5.15-2.1967q-.7385-.3408-1.4678-.6912c-1.849-.8953-3.6644-1.8263-5.3984-2.834l-4.1888-2.4342-7.551-4.3882L.0089,80.0729Z" fill="#e6e7e8"/><path d="M3.4264,102.2591l7.551,4.3882,4.1888,2.4343c1.7334,1.0074,3.5482,1.9381,5.397,2.8334l.0014.0006c2.3466,1.1362,4.763,2.1984,7.27,3.1539.0836.032.1729.0565.2568.0879a106.9592,106.9592,0,0,0,11.35,3.5243c.47.1283.9348.2644,1.4124.38h.0008c1.4537.3516,2.9352.6442,4.4159.9439l.0041.0009c1.0826.2191,2.1517.4664,3.247.6578l.0009,0c.4557.08.9163.1444,1.374.219l.0015,0q2.7471.4493,5.5351.7826h.0011c.5413.0649,1.0792.1352,1.6225.1937h.0018c1.0636.1144,2.1384.179,3.2078.2681l.0023,0a137.9544,137.9544,0,0,0,31.2884-.95c.356-.0522.7149-.0957,1.07-.1507l.0009,0c1.4293-.2217,2.8437-.4719,4.2544-.74h.0009c1.1114-.2115,2.2191-.4294,3.3171-.6695l.0017-.0006c1.6865-.369,3.3422-.7863,4.9912-1.2233l.002-.0006c1.0527-.2787,2.1169-.5379,3.1522-.8443l0,0c.5655-.1675,1.1213-.3465,1.6814-.5223h0q2.4657-.774,4.8531-1.6554l.0011,0c.47-.1735.9469-.3364,1.4118-.516l.0006,0c.7857-.3036,1.5378-.6471,2.3013-.9766a85.8017,85.8017,0,0,0,9.8761-4.7854l48.0373-27.7344,3.6946-2.1333,7.3793-4.26.03,10.7192-59.1113,34.1278c-1.8845,1.0882-3.8466,2.1028-5.8631,3.06-.67.3177-1.3764.5932-2.0595.8965-1.19.5286-2.3607,1.0777-3.5883,1.5622-.2185.0865-.4479.1592-.6679.2442-.4632.179-.9382.3413-1.4063.5139q-2.3927.8834-4.8638,1.6591c-.5578.1753-1.1112.3534-1.6747.52-.3689.1093-.7269.2352-1.0985.341-.6719.1917-1.3778.3243-2.0571.5044-1.65.437-3.3062.8547-4.9936,1.2236-.44.0963-.86.228-1.3023.3194-.6626.1375-1.3472.2237-2.0148.35-1.4112.2683-2.8262.5183-4.2562.74-.5638.0873-1.1129.2119-1.6793.292-.6292.0893-1.2714.1326-1.9038.2127-1.3334.1692-2.6683.3188-4.0123.4485-.6321.0611-1.2547.1588-1.8889.211-.6012.05-1.2092.0554-1.8122.0971q-2.0351.1406-4.0745.218c-.6763.0268-1.3482.0913-2.0249.1083-.5471.0136-1.0945-.0147-1.6416-.0075-1.4729.0191-2.9418.0067-4.4141-.0207-.7247-.0133-1.45.015-2.174-.01-.4317-.0147-.8583-.0672-1.29-.0859-1.8228-.0793-3.6333-.2119-5.4444-.3629-.7232-.06-1.4547-.0729-2.1753-.1447-.3468-.0346-.6886-.0865-1.0345-.1234-.5422-.0582-1.0792-.1285-1.62-.1931q-2.7912-.3347-5.542-.7834c-.4577-.075-.9183-.1395-1.374-.2194-.2217-.0386-.448-.0668-.669-.1066-.8688-.1568-1.7076-.375-2.5686-.5491-1.4864-.3007-2.9741-.5947-4.4334-.9478-1.0639-.2574-2.0976-.56-3.145-.8457-1.3873-.3776-2.7735-.7517-4.1285-1.178-.2952-.0928-.6068-.1617-.9-.2568q-2.4645-.799-4.8436-1.711c-.2191-.0836-.4278-.1785-.646-.2635-1.7614-.6857-3.4773-1.4245-5.1595-2.2-.4918-.2272-.98-.4552-1.464-.69-1.8494-.8956-3.6644-1.826-5.3982-2.8337L.04,110.9926.0089,100.2734Z" fill="url(#f)"/><path d="M3.4209,100.2734l9.2678,5.3859,4.189,2.4344c30.2044,17.5528,79.5119,17.5531,109.8958.011L174.6967,80.436,180.2,77.2588l3.9728-2.2939h3.4119l-7.3793,4.26-3.6946,2.1333-48.0373,27.7344c-1.884,1.0878-3.8461,2.1021-5.8623,3.0591-.6722.3191-1.3821.5958-2.0673.9-.641.2845-1.3005.5474-1.9465.8261-.7713.3214-1.5158.673-2.3019.9768-.4649.1793-.9422.3428-1.4118.516q-2.3869.8811-4.8542,1.6557c-.56.1755-1.1164.3548-1.6814.5223-1.0362.3066-2.1013.5658-3.1545.8451-1.6479.4367-3.3056.8546-4.9912,1.2233-1.0988.24-2.2074.4586-3.32.67-1.4092.2681-2.8265.5183-4.2544.74-.3557.0553-.7146.0988-1.0709.151-.8362.1225-1.6718.2473-2.5132.354q-1.9988.2538-4.0126.4485-1.8448.1776-3.699.3078-2.0369.141-4.0818.2182c-1.2181.0481-2.4365.0845-3.6569.1006-1.4738.0193-2.947.0069-4.42-.02-1.155-.0213-2.3094-.0458-3.4621-.0959-1.8211-.0793-3.633-.2116-5.4426-.3627-1.0711-.0893-2.1468-.1542-3.2119-.2683-.5427-.0585-1.0814-.1288-1.6225-.1937q-2.7882-.3342-5.5377-.7829c-.4574-.0749-.9186-.1392-1.374-.219-1.0971-.1917-2.1676-.4393-3.252-.659-1.48-.2992-2.9628-.5923-4.4159-.9439-.4776-.1153-.9388-.2589-1.4132-.38-.58-.1585-1.1636-.311-1.7438-.4689-1.3836-.3768-2.7689-.7509-4.12-1.1761-1.86-.5848-3.695-1.2039-5.4861-1.8793-.0839-.0314-.1732-.0559-.2568-.0879-.2214-.0845-.4327-.18-.6526-.2661-1.758-.6848-3.471-1.4221-5.15-2.1966q-.7385-.3408-1.4678-.6912c-1.849-.8953-3.6644-1.8264-5.3984-2.834l-4.1888-2.4343-7.551-4.3882L.0089,100.2734Z" fill="#e6e7e8"/><path d="M3.4264,122.5817l7.551,4.3879,4.1888,2.4345c1.7334,1.0074,3.5482,1.9378,5.397,2.8331l.0014.0009c2.3466,1.1362,4.763,2.1981,7.27,3.1539.0836.0317.1729.0565.2568.0879a107.0513,107.0513,0,0,0,11.35,3.5241c.47.1282.9348.2646,1.4124.38l.0008,0c1.4537.3516,2.9352.6442,4.4159.9437l.0041.0008c1.0826.2194,2.1517.4664,3.247.6578l.0009,0c.4557.08.9163.1444,1.374.2193h.0015q2.7471.45,5.5351.7826l.0011,0c.5413.0649,1.0792.1349,1.6225.1934l.0018,0c1.0636.1142,2.1384.1787,3.2078.2681h.0023a137.96,137.96,0,0,0,31.2884-.95c.356-.0524.7149-.096,1.07-.151h.0009c1.4293-.222,2.8437-.4719,4.2544-.74l.0009,0c1.1114-.2116,2.2191-.43,3.3171-.67l.0017-.0006c1.6865-.3689,3.3422-.7863,4.9912-1.2233l.002,0c1.0527-.279,2.1169-.5378,3.1522-.8445l0,0c.5655-.1675,1.1213-.3462,1.6814-.5223h0q2.4657-.774,4.8531-1.6554l.0011,0c.47-.1735.9469-.3364,1.4118-.5159l.0006,0c.7857-.3035,1.5378-.6468,2.3013-.9766a85.7839,85.7839,0,0,0,9.8761-4.7851l48.0373-27.7344,3.6946-2.1332,7.3793-4.26.03,10.7192-59.1113,34.1279c-1.8845,1.0878-3.8466,2.1024-5.8631,3.06-.67.3176-1.3764.5932-2.0595.8964-1.19.5283-2.3607,1.0777-3.5883,1.5623-.2185.0864-.4479.1591-.6679.2438-.4632.179-.9382.3413-1.4063.5142q-2.3927.8833-4.8638,1.6589c-.5578.1752-1.1112.3534-1.6747.52-.3689.11-.7269.2355-1.0985.3413-.6719.1914-1.3778.3243-2.0571.5042-1.65.4372-3.3062.8546-4.9936,1.2238-.44.096-.86.2277-1.3023.3191-.6626.1375-1.3472.2237-2.0148.3505-1.4112.2684-2.8262.5186-4.2562.74-.5638.0874-1.1129.2116-1.6793.292-.6292.0891-1.2714.1323-1.9038.2127-1.3334.1692-2.6683.3188-4.0123.4482-.6321.0612-1.2547.1592-1.8889.2113-.6012.05-1.2092.0554-1.8122.0969q-2.0351.1406-4.0745.2179c-.6763.0268-1.3482.0916-2.0249.1084-.5471.0135-1.0945-.0147-1.6416-.0075-1.4729.0193-2.9418.0066-4.4141-.02-.7247-.0135-1.45.0147-2.174-.01-.4317-.0147-.8583-.0671-1.29-.0862-1.8228-.0792-3.6333-.2115-5.4444-.3626-.7232-.06-1.4547-.0732-2.1753-.145-.3468-.0345-.6886-.0861-1.0345-.1233-.5422-.0583-1.0792-.1283-1.62-.1931q-2.7912-.3343-5.542-.7835c-.4577-.0749-.9183-.1395-1.374-.2191-.2217-.0389-.448-.0668-.669-.1069-.8688-.1568-1.7076-.375-2.5686-.5491-1.4864-.3006-2.9741-.5944-4.4334-.9474-1.0639-.2574-2.0976-.5607-3.145-.8458-1.3873-.3778-2.7735-.752-4.1285-1.1783-.2952-.0928-.6068-.1617-.9-.2568q-2.4645-.799-4.8436-1.7107c-.2191-.0836-.4278-.1784-.646-.2635-1.7614-.686-3.4773-1.4245-5.1595-2.2007-.4918-.2269-.98-.4549-1.464-.69-1.8494-.8953-3.6644-1.8257-5.3982-2.8337L.04,131.3148.0089,120.5957Z" fill="url(#g)"/><path d="M3.4209,120.5957l9.2678,5.3861,4.189,2.4342c30.2044,17.5531,79.5119,17.5533,109.8958.0109l47.9232-27.6683L180.2,97.581l3.9728-2.2936h3.4119l-7.3793,4.26-3.6946,2.1332-48.0373,27.7344c-1.884,1.0878-3.8461,2.1022-5.8623,3.0591-.6722.3188-1.3821.5955-2.0673.9-.641.2848-1.3005.5474-1.9465.8261-.7713.3214-1.5158.6731-2.3019.9769-.4649.1795-.9422.3427-1.4118.5159q-2.3869.8813-4.8542,1.6557c-.56.1755-1.1164.3548-1.6814.5223-1.0362.307-2.1013.5661-3.1545.8451-1.6479.4367-3.3056.8549-4.9912,1.2233-1.0988.24-2.2074.4586-3.32.67-1.4092.268-2.8265.5182-4.2544.74-.3557.055-.7146.0986-1.0709.151-.8362.1222-1.6718.247-2.5132.354q-1.9988.2538-4.0126.4482-1.8448.1782-3.699.3078-2.0369.141-4.0818.2185c-1.2181.0482-2.4365.0845-3.6569.1-1.4738.02-2.947.007-4.42-.02-1.155-.0217-2.3094-.0462-3.4621-.0963-1.8211-.0793-3.633-.2116-5.4426-.3626-1.0711-.0894-2.1468-.1539-3.2119-.2684-.5427-.0585-1.0814-.1285-1.6225-.1934q-2.7882-.3342-5.5377-.7829c-.4574-.0749-.9186-.1395-1.374-.2193-1.0971-.1917-2.1676-.4393-3.252-.6589-1.48-.2992-2.9628-.5924-4.4159-.9437-.4776-.1156-.9388-.2589-1.4132-.38-.58-.1586-1.1636-.311-1.7438-.469-1.3836-.3767-2.7689-.7506-4.12-1.1757-1.86-.5852-3.695-1.2043-5.4861-1.8794-.0839-.0317-.1732-.0562-.2568-.0879-.2214-.0844-.4327-.18-.6526-.2663-1.758-.6846-3.471-1.4222-5.15-2.1967-.4923-.2272-.9826-.4563-1.4678-.6909-1.849-.8956-3.6644-1.8266-5.3984-2.834L10.9774,126.97l-7.551-4.3879-3.4175-1.986Z" fill="#e6e7e8"/><path d="M3.4264,142.9039l7.551,4.3882,4.1888,2.4342c1.7334,1.0074,3.5482,1.9381,5.397,2.8334l.0014.0006c2.3466,1.1362,4.763,2.1984,7.27,3.1539.0836.032.1729.0565.2568.088a107.0519,107.0519,0,0,0,11.35,3.5243c.47.1283.9348.2643,1.4124.38h.0008c1.4537.3516,2.9352.6442,4.4159.944l.0041.0009c1.0826.219,2.1517.4663,3.247.6577l.0009,0c.4557.08.9163.1444,1.374.2191l.0015,0q2.7471.4491,5.5351.7823l.0011,0c.5413.0649,1.0792.1352,1.6225.1934l.0018,0c1.0636.1145,2.1384.179,3.2078.2681l.0023,0a137.9544,137.9544,0,0,0,31.2884-.95c.356-.0521.7149-.0957,1.07-.1507l.0009,0c1.4293-.2217,2.8437-.4718,4.2544-.74h.0009c1.1114-.2116,2.2191-.4295,3.3171-.67l.0017-.0006c1.6865-.3689,3.3422-.7866,4.9912-1.2233l.002-.0006c1.0527-.2787,2.1169-.5378,3.1522-.8445h0c.5655-.1675,1.1213-.3465,1.6814-.5223h0q2.4657-.7739,4.8531-1.6554l.0011,0c.47-.1735.9469-.3363,1.4118-.5162h.0006c.7857-.3038,1.5378-.6471,2.3013-.9766a85.7853,85.7853,0,0,0,9.8761-4.7854l48.0373-27.7343,3.6946-2.1333,7.3793-4.26.03,10.7191-59.1113,34.1279c-1.8845,1.0881-3.8466,2.1027-5.8631,3.06-.67.3176-1.3764.5932-2.0595.8964-1.19.5286-2.3607,1.0778-3.5883,1.5623-.2185.0865-.4479.1591-.6679.2441-.4632.179-.9382.3413-1.4063.514q-2.3927.8832-4.8638,1.6591c-.5578.1752-1.1112.3531-1.6747.52-.3689.1092-.7269.2352-1.0985.341-.6719.1916-1.3778.3242-2.0571.5041-1.65.4373-3.3062.8549-4.9936,1.2239-.44.0962-.86.2277-1.3023.3193-.6626.1375-1.3472.2237-2.0148.35-1.4112.2681-2.8262.5183-4.2562.74-.5638.0874-1.1129.2119-1.6793.292-.6292.0894-1.2714.1326-1.9038.2128-1.3334.1692-2.6683.3188-4.0123.4485-.6321.0611-1.2547.1588-1.8889.211-.6012.0495-1.2092.0553-1.8122.0971q-2.0351.1406-4.0745.2179c-.6763.0268-1.3482.0914-2.0249.1084-.5471.0135-1.0945-.0147-1.6416-.0075-1.4729.019-2.9418.0066-4.4141-.0208-.7247-.0132-1.45.0147-2.174-.01-.4317-.0147-.8583-.0671-1.29-.0858-1.8228-.0793-3.6333-.2119-5.4444-.3629-.7232-.06-1.4547-.0733-2.1753-.145-.3468-.0343-.6886-.0862-1.0345-.1231-.5422-.0582-1.0792-.1286-1.62-.1934q-2.7912-.3342-5.542-.7832c-.4577-.0749-.9183-.1395-1.374-.2193-.2217-.0387-.448-.0669-.669-.1067-.8688-.1568-1.7076-.375-2.5686-.5491-1.4864-.3006-2.9741-.5946-4.4334-.9477-1.0639-.2574-2.0976-.56-3.145-.8457-1.3873-.3776-2.7735-.7518-4.1285-1.1781-.2952-.0928-.6068-.1617-.9-.2568q-2.4645-.799-4.8436-1.711c-.2191-.0836-.4278-.1784-.646-.2635-1.7614-.6857-3.4773-1.4244-5.1595-2.2007-.4918-.2268-.98-.4548-1.464-.6895-1.8494-.8955-3.6644-1.826-5.3982-2.8337L.04,151.6373.0089,140.9182Z" fill="url(#h)"/><path d="M3.4209,140.9182l9.2678,5.3858,4.189,2.4342c30.2044,17.5531,79.5119,17.5534,109.8958.0112l47.9232-27.6686,5.5037-3.1773,3.9728-2.2938h3.4119l-7.3793,4.26-3.6946,2.1333-48.0373,27.7343c-1.884,1.0879-3.8461,2.1022-5.8623,3.0592-.6722.319-1.3821.5957-2.0673.9-.641.2845-1.3005.5471-1.9465.8261-.7713.3214-1.5158.6728-2.3019.9766-.4649.18-.9422.3427-1.4118.5162q-2.3869.8812-4.8542,1.6557c-.56.1755-1.1164.3548-1.6814.5223-1.0362.3067-2.1013.5658-3.1545.8451-1.6479.4367-3.3056.8547-4.9912,1.2233-1.0988.24-2.2074.4586-3.32.67-1.4092.2681-2.8265.5182-4.2544.74-.3557.0553-.7146.0989-1.0709.151-.8362.1225-1.6718.2474-2.5132.354q-1.9988.2538-4.0126.4485-1.8448.1778-3.699.3079-2.0369.1409-4.0818.2182c-1.2181.0481-2.4365.0844-3.6569.1-1.4738.0194-2.947.007-4.42-.02-1.155-.0213-2.3094-.0458-3.4621-.096-1.8211-.0793-3.633-.2116-5.4426-.3626-1.0711-.0894-2.1468-.1542-3.2119-.2687-.5427-.0582-1.0814-.1285-1.6225-.1934q-2.7882-.3342-5.5377-.7828c-.4574-.075-.9186-.1392-1.374-.2191-1.0971-.1917-2.1676-.44-3.252-.6589-1.48-.2992-2.9628-.5924-4.4159-.944-.4776-.1153-.9388-.2588-1.4132-.38-.58-.1585-1.1636-.311-1.7438-.469-1.3836-.3767-2.7689-.7509-4.12-1.176-1.86-.5849-3.695-1.204-5.4861-1.8793-.0839-.0318-.1732-.056-.2568-.088-.2214-.0844-.4327-.18-.6526-.266-1.758-.6849-3.471-1.4222-5.15-2.1967q-.7385-.3406-1.4678-.6912c-1.849-.8953-3.6644-1.8263-5.3984-2.834l-4.1888-2.4342-7.551-4.3882L.0089,140.9182Z" fill="#e6e7e8"/><path d="M3.4264,163.2264l7.551,4.3879,4.1888,2.4345c1.7334,1.0074,3.5482,1.9379,5.397,2.8331l.0014.0009c2.3466,1.136,4.763,2.1981,7.27,3.154.0836.0317.1729.0565.2568.0879a107.0279,107.0279,0,0,0,11.35,3.524c.47.1283.9348.2646,1.4124.38l.0008,0c1.4537.3517,2.9352.6442,4.4159.9437l.0041.0009c1.0826.2193,2.1517.4664,3.247.6577l.0009,0c.4557.08.9163.1444,1.374.2191l.0015,0q2.7471.45,5.5351.7826l.0011,0c.5413.0648,1.0792.1349,1.6225.1934l.0018,0c1.0636.1141,2.1384.1787,3.2078.268h.0023a137.9544,137.9544,0,0,0,31.2884-.95c.356-.0522.7149-.0957,1.07-.1508h.0009c1.4293-.2219,2.8437-.4718,4.2544-.74l.0009,0c1.1114-.2116,2.2191-.43,3.3171-.67l.0017-.0005c1.6865-.369,3.3422-.7864,4.9912-1.2233l.002,0c1.0527-.2791,2.1169-.5379,3.1522-.8446l0,0c.5655-.1674,1.1213-.3464,1.6814-.5223h0q2.4657-.7738,4.8531-1.6553l.0011,0c.47-.1736.9469-.3364,1.4118-.516l.0006,0c.7857-.3035,1.5378-.6471,2.3013-.9765a85.8,85.8,0,0,0,9.8761-4.7851l48.0373-27.7344,3.6946-2.1333,7.3793-4.26.03,10.7194-59.1113,34.1279c-1.8845,1.0878-3.8466,2.1024-5.8631,3.0594-.67.3179-1.3764.5935-2.0595.8967-1.19.5284-2.3607,1.0778-3.5883,1.5623-.2185.0862-.4479.1588-.6679.2439-.4632.179-.9382.3412-1.4063.5142q-2.3927.8834-4.8638,1.6588c-.5578.1753-1.1112.3534-1.6747.52-.3689.1095-.7269.2355-1.0985.3413-.6719.1914-1.3778.3242-2.0571.5041-1.65.4373-3.3062.8546-4.9936,1.2236-.44.0963-.86.228-1.3023.3194-.6626.1375-1.3472.2236-2.0148.3505-1.4112.2683-2.8262.5185-4.2562.74-.5638.0876-1.1129.2118-1.6793.2922-.6292.0891-1.2714.1324-1.9038.2128-1.3334.1692-2.6683.3188-4.0123.4482-.6321.0611-1.2547.1588-1.8889.2113-.6012.0495-1.2092.055-1.8122.0968q-2.0351.1406-4.0745.2179c-.6763.0268-1.3482.0917-2.0249.1084-.5471.0136-1.0945-.0147-1.6416-.0075-1.4729.0193-2.9418.0066-4.4141-.02-.7247-.0136-1.45.0147-2.174-.01-.4317-.0147-.8583-.0672-1.29-.0862-1.8228-.0793-3.6333-.2116-5.4444-.3626-.7232-.0606-1.4547-.0732-2.1753-.145-.3468-.0346-.6886-.0862-1.0345-.1234-.5422-.0582-1.0792-.1285-1.62-.1931q-2.7912-.3342-5.542-.7834c-.4577-.075-.9183-.14-1.374-.2194-.2217-.0386-.448-.0666-.669-.1067-.8688-.1568-1.7076-.375-2.5686-.5491-1.4864-.3006-2.9741-.5943-4.4334-.9474-1.0639-.2574-2.0976-.5606-3.145-.8457-1.3873-.3779-2.7735-.752-4.1285-1.1783-.2952-.0929-.6068-.1617-.9-.2569q-2.4645-.7989-4.8436-1.711c-.2191-.0833-.4278-.1781-.646-.2631-1.7614-.6861-3.4773-1.4245-5.1595-2.2008-.4918-.2268-.98-.4548-1.464-.69-1.8494-.8953-3.6644-1.826-5.3982-2.8337L.04,171.96.0089,161.24Z" fill="url(#i)"/><path d="M3.4209,161.24l9.2678,5.3858,4.189,2.4345c30.2044,17.5531,79.5119,17.5534,109.8958.011l47.9232-27.6684,5.5037-3.1776,3.9728-2.2938h3.4119l-7.3793,4.26-3.6946,2.1333L128.4739,170.06c-1.884,1.0878-3.8461,2.1021-5.8623,3.0591-.6722.3188-1.3821.5955-2.0673.9-.641.2847-1.3005.5473-1.9465.8261-.7713.3214-1.5158.673-2.3019.9768-.4649.18-.9422.3427-1.4118.516q-2.3869.8811-4.8542,1.6556c-.56.1756-1.1164.3549-1.6814.5223-1.0362.307-2.1013.5661-3.1545.8452-1.6479.4366-3.3056.8546-4.9912,1.2233-1.0988.24-2.2074.4585-3.32.67-1.4092.2681-2.8265.5183-4.2544.74-.3557.0551-.7146.0986-1.0709.1508-.8362.1225-1.6718.2473-2.5132.3539q-1.9988.2542-4.0126.4485-1.8448.1782-3.699.3079-2.0369.1409-4.0818.2185c-1.2181.0478-2.4365.0844-3.6569.1-1.4738.0193-2.947.0069-4.42-.02-1.155-.0216-2.3094-.0461-3.4621-.0963-1.8211-.0792-3.633-.2115-5.4426-.3626-1.0711-.0893-2.1468-.1539-3.2119-.2683-.5427-.0585-1.0814-.1286-1.6225-.1934q-2.7882-.3344-5.5377-.7832c-.4574-.0749-.9186-.1392-1.374-.2191-1.0971-.1916-2.1676-.4392-3.252-.6589-1.48-.2992-2.9628-.5923-4.4159-.9437-.4776-.1156-.9388-.2588-1.4132-.38-.58-.1585-1.1636-.311-1.7438-.469-1.3836-.3767-2.7689-.75-4.12-1.1757-1.86-.5851-3.695-1.2043-5.4861-1.8793-.0839-.0317-.1732-.0562-.2568-.0879-.2214-.0845-.4327-.18-.6526-.2664-1.758-.6846-3.471-1.4222-5.15-2.1967q-.7385-.3407-1.4678-.6909c-1.849-.8956-3.6644-1.8266-5.3984-2.834l-4.1888-2.4345-7.551-4.3879L.0089,161.24Z" fill="#e6e7e8"/><path d="M3.4264,183.5486l7.551,4.3882,4.1888,2.4342c1.7334,1.0074,3.5482,1.9382,5.397,2.8335l.0014.0005c2.3466,1.1363,4.763,2.1985,7.27,3.154.0836.032.1729.0565.2568.0879a107.0287,107.0287,0,0,0,11.35,3.5243c.47.1283.9348.2644,1.4124.38h.0008c1.4537.3517,2.9352.6443,4.4159.944l.0041.0009c1.0826.2191,2.1517.4664,3.247.6578h.0009c.4557.08.9163.1447,1.374.2193l.0015,0q2.7471.4493,5.5351.7823l.0011,0c.5413.0648,1.0792.1352,1.6225.1934l.0018,0c1.0636.1144,2.1384.179,3.2078.268l.0023,0a137.9544,137.9544,0,0,0,31.2884-.95c.356-.0522.7149-.0957,1.07-.1508l.0009,0c1.4293-.2216,2.8437-.4718,4.2544-.74l.0009,0c1.1114-.2112,2.2191-.4291,3.3171-.6695l.0017,0c1.6865-.369,3.3422-.7866,4.9912-1.2233l.002-.0006c1.0527-.2787,2.1169-.5379,3.1522-.8446h0c.5655-.1674,1.1213-.3464,1.6814-.5223h0q2.4657-.7743,4.8531-1.6553l.0011,0c.47-.1735.9469-.3364,1.4118-.5163h.0006c.7857-.3038,1.5378-.6471,2.3013-.9765a85.8511,85.8511,0,0,0,9.8761-4.7854l48.0373-27.7344,3.6946-2.1333,7.3793-4.26.03,10.7192-59.1113,34.1278c-1.8845,1.0881-3.8466,2.1028-5.8631,3.06-.67.3177-1.3764.5932-2.0595.8965-1.19.5286-2.3607,1.0777-3.5883,1.5622-.2185.0865-.4479.1591-.6679.2442-.4632.1787-.9382.3412-1.4063.5139q-2.3927.8834-4.8638,1.6591c-.5578.1753-1.1112.3531-1.6747.52-.3689.1092-.7269.2352-1.0985.341-.6719.1917-1.3778.3243-2.0571.5041-1.65.4373-3.3062.8547-4.9936,1.2239-.44.0963-.86.2277-1.3023.3194-.6626.1372-1.3472.2234-2.0148.3505-1.4112.268-2.8262.5182-4.2562.74-.5638.0873-1.1129.2118-1.6793.292-.6292.0893-1.2714.1326-1.9038.2127-1.3334.1692-2.6683.3188-4.0123.4485-.6321.0611-1.2547.1588-1.8889.211-.6012.05-1.2092.0553-1.8122.0971q-2.0351.1406-4.0745.2179c-.6763.0269-1.3482.0914-2.0249.1084-.5471.0136-1.0945-.015-1.6416-.0078-1.4729.0194-2.9418.007-4.4141-.02-.7247-.0133-1.45.0147-2.174-.01-.4317-.0147-.8583-.0672-1.29-.0859-1.8228-.0793-3.6333-.2119-5.4444-.3629-.7232-.06-1.4547-.0732-2.1753-.145-.3468-.0343-.6886-.0862-1.0345-.1234-.5422-.0582-1.0792-.1282-1.62-.1931q-2.7912-.3342-5.542-.7834c-.4577-.075-.9183-.1395-1.374-.2191-.2217-.0386-.448-.0669-.669-.1069-.8688-.1565-1.7076-.3747-2.5686-.5488-1.4864-.301-2.9741-.5947-4.4334-.9478-1.0639-.2574-2.0976-.56-3.145-.8457-1.3873-.3776-2.7735-.7517-4.1285-1.178-.2952-.0931-.6068-.1617-.9-.2568q-2.4645-.8-4.8436-1.7111c-.2191-.0835-.4278-.1784-.646-.2634-1.7614-.686-3.4773-1.4245-5.1595-2.2007-.4918-.2269-.98-.4549-1.464-.6895-1.8494-.8956-3.6644-1.826-5.3982-2.8337L.04,192.2821.0089,181.5629Z" fill="url(#j)"/><path d="M3.4209,181.5629l9.2678,5.3858,4.189,2.4342c30.2044,17.5531,79.5119,17.5534,109.8958.0113l47.9232-27.6687,5.5037-3.1773,3.9728-2.2938h3.4119l-7.3793,4.26-3.6946,2.1333-48.0373,27.7344c-1.884,1.0878-3.8461,2.1021-5.8623,3.0591-.6722.3191-1.3821.5958-2.0673.9-.641.2845-1.3005.5471-1.9465.8261-.7713.3214-1.5158.6727-2.3019.9765-.4649.18-.9422.3428-1.4118.5163q-2.3869.8811-4.8542,1.6556c-.56.1756-1.1164.3549-1.6814.5223-1.0362.3067-2.1013.5659-3.1545.8452-1.6479.4367-3.3056.8546-4.9912,1.2233-1.0988.24-2.2074.4586-3.32.67-1.4092.2681-2.8265.5183-4.2544.74-.3557.0554-.7146.0989-1.0709.1511-.8362.1225-1.6718.247-2.5132.3539q-1.9988.2538-4.0126.4486-1.8448.1776-3.699.3078c-1.3579.094-2.7187.1643-4.0818.2182-1.2181.0481-2.4365.0845-3.6569.1006-1.4738.0193-2.947.0069-4.42-.02-1.155-.0213-2.3094-.0458-3.4621-.096-1.8211-.0795-3.633-.2118-5.4426-.3626-1.0711-.0893-2.1468-.1542-3.2119-.2686-.5427-.0582-1.0814-.1286-1.6225-.1934q-2.7882-.3342-5.5377-.7829c-.4574-.0749-.9186-.1392-1.374-.2193-1.0971-.1914-2.1676-.4393-3.252-.6587-1.48-.2995-2.9628-.5923-4.4159-.944-.4776-.1153-.9388-.2588-1.4132-.38-.58-.1585-1.1636-.311-1.7438-.4689-1.3836-.3768-2.7689-.7509-4.12-1.1761-1.86-.5848-3.695-1.204-5.4861-1.8793-.0839-.0317-.1732-.0559-.2568-.0879-.2214-.0845-.4327-.18-.6526-.2661-1.758-.6848-3.471-1.4224-5.15-2.1967q-.7385-.3407-1.4678-.6912c-1.849-.8952-3.6644-1.8263-5.3984-2.834l-4.1888-2.4342-7.551-4.3882L.0089,181.5629Z" fill="#e6e7e8"/><path d="M3.4264,203.8712l7.551,4.3879,4.1888,2.4345c1.7334,1.0071,3.5482,1.9378,5.397,2.8331l.0014.0009c2.3466,1.1359,4.763,2.1981,7.27,3.1536.0836.032.1729.0565.2568.0882a107.0513,107.0513,0,0,0,11.35,3.5241c.47.1282.9348.2646,1.4124.38l.0008,0c1.4537.3516,2.9352.6442,4.4159.9437l.0041.0008c1.0826.2194,2.1517.4664,3.247.6578l.0009,0c.4557.0795.9163.1444,1.374.219l.0015,0q2.7471.4492,5.5351.7826h.0011c.5413.0652,1.0792.1352,1.6225.1937h.0018c1.0636.1144,2.1384.179,3.2078.2684h.0023a137.96,137.96,0,0,0,31.2884-.95c.356-.0522.7149-.0957,1.07-.1507h.0009c1.4293-.222,2.8437-.4719,4.2544-.74l.0009,0c1.1114-.2116,2.2191-.43,3.3171-.67l.0017-.0006c1.6865-.369,3.3422-.7863,4.9912-1.2233l.002-.0006c1.0527-.2787,2.1169-.5376,3.1522-.8442l0,0c.5655-.1675,1.1213-.3465,1.6814-.5223h0q2.4657-.774,4.8531-1.6554l.0011,0c.47-.1735.9469-.3364,1.4118-.5159l.0006,0c.7857-.3035,1.5378-.6471,2.3013-.9766a85.8,85.8,0,0,0,9.8761-4.7851L176.5112,182.97l3.6946-2.1333,7.3793-4.26.03,10.7192-59.1113,34.1281c-1.8845,1.0879-3.8466,2.1025-5.8631,3.0594-.67.318-1.3764.5933-2.0595.8968-1.19.5283-2.3607,1.0777-3.5883,1.5622-.2185.0862-.4479.1589-.6679.2439-.4632.179-.9382.3413-1.4063.5142q-2.3927.8829-4.8638,1.6589c-.5578.1752-1.1112.3533-1.6747.52-.3689.11-.7269.2355-1.0985.3413-.6719.1914-1.3778.324-2.0571.5041-1.65.4373-3.3062.8547-4.9936,1.2236-.44.0963-.86.228-1.3023.3194-.6626.1375-1.3472.2237-2.0148.3505-1.4112.2684-2.8262.5186-4.2562.74-.5638.0876-1.1129.2119-1.6793.2923-.6292.0891-1.2714.1323-1.9038.2124-1.3334.1695-2.6683.3188-4.0123.4485-.6321.0611-1.2547.1589-1.8889.2113-.6012.05-1.2092.0551-1.8122.0969q-2.0351.14-4.0745.2179c-.6763.0268-1.3482.0916-2.0249.1084-.5471.0135-1.0945-.0147-1.6416-.0075-1.4729.019-2.9418.0066-4.4141-.02-.7247-.0136-1.45.0147-2.174-.01-.4317-.015-.8583-.0672-1.29-.0862-1.8228-.0792-3.6333-.2118-5.4444-.3626-.7232-.06-1.4547-.0732-2.1753-.145-.3468-.0346-.6886-.0862-1.0345-.1233-.5422-.0583-1.0792-.1286-1.62-.1932q-2.7912-.3346-5.542-.7834c-.4577-.0749-.9183-.1395-1.374-.2194-.2217-.0386-.448-.0668-.669-.1066-.8688-.1568-1.7076-.375-2.5686-.5491-1.4864-.3006-2.9741-.5944-4.4334-.9475-1.0639-.2574-2.0976-.5606-3.145-.8457-1.3873-.3778-2.7735-.752-4.1285-1.1783-.2952-.0928-.6068-.1617-.9-.2568q-2.4645-.799-4.8436-1.711c-.2191-.0836-.4278-.1784-.646-.2632-1.7614-.686-3.4773-1.4245-5.1595-2.2007-.4918-.2272-.98-.4552-1.464-.69-1.8494-.8953-3.6644-1.826-5.3982-2.8337L.04,212.6043.0089,201.8852Z" fill="url(#k)"/><path d="M3.4209,201.8852l9.2678,5.3858,4.189,2.4345c30.2044,17.5528,79.5119,17.5533,109.8958.0109l47.9232-27.6684,5.5037-3.1775,3.9728-2.2939h3.4119l-7.3793,4.26-3.6946,2.1333-48.0373,27.7344c-1.884,1.0875-3.8461,2.1021-5.8623,3.0588-.6722.3191-1.3821.5958-2.0673.9-.641.2848-1.3005.5474-1.9465.8261-.7713.3214-1.5158.6731-2.3019.9769-.4649.1792-.9422.3427-1.4118.5159q-2.3869.8811-4.8542,1.6557c-.56.1755-1.1164.3548-1.6814.5223-1.0362.3069-2.1013.5661-3.1545.8451-1.6479.4367-3.3056.8546-4.9912,1.2233-1.0988.24-2.2074.4586-3.32.67-1.4092.2681-2.8265.5183-4.2544.74-.3557.055-.7146.0985-1.0709.1507-.8362.1225-1.6718.2473-2.5132.354q-1.9988.2543-4.0126.4485-1.8448.178-3.699.3078-2.0369.141-4.0818.2185c-1.2181.0479-2.4365.0845-3.6569.1-1.4738.0193-2.947.0069-4.42-.02-1.155-.0214-2.3094-.0459-3.4621-.096-1.8211-.0793-3.633-.2116-5.4426-.3626-1.0711-.0894-2.1468-.154-3.2119-.2684-.5427-.0585-1.0814-.1285-1.6225-.1937q-2.7882-.3337-5.5377-.7829c-.4574-.0749-.9186-.1392-1.374-.219-1.0971-.1917-2.1676-.4393-3.252-.6589-1.48-.2992-2.9628-.5924-4.4159-.9437-.4776-.1156-.9388-.2589-1.4132-.38-.58-.1586-1.1636-.3111-1.7438-.469-1.3836-.3767-2.7689-.7506-4.12-1.176-1.86-.5849-3.695-1.204-5.4861-1.8791-.0839-.0317-.1732-.0562-.2568-.0882-.2214-.0842-.4327-.18-.6526-.266-1.758-.6846-3.471-1.4222-5.15-2.1967q-.7385-.3408-1.4678-.6909c-1.849-.8956-3.6644-1.8266-5.3984-2.834l-4.1888-2.4345-7.551-4.3879-3.4175-1.986Z" fill="#e6e7e8"/><path d="M3.4264,224.1934l7.551,4.3882,4.1888,2.4342c1.7334,1.0074,3.5482,1.9381,5.397,2.8334l.0014.0006c2.3466,1.1362,4.763,2.1984,7.27,3.1539.0836.0317.1729.0565.2568.0879a107.0521,107.0521,0,0,0,11.35,3.5244c.47.1282.9348.2643,1.4124.38l.0008,0c1.4537.3516,2.9352.6442,4.4159.944l.0041.0008c1.0826.2191,2.1517.4664,3.247.6578h.0009c.4557.08.9163.1444,1.374.2194h.0015q2.7471.45,5.5351.7825l.0011,0c.5413.0649,1.0792.1352,1.6225.1934l.0018,0c1.0636.1145,2.1384.179,3.2078.2681l.0023,0a137.9544,137.9544,0,0,0,31.2884-.95c.356-.0521.7149-.0957,1.07-.1507l.0009,0c1.4293-.222,2.8437-.4719,4.2544-.74l.0009,0c1.1114-.2113,2.2191-.4295,3.3171-.67l.0017,0c1.6865-.3689,3.3422-.7866,4.9912-1.2233l.002-.0006c1.0527-.2787,2.1169-.5378,3.1522-.8445h0c.5655-.1675,1.1213-.3465,1.6814-.5226h0q2.4657-.774,4.8531-1.6551l.0011-.0006c.47-.1732.9469-.3363,1.4118-.5159h.0006c.7857-.3038,1.5378-.6471,2.3013-.9766a85.8346,85.8346,0,0,0,9.8761-4.7854l48.0373-27.7344,3.6946-2.1332,7.3793-4.26.03,10.7192-59.1113,34.1279c-1.8845,1.0881-3.8466,2.1024-5.8631,3.06-.67.3176-1.3764.5932-2.0595.8964-1.19.5286-2.3607,1.0777-3.5883,1.5623-.2185.0864-.4479.1591-.6679.2441-.4632.1787-.9382.3413-1.4063.5139q-2.3927.8834-4.8638,1.6592c-.5578.1752-1.1112.3531-1.6747.52-.3689.1093-.7269.2353-1.0985.341-.6719.1917-1.3778.3243-2.0571.5042-1.65.4372-3.3062.8546-4.9936,1.2239-.44.0962-.86.2277-1.3023.3193-.6626.1372-1.3472.2234-2.0148.35-1.4112.2684-2.8262.5186-4.2562.74-.5638.0874-1.1129.2119-1.6793.292-.6292.0891-1.2714.1326-1.9038.2127-1.3334.1692-2.6683.3188-4.0123.4485-.6321.0609-1.2547.1589-1.8889.211-.6012.05-1.2092.0554-1.8122.0969-1.3567.094-2.7126.1643-4.0745.2182-.6763.0265-1.3482.0914-2.0249.1084-.5471.0135-1.0945-.015-1.6416-.0078-1.4729.0193-2.9418.0069-4.4141-.02-.7247-.0132-1.45.0147-2.174-.01-.4317-.0147-.8583-.0671-1.29-.0859-1.8228-.0795-3.6333-.2118-5.4444-.3629-.7232-.06-1.4547-.0732-2.1753-.1449-.3468-.0343-.6886-.0862-1.0345-.1234-.5422-.0582-1.0792-.1283-1.62-.1931q-2.7912-.3342-5.542-.7835c-.4577-.0749-.9183-.1395-1.374-.219-.2217-.0387-.448-.0669-.669-.107-.8688-.1565-1.7076-.3747-2.5686-.5491-1.4864-.3006-2.9741-.5943-4.4334-.9474-1.0639-.2574-2.0976-.56-3.145-.8457-1.3873-.3776-2.7735-.7521-4.1285-1.1781-.2952-.0931-.6068-.1617-.9-.2571q-2.4645-.799-4.8436-1.7107c-.2191-.0836-.4278-.1784-.646-.2635-1.7614-.686-3.4773-1.4245-5.1595-2.2007-.4918-.2268-.98-.4548-1.464-.6895-1.8494-.8955-3.6644-1.826-5.3982-2.8337L.04,232.9268.0089,222.2077Z" fill="url(#l)"/><path d="M3.4209,222.2077l9.2678,5.3858,4.189,2.4342c30.2044,17.5531,79.5119,17.5534,109.8958.0112L174.6967,202.37,180.2,199.193l3.9728-2.2939h3.4119l-7.3793,4.26-3.6946,2.1332L128.4739,231.027c-1.884,1.0879-3.8461,2.1022-5.8623,3.0591-.6722.3188-1.3821.5958-2.0673.9-.641.2848-1.3005.5474-1.9465.8264-.7713.3214-1.5158.6728-2.3019.9766-.4649.18-.9422.3427-1.4118.5159q-2.3869.8812-4.8542,1.6557c-.56.1758-1.1164.3551-1.6814.5226-1.0362.3067-2.1013.5658-3.1545.8451-1.6479.4367-3.3056.8546-4.9912,1.2233-1.0988.24-2.2074.4586-3.32.67-1.4092.268-2.8265.5182-4.2544.74-.3557.0553-.7146.0989-1.0709.151-.8362.1225-1.6718.2471-2.5132.354q-1.9988.2538-4.0126.4485-1.8448.1778-3.699.3078c-1.3579.094-2.7187.1643-4.0818.2182-1.2181.0482-2.4365.0845-3.6569.1006-1.4738.0193-2.947.0067-4.42-.02-1.155-.0216-2.3094-.0459-3.4621-.096-1.8211-.08-3.633-.2119-5.4426-.3626-1.0711-.0894-2.1468-.1542-3.2119-.2687-.5427-.0582-1.0814-.1285-1.6225-.1934q-2.7882-.3342-5.5377-.7828c-.4574-.075-.9186-.1395-1.374-.2194-1.0971-.1914-2.1676-.4393-3.252-.6586-1.48-.2995-2.9628-.5924-4.4159-.944-.4776-.1153-.9388-.2589-1.4132-.38-.58-.1586-1.1636-.311-1.7438-.4693-1.3836-.3764-2.7689-.7506-4.12-1.1757-1.86-.5852-3.695-1.204-5.4861-1.8794-.0839-.0317-.1732-.0562-.2568-.0879-.2214-.0844-.4327-.18-.6526-.2663-1.758-.6846-3.471-1.4222-5.15-2.1964q-.7385-.3408-1.4678-.6912c-1.849-.8956-3.6644-1.8266-5.3984-2.834l-4.1888-2.4342-7.551-4.3882L.0089,222.2077Z" fill="#e6e7e8"/><path d="M71.0278,35.1647l.0129,4.54c23.9244-13.8128,62.5016-13.9933,86.6762-.5626l-.013-4.54C133.53,21.1714,94.9522,21.3519,71.0278,35.1647Z" fill="none"/><polygon points="53.815 58.899 42.875 52.542 42.899 60.979 53.839 67.337 53.815 58.899" fill="#c6c6c6"/><polygon points="59.262 55.754 48.323 49.396 42.875 52.542 53.815 58.899 59.262 55.754" fill="#e6e7e8"/><polygon points="53.815 58.899 53.839 67.337 59.286 64.192 59.262 55.754 53.815 58.899" fill="#a7a9ac"/><polygon points="42.197 64.093 31.257 57.735 31.281 66.173 42.221 72.53 42.197 64.093" fill="#c6c6c6"/><polygon points="47.663 60.937 36.723 54.58 31.257 57.735 42.197 64.093 47.663 60.937" fill="#e6e7e8"/><polygon points="42.197 64.093 42.221 72.53 47.686 69.374 47.663 60.937 42.197 64.093" fill="#a7a9ac"/><polygon points="176.718 10.859 176.718 37.661 177.332 38.276 177.233 11.986 176.718 10.859" fill="#c6c6c6"/><polygon points="177.233 11.986 177.332 38.276 178.076 37.846 177.752 10.859 177.233 11.986" fill="#a7a9ac"/><polygon points="176.718 10.859 177.233 11.986 177.752 10.859 177.237 9.733 176.718 10.859" fill="#e6e7e8"/><polygon points="125.425 40.474 125.425 67.276 126.038 67.89 125.939 41.601 125.425 40.474" fill="#c6c6c6"/><polygon points="125.939 41.601 126.038 67.89 126.782 67.46 126.458 40.474 125.939 41.601" fill="#a7a9ac"/><polygon points="125.425 40.474 125.939 41.601 126.458 40.474 125.943 39.347 125.425 40.474" fill="#e6e7e8"/><g style="isolation:isolate"><polygon points="182.155 21.872 176.156 20.03 174.059 17.03 180.057 18.873 182.155 21.872" fill="#0d3251"/><polygon points="181.791 9.747 175.792 7.905 177.887 6.883 183.885 8.725 181.791 9.747" fill="#134c7b"/><polygon points="179.932 14.693 173.933 12.851 175.792 7.905 181.791 9.747 179.932 14.693" fill="#124874"/><polygon points="176.103 24.824 170.105 22.982 172.948 15.447 178.947 17.289 176.103 24.824" fill="#124874"/><polygon points="175.739 12.698 169.741 10.856 171.83 9.837 177.828 11.679 175.739 12.698" fill="#134c7b"/><polygon points="178.947 17.289 172.948 15.447 169.741 10.856 175.739 12.698 178.947 17.289" fill="#0d3251"/><polygon points="183.885 8.725 181.042 16.268 184.249 20.851 182.155 21.872 180.057 18.873 178.192 23.805 176.103 24.824 178.947 17.289 175.739 12.698 177.828 11.679 179.932 14.693 181.791 9.747 183.885 8.725" fill="#155487"/></g><g style="isolation:isolate"><g style="isolation:isolate"><g clip-path="url(#m)"><g style="isolation:isolate"><path d="M170.98,24.7911l-5.9985-1.8422.0353.01,5.9984,1.8421-.0352-.01" fill="#0f3c61"/><path d="M171.0147,24.801l-5.9984-1.8421a.8268.8268,0,0,0,.1185.0217l5.9985,1.8421a.8256.8256,0,0,1-.1186-.0217" fill="#103e64"/><path d="M171.1333,24.8227l-5.9985-1.8421a.8873.8873,0,0,0,.1246.0045l5.9985,1.8422a.8867.8867,0,0,1-.1246-.0046" fill="#104067"/><path d="M171.2579,24.8273l-5.9985-1.8422a.999.999,0,0,0,.1386-.0145l5.9984,1.8421a.998.998,0,0,1-.1385.0146" fill="#11426a"/><path d="M171.3964,24.8127l-5.9984-1.8421a1.2181,1.2181,0,0,0,.1653-.0414l5.9985,1.8421a1.2157,1.2157,0,0,1-.1654.0414" fill="#11446d"/><path d="M171.5618,24.7713l-5.9985-1.8421a1.6139,1.6139,0,0,0,.2094-.0854l.0123-.0061,5.9984,1.8422-.0123.006a1.6044,1.6044,0,0,1-.2093.0854" fill="#114671"/><path d="M171.7834,24.68l-5.9984-1.8422a1.88,1.88,0,0,0,.2969-.1844l5.9984,1.8421a1.8838,1.8838,0,0,1-.2969.1845" fill="#124874"/><path d="M172.08,24.4954l-5.9984-1.8421a2.3761,2.3761,0,0,0,.4771-.4931l5.9984,1.8421a2.3711,2.3711,0,0,1-.4771.4931" fill="#124a77"/><path d="M172.5574,24.0023,166.559,22.16a3.377,3.377,0,0,0,.2184-.34l5.9985,1.8422a3.347,3.347,0,0,1-.2185.34" fill="#124874"/><path d="M172.7759,23.662,166.7774,21.82q.0476-.0845.0929-.1748.027-.0538.0522-.1079l5.9985,1.8421q-.0254.0541-.0522.1079-.0454.09-.0929.1749" fill="#114671"/><path d="M172.921,23.3792l-5.9985-1.8421q.0555-.119.1027-.2394l5.9984,1.8421q-.0471.12-.1026.2394" fill="#11446d"/><path d="M173.0236,23.14l-5.9984-1.8421q.0415-.1062.0769-.2137l5.9984,1.8422q-.0353.1074-.0769.2136" fill="#11426a"/><path d="M173.1005,22.9262l-5.9984-1.8422q.0333-.1015.061-.2042l5.9984,1.8421q-.0276.1028-.061.2043" fill="#104067"/><path d="M173.1615,22.7219,167.1631,20.88q.0275-.1018.0493-.205l5.9985,1.8422q-.0219.103-.0494.2049" fill="#103e64"/><path d="M173.2109,22.517l-5.9985-1.8422q.0229-.1074.04-.2162l5.9984,1.8421q-.0168.1088-.04.2163" fill="#0f3c61"/><path d="M173.2506,22.3007l-5.9984-1.8421q.0185-.12.03-.241l5.9985,1.8422q-.0114.1212-.03.2409" fill="#0f3a5d"/><path d="M173.2805,22.06l-5.9985-1.8422q.0135-.1443.0167-.2908l5.9985,1.8421q-.0033.1466-.0167.2909" fill="#0e385a"/><path d="M173.2972,21.7689l-5.9985-1.8421q.0012-.0518.001-.1036l5.9985,1.8421c0,.0346,0,.0692-.001.1036" fill="#0e3657"/></g></g></g><polygon points="173.298 21.665 167.3 19.823 167.058 12.164 173.057 14.007 173.298 21.665" fill="#0f3b5e"/><polygon points="173.057 14.007 167.058 12.164 168.757 11.336 174.756 13.178 173.057 14.007" fill="#134c7b"/><g style="isolation:isolate"><g clip-path="url(#n)"><g style="isolation:isolate"><path d="M170.2269,27.3161l-5.9984-1.8421a2.0368,2.0368,0,0,1-.7515-.4356,3.6071,3.6071,0,0,1-1.0626-2.5588l5.9984,1.8421a3.608,3.608,0,0,0,1.0626,2.5588,2.0362,2.0362,0,0,0,.7515.4356" fill="#0d3454"/><path d="M168.4128,24.3217,162.4144,22.48q-.0095-.1308-.0141-.2668l5.9984,1.8421q.0048.1361.0141.2668" fill="#0e3657"/></g></g></g><polygon points="168.169 16.391 162.17 14.548 163.869 13.72 169.868 15.562 168.169 16.391" fill="#134c7b"/><polygon points="168.399 24.055 162.4 22.213 162.17 14.548 168.169 16.391 168.399 24.055" fill="#0f3b5e"/><path d="M174.7556,13.1779l.23,7.6478a7.6534,7.6534,0,0,1-.8549,3.7761,5.2874,5.2874,0,0,1-2.2864,2.5092,1.983,1.983,0,0,1-2.3685-.23,3.7732,3.7732,0,0,1-1.0767-2.8256l-.23-7.6644,1.6991-.8287.23,7.6478a1.8365,1.8365,0,0,0,.5254,1.373.9536.9536,0,0,0,1.1484.1033,2.509,2.509,0,0,0,1.0977-1.1988,3.989,3.989,0,0,0,.4294-1.8218l-.2417-7.6587Z" fill="#155487"/></g><g style="isolation:isolate"><polygon points="163.892 28.319 157.894 26.477 161.065 24.93 167.063 26.772 163.892 28.319" fill="#134c7b"/><polygon points="162.259 31.551 156.261 29.709 155.898 17.608 161.896 19.45 162.259 31.551" fill="#0f3b5e"/><polygon points="161.896 19.45 155.898 17.608 157.602 16.776 163.601 18.618 161.896 19.45" fill="#134c7b"/><polygon points="163.601 18.618 163.892 28.319 167.063 26.772 167.135 29.172 162.259 31.551 161.896 19.45 163.601 18.618" fill="#155487"/></g><g style="isolation:isolate"><g style="isolation:isolate"><g clip-path="url(#o)"><g style="isolation:isolate"><path d="M155.0183,32.319,149.02,30.4768q.03.0093.06.0171l5.9984,1.8421q-.03-.0078-.06-.017" fill="#0f3c61"/><path d="M155.0785,32.336,149.08,30.4939a1.4262,1.4262,0,0,0,.2017.0369l5.9985,1.8421a1.4,1.4,0,0,1-.2018-.0369" fill="#103e64"/><path d="M155.28,32.3729l-5.9985-1.8421a1.4939,1.4939,0,0,0,.21.0078l5.9985,1.8421a1.4933,1.4933,0,0,1-.21-.0078" fill="#104067"/><path d="M155.49,32.3807l-5.9985-1.8421a1.663,1.663,0,0,0,.2305-.0242l5.9985,1.8421a1.6479,1.6479,0,0,1-.2305.0242" fill="#11426a"/><path d="M155.7209,32.3565l-5.9985-1.8421a1.9641,1.9641,0,0,0,.2686-.0672l5.9985,1.8421a1.9677,1.9677,0,0,1-.2686.0672" fill="#11446d"/><path d="M155.99,32.2893l-5.9985-1.8421a2.5222,2.5222,0,0,0,.3307-.1347l.02-.01,5.9985,1.8421-.02.01a2.5407,2.5407,0,0,1-.3307.1346" fill="#114671"/><path d="M156.3406,32.1446l-5.9985-1.8421a3.14,3.14,0,0,0,.4959-.3083l5.9984,1.8421a3.12,3.12,0,0,1-.4958.3083" fill="#124874"/><path d="M156.8364,31.8363l-5.9984-1.8421a4.0129,4.0129,0,0,0,.8061-.8339l5.9985,1.8421a4.0158,4.0158,0,0,1-.8062.8339" fill="#124a77"/><path d="M157.6426,31.0024,151.6441,29.16a5.6954,5.6954,0,0,0,.3715-.5788l5.9985,1.8421a5.7189,5.7189,0,0,1-.3715.5788" fill="#124874"/><path d="M158.0141,30.4236l-5.9985-1.8421q.081-.1438.1581-.2976l5.9985,1.8421q-.0771.1539-.1581.2976" fill="#114671"/></g></g></g><g style="isolation:isolate"><g clip-path="url(#p)"><g style="isolation:isolate"><path d="M158.1722,30.126l-5.9985-1.8421q.0462-.0922.09-.1849l5.9984,1.8421q-.0432.0927-.0894.1849" fill="#114671"/><path d="M158.2616,29.9411l-5.9984-1.8421q.0938-.2012.1733-.404l5.9985,1.8421q-.0795.203-.1734.404" fill="#11446d"/><path d="M158.435,29.5371l-5.9985-1.8421q.069-.1761.1273-.3536l5.9984,1.8422q-.0582.1775-.1272.3535" fill="#11426a"/><path d="M158.5622,29.1836l-5.9984-1.8422q.0543-.1651.0991-.3316l5.9984,1.8421q-.0448.1664-.0991.3317" fill="#104067"/><path d="M158.6613,28.8519,152.6629,27.01q.0438-.1629.0788-.3269L158.74,28.525q-.0348.1639-.0788.3269" fill="#103e64"/><path d="M158.74,28.525l-5.9984-1.8421q.0357-.1682.062-.3375l5.9984,1.8421q-.0262.1694-.062.3375" fill="#0f3c61"/><path d="M158.8021,28.1875l-5.9984-1.8421q.0283-.1835.0456-.3681l5.9985,1.8421q-.0173.1846-.0457.3681" fill="#0f3a5d"/><path d="M158.8478,27.8194l-5.9985-1.8421q.02-.2151.0249-.432l5.9985,1.8422q-.0048.2168-.0249.4319" fill="#0e385a"/><path d="M158.8727,27.3875l-5.9985-1.8422q.0036-.1611-.0013-.3233-.0036-.1227-.0121-.24l5.9985,1.8422q.0084.1176.0121.24.0048.1622.0013.3234" fill="#0e3657"/><path d="M158.8593,26.8239l-5.9985-1.8422a2.92,2.92,0,0,0-.8478-2.0529,1.6319,1.6319,0,0,0-.61-.3562l5.9984,1.8422a1.63,1.63,0,0,1,.61.3561,2.92,2.92,0,0,1,.8479,2.053" fill="#0d3454"/></g></g></g><g style="isolation:isolate"><g clip-path="url(#q)"><g style="isolation:isolate"><path d="M154.2482,34.9163,148.25,33.0741a2.7315,2.7315,0,0,1-1.0217-.5976,4.8088,4.8088,0,0,1-1.4105-3.4023l5.9984,1.8421a4.81,4.81,0,0,0,1.4105,3.4024,2.7353,2.7353,0,0,0,1.0218.5976" fill="#0d3454"/><path d="M151.8159,30.9163l-5.9984-1.8421q-.0141-.1963-.02-.4011-.008-.2646-.002-.5283l5.9984,1.8422q-.0058.2636.0021.5282.0061.2049.02.4011" fill="#0e3657"/><path d="M151.7936,29.987l-5.9984-1.8422q.0078-.3546.0407-.7075l5.9985,1.8421q-.033.3528-.0408.7076" fill="#0e385a"/><path d="M151.8344,29.2794l-5.9985-1.8421q.0284-.3032.075-.6048l5.9985,1.8421q-.0468.3016-.075.6048" fill="#0f3a5d"/><path d="M151.9094,28.6746l-5.9985-1.8421q.0432-.2784.1021-.5555l5.9985,1.8421q-.059.2772-.1021.5555" fill="#0f3c61"/><path d="M152.0115,28.1191,146.013,26.277q.0574-.27.13-.5387l5.9984,1.8421q-.0725.2686-.13.5387" fill="#103e64"/><path d="M152.1413,27.58l-5.9984-1.8421q.0738-.2744.1635-.5474l5.9984,1.8422q-.09.2728-.1635.5473" fill="#104067"/><path d="M152.3048,27.0331l-5.9984-1.8422q.096-.2925.21-.5833l5.9984,1.8421q-.114.2908-.21.5834" fill="#11426a"/><path d="M152.5148,26.45l-5.9984-1.8421q.1312-.3351.2865-.6679l5.9985,1.8422q-.1552.3327-.2866.6678" fill="#11446d"/><path d="M152.8014,25.7819,146.8029,23.94q.0767-.1641.159-.3277.1339-.2685.2746-.5182l5.9984,1.8421q-.1407.25-.2745.5183-.0824.1635-.159.3277" fill="#114671"/><path d="M153.2349,24.9359l-5.9984-1.8421a9.4309,9.4309,0,0,1,.6126-.9547l5.9985,1.8421a9.4139,9.4139,0,0,0-.6127.9547" fill="#124874"/><path d="M153.8476,23.9812l-5.9985-1.8421a6.58,6.58,0,0,1,1.3224-1.3681l5.9985,1.8421a6.58,6.58,0,0,0-1.3224,1.3681" fill="#124a77"/><path d="M155.17,22.6131l-5.9985-1.8421a5.1432,5.1432,0,0,1,.8146-.5065l5.9984,1.8421a5.1541,5.1541,0,0,0-.8145.5065" fill="#124874"/><path d="M155.9845,22.1066l-5.9984-1.8421.0335-.0165a4.23,4.23,0,0,1,.5514-.2246l5.9984,1.8422a4.2331,4.2331,0,0,0-.5513.2245l-.0336.0165" fill="#114671"/><path d="M156.5694,21.8656l-5.9984-1.8422a3.2861,3.2861,0,0,1,.4455-.1115l5.9985,1.8421a3.2881,3.2881,0,0,0-.4456.1116" fill="#11446d"/><path d="M157.015,21.754l-5.9985-1.8421a2.7413,2.7413,0,0,1,.3811-.04l5.9984,1.8421a2.7415,2.7415,0,0,0-.381.04" fill="#11426a"/><path d="M157.396,21.7141l-5.9984-1.8421a2.4414,2.4414,0,0,1,.3464.0128l5.9985,1.8421a2.4422,2.4422,0,0,0-.3465-.0128" fill="#104067"/><path d="M157.7425,21.7269l-5.9985-1.8421a2.3242,2.3242,0,0,1,.3323.0607l5.9984,1.8422a2.3231,2.3231,0,0,0-.3322-.0608" fill="#103e64"/><path d="M158.0747,21.7877l-5.9984-1.8422q.05.0129.0991.0281l5.9985,1.8421q-.0494-.0152-.0992-.028" fill="#0f3c61"/></g></g></g><path d="M159.1924,22.4146a5.0778,5.0778,0,0,1,1.43,3.7953,10.4889,10.4889,0,0,1-1.1645,5.0692,7.0633,7.0633,0,0,1-3.0635,3.3669,2.64,2.64,0,0,1-3.1685-.3273,5.0593,5.0593,0,0,1-1.4307-3.8035,10.4235,10.4235,0,0,1,1.1647-5.061,7.0081,7.0081,0,0,1,3.0577-3.3641A2.6365,2.6365,0,0,1,159.1924,22.4146Zm-1.02,7.7114a6.3276,6.3276,0,0,0,.6992-3.0619,3.0688,3.0688,0,0,0-.86-2.2932,1.6,1.6,0,0,0-1.9185-.19,4.2522,4.2522,0,0,0-1.8463,2.0258,6.262,6.262,0,0,0-.6994,3.0537,3.0491,3.0491,0,0,0,.86,2.3013,1.5964,1.5964,0,0,0,1.9128.1925,4.2539,4.2539,0,0,0,1.852-2.0287" fill="#155487"/></g><g style="isolation:isolate"><g style="isolation:isolate"><g clip-path="url(#r)"><g style="isolation:isolate"><path d="M144.926,37.3622,138.9276,35.52c.02.006.04.0116.0595.0168l5.9985,1.8421c-.02-.0051-.04-.0107-.06-.0168" fill="#0f3c61"/><path d="M144.9856,37.379l-5.9985-1.8421a1.4049,1.4049,0,0,0,.199.0364l5.9985,1.8421a1.3858,1.3858,0,0,1-.199-.0364" fill="#103e64"/><path d="M145.1846,37.4154l-5.9985-1.8421a1.4814,1.4814,0,0,0,.2082.0077l5.9984,1.8421a1.4651,1.4651,0,0,1-.2081-.0077" fill="#104067"/><path d="M145.3927,37.4231l-5.9984-1.8421a1.65,1.65,0,0,0,.2294-.0241l5.9984,1.8421a1.6489,1.6489,0,0,1-.2294.0241" fill="#11426a"/><path d="M145.6221,37.399l-5.9984-1.8421a1.9875,1.9875,0,0,0,.2694-.0675l5.9985,1.8422a1.9844,1.9844,0,0,1-.27.0674" fill="#11446d"/><path d="M145.8916,37.3316l-5.9985-1.8422a2.561,2.561,0,0,0,.3363-.137l.0187-.0092,5.9985,1.8421-.0187.0092a2.5759,2.5759,0,0,1-.3363.1371" fill="#114671"/><path d="M146.2466,37.1853l-5.9985-1.8421a2.9537,2.9537,0,0,0,.4677-.2914l5.9984,1.8421a2.95,2.95,0,0,1-.4676.2914" fill="#124874"/><path d="M146.7142,36.8939l-5.9984-1.8421a4.1175,4.1175,0,0,0,.8231-.8565l5.9985,1.8421a4.1178,4.1178,0,0,1-.8232.8565" fill="#124a77"/><path d="M147.5374,36.0374l-5.9985-1.8421q.1578-.2151.3069-.4626.0462-.0774.09-.1556l5.9985,1.8422q-.0441.0782-.09.1555-.149.2475-.3068.4626" fill="#124874"/><path d="M147.9345,35.4193l-5.9985-1.8422q.1333-.2365.2473-.4808l5.9984,1.8421q-.1139.2442-.2472.4809" fill="#114671"/><path d="M148.1817,34.9384l-5.9984-1.8421q.0919-.1974.1714-.4l5.9984,1.8421q-.0794.2024-.1714.4" fill="#11446d"/><path d="M148.3531,34.5387l-5.9984-1.8421q.0709-.1812.1318-.3664l5.9984,1.8421q-.0608.1853-.1318.3664" fill="#11426a"/><path d="M148.4849,34.1723,142.4865,32.33q.0579-.1767.1065-.3569l5.9985,1.8422q-.0486.18-.1066.3568" fill="#104067"/><path d="M148.5915,33.8155l-5.9985-1.8422q.0486-.18.0878-.3646l5.9985,1.8421q-.0392.1842-.0878.3647" fill="#103e64"/><path d="M148.6793,33.4508l-5.9985-1.8421q.0413-.1936.0719-.3913l5.9984,1.8422q-.0306.1975-.0718.3912" fill="#0f3c61"/><path d="M148.7511,33.06l-5.9984-1.8422.003-.02,5.9984,1.8422-.003.02" fill="#0f3a5d"/></g></g></g><polygon points="146.834 33.977 140.835 32.134 140.763 29.709 146.761 31.551 146.834 33.977" fill="#0f3b5e"/><polygon points="146.761 31.551 140.763 29.709 144.295 27.987 150.293 29.829 146.761 31.551" fill="#134c7b"/><g style="isolation:isolate"><g clip-path="url(#s)"><g style="isolation:isolate"><path d="M147.57,29.4015l-5.9985-1.8422a1.5408,1.5408,0,0,0-.1978-.0761l5.9984,1.8421a1.5281,1.5281,0,0,1,.1979.0762" fill="#0d3454"/></g></g></g><g style="isolation:isolate"><g clip-path="url(#t)"><g style="isolation:isolate"><path d="M145.9937,27.03l-5.9985-1.8422a4.0316,4.0316,0,0,1,.4767-.19L146.47,26.84a4.03,4.03,0,0,0-.4766.19" fill="#114671"/><path d="M146.47,26.84l-5.9984-1.8422a3.235,3.235,0,0,1,.44-.11l5.9985,1.8422a3.2363,3.2363,0,0,0-.44.11" fill="#11446d"/><path d="M146.9107,26.73l-5.9985-1.8422a2.753,2.753,0,0,1,.3825-.04l5.9985,1.8421a2.75,2.75,0,0,0-.3825.04" fill="#11426a"/><path d="M147.2932,26.69l-5.9985-1.8421a2.5,2.5,0,0,1,.3546.0131l5.9985,1.8422a2.5152,2.5152,0,0,0-.3546-.0132" fill="#104067"/><path d="M147.6478,26.7029l-5.9985-1.8422a2.4316,2.4316,0,0,1,.3462.0634l5.9985,1.8422a2.42,2.42,0,0,0-.3462-.0634" fill="#103e64"/><path d="M147.994,26.7663l-5.9985-1.8422q.0526.0137.1049.03l5.9984,1.8421q-.0522-.016-.1048-.03" fill="#0f3c61"/></g></g></g><polygon points="145.959 27.047 139.96 25.205 139.995 25.188 145.994 27.03 145.959 27.047" fill="#134c7b"/><g style="isolation:isolate"><g clip-path="url(#u)"><g style="isolation:isolate"><path d="M144.1406,39.8293l-5.9984-1.8422a2.66,2.66,0,0,1-1.0162-.6,4.78,4.78,0,0,1-1.3679-3.3494l5.9985,1.8421a4.78,4.78,0,0,0,1.3678,3.35,2.6637,2.6637,0,0,0,1.0162.6" fill="#0d3454"/><path d="M141.7566,35.8794l-5.9985-1.8421q-.0165-.2309-.0221-.4739-.0066-.2455-.0011-.49l5.9984,1.8422q-.0054.2443.0011.49.0057.2431.0222.4739" fill="#0e3657"/><path d="M141.7333,34.9156l-5.9984-1.8422q.0078-.3527.04-.7032l5.9985,1.8422q-.0327.35-.04.7032" fill="#0e385a"/><path d="M141.7738,34.2124,135.7753,32.37q.0282-.3019.0747-.6021l5.9985,1.8421q-.0465.3-.0747.6022" fill="#0f3a5d"/><path d="M141.8485,33.61,135.85,31.7681q.0429-.2767.1015-.5519l5.9984,1.8422q-.0585.2751-.1014.5518" fill="#0f3c61"/><path d="M141.95,33.0584l-5.9984-1.8422q.057-.2685.129-.5356l5.9985,1.8422q-.072.267-.1291.5356" fill="#103e64"/><path d="M142.079,32.5228l-5.9985-1.8422q.0737-.273.1627-.5444l5.9985,1.8421q-.0891.2713-.1627.5445" fill="#104067"/><path d="M142.2417,31.9783l-5.9985-1.8421q.0957-.2914.2092-.581l5.9984,1.8421q-.1134.2895-.2091.581" fill="#11426a"/><path d="M142.4508,31.3973l-5.9984-1.8421q.1307-.3334.2851-.6644l5.9985,1.8421q-.1545.3309-.2852.6644" fill="#11446d"/><path d="M142.736,30.7329l-5.9985-1.8421q.0817-.1753.17-.35.1162-.2282.2371-.4428l5.9984,1.8421q-.1209.2146-.237.4428-.0885.1746-.17.35" fill="#114671"/><path d="M143.1432,29.94l-5.9984-1.8421a9.7349,9.7349,0,0,1,.6329-.9867l5.9985,1.8421a9.7526,9.7526,0,0,0-.633.9867" fill="#124874"/><path d="M143.7762,28.9536l-5.9985-1.8421a6.6708,6.6708,0,0,1,1.3383-1.3861l5.9985,1.8421a6.6657,6.6657,0,0,0-1.3383,1.3861" fill="#124a77"/><path d="M145.1145,27.5675l-5.9985-1.8421a5.1223,5.1223,0,0,1,.811-.5044l5.9985,1.8421a5.1178,5.1178,0,0,0-.811.5044" fill="#124874"/><path d="M145.9255,27.0631,139.927,25.221l.0333-.0164,5.9985,1.8421-.0333.0164" fill="#114671"/></g></g></g><path d="M145.9937,27.03a2.7043,2.7043,0,0,1,2.7533.0679L147.57,29.4015a1.7745,1.7745,0,0,0-1.5156.0589,4.2936,4.2936,0,0,0-1.898,2.0679,6.2313,6.2313,0,0,0-.7223,3.0816,3.1076,3.1076,0,0,0,.85,2.365,1.5863,1.5863,0,0,0,1.9431.22,4.0238,4.0238,0,0,0,1.6163-1.62,6.9438,6.9438,0,0,0,.91-2.5348l-1.92.9365-.0728-2.4251,3.5321-1.7227.0368,1.2249a10.9969,10.9969,0,0,1-1.1006,5.2313,6.7266,6.7266,0,0,1-2.93,3.2851,2.662,2.662,0,0,1-3.1748-.3411,5.0841,5.0841,0,0,1-1.39-3.8234,10.3773,10.3773,0,0,1,1.1718-5.0224,7.0725,7.0725,0,0,1,3.0526-3.3364Z" fill="#155487"/></g><g style="isolation:isolate"><g style="isolation:isolate"><g clip-path="url(#v)"><g style="isolation:isolate"><path d="M122.5942,56.0486l-5.9985-1.8421q.0857.0262.1754.05l5.9985,1.8422q-.09-.0234-.1754-.05" fill="#0f3c61"/><path d="M122.77,56.0983l-5.9985-1.8422q.1221.0316.2519.057.1905.0372.3792.0576l5.9985,1.8421q-.1889-.0206-.3792-.0575c-.0866-.0168-.1706-.036-.2519-.057" fill="#103e64"/><path d="M123.4007,56.2128l-5.9985-1.8421a4.6675,4.6675,0,0,0,.6581.0246l5.9985,1.8421a4.6664,4.6664,0,0,1-.6581-.0246" fill="#104067"/><path d="M124.0588,56.2374,118.06,54.3953a4.9792,4.9792,0,0,0,.6926-.0722l5.9985,1.8422a4.9944,4.9944,0,0,1-.6926.0721" fill="#11426a"/><path d="M124.7514,56.1653l-5.9985-1.8422a5.6275,5.6275,0,0,0,.77-.1919l5.9985,1.8422a5.6569,5.6569,0,0,1-.7695.1919" fill="#11446d"/><path d="M125.5209,55.9734l-5.9985-1.8422a6.7488,6.7488,0,0,0,.879-.3568l.0523-.0258,5.9985,1.8421-.0524.0258a6.734,6.734,0,0,1-.8789.3569" fill="#114671"/><path d="M126.4522,55.5907l-5.9985-1.8421a8.9052,8.9052,0,0,0,1.3953-.8736l5.9985,1.8421a8.9024,8.9024,0,0,1-1.3953.8736" fill="#124874"/><path d="M127.8475,54.7171,121.849,52.875a11.12,11.12,0,0,0,2.139-2.1341l5.9985,1.8422a11.123,11.123,0,0,1-2.139,2.134" fill="#124a77"/><path d="M129.9865,52.5831l-5.9985-1.8422q.03-.0413.0575-.08a21.0971,21.0971,0,0,0,1.1517-1.8173l5.9985,1.8421a21.0727,21.0727,0,0,1-1.1518,1.8173q-.027.0383-.0574.08" fill="#124874"/><path d="M131.1957,50.6861l-5.9985-1.8421c.2379-.422.4694-.8679.6876-1.3355l5.9984,1.8422c-.2182.4675-.45.9134-.6875,1.3354" fill="#114671"/><path d="M131.8832,49.3507l-5.9984-1.8422c.1591-.3409.3112-.6934.4536-1.0564l5.9984,1.8421q-.2136.5447-.4536,1.0565" fill="#11446d"/><path d="M132.3368,48.2942l-5.9984-1.8421q.1743-.4446.3278-.91l5.9984,1.8421q-.1527.4652-.3278.91" fill="#11426a"/><path d="M132.6646,47.3842l-5.9984-1.8421q.1354-.4125.2512-.84l5.9985,1.8422q-.1154.4275-.2513.84" fill="#104067"/><path d="M132.9159,46.544l-5.9985-1.8422q.1074-.3979.195-.8082l5.9985,1.8421q-.0873.41-.195.8083" fill="#103e64"/><path d="M133.1109,45.7357l-5.9985-1.8421q.0855-.4017.15-.8143l5.9984,1.8421q-.0639.4127-.15.8143" fill="#0f3c61"/><path d="M133.2606,44.9214l-5.9984-1.8421q.066-.4256.107-.8622l5.9984,1.8422q-.0405.4363-.107.8621" fill="#0f3a5d"/><path d="M133.3676,44.0593l-5.9984-1.8422q.0448-.4824.0562-.9772l5.9984,1.8421q-.0107.4947-.0562.9773" fill="#0e385a"/><path d="M133.4238,43.082,127.4254,41.24q.0046-.22.0023-.4414-.003-.2707-.0213-.5215l5.9985,1.8421q.0181.2509.0212.5215.0026.2218-.0023.4414" fill="#0e3657"/><path d="M133.4049,42.1191l-5.9985-1.8421c-.1539-2.1186-1.1054-3.1993-2.3127-3.57l5.9985,1.8421c1.2072.3708,2.1588,1.4515,2.3127,3.57" fill="#0d3454"/></g></g></g><g style="isolation:isolate"><g clip-path="url(#w)"><g style="isolation:isolate"><path d="M127.9928,38.8494l-5.9984-1.8421c.1735-.0755.35-.1426.529-.2l5.9985,1.8421c-.1787.0579-.3555.125-.5291.2005" fill="#a9a9a9"/><path d="M128.5219,38.6489l-5.9985-1.8421a5.3544,5.3544,0,0,1,.7268-.1814l5.9985,1.8421a5.3618,5.3618,0,0,0-.7268.1814" fill="#a5a5a5"/><path d="M129.2487,38.4675,123.25,36.6254a4.6544,4.6544,0,0,1,.6445-.0678L129.8931,38.4a4.6546,4.6546,0,0,0-.6444.0678" fill="#a0a0a0"/><path d="M129.8931,38.4l-5.9984-1.8421a4.0017,4.0017,0,0,1,.563.02l5.9984,1.8421a4.0017,4.0017,0,0,0-.563-.02" fill="#9b9b9b"/><path d="M130.4561,38.42l-5.9984-1.8421a3.4728,3.4728,0,0,1,.4975.09l5.9985,1.8421a3.4742,3.4742,0,0,0-.4976-.09" fill="#969696"/><path d="M130.9537,38.51l-5.9985-1.8421q.07.018.1385.0391l5.9985,1.8421q-.0687-.021-.1385-.0391" fill="#919191"/></g></g></g><g style="isolation:isolate"><g clip-path="url(#x)"><g style="isolation:isolate"><path d="M123.83,51.1655l-5.9984-1.8421q.06.0185.12.0339l5.9985,1.8421q-.06-.0154-.12-.0339" fill="#919191"/><path d="M123.95,51.1994l-5.9985-1.8421a2.7613,2.7613,0,0,0,.392.0719l5.9985,1.8421a2.7308,2.7308,0,0,1-.392-.0719" fill="#969696"/><path d="M124.3418,51.2713l-5.9985-1.8421a2.77,2.77,0,0,0,.3923.0147l5.9985,1.8421a2.769,2.769,0,0,1-.3923-.0147" fill="#9b9b9b"/><path d="M124.7341,51.286l-5.9985-1.8421a2.9429,2.9429,0,0,0,.4082-.0425l5.9985,1.8421a2.9461,2.9461,0,0,1-.4082.0425" fill="#a0a0a0"/><path d="M125.1423,51.2435l-5.9985-1.8421a3.2584,3.2584,0,0,0,.4447-.1109l5.9985,1.8422a3.2726,3.2726,0,0,1-.4447.1108" fill="#a5a5a5"/><path d="M125.587,51.1327l-5.9985-1.8422a3.8007,3.8007,0,0,0,.4976-.2018l.0337-.0166,5.9984,1.8421-.0337.0166a3.8141,3.8141,0,0,1-.4975.2019" fill="#a9a9a9"/><path d="M126.1182,50.9142,120.12,49.0721a4.952,4.952,0,0,0,.8164-.5187l5.9984,1.8422a4.943,4.943,0,0,1-.8164.5186" fill="#aeaeae"/><path d="M126.9346,50.3956l-5.9984-1.8422a7.4168,7.4168,0,0,0,1.3933-1.454l5.9985,1.8422a7.42,7.42,0,0,1-1.3934,1.454" fill="#b3b3b3"/><path d="M128.328,48.9416,122.33,47.0994a9.6183,9.6183,0,0,0,.6333-.9767l5.9985,1.8421a9.6481,9.6481,0,0,1-.6333.9768" fill="#aeaeae"/><path d="M128.9613,47.9648l-5.9985-1.8421c.1293-.228.25-.462.3619-.7l5.9985,1.8421c-.1117.2382-.2327.4723-.3619.7" fill="#a9a9a9"/><path d="M129.3232,47.2646l-5.9985-1.8421q.1362-.2905.2536-.5884l5.9985,1.8421q-.1171.2973-.2536.5884" fill="#a5a5a5"/><path d="M129.5768,46.6762l-5.9985-1.8421q.1041-.2641.1921-.5315l5.9984,1.8421q-.0878.2672-.192.5315" fill="#a0a0a0"/><path d="M129.7688,46.1447,123.77,44.3026q.0783-.2385.1431-.4779l5.9985,1.8421q-.0647.2393-.1432.4779" fill="#9b9b9b"/><path d="M129.912,45.6668l-5.9985-1.8421q.0618-.2288.1105-.4569l5.9985,1.8422q-.0486.2278-.1105.4568" fill="#969696"/><path d="M130.0225,45.21l-5.9985-1.8422q.0474-.2219.0816-.4422l5.9984,1.8422q-.0341.22-.0815.4422" fill="#919191"/><path d="M130.104,44.7678l-5.9984-1.8422q.035-.2262.0557-.4494l5.9984,1.8422q-.02.2229-.0557.4494" fill="#8c8c8c"/><path d="M130.16,44.3184l-5.9984-1.8422q.0217-.2373.0265-.47l5.9985,1.8421q-.0046.232-.0266.47" fill="#888"/><path d="M130.1863,43.8487l-5.9985-1.8421q.0053-.2656-.0132-.5224l5.9984,1.8422q.0186.2562.0133.5223" fill="#838383"/><path d="M130.173,43.3264l-5.9984-1.8422a3.1978,3.1978,0,0,0-2.2728-3.08L127.9,40.2469a3.1976,3.1976,0,0,1,2.2728,3.08" fill="#7e7e7e"/></g></g></g><g style="isolation:isolate"><g clip-path="url(#y)"><g style="isolation:isolate"><path d="M122.5942,56.0486l-5.9985-1.8421a4.4974,4.4974,0,0,1-1.5864-.8931c-2.5085-2.0893-3.2063-5.6828-3.3828-8.155l5.9984,1.8421c.1765,2.4722.8743,6.0658,3.3828,8.155a4.4958,4.4958,0,0,0,1.5865.8931" fill="#7e7e7e"/></g></g></g><g style="isolation:isolate"><g clip-path="url(#z)"><g style="isolation:isolate"><path d="M127.2294,38.1972l-5.9985-1.8421q.2824-.4467.5918-.8679l5.9985,1.8421q-.31.4224-.5918.8679" fill="#124874"/><path d="M127.8212,37.3293l-5.9985-1.8421c.2819-.3843.5817-.7557.9013-1.12a7.351,7.351,0,0,1,1.03-.9288l5.9984,1.8421a7.3444,7.3444,0,0,0-1.03.9288c-.32.3643-.6194.7357-.9013,1.12" fill="#124a77"/><path d="M129.7527,35.2805l-5.9984-1.8421a9.4357,9.4357,0,0,1,1.4482-.9043l5.9984,1.8422a9.44,9.44,0,0,0-1.4482.9042" fill="#124874"/><path d="M131.2009,34.3763l-5.9984-1.8422.0464-.0228a5.5168,5.5168,0,0,1,.5065-.219c.1567-.0578.307-.11.452-.157l5.9985,1.8422q-.2175.07-.452.157a5.4755,5.4755,0,0,0-.5065.2189l-.0465.0229" fill="#114671"/><path d="M132.2059,33.9775l-5.9985-1.8422a7.4542,7.4542,0,0,1,.8766-.2307q.0736-.0148.1455-.0273l5.9984,1.8421q-.0719.0126-.1454.0274a7.41,7.41,0,0,0-.8766.2307" fill="#11446d"/><path d="M133.2279,33.7194,127.23,31.8773a4.24,4.24,0,0,1,.5862-.0633l5.9985,1.8421a4.2412,4.2412,0,0,0-.5863.0633" fill="#11426a"/><path d="M133.8142,33.6561l-5.9985-1.8421a3.0891,3.0891,0,0,1,.4376.0154l5.9984,1.8421a3.0871,3.0871,0,0,0-.4375-.0154" fill="#104067"/><path d="M134.2517,33.6715l-5.9984-1.8421a2.6447,2.6447,0,0,1,.38.0692l5.9984,1.8421a2.656,2.656,0,0,0-.38-.0692" fill="#103e64"/><path d="M134.6317,33.7407l-5.9984-1.8421q.0557.0144.1106.0313l5.9985,1.8421q-.055-.017-.1107-.0313" fill="#0f3c61"/></g></g></g><g style="isolation:isolate"><g clip-path="url(#aa)"><g style="isolation:isolate"><path d="M126.3386,40.0447,120.34,38.2026a6.5339,6.5339,0,0,1,.7278-.6466l5.9985,1.8421a6.5547,6.5547,0,0,0-.7279.6466" fill="#b3b3b3"/><path d="M127.0665,39.3981,121.068,37.556a4.6724,4.6724,0,0,1,.733-.4592L127.8,38.9389a4.6826,4.6826,0,0,0-.733.4592" fill="#aeaeae"/><path d="M127.8,38.9389l-5.9985-1.8421.0269-.0132c.0547-.0267.11-.0523.1665-.0763l5.9984,1.8421c-.0563.024-.1118.05-.1665.0763l-.0268.0132" fill="#a9a9a9"/></g></g></g><g style="isolation:isolate"><g clip-path="url(#ab)"><g style="isolation:isolate"><path d="M126.3386,40.0447,120.34,38.2026q.02-.0522.04-.104l5.9985,1.8422q-.02.0517-.04.1039" fill="#11426a"/><path d="M126.3788,39.9408,120.38,38.0986q.1353-.345.29-.6758l5.9985,1.8421q-.1543.3308-.29.6759" fill="#11446d"/><path d="M126.6689,39.2649,120.67,37.4228c.1416-.3037.2941-.598.4543-.8825l5.9985,1.8421c-.16.2845-.3128.5789-.4543.8825" fill="#114671"/><path d="M127.1232,38.3824,121.1247,36.54q.0525-.0933.1062-.1852l5.9985,1.8421q-.0537.0919-.1062.1852" fill="#124874"/></g></g></g><g style="isolation:isolate"><g clip-path="url(#ac)"><g style="isolation:isolate"><polyline points="126.317 40.045 120.318 38.203 120.329 38.192 126.327 40.034 126.317 40.045" fill="#b3b3b3"/></g></g></g><g style="isolation:isolate"><g clip-path="url(#ad)"><g style="isolation:isolate"><path d="M131.0284,24.2473,125.03,22.4052l.0564-.0152,5.9984,1.8421-.0563.0152" fill="#a5a5a5"/></g></g></g><g style="isolation:isolate"><g clip-path="url(#ae)"><g style="isolation:isolate"><path d="M131.0516,24.2551l-5.9985-1.8421-.0232-.0078,5.9985,1.8421.0232.0078" fill="#7e7e7e"/></g></g></g><path d="M131.0847,24.2321l-.0331.023-.0232-.0078Z" fill="#cbcbcb"/><g style="isolation:isolate"><g clip-path="url(#af)"><g style="isolation:isolate"><path d="M122.5942,56.0486l-5.9985-1.8421a4.4974,4.4974,0,0,1-1.5864-.8931c-2.5085-2.0893-3.2063-5.6828-3.3828-8.155l5.9984,1.8421c.1765,2.4722.8743,6.0658,3.3828,8.155a4.4958,4.4958,0,0,0,1.5865.8931" fill="#7e7e7e"/><path d="M117.6249,47.0005l-5.9984-1.8421c-.062-.8683-.06-1.5983-.049-2.0762l5.9985,1.8421c-.0108.4779-.0131,1.2079.0489,2.0762" fill="#838383"/><path d="M117.576,44.9243l-5.9985-1.8421c.002-.0861.0042-.1641.0063-.2332.0132-.33.0357-.6956.0733-1.0984l5.9984,1.8421c-.0376.4028-.06.7688-.0732,1.0985-.0022.069-.0044.147-.0063.2331" fill="#888"/><path d="M117.6555,43.5927l-5.9984-1.8421c.0379-.4063.0911-.85.1658-1.3317l5.9985,1.8421c-.0747.4817-.128.9254-.1659,1.3317" fill="#8c8c8c"/><path d="M117.8214,42.261l-5.9985-1.8421c.0652-.4205.1467-.87.2485-1.3489l5.9985,1.8422c-.1018.4788-.1834.9283-.2485,1.3488" fill="#919191"/><path d="M118.07,40.9122,112.0714,39.07c.097-.4558.2123-.9381.35-1.4474l5.9985,1.8421c-.1372.5093-.2526.9917-.3495,1.4475" fill="#969696"/><path d="M118.4194,39.4647l-5.9985-1.8421c.139-.5157.3-1.0589.4878-1.63l5.9985,1.8421c-.1875.5712-.3488,1.1145-.4878,1.63" fill="#9b9b9b"/><path d="M118.9072,37.8346l-5.9985-1.8421.0148-.045q.1748-.5142.3756-1.0266l5.9985,1.8422q-.2007.5116-.3756,1.0265l-.0148.045" fill="#a0a0a0"/><path d="M119.2976,36.7631l-5.9985-1.8422q.2838-.7241.6161-1.4365l5.9985,1.8421q-.3315.7109-.6161,1.4366" fill="#a5a5a5"/><path d="M119.9137,35.3265l-5.9985-1.8421q.0672-.144.1361-.2872.4253-.8843.8876-1.7041l5.9985,1.8421q-.4617.82-.8876,1.7042-.069.1431-.1361.2871" fill="#a9a9a9"/><path d="M120.9374,33.3352l-5.9985-1.8421a26.41,26.41,0,0,1,1.7082-2.6574l5.9984,1.8421a26.3919,26.3919,0,0,0-1.7081,2.6574" fill="#aeaeae"/><path d="M122.6455,30.6778l-5.9984-1.8421q.4734-.6455.9677-1.2312a19.2227,19.2227,0,0,1,3.1176-3.0073l5.9985,1.8422a19.2183,19.2183,0,0,0-3.1177,3.0072q-.4937.5854-.9677,1.2312" fill="#b3b3b3"/><path d="M126.7309,26.4394l-5.9985-1.8422a13.9694,13.9694,0,0,1,2.1989-1.3745l5.9984,1.8421a13.9694,13.9694,0,0,0-2.1988,1.3746" fill="#aeaeae"/><path d="M128.93,25.0648l-5.9984-1.8421.0822-.04a10.95,10.95,0,0,1,1.43-.58l5.9984,1.8421a10.9552,10.9552,0,0,0-1.43.58l-.0822.04" fill="#a9a9a9"/><path d="M130.442,24.4444l-5.9984-1.8421q.2893-.0936.578-.1676l5.9984,1.8422q-.2885.0739-.578.1675" fill="#a5a5a5"/></g></g></g><g style="isolation:isolate"><g clip-path="url(#ag)"><g style="isolation:isolate"><path d="M124.4038,24.904l-5.9984-1.8421a11.4208,11.4208,0,0,1,1.49-.605l5.9985,1.8421a11.4276,11.4276,0,0,0-1.49.605" fill="#114671"/><path d="M125.8943,24.299l-5.9985-1.8421a9.5829,9.5829,0,0,1,1.3052-.3255l5.9984,1.8422a9.5663,9.5663,0,0,0-1.3051.3254" fill="#11446d"/><path d="M127.1994,23.9736l-5.9984-1.8422a8.4083,8.4083,0,0,1,1.1631-.1213l5.9985,1.8422a8.3791,8.3791,0,0,0-1.1632.1213" fill="#11426a"/><path d="M128.3626,23.8523,122.3641,22.01a7.6653,7.6653,0,0,1,1.0823.04l5.9984,1.8421a7.664,7.664,0,0,0-1.0822-.04" fill="#104067"/><path d="M129.4448,23.8923,123.4464,22.05a7.2512,7.2512,0,0,1,1.0348.1891l5.9985,1.8421a7.2666,7.2666,0,0,0-1.0349-.1891" fill="#103e64"/><path d="M130.48,24.0814l-5.9985-1.8421q.154.04.3059.0865l5.9985,1.8421q-.1518-.0465-.3059-.0865" fill="#0f3c61"/></g></g></g><g style="isolation:isolate"><g clip-path="url(#ah)"><g style="isolation:isolate"><path d="M119.0874,62.42l-5.9985-1.8421c-3.8194-1.1729-6.561-5.4615-7.0131-11.7547l5.9985,1.8422c.4521,6.2931,3.1937,10.5817,7.0131,11.7546" fill="#0d3454"/><path d="M112.0743,50.6653l-5.9985-1.8422q-.0375-.5214-.0537-1.0611-.0213-.708-.0053-1.42l5.9985,1.8421q-.0157.7122.0052,1.4205.0162.54.0538,1.0612" fill="#0e3657"/><path d="M112.0153,48.1836l-5.9985-1.8421q.0226-1.0163.1182-2.036l5.9985,1.8421q-.0951,1.0185-.1182,2.036" fill="#0e385a"/><path d="M112.1335,46.1476l-5.9985-1.8421q.0858-.92.2283-1.8368l5.9984,1.8422q-.142.9161-.2282,1.8367" fill="#0f3a5d"/><path d="M112.3617,44.3109l-5.9984-1.8422q.135-.8709.3189-1.7347l5.9985,1.8421q-.1836.863-.319,1.7348" fill="#0f3c61"/><path d="M112.6807,42.5761l-5.9985-1.8421q.1814-.8524.4081-1.6933l5.9984,1.8421q-.2264.84-.408,1.6933" fill="#103e64"/><path d="M113.0887,40.8828,107.09,39.0407q.2309-.8569.5068-1.6974l5.9985,1.8421q-.2755.84-.5069,1.6974" fill="#104067"/><path d="M113.5956,39.1854l-5.9985-1.8421q.29-.8844.6278-1.7451l5.9984,1.8421q-.3371.86-.6277,1.7451" fill="#11426a"/><path d="M114.2233,37.44l-5.9984-1.8421q.3768-.9614.8093-1.886l5.9984,1.8421q-.4317.9234-.8093,1.886" fill="#11446d"/><path d="M115.0326,35.5543l-5.9984-1.8421q.0561-.12.1132-.2395.4569-.96.97-1.87l5.9984,1.8422q-.5118.9082-.9695,1.87-.0571.1194-.1133.2395" fill="#114671"/><path d="M116.1154,33.4452,110.117,31.603a27.71,27.71,0,0,1,1.7933-2.7877l5.9984,1.8422a27.7051,27.7051,0,0,0-1.7933,2.7877" fill="#124874"/><path d="M117.9087,30.6575,111.91,28.8153a20.7866,20.7866,0,0,1,4.1315-4.2869l5.9984,1.8421a20.7847,20.7847,0,0,0-4.1315,4.287" fill="#124a77"/><path d="M122.04,26.3705l-5.9984-1.8421a14.4,14.4,0,0,1,2.2755-1.4231l5.9984,1.8421a14.4086,14.4086,0,0,0-2.2755,1.4231" fill="#124874"/><path d="M124.3157,24.9474l-5.9984-1.8421.0881-.0434,5.9984,1.8421-.0881.0434" fill="#114671"/></g></g></g><path d="M124.4038,24.904a8.527,8.527,0,0,1,6.6246-.6567,13.0157,13.0157,0,0,0-2.0165.7771,16.89,16.89,0,0,0-5.3987,4.4222,26.4594,26.4594,0,0,0-3.5634,5.5928,24.564,24.564,0,0,0-1.1278,2.75,24.8986,24.8986,0,0,0-1.34,6.9016c-.0482,1.5435-.123,7.509,3.4254,10.4643a4.3714,4.3714,0,0,0,2.0138,1,5.3307,5.3307,0,0,0,3.3783-.5388,10.6508,10.6508,0,0,0,3.6441-3.1131,17.1553,17.1553,0,0,0,3.3822-9.8628c-.0459-4.2857-3.05-4.8278-5.4333-3.7912-.0563.024-.1118.05-.1665.0763a5.5682,5.5682,0,0,0-1.4877,1.119,12.4893,12.4893,0,0,1,.8908-1.8475,15.7915,15.7915,0,0,1,1.4931-1.9879,8.91,8.91,0,0,1,2.5249-1.8559,5.4755,5.4755,0,0,1,.5065-.2189,8.5182,8.5182,0,0,1,1.3286-.3877,2.9542,2.9542,0,0,1,2.4387.4062c1.1092.7607,2.0222,2.6584,2.0714,5.6744a18.6379,18.6379,0,0,1-.2639,3.4039,30.18,30.18,0,0,1-1.16,4.6138c-.0542.1609-.1082.33-.1738.5048-.311.8487-.6522,1.6784-1.0176,2.4865-2.255,4.9294-5.6343,8.9878-9.4689,10.858a9.613,9.613,0,0,1-4.1131,1.0488c-5.2227.0783-9.1307-5.02-9.3744-13.1391a31.6352,31.6352,0,0,1,3.1254-14.2893C117.3952,30.59,120.6856,26.7175,124.4038,24.904Z" fill="#155487"/><path d="M127.9928,38.8494c2.3837-1.0366,5.3874-.4945,5.4333,3.7912a17.1554,17.1554,0,0,1-3.3821,9.8628A10.6524,10.6524,0,0,1,126.4,55.6165a5.3307,5.3307,0,0,1-3.3783.5388,4.3714,4.3714,0,0,1-2.0138-1c-3.5484-2.9553-3.4736-8.9208-3.4254-10.4643a24.8992,24.8992,0,0,1,1.34-6.9016,24.5829,24.5829,0,0,1,1.1278-2.75,26.4594,26.4594,0,0,1,3.5634-5.5928,16.8909,16.8909,0,0,1,5.3987-4.4222,10.5768,10.5768,0,0,1,2.0081-.7475c-9.2254,6.344-13.7721,21.4593-8.4236,26.1735a2.9776,2.9776,0,0,0,3.4881.48c3.941-1.9221,6.7039-10.9556.2541-10.8861a5.5682,5.5682,0,0,1,1.4877-1.119C127.881,38.899,127.9365,38.8734,127.9928,38.8494Z" fill="#cbcbcb"/></g><polygon points="65.463 1.19 65.59 45.833 67.638 47.023 67.511 2.38 65.463 1.19" fill="#c6c6c6"/><polygon points="67.511 2.38 67.638 47.023 69.699 45.833 69.572 1.19 67.511 2.38" fill="#a7a9ac"/><polygon points="65.463 1.19 67.511 2.38 69.572 1.19 67.525 0 65.463 1.19" fill="#e6e7e8"/><polygon points="70.949 20.359 71.029 48.555 73.077 49.745 72.997 21.549 70.949 20.359" fill="#c6c6c6"/><polygon points="72.997 21.549 73.077 49.745 75.138 48.555 75.058 20.359 72.997 21.549" fill="#a7a9ac"/><polygon points="70.949 20.359 72.997 21.549 75.058 20.359 73.01 19.169 70.949 20.359" fill="#e6e7e8"/></svg>