<?xml version="1.0" encoding="utf-8"?>
<!-- Generator: Adobe Illustrator 23.1.0, SVG Export Plug-In . SVG Version: 6.00 Build 0)  -->
<svg version="1.1" id="Layer_1" xmlns="http://www.w3.org/2000/svg" xmlns:xlink="http://www.w3.org/1999/xlink" x="0px" y="0px"
	 viewBox="0 0 23.3 30.3" style="enable-background:new 0 0 23.3 30.3;" xml:space="preserve">
<style type="text/css">
	.st0{fill:#FFFFFF;}
</style>
<title>Asset 10</title>
<path class="st0" d="M9.8,22.7c0.4,0.4,0.8,0.7,1.4,0.8h0.2c0.1,0,0.2,0,0.2,0l0,0c0.7,0,1.3-0.3,1.8-0.7l9.1-9.1
	c0.8-1.1,0.5-2.7-0.7-3.5c-0.9-0.6-2-0.6-2.8,0L14.2,15V2.8C14.4,1.5,13.4,0.2,12,0S9.4,0.8,9.2,2.2c0,0.2,0,0.4,0,0.6v12.1
	l-4.8-4.8c-1-1-2.6-1-3.6,0s-1,2.6,0,3.6l0,0L9.8,22.7z"/>
<path class="st0" d="M20.7,25.3H2.5c-1.4,0.2-2.4,1.4-2.2,2.8c0.1,1.1,1,2,2.2,2.2h18.2c1.4-0.2,2.4-1.4,2.2-2.8
	C22.8,26.4,21.9,25.5,20.7,25.3z"/>
</svg>
