<svg xmlns="http://www.w3.org/2000/svg" viewBox="0 0 270.8374 238.4545"><title>Asset 4</title><polyline points="123.008 85.221 57.981 145.899 173.052 177.797 148.562 92.305 123.008 85.221" fill="#e6e7e8" stroke="#027cb0" stroke-linejoin="round" stroke-width="0.7914"/><polyline points="212.974 75.805 148.562 92.305 173.052 177.797 251.93 157.827 212.974 75.805" fill="#e6e7e8" stroke="#027cb0" stroke-linejoin="round" stroke-width="0.7914"/><polyline points="217.113 60.872 212.974 75.805 251.93 157.827 270.263 91.685 217.113 60.872" fill="#e6e7e8" stroke="#027cb0" stroke-linejoin="round" stroke-width="0.7914"/><polyline points="76.593 38.001 0.396 88.102 57.981 145.899 123.008 85.221 76.593 38.001" fill="#e6e7e8" stroke="#027cb0" stroke-linejoin="round" stroke-width="0.7914"/><polyline points="144.842 6.453 80.733 23.068 76.593 38.001 123.008 85.221 148.562 92.305 212.974 75.805 217.113 60.872 172.147 14.022 144.842 6.453" fill="#e6e7e8" stroke="#027cb0" stroke-linejoin="round" stroke-width="0.7914"/><polyline points="19.125 20.533 0.396 88.102 76.593 38.001 80.733 23.068 19.125 20.533" fill="#e6e7e8" stroke="#027cb0" stroke-linejoin="round" stroke-width="0.7914"/><polyline points="98.29 0.481 19.125 20.533 80.733 23.068 144.842 6.453 98.29 0.481" fill="#e6e7e8" stroke="#027cb0" stroke-linecap="square" stroke-linejoin="round" stroke-width="0.7914"/><polyline points="172.147 14.022 213.305 32.583 270.263 91.685 217.113 60.872 172.147 14.022" fill="#e6e7e8" stroke="#027cb0" stroke-linejoin="round" stroke-width="0.7914"/><polyline points="57.981 145.899 94.596 237.954 173.052 177.797 57.981 145.899" fill="#e6e7e8" stroke="#027cb0" stroke-linejoin="round" stroke-width="0.7914"/><polyline points="251.93 157.827 173.052 177.797 94.596 237.954 251.93 157.827" fill="#e6e7e8" stroke="#027cb0" stroke-linejoin="round" stroke-width="0.7914"/><polyline points="0.396 88.102 57.981 145.899 94.596 237.954 0.396 88.102" fill="#e6e7e8" stroke="#027cb0" stroke-linejoin="round" stroke-width="0.7914"/><polygon points="213.437 32.567 172.279 14.006 144.974 6.437 98.423 0.465 19.257 20.517 0.528 88.086 94.729 237.938 252.062 157.811 270.396 91.669 213.437 32.567" fill="none" stroke="#6d6e71" stroke-miterlimit="10" stroke-width="0.7914"/></svg>