<svg xmlns="http://www.w3.org/2000/svg" viewBox="0 0 40.41 30"><title>Asset 9</title><path d="M39.32,24.47l-.51-.37a2.91,2.91,0,0,0,.56-.6l0,0a2.63,2.63,0,0,0-.52-3.54l-11.4-9.56a6.5,6.5,0,0,1,1.61-.65,5.67,5.67,0,0,0,4.19-4.78,3.78,3.78,0,0,0-2.35-3.81c-.74-.45-1.49.15-2.28.79A10.45,10.45,0,0,1,25.84,3.7a5.41,5.41,0,0,1-2.69,0A8.41,8.41,0,0,0,18.81,4l-.55.2c-2.08.75-3.86,1.39-6.69.46l.33-.92A1.13,1.13,0,0,0,12,3.35a1,1,0,0,0-.57-.94L6.85.11A1.12,1.12,0,0,0,6.38,0,1.07,1.07,0,0,0,6,.07,1.09,1.09,0,0,0,5.4.69l-5.34,15A1.13,1.13,0,0,0,0,16,1,1,0,0,0,.57,17l4.54,2.3a1.12,1.12,0,0,0,.47.11A1.07,1.07,0,0,0,6,19.31a1.06,1.06,0,0,0,.59-.62l.36-1a3.92,3.92,0,0,1,2.59,1.69,23.76,23.76,0,0,0,6.67,5.46l.24.14c2.33,1.43,6.24,3.82,8.34,4.78A2.61,2.61,0,0,0,28,28.87a2.51,2.51,0,0,0,.4-.92l2.79,1.62a2.63,2.63,0,0,0,3.47-.78l0,0a2.6,2.6,0,0,0,.37-.77l1.27.83a2.61,2.61,0,0,0,3.59-.71l0,0A2.61,2.61,0,0,0,39.32,24.47ZM5,16.88,2.32,15.53,7,2.5,9.64,3.85ZM38.42,27l0,0a.77.77,0,0,1-1.06.21L27,20.48A.92.92,0,0,0,26,22l7,4.59a.76.76,0,0,1,.34.5.81.81,0,0,1-.12.59l0,.05a.79.79,0,0,1-1,.23L23,22.65a.91.91,0,0,0-1.25.33A.92.92,0,0,0,22,24.24l4.2,2.47a.78.78,0,0,1,.37.5.81.81,0,0,1-.12.61.78.78,0,0,1-1,.26c-2-.91-6-3.36-8.14-4.67l-.24-.14a22,22,0,0,1-6.23-5.08,5.65,5.65,0,0,0-3.37-2.25L11,6.36c3.44,1.16,5.64.37,7.92-.46l.54-.19a6.76,6.76,0,0,1,3.47-.14,7,7,0,0,0,3.58-.14,12.07,12.07,0,0,0,3.34-2.08l.57-.45a1.91,1.91,0,0,1,1.06,1.9A3.86,3.86,0,0,1,28.6,7.93,7.84,7.84,0,0,0,26,9.12l-1-.8a.92.92,0,0,0-1.3.11.93.93,0,0,0,.12,1.3L37.71,21.34l0,0a.78.78,0,0,1,.16,1.05l0,.05a.79.79,0,0,1-.51.32.76.76,0,0,1-.4,0l-8.25-6a.92.92,0,1,0-1.09,1.49l8.06,5.9a2.39,2.39,0,0,0,.34.21L38.24,26A.78.78,0,0,1,38.42,27Z" fill="#fff"/></svg>