<svg xmlns="http://www.w3.org/2000/svg" viewBox="0 0 23.25 30"><defs><style>.cls-1{fill:#d11654;}</style></defs><title>Asset 3</title><g id="Layer_2" data-name="Layer 2"><g id="content"><path class="cls-1" d="M9.78,22.43a2.53,2.53,0,0,0,1.37.76l.24,0a1.81,1.81,0,0,0,.23,0h0a2.52,2.52,0,0,0,1.78-.74l9.09-9.1A2.52,2.52,0,0,0,19,9.84l-4.81,4.81V2.52a2.52,2.52,0,1,0-5,0V14.63l-4.8-4.8A2.52,2.52,0,0,0,.75,13.39Z"/><path class="cls-1" d="M20.73,25H2.52a2.52,2.52,0,0,0,0,5H20.73a2.52,2.52,0,0,0,0-5Z"/></g></g></svg>