<svg xmlns="http://www.w3.org/2000/svg" viewBox="0 0 230.89 251.14"><title>B22_IT_about</title><path d="M230.89,163.36V87.79a50,50,0,0,0-25-43.31L140.45,6.7a50,50,0,0,0-50,0L25,44.48A50,50,0,0,0,0,87.79v75.57a50,50,0,0,0,25,43.3l65.45,37.78a50,50,0,0,0,50,0l65.44-37.78A50,50,0,0,0,230.89,163.36Z" fill="#f0f0f0"/><path d="M78.49,116.16H83.3v14.47h7.51v4.2H78.49Z" fill="#e4e4e4"/><path d="M101.67,115.85c5.71,0,10,4,10,9.66s-4.26,9.66-10,9.66-10-4-10-9.66S96,115.85,101.67,115.85Zm0,4.26c-3.11,0-5.1,2.35-5.1,5.4s2,5.4,5.1,5.4,5.07-2.38,5.07-5.4S104.75,120.11,101.67,120.11Z" fill="#e4e4e4"/><path d="M123.23,115.85a8.79,8.79,0,0,1,8,4.34l-4,2.13a4.66,4.66,0,0,0-4-2.21,5.4,5.4,0,0,0,0,10.8,5.8,5.8,0,0,0,3.53-1.12v-1.56h-4.29v-4h9v7.31a10.8,10.8,0,0,1-8.26,3.64c-5.57,0-10.11-3.72-10.11-9.66S117.66,115.85,123.23,115.85Z" fill="#e4e4e4"/><path d="M143.36,115.85c5.71,0,10,4,10,9.66s-4.26,9.66-10,9.66-10-4-10-9.66S137.65,115.85,143.36,115.85Zm0,4.26c-3.1,0-5.09,2.35-5.09,5.4s2,5.4,5.09,5.4,5.07-2.38,5.07-5.4S146.44,120.11,143.36,120.11Z" fill="#e4e4e4"/></svg>