<svg xmlns="http://www.w3.org/2000/svg" xmlns:xlink="http://www.w3.org/1999/xlink" viewBox="0 0 225.34 250.23"><defs><style>.cls-1{fill:url(#linear-gradient);}.cls-2{fill:#bcbec0;}.cls-17,.cls-3{fill:#d1d3d4;}.cls-18,.cls-4{fill:#a7a9ac;}.cls-5{fill:none;stroke:#00ffa3;stroke-miterlimit:10;stroke-width:0.2px;}.cls-6{opacity:0.9;}.cls-7{fill:#939598;}.cls-8{fill:#e6e7e8;}.cls-9{fill:#d31654;}.cls-10{fill:#9c113e;}.cls-11{fill:#fa5288;}.cls-12{fill:#00eb96;}.cls-13{fill:#00bd78;}.cls-14{fill:#70ffcb;}.cls-15{fill:#6d6e71;}.cls-16{fill:#808285;}.cls-17,.cls-18{opacity:0.3;}</style><linearGradient id="linear-gradient" x1="112.67" y1="3.25" x2="112.67" y2="246.07" gradientUnits="userSpaceOnUse"><stop offset="0" stop-color="#f1f2f2"/><stop offset="0.37" stop-color="#eeefef"/><stop offset="0.69" stop-color="#e3e4e5"/><stop offset="1" stop-color="#d1d3d4"/><stop offset="1" stop-color="#d1d3d4"/></linearGradient></defs><title>jbhjbn3Asset 9</title><g id="Layer_2" data-name="Layer 2"><g id="content"><path class="cls-1" d="M84.42,10.82,27.8,43.51A55.61,55.61,0,0,0,0,91.66v67a53.68,53.68,0,0,0,26.85,46.5l57.91,33.43a55.78,55.78,0,0,0,55.82,0l57.91-33.43a53.68,53.68,0,0,0,26.85-46.5v-67a55.61,55.61,0,0,0-27.8-48.15L140.92,10.82A56.51,56.51,0,0,0,84.42,10.82Z"/><path class="cls-2" d="M191.45,250.12c-1.53,0,1.14-3.41-.22-4.18L55.29,169.26a17.8,17.8,0,0,1-9-15.49L40.66,9.11C41.91,2,47.74-.32,56,0c4.89.22,7.77,1.35,11.87,3.53L195.64,75.64a17.8,17.8,0,0,1,9.05,15.49V233.77C204.69,239.92,196.43,250.12,191.45,250.12Z"/><path class="cls-3" d="M190.07,250.23a9.11,9.11,0,0,1-4.43-1.17L49.7,172.38a17.8,17.8,0,0,1-9-15.49V9.94A9,9,0,0,1,54.11,2.08L190.05,78.76a17.8,17.8,0,0,1,9,15.48v147A9,9,0,0,1,190.07,250.23Z"/><path class="cls-4" d="M196,241.2a5.9,5.9,0,0,1-8.8,5.14L51.24,169.67a14.68,14.68,0,0,1-7.46-12.78V9.94a5.9,5.9,0,0,1,8.8-5.15L188.52,81.47A14.66,14.66,0,0,1,196,94.24Z"/><line class="cls-5" x1="60.69" y1="19.31" x2="60.69" y2="166.26"/><line class="cls-5" x1="77.6" y1="28.67" x2="77.6" y2="175.63"/><line class="cls-5" x1="94.51" y1="38.04" x2="94.51" y2="184.99"/><line class="cls-5" x1="111.42" y1="47.41" x2="111.42" y2="194.36"/><line class="cls-5" x1="128.34" y1="56.77" x2="128.34" y2="203.73"/><line class="cls-5" x1="145.25" y1="66.14" x2="145.25" y2="213.1"/><line class="cls-5" x1="162.16" y1="75.51" x2="162.16" y2="222.46"/><line class="cls-5" x1="179.07" y1="84.88" x2="179.07" y2="231.83"/><line class="cls-5" x1="52.43" y1="23.11" x2="188.37" y2="99.79"/><line class="cls-5" x1="52.28" y1="41.43" x2="188.22" y2="118.11"/><line class="cls-5" x1="52.13" y1="59.75" x2="188.07" y2="136.43"/><line class="cls-5" x1="51.98" y1="78.07" x2="187.92" y2="154.75"/><line class="cls-5" x1="51.83" y1="96.39" x2="187.77" y2="173.07"/><line class="cls-5" x1="51.68" y1="114.71" x2="187.63" y2="191.38"/><line class="cls-5" x1="51.53" y1="133.03" x2="187.48" y2="209.7"/><line class="cls-5" x1="51.39" y1="151.35" x2="187.33" y2="228.02"/><g class="cls-6"><polygon class="cls-2" points="82.08 166.5 82.08 192.05 73.13 187 73.13 161.45 82.08 166.5"/><polygon class="cls-7" points="92.33 188.34 92.33 162.78 82.08 166.5 82.08 192.05 92.33 188.34"/><polygon class="cls-8" points="92.33 162.78 83.38 157.74 73.13 161.45 82.08 166.5 92.33 162.78"/></g><g class="cls-6"><polygon class="cls-2" points="94.62 165.87 94.62 199.12 85.66 194.07 85.66 160.82 94.62 165.87"/><polygon class="cls-7" points="104.87 195.41 104.87 162.16 94.62 165.87 94.62 199.12 104.87 195.41"/><polygon class="cls-8" points="104.87 162.16 95.91 157.11 85.66 160.82 94.62 165.87 104.87 162.16"/></g><g class="cls-6"><polygon class="cls-9" points="107.15 165.31 107.15 206.19 98.2 201.14 98.2 160.26 107.15 165.31"/><polygon class="cls-10" points="117.4 202.48 117.4 161.6 107.15 165.31 107.15 206.19 117.4 202.48"/><polygon class="cls-11" points="117.4 161.6 108.45 156.55 98.2 160.26 107.15 165.31 117.4 161.6"/></g><g class="cls-6"><polygon class="cls-2" points="119.69 162.16 119.69 213.26 110.73 208.21 110.73 157.11 119.69 162.16"/><polygon class="cls-7" points="129.94 209.55 129.94 158.45 119.69 162.16 119.69 213.26 129.94 209.55"/><polygon class="cls-8" points="129.94 158.45 120.98 153.4 110.73 157.11 119.69 162.16 129.94 158.45"/></g><g class="cls-6"><polygon class="cls-2" points="132.22 151.34 132.22 220.33 123.27 215.28 123.27 146.29 132.22 151.34"/><polygon class="cls-7" points="142.47 216.62 142.47 147.63 132.22 151.34 132.22 220.33 142.47 216.62"/><polygon class="cls-8" points="142.47 147.63 133.52 142.58 123.27 146.29 132.22 151.34 142.47 147.63"/></g><g class="cls-6"><polygon class="cls-12" points="144.76 137.97 144.76 227.4 135.8 222.35 135.8 132.92 144.76 137.97"/><polygon class="cls-13" points="155.01 223.69 155.01 134.26 144.76 137.97 144.76 227.4 155.01 223.69"/><polygon class="cls-14" points="155.01 134.26 146.06 129.21 135.8 132.92 144.76 137.97 155.01 134.26"/></g><g class="cls-6"><polygon class="cls-2" points="157.29 129.71 157.29 234.47 148.34 229.42 148.34 124.66 157.29 129.71"/><polygon class="cls-7" points="167.54 230.76 167.54 126 157.29 129.71 157.29 234.47 167.54 230.76"/><polygon class="cls-8" points="167.54 126 158.59 120.95 148.34 124.66 157.29 129.71 167.54 126"/></g><path class="cls-15" d="M158.59,121l8.95,5V230.76l-10.25,3.71-8.95-5.05V226.1l-3.58,1.3-9-5.05V219l-3.58,1.3-9-5.05V212l-3.58,1.3-9-5v-3.32l-3.58,1.3-9-5.05v-3.32l-3.58,1.3-9-5.05v-3.32l-3.58,1.3-9-5.05V161.45l10.25-3.71,4.22,2.38,8.31-3,4.3,2.42,8.24-3,2.28,1.28v-.72L121,153.4l2.29,1.28v-8.39l10.25-3.71,2.28,1.29v-11l10.26-3.71,2.28,1.29v-5.84L158.59,121m.09-1.09-.43.15L148,123.72l-.66.24v4.83l-.79-.45-.4-.22-.44.15L135.46,132l-.66.24v9.94l-.79-.45-.4-.22-.43.15-10.25,3.71-.66.24V153l-.79-.44-.4-.23-.44.16-10.25,3.71-.35.13-1.1-.63-.4-.22-.43.16-7.81,2.82-3.9-2.19L96,156l-.44.16L87.69,159l-3.82-2.16-.4-.22-.43.16-10.25,3.71-.66.24v26.83l.51.29,9,5,.4.22.43-.15,2.24-.81v2.47l.51.29,9,5.05.4.22.44-.15,2.24-.81v2.47l.51.29,9,5.05.4.22.43-.15,2.24-.81v2.47l.51.29,9,5,.4.22.43-.15,2.24-.81v2.47l.51.29,8.95,5,.4.23.43-.16,2.24-.81v2.47l.51.29,9,5.05.4.23.43-.16,2.24-.81V230l.51.29,9,5.05.4.23.43-.16,10.25-3.71.66-.24v-106l-.5-.29-9-5-.4-.22Z"/><path class="cls-2" d="M24,167a1.36,1.36,0,0,1-.74-.22,1.38,1.38,0,0,1-.42-1.9l15.66-24.55a1.38,1.38,0,0,1,2.32,1.48L25.18,166.31A1.37,1.37,0,0,1,24,167Z"/><circle class="cls-8" cx="41.88" cy="137.74" r="5.66"/><path class="cls-2" d="M45.27,136.11a1.37,1.37,0,0,1-.9-2.41L55.61,124a1.38,1.38,0,1,1,1.8,2.08l-11.24,9.72A1.39,1.39,0,0,1,45.27,136.11Z"/><circle class="cls-8" cx="59.75" cy="122.29" r="5.66"/><path class="cls-2" d="M74.36,136a1.38,1.38,0,0,1-.89-.33l-11.36-9.59a1.38,1.38,0,0,1,1.78-2.1l11.36,9.59a1.38,1.38,0,0,1-.89,2.43Z"/><circle class="cls-8" cx="77.62" cy="137.5" r="5.66"/><path class="cls-2" d="M81.16,135.86a1.37,1.37,0,0,1-.89-2.42l11.45-9.71a1.38,1.38,0,1,1,1.78,2.1l-11.45,9.7A1.38,1.38,0,0,1,81.16,135.86Z"/><circle class="cls-8" cx="95.6" cy="122.05" r="5.66"/><path class="cls-2" d="M109.68,131.25a1.34,1.34,0,0,1-.67-.17l-10.66-5.94a1.37,1.37,0,1,1,1.34-2.4l10.66,5.94a1.37,1.37,0,0,1-.67,2.57Z"/><circle class="cls-8" cx="113.51" cy="132.15" r="5.66"/><path class="cls-2" d="M116.42,130.24a1.37,1.37,0,0,1-1-2.27l12.4-14.54a1.38,1.38,0,0,1,2.1,1.79l-12.41,14.54A1.37,1.37,0,0,1,116.42,130.24Z"/><circle class="cls-8" cx="131.44" cy="111.59" r="5.66"/><path class="cls-2" d="M135.43,111.34a1.38,1.38,0,0,1-.5-2.66l19.27-7.57a1.37,1.37,0,1,1,1,2.56l-19.27,7.57A1.44,1.44,0,0,1,135.43,111.34Z"/><circle class="cls-8" cx="158.28" cy="101.19" r="5.66"/><path class="cls-2" d="M161.48,99.7a1.35,1.35,0,0,1-1-.48,1.38,1.38,0,0,1,.14-1.94l14.8-12.76a1.38,1.38,0,0,1,1.8,2.09l-14.8,12.76A1.39,1.39,0,0,1,161.48,99.7Z"/><path class="cls-15" d="M176.28,84.19a1.35,1.35,0,0,1,1,.48,1.38,1.38,0,0,1-.14,1.94l-13.89,12a5.66,5.66,0,0,1-9.73,5.74L137,110.81a6.65,6.65,0,0,1,.06.78,5.66,5.66,0,0,1-5.66,5.66,5.59,5.59,0,0,1-2.71-.69l-10.56,12.38a5.66,5.66,0,1,1-10.32,3.21,6,6,0,0,1,.23-1.59l-8.34-4.65a5.66,5.66,0,0,1-7.31.83L82.69,135a5.72,5.72,0,0,1,.59,2.51,5.66,5.66,0,1,1-11.32,0,5.59,5.59,0,0,1,.63-2.58l-9.53-8A5.58,5.58,0,0,1,59.75,128a5.69,5.69,0,0,1-3.3-1.06l-9.54,8.25a5.66,5.66,0,0,1-5,8.26,5.59,5.59,0,0,1-1.88-.33L25.18,166.31a1.37,1.37,0,0,1-1.9.42,1.38,1.38,0,0,1-.42-1.9l14.85-23.28a5.65,5.65,0,0,1,7.38-8.47l9.59-8.29a5.55,5.55,0,0,1-.59-2.5,5.66,5.66,0,1,1,11.32,0,5.59,5.59,0,0,1-.58,2.48l9.57,8.08a5.62,5.62,0,0,1,6.5.05l9.7-8.21a5.66,5.66,0,1,1,10.66-2.64,5.76,5.76,0,0,1-.19,1.45l8.4,4.69a5.65,5.65,0,0,1,6.63-1.07l10.61-12.42a5.65,5.65,0,0,1,9.29-6.44l16.65-6.54a4.58,4.58,0,0,1,0-.53,5.65,5.65,0,0,1,8.85-4.67l13.91-12a1.39,1.39,0,0,1,.9-.33m0-1a2.33,2.33,0,0,0-1.55.58L161.36,95.29a6.59,6.59,0,0,0-3.08-.76,6.67,6.67,0,0,0-6.66,6.52l-15.31,6a6.65,6.65,0,0,0-11.53,4.53,6.55,6.55,0,0,0,.71,3l-9.66,11.33a6.62,6.62,0,0,0-6.49,1.06l-7.15-4a6,6,0,0,0,.07-.94,6.66,6.66,0,0,0-13.32,0,6.54,6.54,0,0,0,.44,2.36l-8.56,7.25a6.64,6.64,0,0,0-6.32,0L66,124.48a6.8,6.8,0,0,0,.37-2.19,6.66,6.66,0,1,0-12.94,2.22L45,131.85a6.53,6.53,0,0,0-3.1-.77,6.67,6.67,0,0,0-6.66,6.66,6.57,6.57,0,0,0,1.26,3.88L22,164.29a2.4,2.4,0,0,0-.32,1.79,2.36,2.36,0,0,0,1.05,1.49A2.31,2.31,0,0,0,24,168a2.34,2.34,0,0,0,2-1.1l14.43-22.61a6.27,6.27,0,0,0,1.43.16,6.66,6.66,0,0,0,6.24-9l8.43-7.28a6.64,6.64,0,0,0,6.43,0l8.39,7.09a6.66,6.66,0,1,0,12.91,2.3,6.45,6.45,0,0,0-.39-2.22L92.53,128a6.65,6.65,0,0,0,7.36-.82l7,3.93a6.56,6.56,0,0,0-.09,1.08,6.66,6.66,0,1,0,13.32,0,6.57,6.57,0,0,0-.77-3.11L129,117.79a6.83,6.83,0,0,0,2.45.46,6.66,6.66,0,0,0,6.66-6.66.49.49,0,0,0,0-.12l15.13-6a6.65,6.65,0,0,0,11.29-6.67l13.32-11.49a2.37,2.37,0,0,0-1.55-4.17Z"/><path class="cls-16" d="M56.57,89.37,42.78,97,32.53,100.7,55.74,87.87h0c.28.51.55,1,.83,1.5Z"/><path class="cls-8" d="M68.78,33.33,59,36.88c7.08-2.23,14.31,2.62,18.8,7A53.23,53.23,0,0,1,89.55,62c4.4,10.54,8.75,30.88-.47,41.45a12.64,12.64,0,0,1-4.75,3.5l9.8-3.55h0c7.79-2.82,10.15-12.49,10.54-19.29A55.82,55.82,0,0,0,101,61.27,55.73,55.73,0,0,0,89.22,41.41c-4.66-5-12.66-10.9-20.44-8.08Z"/><path class="cls-8" d="M86.39,98.61c-3.89,4.41-9.53,4.61-15.07,1.49-10.92-6.16-17.64-21.64-19.24-33-.84-6-.76-13.53,2.39-19.19,2.71-4.87,6.86-6.72,11.36-6A15.11,15.11,0,0,0,64,44.49c-3.14,5.65-3.23,13.19-2.38,19.19C63.25,75,70,90.47,80.9,96.64A16.27,16.27,0,0,0,86.39,98.61Z"/><path class="cls-17" d="M88.25,96a12.43,12.43,0,0,1-4.3,4.7c-6.2,1-12.2-3.78-15.8-7.75a47.47,47.47,0,0,1-9.54-16.36,47.68,47.68,0,0,1-3.15-18.69c.22-5.35,1.8-12.82,7.15-16a14,14,0,0,1,8.77,2C82.31,50,89,65.52,90.63,76.84,91.48,82.84,91.39,90.37,88.25,96Z"/><path class="cls-18" d="M88.19,96.05a13.47,13.47,0,0,1-2.82,3.6c-5.65.08-11-4.23-14.3-7.87A47.84,47.84,0,0,1,61.52,75.4a47.73,47.73,0,0,1-3.14-18.69c.19-4.79,1.48-11.29,5.61-14.92a15,15,0,0,1,7.34,2.12c10.92,6.16,17.64,21.63,19.24,33C91.42,82.86,91.33,90.4,88.19,96.05Z"/><path class="cls-2" d="M89.68,61.91a53.25,53.25,0,0,0-11.75-18c-4.6-4.53-12.08-9.52-19.31-6.87s-9.77,11.3-10.38,17.74A53.23,53.23,0,0,0,50.8,76.1l-23,12.73c-2.55,1.27-1.62,5.45-.89,7.36A9.26,9.26,0,0,0,29,99.56c1.07,1.07,1.91,2,3.56,1.14L55.73,87.87c3.55,6.57,7.53,12.06,13.91,16.32,6.22,4.14,14,5.55,19.57-.83C98.42,92.78,94.08,72.45,89.68,61.91ZM88.19,96.05c-3.79,6.82-10.4,7.71-16.86,4.06C60.4,94,53.68,78.47,52.08,67.16c-.85-6-.76-13.54,2.38-19.19,3.8-6.82,10.41-7.71,16.87-4.07,10.92,6.17,17.65,21.64,19.24,33C91.42,82.86,91.33,90.39,88.19,96.05Z"/><path class="cls-15" d="M73,32.6c6.36,0,12.45,4.72,16.27,8.81A55.73,55.73,0,0,1,101,61.27a55.82,55.82,0,0,1,3.68,22.79c-.39,6.8-2.75,16.47-10.54,19.29l-9.58,3.47a11.81,11.81,0,0,1-4.59.9,19.07,19.07,0,0,1-10.31-3.53c-5.89-3.94-9.73-8.91-13.08-14.82L42.78,97l-10.25,3.7h0a2.73,2.73,0,0,1-1.19.32c-.94,0-1.59-.68-2.37-1.46a9.26,9.26,0,0,1-2.1-3.37c-.73-1.91-1.66-6.09.89-7.36l23-12.73a53.23,53.23,0,0,1-2.56-21.35c.61-6.44,3.12-15.08,10.38-17.74l.44-.14H59l9.77-3.55h0A12.26,12.26,0,0,1,73,32.6m0-1a13.26,13.26,0,0,0-4.51.79l-1.09.39h0l-8.68,3.15h0l-.39.14c-8.66,3.16-10.6,14-11,18.57a53.61,53.61,0,0,0,2.37,21L27.27,88c-2.87,1.41-2.52,5.51-1.35,8.59a10.5,10.5,0,0,0,2.33,3.72l.06.06a4.3,4.3,0,0,0,3,1.69,3.55,3.55,0,0,0,1.6-.41l10.19-3.68.07,0,.07,0,12.93-7.14C60,97.16,64,101.6,69.09,105A19.92,19.92,0,0,0,80,108.72a12.74,12.74,0,0,0,5-1l9.55-3.45c9.24-3.35,10.9-15.22,11.19-20.17a57,57,0,0,0-3.74-23.19A56.85,56.85,0,0,0,90,40.72C87.38,38,80.59,31.6,73,31.6Z"/></g></g></svg>