<?xml version="1.0" encoding="utf-8"?>
<!-- Generator: Adobe Illustrator 22.1.0, SVG Export Plug-In . SVG Version: 6.00 Build 0)  -->
<svg version="1.1" id="Layer_1" xmlns="http://www.w3.org/2000/svg" xmlns:xlink="http://www.w3.org/1999/xlink" x="0px" y="0px"
	 viewBox="0 0 250 273" style="enable-background:new 0 0 250 273;" xml:space="preserve">
<style type="text/css">
	.st0{fill:url(#SVGID_1_);}
	.st1{fill:#BCBEC0;}
	.st2{fill:#D1D3D4;}
	.st3{fill:#A7A9AC;}
	.st4{fill:none;stroke:#00FFA3;stroke-width:0.2;stroke-miterlimit:10;}
	.st5{opacity:0.3;fill:#231F20;enable-background:new    ;}
	.st6{opacity:0.8;}
	.st7{fill:#E6E7E8;}
	.st8{fill:#939598;}
	.st9{fill:#6D6E71;}
	.st10{fill:none;stroke:#D1D3D4;stroke-width:0.25;stroke-linecap:round;stroke-linejoin:round;}
	.st11{fill:#9A9A9B;}
	.st12{fill:#00DE8E;}
	.st13{fill:#767777;}
	.st14{fill:#808285;}
	.st15{fill:#00B372;}
	.st16{fill:#00FFA3;}
	.st17{fill:#8E8E8E;}
	.st18{fill:#D31654;}
	.st19{fill:#B01246;}
</style>
<linearGradient id="SVGID_1_" gradientUnits="userSpaceOnUse" x1="124.8" y1="258.7875" x2="124.8" y2="17.3" gradientTransform="matrix(1 0 0 -1 0 274)">
	<stop  offset="0" style="stop-color:#F1F2F2"/>
	<stop  offset="0.3712" style="stop-color:#EEEFEF"/>
	<stop  offset="0.6939" style="stop-color:#E3E4E5"/>
	<stop  offset="0.9984" style="stop-color:#D1D3D4"/>
	<stop  offset="1" style="stop-color:#D1D3D4"/>
</linearGradient>
<path class="st0" d="M96.6,22.8l-56,32.3C23.4,65,12.8,83.4,12.8,103.3v66.3c0,19.2,10.2,36.9,26.8,46.5l57.3,33.1
	c17.3,10,38.6,10,55.8,0L210,216c16.6-9.6,26.8-27.3,26.8-46.5v-66.3c0-19.9-10.6-38.2-27.8-48.2l-56-32.3
	C135.6,12.7,114.1,12.7,96.6,22.8z"/>
<path class="st1" d="M125.3,250.1c-2.2,0-4.4-0.6-6.3-1.7L10,185c-4.9-3-6-10.1-6-12.8s1.4-0.1,3.7-1.4l78.2-45.5
	c1.9-1.1,4.1-1.7,6.3-1.7c2.2,0,4.4,0.6,6.3,1.7L209.8,190c2.3,1.3,3.7-0.8,3.7,1.9s-2.2,10.1-6.1,12.4l-75.8,44.1
	C129.7,249.5,127.5,250.1,125.3,250.1z"/>
<path class="st1" d="M215.1,185.4c-1.2,0,0.9-2.2-0.2-2.8l-113.5-66c-3-1.7-4.8-4.9-4.8-8.3l-2-90.8c0-3.8,1.4-7.3,5.2-7.3
	c1.2,0,8.4-0.3,12.4,2.1l108.3,63c3,1.7,4.8,4.9,4.8,8.3v89.8C225.4,179.9,219,185.4,215.1,185.4z"/>
<path class="st2" d="M125.3,245.2c-2.2,0-4.4-0.6-6.3-1.7L7.7,178.8C5.4,177.4,4,175,4,172.3s1.4-5.1,3.7-6.4l78.2-45.5
	c1.9-1.1,4.1-1.7,6.3-1.7c2.2,0,4.4,0.6,6.3,1.7l111.3,64.7c2.3,1.3,3.7,3.7,3.7,6.4s-1.4,5.1-3.7,6.4l-78.2,45.5
	C129.7,244.6,127.5,245.2,125.3,245.2z"/>
<path class="st3" d="M9.1,168.4l78.2-45.5c3-1.7,6.7-1.7,9.7,0l111.3,64.7c3.1,1.8,3.1,6.2,0,8l-78.2,45.5c-3,1.7-6.7,1.7-9.7,0
	L9.1,176.3C6.1,174.5,6.1,170.1,9.1,168.4z"/>
<g>
	<g>
		<line class="st4" x1="21" y1="179.9" x2="105.3" y2="130.9"/>
		<line class="st4" x1="34" y1="187.5" x2="118.3" y2="138.5"/>
		<line class="st4" x1="47" y1="195.1" x2="131.4" y2="146.1"/>
		<line class="st4" x1="60.1" y1="202.7" x2="144.4" y2="153.7"/>
		<line class="st4" x1="73.1" y1="210.3" x2="157.4" y2="161.2"/>
		<line class="st4" x1="86.2" y1="217.9" x2="170.5" y2="168.8"/>
		<line class="st4" x1="99.2" y1="225.5" x2="183.5" y2="176.4"/>
		<line class="st4" x1="112.3" y1="233" x2="196.6" y2="184"/>
	</g>
</g>
<g>
	<g>
		<line class="st4" x1="78.2" y1="131.5" x2="195.6" y2="199.8"/>
		<line class="st4" x1="64.1" y1="139.7" x2="181.5" y2="207.9"/>
		<line class="st4" x1="50.1" y1="147.8" x2="167.5" y2="216.1"/>
		<line class="st4" x1="36" y1="156" x2="153.4" y2="224.3"/>
		<line class="st4" x1="22" y1="164.2" x2="139.4" y2="232.5"/>
	</g>
</g>
<path class="st2" d="M214.8,185.4c-1.2,0-2.4-0.3-3.5-0.9l-113.5-66c-3-1.7-4.8-4.9-4.8-8.3v-93c0-3.8,3.1-6.9,6.9-6.9
	c1.2,0,2.4,0.3,3.5,0.9l113.5,66c3,1.7,4.8,4.9,4.8,8.3v93C221.8,182.3,218.7,185.4,214.8,185.4z"/>
<path class="st3" d="M95.9,110.1v-93c0-3.2,3.4-5.1,6.2-3.6l113.5,66c2.1,1.2,3.4,3.5,3.4,5.9v93c0,3.2-3.4,5.1-6.2,3.6L99.3,116
	C97.2,114.8,95.9,112.5,95.9,110.1z"/>
<g>
	<g>
		<line class="st4" x1="111.8" y1="22.5" x2="111.8" y2="120"/>
		<line class="st4" x1="124.8" y1="30.1" x2="124.8" y2="127.6"/>
		<line class="st4" x1="137.9" y1="37.6" x2="137.9" y2="135.2"/>
		<line class="st4" x1="150.9" y1="45.2" x2="150.9" y2="142.8"/>
		<line class="st4" x1="164" y1="52.8" x2="164" y2="150.4"/>
		<line class="st4" x1="177" y1="60.4" x2="177" y2="157.9"/>
		<line class="st4" x1="190" y1="68" x2="190" y2="165.5"/>
		<line class="st4" x1="203.1" y1="75.6" x2="203.1" y2="173.1"/>
	</g>
</g>
<g>
	<g>
		<line class="st4" x1="98.7" y1="31.1" x2="216.1" y2="99.4"/>
		<line class="st4" x1="98.7" y1="47.4" x2="216.1" y2="115.7"/>
		<line class="st4" x1="98.7" y1="63.7" x2="216.1" y2="131.9"/>
		<line class="st4" x1="98.7" y1="79.9" x2="216.1" y2="148.2"/>
		<line class="st4" x1="98.7" y1="96.2" x2="216.1" y2="164.4"/>
	</g>
</g>
<polygon class="st5" points="70.3,138.3 87.7,128.2 201.2,194.2 183.8,204.4 "/>
<g class="st6">
	<path class="st1" d="M182.6,146.1c-4.7-2.7-9.3-5.2-14.7-6.5c-6.9-1.6-9.5,1.1-15.8,1.8c-12.5,1.4-19.1-9.1-30.1-10.3
		c-7.9-0.8-8.6,2.5-15.1,4.8c-5.7,2-10.8-0.8-15.3-3.2c-4.7-2.6-9.2-5.5-14.6-6.9c-6.9-1.9-10.2,0.6-11.7,7.4l117.4,68.3v-55.4
		H182.6z"/>
	<path class="st7" d="M204,133.6L182.7,146c-4.7-2.7-9.3-5.2-14.7-6.5c-6.9-1.6-9.5,1.1-15.8,1.8c-12.5,1.4-19.1-9.1-30.1-10.3
		c-4.6-0.5-6.7,0.4-9,1.7c-0.1,0.1-0.7,0.4-0.8,0.5c-1.4,0.8-3,1.8-5.3,2.6c-5.7,2-10.8-0.8-15.3-3.2c-4.7-2.6-9.2-5.5-14.6-6.9
		c-3.1-0.8-5.5-0.8-7.3,0.1l21.1-12.1c5.6-3.2,15.8,3.1,19.8,5.3c5.7,3.2,12.6,7.4,19.9,3.5l0,0l2.2-1.3c13.6-7.9,24.6,5.5,35.2,7.6
		c3.3,0.6,6.2,0.3,9.4-0.6c3-0.9,5.9-1.8,9.3-1.5C193.2,127.4,198.5,130.4,204,133.6z"/>
	<polygon class="st8" points="182.6,146.1 182.6,201.4 204,189 204,133.6 	"/>
</g>
<g>
	<g>
		<path class="st9" d="M94.5,112.8c5.6,0,12.8,4.4,16,6.2c4.1,2.3,8.8,5.1,13.8,5.1c2,0,4-0.5,6.1-1.6l0,0l2.2-1.3
			c3-1.8,5.9-2.5,8.7-2.5c9.8,0,18.3,8.5,26.5,10.1c1.2,0.2,2.3,0.3,3.4,0.3c2,0,3.9-0.3,6-0.9c2.6-0.7,5.1-1.6,7.9-1.6
			c0.4,0,0.9,0,1.3,0.1c6.7,0.7,11.9,3.7,17.5,6.9V189l-21.3,12.4L65.3,133.1c0.8-3.8,2.2-5.9,4-7c5.3-3.1,21.6-12.4,21.6-12.4
			C91.9,113.1,93.2,112.8,94.5,112.8 M94.5,111.8c-1.6,0-3.1,0.3-4.2,1l0,0c0,0-16.2,9.3-21.6,12.4c-2.2,1.3-3.6,3.8-4.4,7.7
			c-0.1,0.4,0.1,0.9,0.5,1.1l117.4,68.3c0.2,0.1,0.3,0.1,0.5,0.1s0.3,0,0.5-0.1l21.3-12.4c0.3-0.2,0.5-0.5,0.5-0.9v-55.4
			c0-0.4-0.2-0.7-0.5-0.9c-5.6-3.3-11-6.4-17.9-7.1c-0.5,0-1-0.1-1.4-0.1c-2.6,0-5,0.7-7.3,1.4l-0.9,0.3c-2.1,0.6-3.9,0.9-5.7,0.9
			c-1.1,0-2.1-0.1-3.2-0.3c-3.3-0.6-6.8-2.5-10.4-4.5c-5.1-2.8-10.4-5.6-16.3-5.6c-3.2,0-6.2,0.9-9.2,2.6l-2.2,1.3l0,0
			c-1.8,1-3.6,1.5-5.6,1.5c-4.4,0-8.6-2.4-12.4-4.5l-0.9-0.5c-0.3-0.2-0.7-0.4-1.1-0.6C106.2,115.4,99.8,111.8,94.5,111.8
			L94.5,111.8z"/>
	</g>
</g>
<g>
	<g>
		<polygon class="st1" points="99.9,88 104.6,90.9 104.6,79.3 99.9,76.4 		"/>
		<polygon class="st8" points="109.4,88 104.6,90.9 104.6,79.3 109.4,76.4 		"/>
		<polygon class="st7" points="104.6,73.4 99.9,76.4 104.6,79.3 109.4,76.4 		"/>
	</g>
</g>
<ellipse class="st5" cx="120.3" cy="225.3" rx="5.8" ry="2.9"/>
<ellipse class="st5" cx="137.5" cy="214.9" rx="5.8" ry="2.9"/>
<path class="st5" d="M155.4,207c-3.1,0-5.8-1.4-5.8-2.9c0-1.6,2.7-2.9,5.8-2.9s5.8,1.4,5.8,2.9S158.5,207,155.4,207z"/>
<g>
	<ellipse class="st7" cx="120.3" cy="207.9" rx="6.7" ry="3.9"/>
	<path class="st3" d="M127,207.9v12.3c0,2.2-3,3.9-6.7,3.9s-6.8-1.8-6.8-3.9v-12.3c0,2.2,3,3.9,6.8,3.9
		C124,211.8,127,210.1,127,207.9z"/>
</g>
<g>
	<ellipse class="st7" cx="137.5" cy="190.1" rx="6.7" ry="3.9"/>
	<path class="st3" d="M144.3,190.1v19.5c0,2.2-3,3.9-6.7,3.9s-6.8-1.8-6.8-3.9v-19.5c0,2.2,3,3.9,6.8,3.9
		C141.3,194,144.3,192.2,144.3,190.1z"/>
</g>
<g>
	<ellipse class="st7" cx="155.4" cy="172" rx="6.7" ry="3.9"/>
	<path class="st3" d="M162.2,172v26.8c0,2.2-3,3.9-6.7,3.9s-6.8-1.8-6.8-3.9V172c0,2.2,3,3.9,6.8,3.9
		C159.1,175.9,162.2,174.2,162.2,172z"/>
</g>
<path class="st10" d="M148.6,174.9c0,2.2,3,3.9,6.8,3.9s6.8-1.8,6.8-3.9"/>
<path class="st10" d="M148.6,177.9c0,2.2,3,3.9,6.8,3.9s6.8-1.8,6.8-3.9"/>
<path class="st10" d="M148.6,180.9c0,2.2,3,3.9,6.8,3.9s6.8-1.8,6.8-3.9"/>
<path class="st10" d="M148.6,183.9c0,2.2,3,3.9,6.8,3.9s6.8-1.8,6.8-3.9"/>
<path class="st10" d="M148.6,186.8c0,2.2,3,3.9,6.8,3.9s6.8-1.8,6.8-3.9"/>
<path class="st10" d="M148.6,189.8c0,2.2,3,3.9,6.8,3.9s6.8-1.8,6.8-3.9"/>
<path class="st10" d="M148.6,192.8c0,2.2,3,3.9,6.8,3.9s6.8-1.8,6.8-3.9"/>
<path class="st10" d="M148.6,195.8c0,2.2,3,3.9,6.8,3.9s6.8-1.8,6.8-3.9"/>
<path class="st10" d="M113.5,211.1c0,2.2,3,3.9,6.8,3.9s6.8-1.8,6.8-3.9"/>
<path class="st10" d="M113.5,214.1c0,2.2,3,3.9,6.8,3.9s6.8-1.8,6.8-3.9"/>
<path class="st10" d="M113.5,217.1c0,2.2,3,3.9,6.8,3.9s6.8-1.8,6.8-3.9"/>
<path class="st10" d="M130.7,192.8c0,2.2,3,3.9,6.8,3.9s6.8-1.8,6.8-3.9"/>
<path class="st10" d="M130.7,195.8c0,2.2,3,3.9,6.8,3.9s6.8-1.8,6.8-3.9"/>
<path class="st10" d="M130.7,198.8c0,2.2,3,3.9,6.8,3.9s6.8-1.8,6.8-3.9"/>
<path class="st10" d="M130.7,201.8c0,2.2,3,3.9,6.8,3.9s6.8-1.8,6.8-3.9"/>
<path class="st10" d="M130.7,204.8c0,2.2,3,3.9,6.8,3.9s6.8-1.8,6.8-3.9"/>
<path class="st10" d="M130.7,207.4c0,2.2,3,3.9,6.8,3.9s6.8-1.8,6.8-3.9"/>
<g>
	<path class="st9" d="M155.4,168c3.7,0,6.7,1.8,6.7,3.9v26.8c0,2.2-3,3.9-6.7,3.9s-6.8-1.8-6.8-3.9V172
		C148.7,169.8,151.7,168,155.4,168 M155.4,167c-4.3,0-7.8,2.2-7.8,4.9v26.8c0,2.8,3.4,4.9,7.8,4.9c4.3,0,7.7-2.2,7.7-4.9V172
		C163.2,169.2,159.8,167,155.4,167L155.4,167z"/>
</g>
<g>
	<path class="st9" d="M137.5,186.2c3.7,0,6.8,1.8,6.8,3.9l0,0v19.4c0,2.2-3,3.9-6.7,3.9s-6.8-1.8-6.8-3.9V190
		C130.8,187.9,133.8,186.2,137.5,186.2 M137.5,185.2c-4.3,0-7.7,2.2-7.7,4.9v19.5c0,2.8,3.4,4.9,7.8,4.9c4.3,0,7.7-2.2,7.7-4.9
		v-19.4v-0.1C145.3,187.3,141.9,185.2,137.5,185.2L137.5,185.2z"/>
</g>
<g>
	<g>
		<path class="st9" d="M120.3,204c3.7,0,6.8,1.8,6.8,3.9v0.1v12.2c0,2.2-3,3.9-6.7,3.9s-6.8-1.8-6.8-3.9v-12.3
			C113.5,205.7,116.5,204,120.3,204 M120.3,203c-4.3,0-7.8,2.2-7.8,4.9v12.3c0,2.8,3.4,4.9,7.8,4.9c4.3,0,7.7-2.2,7.7-4.9V208v-0.1
			C128,205.1,124.6,203,120.3,203L120.3,203z"/>
	</g>
</g>
<path class="st5" d="M60.4,178.2c-7.8,0-13.2-3.5-13.2-6.7s5.4-6.7,13.2-6.7s13.2,3.5,13.2,6.7S68.2,178.2,60.4,178.2z"/>
<path class="st5" d="M97.4,198.7c-7.8,0-13.2-3.5-13.2-6.7s5.4-6.7,13.2-6.7s13.2,3.5,13.2,6.7S105.2,198.7,97.4,198.7z"/>
<g>
	<path class="st3" d="M86.6,169.2c-5.1,3-6.2,7.9-1.2,11.6c4.4,3.3,8.7,3.7,13.8,3.3l-0.6-2.6c-8,0.6-17.2-5.6-8.8-10.4L86.6,169.2z
		"/>
	<path class="st11" d="M89.8,171v8.5C86.2,177.4,84.8,174,89.8,171z"/>
	<polygon class="st9" points="89.8,171 89.8,167.1 89.8,167.1 86.6,165.2 86.6,169.2 	"/>
	<path class="st12" d="M104.8,163.4v8.6C108.3,169.8,109.7,166.3,104.8,163.4z"/>
	<path class="st13" d="M104.8,167.1v4.9c-1.7,1-3.9,1.7-6.1,1.9v7.6l0,0c-3.1,0.2-6.5-0.6-8.8-2v-12.4l0,0
		C93.9,164.7,100.6,164.7,104.8,167.1L104.8,167.1z"/>
	<path class="st14" d="M104.8,167.1v-3.3l0,0c-5.5-1.8-13-1.6-18.1,1.4l3.2,1.9C93.9,164.7,100.6,164.7,104.8,167.1L104.8,167.1z"/>
	<path class="st11" d="M82.2,175.7L82.2,175.7c0.1,1.8,1.1,3.6,3.2,5.1c4.4,3.3,8.7,3.7,13.8,3.3v9.6l0,0c-3.6,0.3-6.9-0.1-10.3-1.4
		c-2.9-1.1-6.7-3.5-6.7-7.3V175.7L82.2,175.7z"/>
	<polygon class="st15" points="99.2,184.1 99.2,176.5 99.2,176.5 98.6,173.8 98.6,181.5 	"/>
	<path class="st16" d="M104.8,163.4c7.3,4.2,0.9,9.9-6.1,10.4l0.6,2.6c10.1-0.8,19.1-8.9,8.7-14.9L104.8,163.4z"/>
	<path class="st12" d="M112.6,184.9c-0.1,6.3-8.7,8.4-13.3,8.7v-17.2l0,0c6.9-0.5,13.3-4.5,13.3-8.9V184.9L112.6,184.9z"/>
</g>
<g>
	<g>
		<g>
			<path class="st9" d="M108,161.5c3.3,1.9,4.6,4,4.6,6v17.4c-0.1,6.3-8.7,8.4-13.3,8.7c-0.7,0.1-1.5,0.1-2.2,0.1
				c-2.8,0-5.4-0.4-8.1-1.5c-2.9-1.1-6.7-3.5-6.7-7.3v-9.3c0,0,0-0.2,0-0.3c0-2.3,1.6-4.6,4.4-6.2v-3.9c3-1.8,6.9-2.6,10.6-2.6
				c2.6,0,5.3,0.4,7.5,1.1v-0.4L108,161.5 M108,160.5c-0.2,0-0.3,0-0.5,0.1l-3.2,1.9c0,0,0,0-0.1,0c-2.1-0.6-4.5-0.9-6.9-0.9
				c-4.2,0-8.1,1-11.1,2.7c-0.3,0.2-0.5,0.5-0.5,0.9v3.4c-2.8,1.8-4.4,4.3-4.4,6.8c0,0.1,0,0.3,0,0.3v9.2c0,5,5.6,7.6,7.3,8.2
				c2.7,1.1,5.5,1.6,8.5,1.6c0.7,0,1.5,0,2.3-0.1c6.5-0.5,14.2-3.3,14.3-9.7v-17.4c0-1.8-0.9-4.4-5.1-6.9
				C108.3,160.6,108.1,160.5,108,160.5L108,160.5z"/>
		</g>
	</g>
</g>
<g>
	<path class="st3" d="M55.1,142.2c3.3-1.1,6.3-1.2,9.6-0.3c2.7,0.7,6.1,2.7,6.1,6.4l4.5,0.3c0-5.3-4.8-8.1-8.7-9.2
		c-4.8-1.3-9-1.2-13.8,0.4L55.1,142.2z"/>
	<path class="st1" d="M45.3,164.8c0,1.9,0.8,3.1,2,4.4l0,0v-13.6c-1.1-1.1-1.9-3.1-2.2-4.1L45.3,164.8L45.3,164.8z"/>
	<polygon class="st17" points="52.8,139.9 55.1,142.2 55.1,145.9 52.8,143.6 	"/>
	<path class="st7" d="M52.8,143.6c-5.7,1.9-10.7,6.8-5.5,12l3.9-1.3c-3.6-3.7-0.1-7.1,3.9-8.4L52.8,143.6z"/>
	<polygon class="st17" points="75.3,148.7 70.9,148.3 70.9,155.9 75.3,156.3 	"/>
	<polygon class="st2" points="51.2,154.3 47.3,155.6 47.3,159.5 51.2,158.2 	"/>
	<path class="st11" d="M70.9,148.3c0-3.7-3.4-5.7-6.1-6.4c-3.4-0.9-6.3-0.8-9.6,0.3v3.7v14.6c2.2,0.7,4.6,0.9,6.6,0.8
		c3-0.2,8.3-1.6,9.1-5.3l0,0V148.3L70.9,148.3z"/>
	<path class="st1" d="M55.1,161.7c-0.4,0.1-0.9-0.7-1.4-0.5c-0.9-0.4-1.8-2.3-2.5-3l0,0v-3.9c-3.6-3.7-0.1-7.1,3.9-8.4V161.7z"/>
	<path class="st18" d="M47.3,159.5c3.7,3.7,10.3,4.7,15,4.3c4.2-0.3,11.8-2.2,13.1-7.6l-4.5-0.3c-0.9,3.7-6.2,5.1-9.1,5.3
		c-3.3,0.2-7.9-0.4-10.5-3L47.3,159.5z"/>
	<path class="st19" d="M75.3,156.3v9.5c-1,4.2-7.3,7.5-15.1,7.5c-5.5,0-10.3-1.7-13-4.1v-9.7c0.1,0.1,0.3,0.2,0.4,0.3
		c2.7,2.3,7.3,3.8,12.6,3.8c5.2,0,9.8-1.5,12.6-3.8C74.2,158.8,75,157.7,75.3,156.3z"/>
</g>
<g>
	<path class="st9" d="M60.3,138.6c2.1,0,4.2,0.3,6.4,0.9c3.9,1,8.7,3.8,8.7,9.2v7.6v9.5c-1,4.2-7.3,7.5-15.1,7.5
		c-5.5,0-10.3-1.7-13-4.1c-1.3-1.3-2-2.5-2-4.4l-0.1-13.3c0-3.6,3.5-6.5,7.7-7.9v-3.7C55.4,139.1,57.8,138.6,60.3,138.6 M60.3,137.6
		L60.3,137.6c-2.5,0-5.1,0.4-7.7,1.3c-0.4,0.1-0.7,0.5-0.7,0.9v3c-4.7,1.8-7.7,5.1-7.7,8.6l0.1,13.3c0,2.4,1.1,3.9,2.3,5.1
		c3,2.8,8.1,4.4,13.7,4.4c8.2,0,15-3.5,16-8.3c0-0.1,0-0.1,0-0.2v-9.5v-7.6c0-7.1-7.3-9.5-9.5-10.1
		C64.5,137.9,62.4,137.6,60.3,137.6L60.3,137.6z"/>
</g>
<g>
	<g>
		<polygon class="st1" points="108.5,93 113.2,96 113.2,75 108.5,72 		"/>
		<polygon class="st8" points="118,93 113.2,96 113.2,75 118,72 		"/>
		<polygon class="st7" points="113.2,69.1 108.5,72 113.2,75 118,72 		"/>
	</g>
</g>
<g>
	<g>
		<polygon class="st1" points="117.2,98 121.9,100.9 121.9,69.1 117.2,66.2 		"/>
		<polygon class="st8" points="126.6,98 121.9,100.9 121.9,69.1 126.6,66.2 		"/>
		<polygon class="st7" points="121.9,63.2 117.2,66.2 121.9,69.1 126.6,66.2 		"/>
	</g>
</g>
<g>
	<g>
		<polygon class="st1" points="125.9,103.3 130.6,106.2 130.6,63.7 125.9,60.8 		"/>
		<polygon class="st8" points="135.4,103.3 130.6,106.2 130.6,63.7 135.4,60.8 		"/>
		<polygon class="st7" points="130.6,57.9 125.9,60.8 130.6,63.7 135.4,60.8 		"/>
	</g>
</g>
<g>
	<g>
		<polygon class="st1" points="134.5,108.3 139.3,111.2 139.3,63.2 134.5,60.3 		"/>
		<polygon class="st8" points="144,108.3 139.3,111.2 139.3,63.2 144,60.3 		"/>
		<polygon class="st7" points="139.3,57.4 134.5,60.3 139.3,63.2 144,60.3 		"/>
	</g>
</g>
<g>
	<g>
		<polygon class="st1" points="142.8,113.5 147.6,116.4 147.6,58.7 142.8,55.8 		"/>
		<polygon class="st8" points="152.3,113.5 147.6,116.4 147.6,58.7 152.3,55.8 		"/>
		<polygon class="st7" points="147.6,52.9 142.8,55.8 147.6,58.7 152.3,55.8 		"/>
	</g>
</g>
<g>
	<path class="st9" d="M147.6,52.9l1.7,1l3.1,1.9v57.7l0,0l0,0l-4.7,2.9l0,0l0,0l-4.7-2.9V109l-3.6,2.2l0,0l0,0l-4.7-2.9v-4.5
		l-3.9,2.4l0,0l0,0l-4.7-2.9v-4.9l-4,2.5l0,0l0,0l-4.7-2.9v-4.5l-3.9,2.4l0,0l0,0l-4.7-2.9v-4.5l-3.9,2.4l0,0l0,0l-5-2.9V76.4l0,0
		l0,0l1.3-0.8l3.5-2.1l0,0l0,0l1.7,1.1l2.1,1.3V72l0,0l0,0l1.3-0.8l3.4-2.1l0,0l0,0l1.7,1.1l2.2,1.4v-5.4l0,0l0,0l1.4-0.9l3.3-2.1
		l0,0l0,0l1.7,1.1l2.3,1.4v-4.9l0,0l0,0l1.3-0.8l3.4-2.1l0,0l0,0l1.7,1.1l2.2,1.4l1.4-0.9l3.3-2.1l0,0l0,0l1.7,1.1l1.9,1.2v-3.8l0,0
		l0,0l1.3-0.8L147.6,52.9L147.6,52.9L147.6,52.9 M147.6,51.9h-0.1c-0.1,0-0.3,0.1-0.4,0.1l-3.4,2.1l-1.3,0.8
		c-0.1,0.1-0.3,0.2-0.3,0.3c-0.1,0.2-0.1,0.3-0.1,0.5v2l-0.3-0.2l-1.7-1.1c-0.2-0.1-0.3-0.2-0.5-0.2h-0.1c-0.1,0-0.3,0.1-0.4,0.1
		l-3.3,2.1l-0.8,0.5l-1.7-1l-1.7-1.1c-0.2-0.1-0.3-0.2-0.5-0.2h-0.1c-0.1,0-0.3,0.1-0.4,0.1l-3.4,2.1l-1.3,0.8
		c-0.1,0.1-0.3,0.2-0.3,0.3c-0.1,0.2-0.1,0.3-0.1,0.5v3.1l-0.8-0.5l-1.7-1.1c-0.2-0.1-0.3-0.2-0.5-0.2h-0.1c-0.1,0-0.3,0.1-0.4,0.1
		l-3.3,2.1l-1.4,0.9c-0.1,0.1-0.3,0.2-0.3,0.3c-0.1,0.2-0.1,0.3-0.1,0.5v3.6l-0.7-0.4l-1.7-1.1c-0.2-0.1-0.3-0.2-0.5-0.2h-0.1
		c-0.1,0-0.3,0.1-0.4,0.1l-3.4,2.1l-1.3,0.8c-0.1,0.1-0.3,0.2-0.3,0.3c-0.1,0.2-0.1,0.3-0.1,0.5v2l-0.6-0.4l-1.7-1.1
		c-0.2-0.1-0.3-0.2-0.5-0.2h-0.1c-0.1,0-0.3,0.1-0.4,0.1l-3.5,2.1l-1.3,0.8c-0.1,0.1-0.2,0.2-0.3,0.3c-0.1,0.2-0.2,0.3-0.2,0.5V88
		c0,0.3,0.2,0.7,0.5,0.8l4.7,2.9c0.2,0.1,0.3,0.2,0.5,0.2h0.1c0.2,0,0.3-0.1,0.4-0.1l2.3-1.4V93c0,0.3,0.2,0.7,0.5,0.8l4.7,2.9
		c0.2,0.1,0.3,0.2,0.5,0.2l0,0c0.2,0,0.3-0.1,0.5-0.1l2.4-1.5V98c0,0.3,0.2,0.7,0.5,0.8l4.7,2.9c0.2,0.1,0.3,0.2,0.5,0.2h0.1
		c0.2,0,0.3-0.1,0.4-0.1l2.5-1.5v3.1c0,0.3,0.2,0.7,0.5,0.8l4.7,2.9c0.2,0.1,0.3,0.2,0.5,0.2h0.1c0.2,0,0.3-0.1,0.4-0.1l2.3-1.5v2.7
		c0,0.3,0.2,0.7,0.5,0.8l4.7,2.9c0.2,0.1,0.3,0.2,0.5,0.2l0,0c0.2,0,0.3-0.1,0.5-0.1l2-1.3v2.7c0,0.3,0.2,0.7,0.5,0.8l4.7,2.9
		c0.2,0.1,0.3,0.2,0.5,0.2l0,0c0.2,0,0.3-0.1,0.5-0.1l4.7-2.9c0.1-0.1,0.3-0.2,0.3-0.4c0.1-0.1,0.1-0.3,0.1-0.5V55.8
		c0-0.3-0.2-0.7-0.5-0.8l-3.1-1.9l-1.7-1C147.9,51.9,147.8,51.9,147.6,51.9L147.6,51.9z"/>
</g>
</svg>
