<svg xmlns="http://www.w3.org/2000/svg" viewBox="0 0 60 60"><defs><style>.cls-1{fill:#cacaca;}</style></defs><title>Asset 2</title><g id="Layer_2" data-name="Layer 2"><g id="content"><path class="cls-1" d="M56,1a3,3,0,0,1,3,3V56a3,3,0,0,1-3,3H4a3,3,0,0,1-3-3V4A3,3,0,0,1,4,1H56m0-1H4A4,4,0,0,0,0,4V56a4,4,0,0,0,4,4H56a4,4,0,0,0,4-4V4a4,4,0,0,0-4-4Z"/><path class="cls-1" d="M37.68,35.91a4.58,4.58,0,0,0-3.22,1.33L24,31.18a4.32,4.32,0,0,0,0-2.33l10.52-6.07a4.55,4.55,0,1,0-1.35-3.23,4.2,4.2,0,0,0,.16,1.18L22.79,26.79a4.55,4.55,0,1,0,0,6.45l10.5,6.06a4.37,4.37,0,0,0-.15,1.15,4.55,4.55,0,1,0,4.54-4.54Z"/></g></g></svg>