<svg xmlns="http://www.w3.org/2000/svg" viewBox="0 0 255.5715 262.706"><title>Asset 5</title><path d="M200.4532,185.9546c-.7723-.7217-2.9434-.11-7.2347-1.3329s-8.7069-.3786-9.4421.6664,4.7439,5.08,6.8334,5.4462,3.312,3.1872,6.1238,3.1829a5.2972,5.2972,0,0,0,4.2417-2.2466Z" fill="#08355c" fill-rule="evenodd"/><path d="M79.1518,226.015s8.35,1.9027,11.0433,1.9546,4.98,1.9406,3.298,3.7686a12.8671,12.8671,0,0,1-8.55,3.532c-3.771.2367-9.094.6364-11.2808.33-1.3786-2.4853-1.5133-7.6391-1.5133-7.6391Z" fill="#08355c" fill-rule="evenodd"/><path d="M177.9153,196.2282s-8.35,1.9026-11.0433,1.9545-4.98,1.9406-3.2979,3.7687a12.8665,12.8665,0,0,0,8.55,3.5318c3.771.2367,9.0942.6366,11.2809.33,1.3785-2.4855,1.5132-7.6392,1.5132-7.6392Z" fill="#08355c" fill-rule="evenodd"/><path d="M55.9946,219.7831c.7724-.7218,2.9435-.1105,7.2347-1.3331s8.707-.3785,9.4422.6666-4.7439,5.0794-6.8334,5.4462-3.312,3.1871-6.1238,3.1828a5.2973,5.2973,0,0,1-4.2418-2.2465Z" fill="#08355c" fill-rule="evenodd"/><line x1="53.6265" y1="228.8934" x2="53.6265" y2="228.802" fill="none"/><path d="M54.4276,235.5138a1.0657,1.0657,0,0,1-.2874.6981,2.4331,2.4331,0,0,1-1.185.6687,4.3437,4.3437,0,0,1-2.3113.0294l-9.4506-2.499c-1.572-.4106-3.3907.1232-3.7309,1.097l-2.0355,5.8369c-.2523.7275-1.361,1.2319-2.6163,1.2319q-.2114,0-.4225-.0176a3.1387,3.1387,0,0,1-1.9065-.7567,1.1616,1.1616,0,0,1-.352-.616v-.0352a.8524.8524,0,0,1,.0059-.2992l.7861-4.1357.346-1.8068c.1878-.9913-1.2611-1.8244-2.9741-1.7188l-10.43.6629c-.1.0059-.1936.0117-.2933.0117a4.3879,4.3879,0,0,1-1.2378-.1759,1.9563,1.9563,0,0,1-1.4254-1.1382c-.2289-.8153.698-1.59,2.1-1.7539l10.2132-1.185a3.8113,3.8113,0,0,0,1.1674-.3167c.8975-.4283,1.2553-1.1734.7273-1.8363l-3.6194-4.57-.7274-.921a1.0715,1.0715,0,0,1-.2347-.5163.9693.9693,0,0,1-.0117-.129c0-.5632.5338-1.1029,1.4548-1.3728a3.8848,3.8848,0,0,1,3.5549.6219l5.1741,5.25a3.9749,3.9749,0,0,0,4.1416.387l7.673-4.0534a4.2051,4.2051,0,0,1,3.7076.0527,1.299,1.299,0,0,1,.786,1.1732,1.3145,1.3145,0,0,1-.6923.968l-.61.3813-6.406,4.0477c-1.1439.7216-.8388,1.8713.61,2.37a.1769.1769,0,0,0,.0587.0234l9.0868,2.9859C53.9348,234.4462,54.4276,234.9742,54.4276,235.5138Z" fill="#084478" fill-rule="evenodd"/><path d="M28.3874,229.2957l-3.6195-4.57a1.05,1.05,0,0,1-.2347-.5338v-2.74a1.0715,1.0715,0,0,0,.2347.5163l.7274.921,3.6194,4.57C29.6427,228.1223,29.2849,228.8674,28.3874,229.2957Z" fill="#032747" fill-rule="evenodd"/><path d="M46.3117,229.4846a.3593.3593,0,0,1-.0118-.1115,1.1346,1.1346,0,0,1,.0118-.1408Z" fill="#3c3c6d" fill-rule="evenodd"/><path d="M31.2676,234.91l-.346,1.8068a3.5414,3.5414,0,0,0-2.6281-.7684l-10.43.6629c-.1.0058-.1936.0116-.2933.0116-1.3082,0-2.4522-.5514-2.6632-1.314v-2.7572a1.9563,1.9563,0,0,0,1.4254,1.1382,4.3879,4.3879,0,0,0,1.2378.1759c.1,0,.1936-.0058.2933-.0117l10.43-.6629C30.0065,233.0852,31.4554,233.9183,31.2676,234.91Z" fill="#032747" fill-rule="evenodd"/><path d="M36.6851,240.1142v.4869A.86.86,0,0,1,36.6851,240.1142Z" fill="#3c3c6d" fill-rule="evenodd"/><path d="M54.4276,235.5138v2.7748a1.0717,1.0717,0,0,1-.2874.6746,3.7464,3.7464,0,0,1-3.4963.7039l-9.4506-2.499c-1.572-.4106-3.3907.1232-3.7309,1.097l-2.0355,5.837c-.2523.7273-1.3492,1.2319-2.5988,1.2319-.1467,0-.2934-.0118-.44-.0235-1.2436-.1115-2.1588-.6981-2.2585-1.402v-2.722a1.1616,1.1616,0,0,0,.352.616,3.1387,3.1387,0,0,0,1.9065.7567q.2112.0175.4225.0176c1.2553,0,2.364-.5044,2.6163-1.2319l2.0355-5.8369c.34-.9738,2.1589-1.5076,3.7309-1.097l9.4506,2.499a4.3437,4.3437,0,0,0,2.3113-.0294,2.4331,2.4331,0,0,0,1.185-.6687A1.0657,1.0657,0,0,0,54.4276,235.5138Z" fill="#032747" fill-rule="evenodd"/><path d="M51.0135,223.3824v2.6692a1.278,1.278,0,0,1-.6923,1.0559l-6.4059,4.0419c-1.4489-.4987-1.754-1.6484-.61-2.37l6.406-4.0477.61-.3813A1.3145,1.3145,0,0,0,51.0135,223.3824Z" fill="#032747" fill-rule="evenodd"/><line x1="46.3117" y1="229.514" x2="46.3117" y2="229.4846" fill="none"/><path d="M54.25,240.5773a2.39,2.39,0,1,1-2.2262-2.5261A2.3809,2.3809,0,0,1,54.25,240.5773Z" fill="#084478" fill-rule="evenodd"/><path d="M35.221,246.5028a2.39,2.39,0,1,1-2.2262-2.5261A2.3809,2.3809,0,0,1,35.221,246.5028Z" fill="#084478" fill-rule="evenodd"/><path d="M19.6473,237.9026a2.39,2.39,0,1,1-2.2262-2.5261A2.3809,2.3809,0,0,1,19.6473,237.9026Z" fill="#032747" fill-rule="evenodd"/><path d="M28.3728,227.9057a2.39,2.39,0,1,1-2.2262-2.5261A2.381,2.381,0,0,1,28.3728,227.9057Z" fill="#032747" fill-rule="evenodd"/><path d="M51.8592,228.962a2.39,2.39,0,1,1-2.2261-2.5261A2.3807,2.3807,0,0,1,51.8592,228.962Z" fill="#032747" fill-rule="evenodd"/><path d="M38.5442,232.5513c0,3.1366-6.7039,2.5253-6.7039,0V210.6258h6.7039Z" fill="#032747" fill-rule="evenodd"/><path d="M30.3261,190.8207s19.2368-6.6018,27.3688-5.6237,6.3187,36.1871,6.3187,36.1871a29.0187,29.0187,0,0,1-8.5863,0c-1.8258-9.78-4.76-20.5386-4.76-20.5386s-17.6989,5.1174-20.3413,2.5587S30.3261,190.8207,30.3261,190.8207Z" fill="#3c3c6d" fill-rule="evenodd"/><path d="M30.3261,190.8207s19.2368-6.6018,27.3688-5.6237,6.3185,36.1871,6.3185,36.1871c-.6539,1.3188-5.9593,4.0483-8.5861,0-1.8258-9.78-4.76-20.5386-4.76-20.5386s-17.6989,5.1174-20.3413,2.5587S30.3261,190.8207,30.3261,190.8207Z" fill="#33303b" fill-rule="evenodd"/><path d="M61.7712,210.4986c-1.702,1.6022-22.1618,12.9118-25.979,15.0161a1.4837,1.4837,0,0,1-1.5049-.0027l-.0086-.0055-.0147-.0074c-2.1346-1.357-3.1908-6.1689.9169-9.22,1.21-.9022,23.0033-15.558,26.4728-14.5531h.0074l.11.044a1.2292,1.2292,0,0,1,.3154.2054C63.759,203.354,63.5463,208.8262,61.7712,210.4986Z" fill="#084478" fill-rule="evenodd"/><path d="M61.6537,201.7256c-3.47-1.0049-25.2624,13.6509-26.4728,14.5531-4.1077,3.0515-3.0515,7.8634-.9169,9.22l-24.2062-14.025-.8362-.4841-.022-.0147c-1.9-1.621-2.6481-6.0882,1.2469-8.9783,1.225-.91,23.5241-15.9028,26.59-14.5018l.2055.1174Z" fill="#032747" fill-rule="evenodd"/><path d="M115.3707,102.2065c-.65-5.1669-3.0724-36.3688-7.6156-39.9316,0,0-3.1017-3.2939-4.5041-1.9068h0L80.5617,73.4664l1.06,14.12,9.8546,32.2783,21.9882-12.6949h0C114.8488,106.785,115.7132,104.9276,115.3707,102.2065Z" fill="#032747" fill-rule="evenodd"/><path d="M84.7857,75.58c4.5431,3.5628,6.9653,34.7648,7.6157,39.9317s-3.0484,7.2265-6.4051,1.9818-6.3884-35-6.39-41.21S84.7857,75.58,84.7857,75.58Z" fill="#084478" fill-rule="evenodd"/><path d="M121.57,58.441c-6.3466-.3153-17.1223,7.1926-22.0013,13.3465s-1.8605,12.8284-.2112,19.4191-.9023,23.1026-.9069,24.6878c7.494,5.0279,25.6055,5.7562,27.6786-1.6707.8837-8.09-5.03-16.6221-5.1045-21.3574C121.3234,82.6957,129.9581,61.4978,121.57,58.441Z" fill="#f9fbfc" fill-rule="evenodd"/><path d="M116.03,59.9182c3.2989,14.351,2.2633,29.8565,1.5314,35.9358s-.8707,26.3173-.8707,26.3173c4.8933-2.4735,7.2315-7.0442,7.3462-9.1269s-1.7808-19.6281-1.6443-21.0591,2.6243-14.9836,2.3606-22.3183-3.0224-8.4529-3.0224-8.4529l-6.2852-2.8079Z" fill="#d31654" fill-rule="evenodd"/><path d="M116.59,63.5123l.8525.3777a8.9641,8.9641,0,0,0-.2158,1.3921,2.2045,2.2045,0,0,0-.054-.259Z" fill="#fbd15b" fill-rule="evenodd"/><path d="M106.84,61.4226c4.8842,10.444,2.5315,20.02,2.3184,28.6126s-4.6687,32.7213-4.6687,32.7213c-8.5594-2.1319-9.5815-7.8683-11.2344-10.7974-3.95-20.09,1.036-36.4152,4.7482-42.4462C100.9145,64.7839,106.84,61.4226,106.84,61.4226Z" fill="#d31654" fill-rule="evenodd"/><path d="M101.4754,74.703c-7.9213-1.98-3.9208,16.6818-.0366,24.1086,1.9614,3.75,3.5188,5.9237,5.8816,7.1272.77-5.0473,1.4643-10.1979,1.73-13.8474C107.05,85.3672,105.5034,76.6811,101.4754,74.703Z" fill="#bc1753" fill-rule="evenodd"/><polygon points="68.825 142.653 73.288 139.522 74.775 139.522 74.143 140.468 69.375 143.755 68.825 142.653" fill="#3c3c6d"/><path d="M61.8227,128.0218c-.65-5.1669-3.0725-36.3688-7.6156-39.9316,0,0-3.1017-3.2939-4.5041-1.9068h0L27.0137,99.2817l1.06,14.12L37.9277,145.68l21.9884-12.6949h0C61.3008,132.6,62.1652,130.7429,61.8227,128.0218Z" fill="#032747" fill-rule="evenodd"/><path d="M31.2376,101.3953c4.5432,3.5629,6.9654,34.7648,7.6158,39.9317s-3.0485,7.2265-6.4051,1.9817-6.3884-35-6.39-41.21S31.2376,101.3953,31.2376,101.3953Z" fill="#084478" fill-rule="evenodd"/><path d="M204.2273,23.3335c-5.2658,2.6277-14.985,23.9728-13.3346,28.9793s6.1433,2.2558,9.23-2.1453c4.2554-6.067,8.5144-19.255,7.986-22.5559A5.7243,5.7243,0,0,0,204.2273,23.3335Z" fill="#9fa3bd" fill-rule="evenodd"/><path d="M205.5259,134.094s-8.1692,9.5452-10.3476,10.1853-.2135,2.8854,1.459,3.0566,6.99-.0553,8.54-1.5794,5.9313-3.1525,5.9313-3.1525a24.6943,24.6943,0,0,0-1.1839-8.06Z" fill="#56548c" fill-rule="evenodd"/><path d="M202.6613,66.6686s-1.0583,21.1238-.6717,28.05,2.0753,41.3115,2.0753,41.3115a14.934,14.934,0,0,0,7.3153,0c1.471-26.3661,1.4281-33.9486,1.85-37.88s.9431-15.2982.9431-15.2982c3.153-6.5239-.145-15.0151-1.7-17.0593S202.6613,66.6686,202.6613,66.6686Z" fill="#9498a8" fill-rule="evenodd"/><path d="M218.8788,143.1567c-.2741,3.8608-1.6691,8.41-2.0221,10.7235a5.4891,5.4891,0,0,0,1.0111,4.3719c.5341.7431,7.0623-1.4151,7.955-3.9311s-.9364-4.7172-1.0771-9.4346C222.6354,141.1126,218.8788,143.1567,218.8788,143.1567Z" fill="#56548c" fill-rule="evenodd"/><path d="M209.449,68.3085s1.1242,19.226,2.8962,25.6308,3.3638,25.1848,4.1185,28.4612,1.6754,23.51,1.6754,23.51a14.4175,14.4175,0,0,0,7.2549,0c-.0855-18.95.3732-34.3508,0-39.5487s.1484-20.5989.1484-20.5989c1.6816-7.17,1.7815-8.0854,0-12.8484S216.1,64.3774,209.449,68.3085Z" fill="#9498a8" fill-rule="evenodd"/><path d="M205.7468,22.68c5.8939-.261,19.5565,2.8039,24.0556,8.5419s-2.0324,15.8791-3.5966,21.99.7223,21.4539.7186,22.9256c-6.9828,4.6307-23.8018,5.2163-25.6895-1.6895-.78-7.5157.9417-16.4386,1.0343-20.8346C202.0429,44.1687,197.944,25.4758,205.7468,22.68Z" fill="#f9fbfc" fill-rule="evenodd"/><path d="M210.8075,24.0822c-3.7955,13.3233-4.6875,28.2735-4.319,33.9281s.5235,23.9358.5235,23.9358c-4.4153-2.3239-6.3519-6.5843-6.3519-8.5208s1.6626-18.4817,1.6091-19.8124S200.04,37.0957,200.66,30.2791s5.0867-7.5995,5.0867-7.5995h5.68Z" fill="#9fa3bd" fill-rule="evenodd"/><path d="M207.1482,7.9969c-2.5953.8185,0,6.722,0,6.722Z" fill="#3c3c6d" fill-rule="evenodd"/><path d="M207.0132,8.774a18.1617,18.1617,0,0,0-.61,6.14c.3684,2.6854.6115,8.0336,2.9909,9.7452s5.79-.2755,8.0489-2.193a13.4206,13.4206,0,0,0,4.7068-9.7344c.0535-4.2789-1.62-9.52-7.79-9.253S207.0132,8.774,207.0132,8.774Z" fill="#ffc8af" fill-rule="evenodd"/><path d="M218.994,18.6688s-.4814,5.5091.9628,7.5415c.1033,1.3544-3.7811,7.1009-7.6485,6.0974-2.2525-.5845-1.9823-3.2092-1.9823-3.2092a61.9549,61.9549,0,0,0,0-6.8461Z" fill="#ffc8af" fill-rule="evenodd"/><path d="M205.499,4.1612c-.8791,3.1724.1236,4.3118,2.7979,5.2219S218.0848,8.23,218.0848,8.23a8.2639,8.2639,0,0,0,.5883,5.1576c1.1767-3.3372,2.2464-1.6383,2.3533,1.0315s-1.3905,2.6092-1.3905,2.6092a4.9174,4.9174,0,0,0,.829,3.0091c2.8614-1.9775,6.7557-15.199,1.6-15.5055C221.9892-.0826,207.3815-2.6329,205.499,4.1612Z" fill-rule="evenodd"/><path d="M220.197,25.3322c-4.5868,9.6721-6.9881,18.5027-6.8332,26.4812s1.8026,31.2171,1.8026,31.2171c7.9576-1.9365,13.38-4.1829,14.9291-6.8941-3.4083-8.9855-4.6476-15.0276-3.95-17.5838s6.7086-22.0449,3.5867-27.8316C226.7647,27.4905,220.197,25.3322,220.197,25.3322Z" fill="#9fa3bd" fill-rule="evenodd"/><path d="M219.1744,24.0423a11.27,11.27,0,0,0,1.0226,1.29s-1.99,4.348-2.7069,6.2671a10.1755,10.1755,0,0,1-2.6034,3.5212l-2.5784-2.8128C215.8621,30.4263,219.1744,24.0423,219.1744,24.0423Z" fill="#f9fbfc" fill-rule="evenodd"/><path d="M210.65,25.43c.2355-.2936.801,5.4286,1.6581,6.8779a10.5235,10.5235,0,0,1-2.6356,1.9719S208.6878,27.8764,210.65,25.43Z" fill="#f9fbfc" fill-rule="evenodd"/><path d="M212.532,32.1907,210.33,33.54a13.1734,13.1734,0,0,1,.5369,2.9266h2.0591l1.5332-2.1873Z" fill="#d31654" fill-rule="evenodd"/><path d="M210.867,36.4669c-3.0626,15.8879-2.749,25.7134-2.749,25.7134l1.5547,4.3713,3.3579-4.894s-2.4323-18.6674-.1045-25.1907A1.5576,1.5576,0,0,0,210.867,36.4669Z" fill="#d31654" fill-rule="evenodd"/><path d="M68.0224,84.2562c-6.3466-.3152-20.239,4.0508-25.118,10.2048s1.2562,15.97,2.9054,22.5609-.9023,23.1026-.9069,24.6878c7.494,5.0279,25.6054,5.7562,27.6786-1.6706.8837-8.09-5.03-16.6222-5.1045-21.3575C67.7755,108.511,76.41,87.3131,68.0224,84.2562Z" fill="#f9fbfc" fill-rule="evenodd"/><path d="M62.4821,85.7335c3.2989,14.3511,2.2633,29.8564,1.5315,35.9358s-.8708,26.3173-.8708,26.3173c4.8934-2.4735,7.2315-7.0442,7.3462-9.1269s-1.7808-19.6281-1.6443-21.0591,4.4636-18.0088,4.2-25.3435-5.0285-8.2026-5.0285-8.2026l-6.1183-.033Z" fill="#c1c3d4" fill-rule="evenodd"/><path d="M68.2156,69.3606a61.6,61.6,0,0,1,.6214,6.6168c.0972,4.7386-.7051,8.649-3.2778,10.4786s-7.2861.63-9.708-1.4485S51.9228,78.1444,51.89,73.5357s1.8-10.2447,8.4438-9.9209S68.2156,69.3606,68.2156,69.3606Z" fill="#ffc8af" fill-rule="evenodd"/><path d="M53.7776,79.86s.4866,5.9362-1.0806,8.117c-.1191,1.4581,4.0312,7.67,8.2024,6.6115,2.4295-.6164,2.1536-3.445,2.1536-3.445a66.7266,66.7266,0,0,1,.04-7.3737Z" fill="#ffc8af" fill-rule="evenodd"/><path d="M67.6929,64.6515c-3.6874-5.1354-17.3875-.8884-16.2368,3.9475-5.2994,1.6935-1.8712,15.3777,4.3951,16.4085,0,0,2.9211-2.9284,2.6665-3.6581-.5961.2714-1.3985.2674-1.7538-1.4011-.6-2.8148,1.167-4.64,3.284-1.4708a12.6715,12.6715,0,0,0-1.083-5.9052s7.0938-.6573,9.3893-2.6545C69.57,68.86,69.7609,67.5315,67.6929,64.6515Z" fill="#632404" fill-rule="evenodd"/><path d="M52.4433,87.0294c4.8842,10.4439,3.38,20.2287,3.1673,28.821s-4.6687,32.7214-4.6687,32.7214c-8.5594-2.1319-9.5815-7.8683-11.2344-10.7974-3.95-20.09-1.356-38.4267,2.3561-44.4577C44.9744,88.5877,52.4433,87.0294,52.4433,87.0294Z" fill="#c1c3d4" fill-rule="evenodd"/><path d="M55.4876,118.0982c-2.5-7.0792-4.6222-16.91-8.8308-18.9768-7.9213-1.98-5.5516,17.8081-1.6675,25.2349,2.3565,4.5056,4.73,6.9943,8.6726,8.1188C54.4621,127.2888,55.1987,121.9119,55.4876,118.0982Z" fill="#9fa3bd" fill-rule="evenodd"/><path d="M53.5522,85.6461a12.1129,12.1129,0,0,1-1.1089,1.3833s2.1177,4.6946,2.8792,6.7658a10.9592,10.9592,0,0,0,2.7836,3.8076l2.7933-3.0146C57.0826,92.5411,53.5522,85.6461,53.5522,85.6461Z" fill="#f9fbfc" fill-rule="evenodd"/><path d="M62.7252,87.19c-.2519-.3176-.8944,5.8423-1.8258,7.3983a11.3316,11.3316,0,0,0,2.8271,2.139S64.8245,89.8364,62.7252,87.19Z" fill="#f9fbfc" fill-rule="evenodd"/><polygon points="52.06 141.245 122.459 181.89 209.637 131.558 139.238 90.913 52.06 141.245" fill="#83c9ff"/><path d="M57.2666,142.4927a4.7611,4.7611,0,0,1-4.3079-.0077,1.3129,1.3129,0,0,1-.0135-2.4873,4.7611,4.7611,0,0,1,4.3079.0078A1.3128,1.3128,0,0,1,57.2666,142.4927Z" fill="#83c9ff"/><path d="M208.7521,132.8054a4.7611,4.7611,0,0,1-4.3079-.0077,1.3129,1.3129,0,0,1-.0135-2.4873,4.7615,4.7615,0,0,1,4.3081.0078A1.3128,1.3128,0,0,1,208.7521,132.8054Z" fill="#184c7f"/><path d="M208.1678,198.9746a3.4734,3.4734,0,0,1-3.1428-.0056.9578.9578,0,0,1-.01-1.8145,3.4732,3.4732,0,0,1,3.1427.0057A.9577.9577,0,0,1,208.1678,198.9746Z" fill="#184c7f"/><polygon points="203.545 131.558 204.37 198.065 208.813 198.065 209.637 131.558 203.545 131.558" fill="#184c7f"/><path d="M124.397,181.218a4.761,4.761,0,0,1-4.308-.0079,1.3127,1.3127,0,0,1-.0135-2.4871,4.761,4.761,0,0,1,4.308.0078A1.3128,1.3128,0,0,1,124.397,181.218Z" fill="#184c7f"/><path d="M123.8125,247.3872a3.4732,3.4732,0,0,1-3.1427-.0057.9577.9577,0,0,1-.01-1.8144,3.4732,3.4732,0,0,1,3.1427.0057A.9577.9577,0,0,1,123.8125,247.3872Z" fill="#184c7f"/><polygon points="119.19 179.97 120.014 246.477 124.458 246.477 125.282 179.97 119.19 179.97" fill="#184c7f"/><path d="M141.2681,93.919a4.7615,4.7615,0,0,1-4.3081-.0077,1.3129,1.3129,0,0,1-.0135-2.4873,4.7618,4.7618,0,0,1,4.3081.0078A1.3128,1.3128,0,0,1,141.2681,93.919Z" fill="#83c9ff"/><path d="M140.6836,160.0882a3.4729,3.4729,0,0,1-3.1427-.0056.9577.9577,0,0,1-.01-1.8144,3.4737,3.4737,0,0,1,3.1428.0056A.9577.9577,0,0,1,140.6836,160.0882Z" fill="#83c9ff"/><polygon points="136.061 92.672 136.885 159.178 141.329 159.178 142.153 92.672 136.061 92.672" fill="#83c9ff"/><path d="M232.3606,116.2529c-.028,7.6139-4.6384,14.88-14.0485,20.3133l-87.1782,50.3325c-20.8338,12.0284-57.2248,10.52-81.2816-3.3693h0c-12.8836-7.4385-19.609-16.9187-19.884-25.9685l-.0176-.0259.001,3.9887.0166-.0129c.26,9.06,6.9853,18.5532,19.884,26h0C73.9091,201.4,110.3,202.9089,131.1339,190.88l87.1782-50.3323c9.4223-5.44,14.0324-12.7182,14.0485-20.3429l.0155.012.001-3.9886Z" fill="#184c7f"/><path d="M49.9158,183.5876h0c24.0567,13.8892,60.4477,15.3977,81.2815,3.3694l87.1783-50.3325c9.41-5.4329,14.02-12.6994,14.0484-20.3133.0339-9.2432-6.6933-18.9988-19.8841-26.6145h0c-24.0567-13.8892-60.4477-15.3977-81.2815-3.3692L44.08,136.66c-9.6763,5.5866-14.287,13.1112-14.0484,20.96C30.3068,166.669,37.0322,176.1492,49.9158,183.5876Z" fill="#027cb2"/><path d="M205.7584,130.9318l-13.1218-7.576-22.1743,12.8023-1.7089.2531v.4447a.4744.4744,0,0,0,.2421.4286l13.373,7.721a1.7618,1.7618,0,0,0,1.5852-.0658l22.1842-12.808c.2861-.1651.4145-.3818.3807-.579v-.7336Z" fill="#3c3c6d" fill-rule="evenodd"/><path d="M192.6366,122.6223l-23.8832,13.7889-5.5887-17.6547a1.2292,1.2292,0,0,1,.4418-1.3835l22.5616-13.0261c.4063-.2346.8673.0045,1.03.534Z" fill="#c2c2c0" fill-rule="evenodd"/><polygon points="191.373 121.894 169.327 134.622 164.284 119.015 186.55 106.16 191.373 121.894" fill="#9fa3bd" fill-rule="evenodd"/><path d="M206.1379,131.3982l-22.1842,12.808a1.7618,1.7618,0,0,1-1.5852.0657l-13.6151-7.8607,23.8832-13.7889,13.615,7.8607C206.658,130.7176,206.607,131.1273,206.1379,131.3982Z" fill="#56548c" fill-rule="evenodd"/><path d="M206.1379,131.3982l-22.1842,12.808a1.7618,1.7618,0,0,1-1.5852.0657l-13.6151-7.8607,23.8832-13.7889,13.615,7.8607C206.658,130.7176,206.607,131.1273,206.1379,131.3982Z" fill="#c2c2c0" fill-rule="evenodd"/><polygon points="199.213 127.735 177.609 140.208 171.165 136.487 192.769 124.014 199.213 127.735" fill="#484d4b" fill-rule="evenodd"/><path d="M196.208,135.5014l-5.1473,2.9717a1.096,1.096,0,0,1-.9865.0409l-2.4681-1.4249c-.2529-.1459-.2211-.4009.0709-.57l5.1472-2.9718a1.0964,1.0964,0,0,1,.9864-.0409l2.4682,1.4249C196.5316,135.0778,196.5,135.3328,196.208,135.5014Z" fill="#484d4b" fill-rule="evenodd"/><path d="M45.34,169.5924c.55-1.1,10.8418-20.2431,10.8418-20.2431l15.1749,4.9574s-8.9354,23.6365-10.1408,23.1288S45.34,169.5924,45.34,169.5924Z" fill="#f9fbfc"/><polygon points="77.418 128.973 89.861 119.459 112.575 121.477 99.539 131.244 77.418 128.973" fill="#f9fbfc"/><path d="M92.6408,165.7529l-.1817.0157a.7184.7184,0,0,0-.0969-.0707l-10.4189-6.0153a1.79,1.79,0,0,0-1.6106.0667l-14.1,8.1407a1.0568,1.0568,0,0,0-.1991.15l-.1929.0166-.0023.3748.0055-.0006a.4785.4785,0,0,0,.2731.3895l10.4189,6.0153a1.79,1.79,0,0,0,1.6108-.0667l14.1-8.1408a.66.66,0,0,0,.39-.5192l.0046,0Z" fill="#00ffa3"/><path d="M76.5356,174.4919l-10.4189-6.0153c-.4127-.2384-.361-.6547.1157-.93l14.1-8.1407a1.79,1.79,0,0,1,1.6106-.0668l10.4189,6.0153c.4127.2384.3611.6547-.1157.93l-14.1,8.1407A1.79,1.79,0,0,1,76.5356,174.4919Z" fill="#00ffa3"/><polygon points="77.589 173.819 67.282 167.868 81.252 159.802 91.56 165.753 77.589 173.819" fill="#00ffa3"/><path d="M69.86,85.0476c5.9225,2.6578,4.5786,18.4866,9.1053,22.4572,2.5662,2.2509,15.1929,5.1384,18.6974,5.2,1.3723,2.82-1.0525,5.9772-1.0525,5.9772-21.5349-1.7313-23.064-2.2562-28.034-10.9527C64.6956,100.9382,61.94,83.24,69.86,85.0476Z" fill="#c1c3d4" fill-rule="evenodd"/><path d="M96.9624,113.5791s5.8267-.6994,6.9131-.2016a22.3924,22.3924,0,0,1,4.2794,2.7266c.6913.7014,2.8969,2.5775,1.0534,3.0382-.5864.1466-3.7527-.8229-4.6416-1.218s-2.4874-.8619-2.4874-.4669,4.0676,1.4733,3.508,2.3747c-.5175.8335-1.5473.2117-4.4112-.7556a42.4034,42.4034,0,0,0-5.6949-1.4485C94.9938,115.5567,95.6356,114.3158,96.9624,113.5791Z" fill="#ffc8af"/><path d="M87.6918,116.9642,83.5334,122.26a.3565.3565,0,0,0,.5607.44l4.1584-5.2958a.3564.3564,0,1,0-.5607-.44" fill="#3c3c6d"/><path d="M79.9215,119.6319c1.8547.9357,4.9524.3531,4.9524.71a1.8656,1.8656,0,0,1-1.9009,1.4257C81.6661,121.7672,79.9215,119.6319,79.9215,119.6319Z" fill="#ffc8af" fill-rule="evenodd"/><path d="M74.7752,122.48c1.0693-1.1881,3.8108-3.9206,6.0043-2.495a11.4806,11.4806,0,0,0,4.332,1.6634c.7129-1.0693,1.7822-.2377,2.495,1.3069s-3.9206,3.4455-4.6335,4.04-8.1978-.6164-8.1978-.6164Z" fill="#ffc8af" fill-rule="evenodd"/><path d="M46.6568,94.5994c5.9239,2.909,7.7135,21.2064,12.2422,25.55,2.5673,2.4624,12.8414.4968,16.346.5656,1.3737,3.0845-.4881,6.8181-.4881,6.8181-19.7558,2.3455-24.7931,1.8122-29.7676-7.6991C41.1052,112.4075,38.7355,92.619,46.6568,94.5994Z" fill="#c1c3d4" fill-rule="evenodd"/><path d="M212.8258,49.4274a8.8127,8.8127,0,0,0-3.351-4.81,7.1631,7.1631,0,0,0-1.4134-.7159,2.2243,2.2243,0,0,0-.6954-.1761c-.1859-.0072-.5652-.1126-.7122.0242a.3281.3281,0,0,0-.0194.3671,2.4584,2.4584,0,0,0,1.118.9819,2.96,2.96,0,0,1,1.2811,1.805,13.9707,13.9707,0,0,0-2.25-2.106,13.69,13.69,0,0,0-2.7638-1.2838,2.6376,2.6376,0,0,0-1.2951-.2345c-.5038.0793-.719.4871-.3785.8984a4.0736,4.0736,0,0,0,1.1987.7186,8.637,8.637,0,0,1,1.4726,1.0769,3.9656,3.9656,0,0,1,.6021.62c.1167.1671.26.5246.4572.6087a16.8509,16.8509,0,0,1-1.5825-.7818c-.45-.2523-.92-.3739-1.3827-.6018-.4034-.1984-.7719-.496-1.172-.7089a.7588.7588,0,0,0-.69-.107.4957.4957,0,0,0-.2317.4545,1.0563,1.0563,0,0,0,.1766.5013,2.5565,2.5565,0,0,0,.9676.9126,10.4128,10.4128,0,0,1,.9622.6707c.4165.29.8291.5861,1.2226.9069.1964.16.3881.326.5726.5.15.1411.3241.4165.5007.5119q-1.2319-.6657-2.4056-1.4326a6.3054,6.3054,0,0,1-.8625-.6178,2.1631,2.1631,0,0,0-1.092-.5775.4441.4441,0,0,0-.3048.0249.3352.3352,0,0,0-.1294.3578.9492.9492,0,0,0,.1894.3561,12.195,12.195,0,0,0,1.5929,1.7817,5.4559,5.4559,0,0,0,1.963,1.3454,5.8234,5.8234,0,0,1-2.6266-1.332,2.3066,2.3066,0,0,0-1.204-.704.38.38,0,0,0-.3838.1234c-.0785.13-.0056.2952.071.426a5.9568,5.9568,0,0,0,2.2361,2.36c.5141.2487.9708.65,1.4668.9432.5366.3171,1.087.61,1.6183.9365a17.83,17.83,0,0,0,4.2112,1.9218,4.3058,4.3058,0,0,0,1.2462.1606,1.39,1.39,0,0,0,1.0165-.3852,3.63,3.63,0,0,0,1.1346-1.9594,6.3428,6.3428,0,0,0-.0559-2.6994C213.0275,50.1362,212.9357,49.7807,212.8258,49.4274Z" fill="#ffc8af" fill-rule="evenodd"/><path d="M199.7034,50.219c-.4155-2.3884-.977-5.1911-2.47-7.1518a.4747.4747,0,0,0-.2383-.1969c-.2366-.06-.403.2365-.429.4792a4.9986,4.9986,0,0,0,.4532,2.0331,5.9,5.9,0,0,1,.1155,2.4128c-.05-.0715-.0947-.1469-.1473-.2165-1.1953-1.5795-1.79-3.74-2.5909-5.5638-.0928-.2115-.23-.4553-.4609-.4661-.3222-.015-.45.4115-.4487.734a8.8709,8.8709,0,0,0,.9591,4.0677,15.7639,15.7639,0,0,1-1.6222-3.0824c-.1035-.264-.2562-.5755-.5389-.5958-1.1537-.0828.3008,4.367.5208,4.9178a7.0261,7.0261,0,0,1-1.2257-2.7664,1.6843,1.6843,0,0,0-.174-.5594c-.1188-.1939-.4265-.3808-.6123-.18a1.7813,1.7813,0,0,0-.2064.8492,4.3269,4.3269,0,0,0,.3412,1.9181c.3464.8834.8555,1.7,1.148,2.6027q-.7572-.9367-1.5143-1.8735c-.1056-.1307-.2433-.275-.41-.2514-.2209.0314-.2877.3321-.2175.5439a11.0971,11.0971,0,0,0,2.2071,3.8874c.4885.5489,1.0987.9788,1.5617,1.5356a4.748,4.748,0,0,0,1.7909,1.2824,4.9011,4.9011,0,0,0,2.257.3815,1.5184,1.5184,0,0,0,1.293-.6432,3.2029,3.2029,0,0,0,.6706-1.3914A8.6426,8.6426,0,0,0,199.7034,50.219Z" fill="#ffc8af" fill-rule="evenodd"/><path d="M213.2787,48.9756l9.7974,3.3372c-.978-12.8367,1.2879-26.4839,6.6556-21.5918,3.0942,2.82,3.277,26.8123.893,30.3577S218.0172,59.53,210.867,55.9441C210.6852,52.8471,213.2787,48.9756,213.2787,48.9756Z" fill="#9fa3bd" fill-rule="evenodd"/><path d="M39.0324,120.8535a20.2083,20.2083,0,0,1,8.0922.2194,9.6159,9.6159,0,0,1,7.06,7.4371c.9606,3.7761,1.2431,10.0722-.9188,13.58-1.3519,2.1942-4.3612,1.7823-6.512,1.2114-2.6-.69-6-1.81-8.1324-3.42-2.9687-2.2449-4.54-7.1556-4.7212-10.7066-.1567-3.06,1.4245-7.7142,5.1317-8.321" fill="#ffc8af" fill-rule="evenodd"/><path d="M35.9633,121.5508c-2.3671,1.57-2.1882,5.1437-2.0626,7.6237.1813,3.55,1.7525,8.4617,4.7212,10.7066a8.8394,8.8394,0,0,0,3.9131,2.0646,12.6668,12.6668,0,0,0,1.2682-.8583,3.594,3.594,0,0,0,1.3589-3.9285c-.4413-1.432-.4863-3.1472.3233-3.5888,1.3231-.7229,2.2062,1.8452,2.2062,1.8452a1.96,1.96,0,0,0,1.2838-2.6875,4.5523,4.5523,0,0,1,0-3.1278c2.3449.0458,3.436-3.1475,4.1781-3.5647,1.5835-.89,2.1146-1.2455,1.86-2.75a4.6444,4.6444,0,0,0-1.3027-2.6478,15.8308,15.8308,0,0,0-4.71-2.1043C42.4824,116.9,37.4581,118.063,35.9633,121.5508Z" fill="#56548c" fill-rule="evenodd"/><path d="M50.4828,145.0975c-5.8515-2.1779-12.6224-6.0344-22.0911,1.55s-6.8832,38.3119-4.5444,45.3345,18.0606,7.6015,22.7525,6.9828.0612-8.7207,1.6251-14.0877S62.1137,149.4264,50.4828,145.0975Z" fill="#56548c" fill-rule="evenodd"/><path d="M53.5987,146.3657c2.47,1.503,8.8578,20.1948,8.8578,20.1948l2.3194-14.6681s5.24-2.4943,8.28.8185c-2.0946,14.2125-3.2187,28.8086-8.28,29.6308s-13.4035-12.6579-17.9126-19.2435S46.09,141.7961,53.5987,146.3657Z" fill="#56548c" fill-rule="evenodd"/><polygon points="69.035 143.074 73.804 139.522 75.042 139.153 74.463 139.99 69.375 143.755 69.035 143.074" fill="#3c3c6d"/><path d="M65.85,152.74c0-.4535-1.8355-4.9388-1.0878-6.6065A12.4913,12.4913,0,0,1,66.4163,143.4c.7934-2.5618,2.9446-2.2856,4.6459-.61s4.0784,5.8119,1.02,9.2975A5.0156,5.0156,0,0,1,65.85,152.74Z" fill="#ffc8af" fill-rule="evenodd"/><path d="M5.364,157.1177l-.0088.2393c-1.87-.1649-3.9824,1.4121-4.84,3.6254-1.54,3.9721.5221,47.222,4.2348,46.3027,1.18,1.234,27.0041,15.5908,27.0041,15.5908l1.4915-49.7032S15.0077,157.3789,5.364,157.1177Z" fill="#46467c" fill-rule="evenodd"/><path d="M31.7536,222.8759c-3.7127.9193-5.7747-42.3306-4.2348-46.3026s7.1221-5.9023,8.0845.6265S41.5705,220.445,31.7536,222.8759Z" fill="#ec827d" fill-rule="evenodd"/><path d="M133.47,93.8166c1.8547.9357,4.9525.3531,4.9525.71a1.8656,1.8656,0,0,1-1.901,1.4258C135.2141,95.9519,133.47,93.8166,133.47,93.8166Z" fill="#ffc8af" fill-rule="evenodd"/><path d="M128.3232,96.6647c1.0693-1.1881,3.8108-3.9206,6.0043-2.495a11.4812,11.4812,0,0,0,4.332,1.6634c.7129-1.0693,1.7822-.2377,2.495,1.3069s-3.9206,3.4455-4.6335,4.04-8.1978-.6164-8.1978-.6164Z" fill="#ffc8af" fill-rule="evenodd"/><path d="M225.2453,158.0778s-19.2368-6.6017-27.3688-5.6237-6.3186,36.1873-6.3186,36.1873a29.0265,29.0265,0,0,0,8.5863,0c1.8257-9.78,4.76-20.5388,4.76-20.5388s17.6989,5.1174,20.3413,2.5587S225.2453,158.0778,225.2453,158.0778Z" fill="#33303b" fill-rule="evenodd"/><line x1="201.945" y1="196.0591" x2="201.945" y2="196.1506" fill="none"/><path d="M201.1439,202.771a1.0655,1.0655,0,0,0,.2873.698,2.4353,2.4353,0,0,0,1.185.6689,4.3441,4.3441,0,0,0,2.3114.0292l9.45-2.4989c1.5722-.4107,3.3907.1231,3.7309,1.0969l2.0356,5.8369c.2523.7275,1.3609,1.232,2.6163,1.232q.2112,0,.4225-.0176a3.1385,3.1385,0,0,0,1.9064-.7568,1.1612,1.1612,0,0,0,.352-.616v-.0352a.8519.8519,0,0,0-.0059-.2991l-.786-4.1357-.3461-1.8069c-.1878-.9913,1.2613-1.8243,2.9741-1.7188l10.43.6629c.1.006.1936.0118.2933.0118a4.3808,4.3808,0,0,0,1.2379-.176,1.9569,1.9569,0,0,0,1.4255-1.138c.2287-.8154-.6982-1.59-2.1-1.754L228.3515,196.87a3.8105,3.8105,0,0,1-1.1674-.3167c-.8975-.4282-1.2554-1.1732-.7274-1.8361l3.6195-4.57.7273-.921a1.0712,1.0712,0,0,0,.2347-.5162.971.971,0,0,0,.0118-.129c0-.5632-.5339-1.1029-1.4549-1.3727a3.8849,3.8849,0,0,0-3.5549.6217l-5.174,5.25a3.9753,3.9753,0,0,1-4.1417.3871l-7.673-4.0535a4.2049,4.2049,0,0,0-3.7075.0527,1.2988,1.2988,0,0,0-.786,1.1732,1.3144,1.3144,0,0,0,.6922.968l.61.3814,6.4061,4.0476c1.1439.7216.8388,1.8714-.61,2.37a.177.177,0,0,1-.0587.0235l-9.0868,2.9859C201.6366,201.7034,201.1439,202.2313,201.1439,202.771Z" fill="#084478" fill-rule="evenodd"/><path d="M227.1841,196.5528l3.6194-4.57a1.05,1.05,0,0,0,.2347-.5338V188.71a1.0712,1.0712,0,0,1-.2347.5162l-.7273.921-3.6195,4.57C225.9287,195.38,226.2866,196.1246,227.1841,196.5528Z" fill="#032747" fill-rule="evenodd"/><path d="M209.26,196.7417a.3622.3622,0,0,0,.0117-.1115,1.1539,1.1539,0,0,0-.0117-.1408Z" fill="#084478" fill-rule="evenodd"/><path d="M224.3038,202.1667l.3461,1.8069a3.5407,3.5407,0,0,1,2.628-.7685l10.43.6629c.1.0058.1936.0117.2933.0117,1.3082,0,2.4522-.5514,2.6634-1.314v-2.7571a1.9569,1.9569,0,0,1-1.4255,1.138,4.3808,4.3808,0,0,1-1.2379.176c-.1,0-.1936-.0058-.2933-.0118l-10.43-.6629C225.5651,200.3424,224.116,201.1754,224.3038,202.1667Z" fill="#032747" fill-rule="evenodd"/><path d="M218.8863,207.3713v.487A.8586.8586,0,0,0,218.8863,207.3713Z" fill="#084478" fill-rule="evenodd"/><path d="M201.1439,202.771v2.7748a1.0711,1.0711,0,0,0,.2873.6745,3.7463,3.7463,0,0,0,3.4964.7039l9.45-2.499c1.5722-.4106,3.3907.1233,3.7309,1.097l2.0356,5.837c.2523.7274,1.3492,1.2319,2.5988,1.2319.1466,0,.2933-.0118.44-.0235,1.2435-.1114,2.1587-.6981,2.2584-1.402v-2.722a1.1612,1.1612,0,0,1-.352.616,3.1385,3.1385,0,0,1-1.9064.7568q-.2114.0176-.4225.0176c-1.2554,0-2.364-.5045-2.6163-1.232l-2.0356-5.8369c-.34-.9738-2.1587-1.5076-3.7309-1.0969l-9.45,2.4989a4.3441,4.3441,0,0,1-2.3114-.0292,2.4353,2.4353,0,0,1-1.185-.6689A1.0655,1.0655,0,0,1,201.1439,202.771Z" fill="#032747" fill-rule="evenodd"/><path d="M204.558,190.64v2.6692a1.2775,1.2775,0,0,0,.6922,1.0559l6.406,4.0419c1.4489-.4986,1.754-1.6484.61-2.37l-6.4061-4.0476-.61-.3814A1.3144,1.3144,0,0,1,204.558,190.64Z" fill="#032747" fill-rule="evenodd"/><line x1="209.2598" y1="196.7417" x2="209.2598" y2="196.7711" fill="#084478"/><path d="M201.3219,207.8344a2.39,2.39,0,1,0,2.2262-2.5261A2.3809,2.3809,0,0,0,201.3219,207.8344Z" fill="#032747" fill-rule="evenodd"/><path d="M220.3505,213.76a2.39,2.39,0,1,0,2.2262-2.5261A2.3809,2.3809,0,0,0,220.3505,213.76Z" fill="#084478" fill-rule="evenodd"/><path d="M235.9241,205.16a2.39,2.39,0,1,0,2.2262-2.5261A2.3809,2.3809,0,0,0,235.9241,205.16Z" fill="#084478" fill-rule="evenodd"/><path d="M227.1987,195.1628a2.39,2.39,0,1,0,2.2261-2.5261A2.3808,2.3808,0,0,0,227.1987,195.1628Z" fill="#032747" fill-rule="evenodd"/><path d="M203.7123,196.2191a2.39,2.39,0,1,0,2.2261-2.5261A2.3808,2.3808,0,0,0,203.7123,196.2191Z" fill="#032747" fill-rule="evenodd"/><path d="M217.0272,199.8086c0,3.1364,6.7039,2.5252,6.7039,0V177.8829h-6.7039Z" fill="#032747" fill-rule="evenodd"/><path d="M193.8,177.7557c1.702,1.6023,22.1617,12.9118,25.979,15.0161a1.4835,1.4835,0,0,0,1.5048-.0027l.0086-.0055.0147-.0074c2.1346-1.357,3.1909-6.1688-.9169-9.22-1.21-.9023-23.0032-15.5581-26.4728-14.5531H193.91l-.11.0439a1.2292,1.2292,0,0,0-.3154.2054C191.8124,170.6112,192.0251,176.0833,193.8,177.7557Z" fill="#084478" fill-rule="evenodd"/><path d="M193.9177,168.9828c3.47-1.005,25.2625,13.6508,26.4728,14.5531,4.1078,3.0515,3.0515,7.8633.9169,9.22l24.2063-14.0249.8362-.4841.022-.0147c1.9-1.6211,2.648-6.0882-1.2469-8.9783-1.225-.91-23.5242-15.9028-26.59-14.5018l-.2055.1173Z" fill="#032747" fill-rule="evenodd"/><path d="M181.8154,135.4826a5.6942,5.6942,0,0,0-1.6819-2.511c-1.1613-.8664-2.8441-2.0863-3.6395-1.6271s1.7994,2.48,1.7994,2.48a21.8209,21.8209,0,0,0-6.6556-1.4061c-1.192-.0609-4.7424,1.29-4.0416,2.3507s3.5043,2.5418,4.7159,3.2413a15.5338,15.5338,0,0,0,7.8214,1.6011C182.9157,139.2339,181.8154,135.4826,181.8154,135.4826Z" fill="#ffc8af" fill-rule="evenodd"/><path d="M225.2453,160.6363c.8179,12.9589-13.7944,19.096-34.8049,13.2279,0,0-1.4435,5.9748-5.5183,23.9587a27.2518,27.2518,0,0,1-9.5048,0s-.6157-35.1684,9.5048-36.7123,30.37-1.7309,30.3311-2.2192Z" fill="#33303b" fill-rule="evenodd"/><path d="M216.539,88.1106a20.2078,20.2078,0,0,0-8.0921.2195,9.6158,9.6158,0,0,0-7.0606,7.437c-.9606,3.7761-1.2431,10.0723.9188,13.58,1.3519,2.1942,4.3612,1.7823,6.512,1.2114,2.6-.69,6-1.8105,8.1324-3.42,2.9688-2.2448,4.54-7.1556,4.7213-10.7066.1566-3.06-1.4246-7.7142-5.1318-8.321" fill="#ffc8af" fill-rule="evenodd"/><path d="M219.6081,88.808c2.3672,1.57,2.1883,5.1436,2.0627,7.6236-.1814,3.5507-1.7525,8.4618-4.7213,10.7066a8.84,8.84,0,0,1-3.9131,2.0648,12.7309,12.7309,0,0,1-1.2681-.8585,3.594,3.594,0,0,1-1.359-3.9285c.4414-1.432.4863-3.1472-.3233-3.5887-1.3231-.723-2.2062,1.8451-2.2062,1.8451a1.96,1.96,0,0,1-1.2837-2.6875,4.553,4.553,0,0,0,0-3.1278c-2.3449.0459-3.436-3.1475-4.1781-3.5647-1.5835-.89-2.1147-1.2455-1.86-2.75a4.6444,4.6444,0,0,1,1.3027-2.6479,15.8275,15.8275,0,0,1,4.71-2.1042C213.089,84.1575,218.1134,85.32,219.6081,88.808Z" fill="#331202" fill-rule="evenodd"/><path d="M204.0962,112.3337c5.059-3.5508,11.7131-8.2263,21.1818-.6419s8.785,40.5247,6.4461,47.5473-18.0606,7.6016-22.7525,6.9828-.0611-8.7207-1.6251-14.0876S193.9381,119.4633,204.0962,112.3337Z" fill="#f9fbfc" fill-rule="evenodd"/><path d="M201.9652,119.5a8.536,8.536,0,0,0-1.9362,2.9208c-.09,6.461,2.1141,14.3773,4.1557,20.5479,1.5924-2.3047,3.1192-4.6959,4.516-6.7362C213.21,129.6473,209.474,114.9308,201.9652,119.5Z" fill="#dce6ea" fill-rule="evenodd"/><path d="M250.2075,124.3749l.0087.2392c1.87-.1649,3.9825,1.4122,4.8406,3.6255,1.54,3.972-.5221,47.2219-4.2349,46.3026-1.18,1.234-27.004,15.5908-27.004,15.5908L222.3263,140.43S240.5638,124.636,250.2075,124.3749Z" fill="#032747" fill-rule="evenodd"/><path d="M223.8179,190.133c3.7127.9194,5.7746-42.3306,4.2347-46.3026s-7.122-5.9023-8.0845.6265S214.001,187.7021,223.8179,190.133Z" fill="#084478" fill-rule="evenodd"/><path d="M202.4835,114.4428c-2.47,1.503-9.5484,22.5932-9.5484,22.5932l-10.6613-3.1274c-1.3819.02-4.5519,2.4523-3.8908,5.5241,6.6934,5.0349,10.3427,6.9289,15.4044,7.7511s10.9224-9.4229,15.4315-16.0085S209.9922,109.8732,202.4835,114.4428Z" fill="#f9fbfc" fill-rule="evenodd"/><path d="M154.591,160.5834l-13.1218-7.5758L119.2949,165.81l-1.7089.2531v.4447a.4744.4744,0,0,0,.2421.4286l13.373,7.7209a1.7618,1.7618,0,0,0,1.5852-.0657l22.1842-12.808c.2861-.1652.4145-.3818.3806-.579v-.7336Z" fill="#3c3c6d" fill-rule="evenodd"/><path d="M141.4692,152.274,117.586,166.063l-5.5887-17.6548a1.2287,1.2287,0,0,1,.4418-1.3834l22.5617-13.0261c.4063-.2346.8673.0044,1.03.534Z" fill="#c2c2c0" fill-rule="evenodd"/><polygon points="140.206 151.545 118.159 164.274 113.116 148.667 135.382 135.811 140.206 151.545" fill="#9fa3bd" fill-rule="evenodd"/><path d="M154.97,161.05l-22.1841,12.808a1.7618,1.7618,0,0,1-1.5852.0657L117.586,166.063l23.8832-13.789,13.6151,7.8607C155.4906,160.3693,155.44,160.7791,154.97,161.05Z" fill="#56548c" fill-rule="evenodd"/><path d="M154.97,161.05l-22.1841,12.808a1.7618,1.7618,0,0,1-1.5852.0657L117.586,166.063l23.8832-13.789,13.6151,7.8607C155.4906,160.3693,155.44,160.7791,154.97,161.05Z" fill="#c2c2c0" fill-rule="evenodd"/><polygon points="148.046 157.387 126.442 169.86 119.997 166.139 141.601 153.666 148.046 157.387" fill="#484d4b" fill-rule="evenodd"/><path d="M145.0406,165.1532l-5.1473,2.9717a1.0961,1.0961,0,0,1-.9864.0409l-2.4682-1.4249c-.2528-.1461-.2211-.401.0709-.57l5.1473-2.9718a1.0964,1.0964,0,0,1,.9864-.0409l2.4681,1.425C145.3643,164.73,145.3325,164.9846,145.0406,165.1532Z" fill="#3c3c6d" fill-rule="evenodd"/><path d="M30.5268,194.2363c-.8179,12.959,13.7943,19.0961,34.8049,13.2279,0,0,1.4435,5.9749,5.5183,23.9587,5.8066.8812,9.2936-4.1569,9.2936-4.1569s.8269-31.0115-9.2936-32.5553-30.37-1.7309-30.331-2.2193Z" fill="#33303b" fill-rule="evenodd"/><path d="M39.0324,120.8535a20.2083,20.2083,0,0,1,8.0922.2194,9.6159,9.6159,0,0,1,7.06,7.4371c.9606,3.7761,1.2431,10.0722-.9188,13.58-1.3519,2.1942-4.3612,1.7823-6.512,1.2114-2.6-.69-6-1.81-8.1324-3.42-2.9687-2.2449-4.54-7.1556-4.7212-10.7066-.1567-3.06,1.4245-7.7142,5.1317-8.321" fill="#ffc8af" fill-rule="evenodd"/><path d="M35.9633,121.5508c-2.3671,1.57-2.4234,5.2881-2.2978,7.7681.1813,3.5506,1.9877,8.3173,4.9564,10.5622a8.8394,8.8394,0,0,0,3.9131,2.0646,12.6668,12.6668,0,0,0,1.2682-.8583,3.594,3.594,0,0,0,1.3589-3.9285c-.4413-1.432-.4863-3.1472.3233-3.5888,1.3231-.7229,2.2062,1.8452,2.2062,1.8452a1.96,1.96,0,0,0,1.2838-2.6875,4.5523,4.5523,0,0,1,0-3.1278c2.3449.0458,3.436-3.1475,4.1781-3.5647,1.5835-.89,2.1146-1.2455,1.86-2.75a4.6444,4.6444,0,0,0-1.3027-2.6478,15.8308,15.8308,0,0,0-4.71-2.1043C42.4824,116.9,37.4581,118.063,35.9633,121.5508Z" fill="#331202" fill-rule="evenodd"/><path d="M50.4828,145.0975c-5.8515-2.1779-12.6224-6.0344-22.0911,1.55s-6.8832,38.3119-4.5444,45.3345,18.0606,7.6015,22.7525,6.9828.0612-8.7207,1.6251-14.0877S62.1137,149.4264,50.4828,145.0975Z" fill="#9fa3bd" fill-rule="evenodd"/><path d="M53.5987,146.3657c2.47,1.503,8.8578,20.1948,8.8578,20.1948l2.3194-14.6681s5.24-2.4943,8.28.8185c-2.0946,14.2125-3.2187,28.8086-8.28,29.6308s-13.4035-12.6579-17.9126-19.2435S46.09,141.7961,53.5987,146.3657Z" fill="#c1c3d4" fill-rule="evenodd"/><polygon points="69.035 143.074 73.804 139.522 75.042 139.153 74.463 139.99 69.375 143.755 69.035 143.074" fill="#3c3c6d"/><path d="M65.85,152.74c0-.4535-1.8355-4.9388-1.0878-6.6065A12.4913,12.4913,0,0,1,66.4163,143.4c.7934-2.5618,2.9446-2.2856,4.6459-.61s4.0784,5.8119,1.02,9.2975A5.0156,5.0156,0,0,1,65.85,152.74Z" fill="#ffc8af" fill-rule="evenodd"/><path d="M5.364,157.1177l-.0088.2393c-1.87-.1649-3.9824,1.4121-4.84,3.6254-1.54,3.9721.5221,47.222,4.2348,46.3027,1.18,1.234,27.0041,15.5908,27.0041,15.5908l1.4915-49.7032S15.0077,157.3789,5.364,157.1177Z" fill="#032747" fill-rule="evenodd"/><path d="M31.7536,222.8759c-3.7127.9193-5.7747-42.3306-4.2348-46.3026s7.1221-5.9023,8.0845.6265S41.5705,220.445,31.7536,222.8759Z" fill="#084478" fill-rule="evenodd"/><path d="M182.6994,245.94l-8.1873-.7376s-5.2369,1.4752-8.3349,1.9177-5.3107-.0737-6.0483,1.0326a1.2418,1.2418,0,0,0-.1736.7559h0v.0054c.0005.01,0,.0193,0,.0294-.15,1.6277,1.2857,3.1564,2.0912,3.7457,1.6019,1.1717,3.3561,1.8809,8.1505,1.459,1.2539-.4956,3.491-.8263,4.3149.4219,1.2539.59,6.0483,1.2539,8.1873,0v-1.0707C183.9534,252.2091,182.6994,245.94,182.6994,245.94Z" fill="#279cd6" fill-rule="evenodd"/><path d="M186.2929,170.5622c2.7,13.9429-6.9636,29.19-6.18,40.446,1.0737,15.4268,1.6673,22.1664,3.2613,34.73,0,0-6.2671,3.7153-10.8824-.5359-4.7245-24.6117-6.8113-29.0234-6.1569-74.0567Z" fill="#032747" fill-rule="evenodd"/><path d="M148.1837,106.4444c-2.7695,3.2279-.443,16.4919,3.4432,19.7071s7.0983,2.075,10.4686-.79,5.3414-9.996,4.5345-15.3737C165.5317,102.6663,156.0786,97.2427,148.1837,106.4444Z" fill="#ffc8af" fill-rule="evenodd"/><path d="M147.2256,107.7942a8.0151,8.0151,0,0,0-.2536,3.7972,15.7539,15.7539,0,0,0,1.5975,4.728c.4411,1.08.289,1.8692.7537,2.2935s.3911-3.0518,1.48-3.9272,2.6651,2.9044.4723,5.2217c-.319,2.3011,2.6441,6.1744,3.736,6.814s5.637-.0558,8.4378-2.8328,3.4126-7.2235,4.0808-12.9866-3.6363-7.6608-3.6363-7.6608c-.0691-3.6934-12.3383-2.6705-16.7213-.7333C144.5105,103.8433,147.2256,107.7942,147.2256,107.7942Z" fill-rule="evenodd"/><path d="M130.38,178.2546s-.7582.26-2.5445,1.0089a18.6109,18.6109,0,0,1-8.0347.6188c-2.3978-.3819-5.7057-.9188-5.0695-1.7954s12.7225-3.9,13.2314-3.6605S130.38,178.2546,130.38,178.2546Z" fill="#ffc8af" fill-rule="evenodd"/><path d="M167.0263,253.3635l-8.1874-.7376s-5.2369,1.4751-8.3347,1.9178-5.3107-.0738-6.0484,1.0326a1.2415,1.2415,0,0,0-.1737.7558h0v.0054c.0006.01,0,.0192,0,.0292-.15,1.6279,1.2857,3.1565,2.0913,3.7459,1.6019,1.1717,3.356,1.8807,8.15,1.4589,1.2538-.4955,3.4909-.8263,4.3148.4218,1.254.59,6.0484,1.254,8.1874,0v-1.0706C168.28,259.633,167.0263,253.3635,167.0263,253.3635Z" fill="#279cd6" fill-rule="evenodd"/><path d="M180.0845,174.0821c.8951,14.2164-10.7431,29.7626-11.4171,41.24-.9237,15.73-.9521,26.8533-.9848,39.663,0,0-10.4633,4.955-10.9326-2.7033-1.5377-25.0946-3.1845-31.6879,3.3009-77.6051Z" fill="#05345e" fill-rule="evenodd"/><path d="M152.693,128.4916c5.8448-2.9125,15.31-10.8982,23.046-.4576,7.2535,9.789,10.2351,39.2076,11.0633,45.069,1.1214,7.9363-20.9941,12.1861-25.919,11.9715a2.0657,2.0657,0,0,1-2.11-1.66c-.4134-1.4475.765-2.4857.4455-3.8206a5.5931,5.5931,0,0,0-1.1594-2.0183,4.6689,4.6689,0,0,1-1.0691-2.0618c-.19-1.2622.6006-2.4461.744-3.7127a7.4665,7.4665,0,0,0-.3779-2.74c-2.0021-7.4712-5.4888-14.3893-7.43-21.91-1.3132-5.0872-3.1911-13.1745.9936-17.3865A4.7163,4.7163,0,0,1,152.693,128.4916Z" fill="#027cb2" fill-rule="evenodd"/><path d="M149.1108,132.4316c-4.6854,14.8334-5.1172,22.1872-9.6974,28.0493-.3395.4347-12.9878,13.99-12.9878,13.99a8.904,8.904,0,0,0,6.12,3.8689c7.0652-3.0215,15.0548-14.1321,17.204-16.5207,1.2365-1.3744,8.2152-14.1662,9.2628-20.6689S151.0664,126.5679,149.1108,132.4316Z" fill="#05a3dd" fill-rule="evenodd"/><path d="M156.4661,95.3053l-13.1218-7.576L121.17,100.5317l-1.7089.253v.4447a.4747.4747,0,0,0,.242.4287l13.3731,7.721a1.7618,1.7618,0,0,0,1.5852-.0659l22.1842-12.808c.2861-.1651.4145-.3816.3806-.5789v-.7336Z" fill="#3c3c6d" fill-rule="evenodd"/><path d="M156.8455,95.7718,134.6614,108.58a1.7621,1.7621,0,0,1-1.5852.0657l-13.6151-7.8607,23.8832-13.789,13.6151,7.8607C157.3656,95.0911,157.3147,95.5008,156.8455,95.7718Z" fill="#56548c" fill-rule="evenodd"/><path d="M156.8455,95.7718,134.6614,108.58a1.7621,1.7621,0,0,1-1.5852.0657l-13.6151-7.8607,23.8832-13.789,13.6151,7.8607C157.3656,95.0911,157.3147,95.5008,156.8455,95.7718Z" fill="#c2c2c0" fill-rule="evenodd"/><polygon points="155.626 95.583 134.022 108.056 127.577 104.335 149.181 91.862 155.626 95.583" fill="#484d4b" fill-rule="evenodd"/><path d="M140.2113,95.1088l-5.1473,2.9717a1.0963,1.0963,0,0,1-.9865.0409l-2.468-1.4249c-.253-.146-.2213-.401.0707-.57l5.1473-2.9718a1.0966,1.0966,0,0,1,.9865-.0409l2.4681,1.425C140.5349,94.6852,140.5033,94.94,140.2113,95.1088Z" fill="#484d4b" fill-rule="evenodd"/><path d="M101.4394,69.6592c5.9239,2.9088,6.4789,20.3313,11.0076,24.6752,2.5673,2.4624,12.8414.4968,16.346.5655,1.3737,3.0846-.4881,6.8182-.4881,6.8182-19.5743.9575-21.9276,1.5608-26.9021-7.95C97.5186,86.341,93.5181,67.6788,101.4394,69.6592Z" fill="#d31654" fill-rule="evenodd"/><path d="M140.7726,89.9506c-5.2229-2.6115-6.3559-4.6726-8.9242-6.9171-4.5323-3.9712-6.3236-19.8341-10.1221-21.82-2.4712-.5611-3.7769.6043-4.2841,2.6762a8.9641,8.9641,0,0,0-.2158,1.3921,26.1042,26.1042,0,0,0,1.5431,9.3343,31.2728,31.2728,0,0,0,3.3561,7.2948,46.2261,46.2261,0,0,0,3,4.1978c2.5683,3.097,5.9135,5.6221,13.2947,8.417C138.42,94.526,142.1431,92.7671,140.7726,89.9506Z" fill="#d31654" fill-rule="evenodd"/><path d="M138.6345,93.9478a19.3924,19.3924,0,0,0,2.0488,2.4857c.9032,1.0289,2.3436,2.7948,2.79,2.3577s-.4116-2.1858-.4116-2.1858A30.169,30.169,0,0,1,146.2166,100c.48.8574.2057-1.6119-.48-2.7438,1.7148,2.6066,2.1228,3.19,2.2618,2.538s-1.2834-4.1842-1.0867-3.8412c1.98,2.9838,2.7347,3.3954,2.5289,2.0235s-2.1264-3.7041-3.2925-4.3557c3.43,2.2292,3.67,1.9892,2.8123.9946a14.8245,14.8245,0,0,0-8.277-4.0128C137.9853,93.141,138.6345,93.9478,138.6345,93.9478Z" fill="#d31654" fill-rule="evenodd"/><path d="M140.9184,99.4274c-1.113-1.7216-2.7179-3.69-4.7718-4.2544a7.759,7.759,0,0,0-4.3674.3648,36.8358,36.8358,0,0,0-3.8473,1.0251,9.7064,9.7064,0,0,0-.7882,3.6519,3.5018,3.5018,0,0,0,.7567.1678,26.44,26.44,0,0,0,3.5991.5262,14.0818,14.0818,0,0,0,2.8061.0123c-.2993.0864-.6522.2311-.697.54a.5548.5548,0,0,0,.4394.5618c1.749.4583,3.29-1.6736,4.3668-2.664C138.3064,99.4581,142.36,101.6574,140.9184,99.4274Z" fill="#ffc8af" fill-rule="evenodd"/><path d="M122.5111,43.82q.0363.0537.07.1087a6.8781,6.8781,0,0,1,.7316,4.08c-.1666,2.5514-1.88,5.6758-.6695,8.14.5148,1.0478,1.5678,1.8023,1.8938,2.9231.4477,1.5392-.6745,3.1308-2.02,4.0014a6.7531,6.7531,0,0,1-5.7357.8214,5.4486,5.4486,0,0,1-3.6591-4.349c-.2844-2.409,1.2219-4.6167,2.562-6.6386.7613-1.1487,1.8343-2.6912,1.9233-4.1158.0829-1.3252-.625-2.4808-.3576-3.902a3.1717,3.1717,0,0,1,1.7379-2.4016A3.0691,3.0691,0,0,1,122.5111,43.82Z" fill="#290f01" fill-rule="evenodd"/><path d="M108.2687,55.0348s1.57,5.4565-2.0272,7.7393c-.1083,1.3246,3.6621,6.9677,7.4514,6.0062,2.207-.56,3.3363-3.7138,3.3363-3.7138a61.0958,61.0958,0,0,0-1.3437-6.1143Z" fill="#ffc8af" fill-rule="evenodd"/><path d="M121.038,43.9544a18.1635,18.1635,0,0,1,.61,6.14c-.3684,2.6853-.6114,8.0335-2.9908,9.7451s-5.79-.2754-8.0489-2.1929a13.4206,13.4206,0,0,1-4.7068-9.7345c-.0535-4.2788,1.62-9.52,7.79-9.253S121.038,43.9544,121.038,43.9544Z" fill="#ffc8af" fill-rule="evenodd"/><path d="M116.7193,41.34c1.5969,1.9541.84,4.35-1.1338,5.7915-.9437.6892-2.0565,1.12-2.9955,1.816a3.329,3.329,0,0,0-1.5565,2.9507c.1532,1.0532,1.0675,2.0017.8157,3.0358-.2074.8508-1.1481,1.3837-1.3168,2.243-.17.8689.5,1.6449.92,2.4243a4.7009,4.7009,0,0,1,.0885,4.2165c-1.4444,2.9693-5.1176,2.7743-7.7249,1.5332a6.5828,6.5828,0,0,1-3.7956-7.4709c.4408-1.6047,1.5039-2.9712,2.0447-4.545.6883-2.0032.4862-4.1849.6239-6.2986.2617-4.0149,3.2682-8.5049,7.4841-9.1195C112.9346,37.5142,115.0481,39.2947,116.7193,41.34Z" fill="#290f01" fill-rule="evenodd"/><path d="M118.8242,38.9471l-.0387-.0263c-1.2035-.81-6.0962-2.3276-6.1187.1687-.0225,2.4936,3.6418,4.9927,5.5762,6.1022a20.6657,20.6657,0,0,1,2.5107,1.4743c1.0082.7853,1.0941,2.2794,1.984,2.9576,1.3563-1.3032,1.01-4.5177.466-6.1221C122.4833,41.3772,120.6122,40.1645,118.8242,38.9471Z" fill="#290f01" fill-rule="evenodd"/><path d="M156.8455,95.7718,134.6614,108.58,142.52,92.1006a3.7247,3.7247,0,0,1,1.2033-1.3771l20.8627-12.0452c.4063-.2346.5263.0016.2681.5277Z" fill="#9fa3bd" fill-rule="evenodd"/><line x1="61.6532" y1="245.3875" x2="61.6532" y2="245.3288" fill="none"/><path d="M47.0094,143.7551v-1.2635a14.433,14.433,0,0,0-6.5677-2.1533c-3.3565-.0634-4.94.7117-5.0663,1.1158a13.2,13.2,0,0,0-.2534,1.55Z" fill="#9fa3bd" fill-rule="evenodd"/><path d="M116.0748,60.4631a14.9187,14.9187,0,0,0-.1759,2.6131c.1266.38.8822.8181.8822.8181h1.4927Z" fill="#290f01" fill-rule="evenodd"/><path d="M125.8917,74.7675a16.3208,16.3208,0,0,0-1.203-6.1908c.0266.35.0509.7069.0647,1.09a94.46,94.46,0,0,1-1.1722,14.4024c.5.7119,1.0055,1.3908,1.5443,2.04A77.0839,77.0839,0,0,0,125.8917,74.7675Z" fill="#bc1753" fill-rule="evenodd"/><path d="M73.0561,93.1712c-.0085,4.5784-1.47,12.009-2.67,17.5326a19.0422,19.0422,0,0,0,1.4426,1.9345c1.0975-5.3413,2.1745-11.5494,2.039-15.3189A12.1349,12.1349,0,0,0,73.0561,93.1712Z" fill="#9fa3bd" fill-rule="evenodd"/></svg>